<?xml version="1.0" encoding="UTF-8"?><svg id="Bunyavirus0001" xmlns="http://www.w3.org/2000/svg" viewBox="0 0 223.77 225.51"><defs><style>.cls-1{fill:#3c4341;}.cls-2{fill:#a1aebe;}.cls-3{fill:#c5d6e8;}.cls-3,.cls-4,.cls-5,.cls-6{stroke:#3c4341;}.cls-3,.cls-4,.cls-5,.cls-6,.cls-7{stroke-miterlimit:10;}.cls-3,.cls-6{stroke-width:.9px;}.cls-4{fill:#e0eee8;stroke-width:.32px;}.cls-8{fill:#5b626b;}.cls-5{fill:#fff;stroke-width:1.45px;}.cls-6{fill:#eaf1fa;}.cls-7{fill:#e6e8da;stroke:#4b4d3c;stroke-width:.3px;}</style></defs><path class="cls-2" d="M176.1,104.94c.08.83-1.12,1.66-2.86,2.07,1.79.09,3.12.67,3.2,1.5.1,1.04-1.82,2.08-4.29,2.31-2.47.23-4.55-.43-4.64-1.47-.08-.83,1.12-1.66,2.86-2.07-1.79-.09-3.12-.67-3.2-1.5-.1-1.04,1.82-2.08,4.29-2.31,2.47-.23,4.55.43,4.64,1.47Z"/><path class="cls-2" d="M171.15,98.97c2.19.43,3.92,1.32,4.3,2.13,1.82.58,3,1.42,2.9,2.21-.07.58-.82,1.02-1.96,1.25,2.1.19,3.6.83,3.68,1.73.08.88-1.21,1.78-3.18,2.35,1.1.04,1.87.32,2.04.86.24.75-.75,1.8-2.41,2.7-.1.87-1.68,2.14-3.85,3.01-2.45.98-4.71,1.08-5.06.23-.17-.43.17-1.02.86-1.62-.44-.14-.73-.37-.83-.67-.35-1.09,1.89-2.79,5-3.8.1-.03.2-.06.3-.09-3.08.12-5.51-.61-5.62-1.77-.11-1.17,2.22-2.37,5.33-2.81-.15-.01-.3-.03-.45-.05-3.25-.41-5.76-1.66-5.62-2.8.04-.3.26-.56.61-.77-.73-.45-1.14-.94-1.06-1.38.18-.91,2.42-1.23,5.01-.72Z"/><path class="cls-2" d="M47.67,120.57c-.08-.83,1.12-1.66,2.86-2.07-1.79-.09-3.12-.67-3.2-1.5-.1-1.04,1.82-2.08,4.29-2.31,2.47-.23,4.55.43,4.64,1.47.08.83-1.12,1.66-2.86,2.07,1.79.09,3.12.67,3.2,1.5.1,1.04-1.82,2.08-4.29,2.31s-4.55-.43-4.64-1.47Z"/><path class="cls-2" d="M52.62,126.54c-2.19-.43-3.92-1.32-4.3-2.13-1.82-.58-3-1.42-2.9-2.21.07-.58.82-1.02,1.96-1.25-2.1-.19-3.6-.83-3.68-1.73-.08-.88,1.21-1.78,3.18-2.35-1.1-.04-1.87-.32-2.04-.86-.24-.75.75-1.8,2.41-2.7.1-.87,1.68-2.14,3.85-3.01,2.45-.98,4.71-1.08,5.06-.23.17.43-.17,1.02-.86,1.62.44.14.73.37.83.67.35,1.09-1.89,2.79-5,3.8-.1.03-.2.06-.3.09,3.08-.12,5.51.61,5.62,1.77.11,1.17-2.22,2.37-5.33,2.81.15.01.3.03.45.05,3.25.41,5.76,1.66,5.62,2.8-.04.3-.26.56-.61.77.73.45,1.14.94,1.06,1.38-.18.91-2.42,1.23-5.01.72Z"/><path class="cls-2" d="M104.07,48.54c.83-.08,1.66,1.12,2.07,2.86.09-1.79.67-3.12,1.5-3.2,1.04-.1,2.08,1.82,2.31,4.29.23,2.47-.43,4.55-1.47,4.64-.83.08-1.66-1.12-2.07-2.86-.09,1.79-.67,3.12-1.5,3.2-1.04.1-2.08-1.82-2.31-4.29-.23-2.47.43-4.55,1.47-4.64Z"/><path class="cls-2" d="M98.1,53.49c.43-2.19,1.32-3.92,2.13-4.3.58-1.82,1.42-3,2.21-2.9.58.07,1.02.82,1.25,1.96.19-2.1.83-3.6,1.73-3.68.88-.08,1.78,1.21,2.35,3.18.04-1.1.32-1.87.86-2.04.75-.24,1.8.75,2.7,2.41.87.1,2.14,1.68,3.01,3.85.98,2.45,1.08,4.71.23,5.06-.43.17-1.02-.17-1.62-.86-.14.44-.37.73-.67.83-1.09.35-2.79-1.89-3.8-5-.03-.1-.06-.2-.09-.3.12,3.08-.61,5.51-1.77,5.62-1.17.11-2.37-2.22-2.81-5.33-.01.15-.03.3-.05.45-.41,3.25-1.66,5.76-2.8,5.62-.3-.04-.56-.26-.77-.61-.45.73-.94,1.14-1.38,1.06-.91-.18-1.23-2.42-.72-5.01Z"/><path class="cls-2" d="M119.7,176.97c-.83.08-1.66-1.12-2.07-2.86-.09,1.79-.67,3.12-1.5,3.2-1.04.1-2.08-1.82-2.31-4.29-.23-2.47.43-4.55,1.47-4.64.83-.08,1.66,1.12,2.07,2.86.09-1.79.67-3.12,1.5-3.2,1.04-.1,2.08,1.82,2.31,4.29.23,2.47-.43,4.55-1.47,4.64Z"/><path class="cls-2" d="M125.67,172.02c-.43,2.19-1.32,3.92-2.13,4.3-.58,1.82-1.42,3-2.21,2.9-.58-.07-1.02-.82-1.25-1.96-.19,2.1-.83,3.6-1.73,3.68-.88.08-1.78-1.21-2.35-3.18-.04,1.1-.32,1.87-.86,2.04-.75.24-1.8-.75-2.7-2.41-.87-.1-2.14-1.68-3.01-3.85-.98-2.45-1.08-4.71-.23-5.06.43-.17,1.02.17,1.62.86.14-.44.37-.73.67-.83,1.09-.35,2.79,1.89,3.8,5,.03.1.06.2.09.3-.12-3.08.61-5.51,1.77-5.62,1.17-.11,2.37,2.22,2.81,5.33.01-.15.03-.3.05-.45.41-3.25,1.66-5.76,2.8-5.62.3.04.56.26.77.61.45-.73.94-1.14,1.38-1.06.91.18,1.23,2.42.72,5.01Z"/><path class="cls-2" d="M60.95,72.87c.53-.64,1.97-.38,3.49.56-1.2-1.32-1.73-2.68-1.2-3.33.67-.81,2.76-.18,4.67,1.4,1.91,1.58,2.91,3.52,2.25,4.32-.53.64-1.97.38-3.49-.56,1.2,1.32,1.73,2.68,1.2,3.33-.67.81-2.76.18-4.67-1.4-1.91-1.58-2.91-3.52-2.25-4.32Z"/><path class="cls-2" d="M60.23,80.6c-1.25-1.85-1.84-3.71-1.53-4.54-.88-1.7-1.12-3.13-.49-3.62.46-.36,1.3-.14,2.27.5-1.36-1.62-1.96-3.13-1.38-3.83.56-.68,2.11-.4,3.91.58-.75-.81-1.09-1.55-.84-2.05.36-.7,1.8-.74,3.61-.21.69-.55,2.7-.33,4.85.59,2.43,1.04,4.1,2.56,3.74,3.41-.18.43-.84.6-1.76.54.21.41.26.78.11,1.06-.52,1.02-3.31.64-6.22-.85-.09-.05-.18-.1-.27-.15,2.26,2.09,3.47,4.33,2.72,5.23-.75.91-3.24.11-5.76-1.78.09.12.19.23.28.35,2.01,2.58,2.9,5.25,2,5.95-.24.18-.57.21-.98.11.2.84.14,1.47-.22,1.72-.77.52-2.58-.84-4.05-3.03Z"/><path class="cls-2" d="M162.82,152.64c-.53.64-1.97.38-3.49-.56,1.2,1.32,1.73,2.68,1.2,3.33-.67.81-2.76.18-4.67-1.4-1.91-1.58-2.91-3.52-2.25-4.32.53-.64,1.97-.38,3.49.56-1.2-1.32-1.73-2.68-1.2-3.33.67-.81,2.76-.18,4.67,1.4,1.91,1.58,2.91,3.52,2.25,4.32Z"/><path class="cls-2" d="M163.54,144.92c1.25,1.85,1.84,3.71,1.53,4.54.88,1.7,1.12,3.13.49,3.62-.46.36-1.3.14-2.27-.5,1.36,1.62,1.96,3.13,1.38,3.83-.56.68-2.11.4-3.91-.58.75.81,1.09,1.55.84,2.05-.36.7-1.8.74-3.61.21-.69.55-2.7.33-4.85-.59-2.43-1.04-4.1-2.56-3.74-3.41.18-.43.84-.6,1.76-.54-.21-.41-.26-.78-.11-1.06.52-1.02,3.31-.64,6.22.85.09.05.18.1.27.15-2.26-2.09-3.47-4.33-2.72-5.23.75-.91,3.24-.11,5.76,1.78-.09-.12-.19-.23-.28-.35-2.01-2.58-2.9-5.25-2-5.95.24-.18.57-.21.98-.11-.2-.84-.14-1.47.22-1.72.77-.52,2.58.84,4.05,3.03Z"/><path class="cls-2" d="M72,163.69c-.64-.53-.38-1.97.56-3.49-1.32,1.2-2.68,1.73-3.33,1.2-.81-.67-.18-2.76,1.4-4.67,1.58-1.91,3.52-2.91,4.32-2.25.64.53.38,1.97-.56,3.49,1.32-1.2,2.68-1.73,3.33-1.2.81.67.18,2.76-1.4,4.67-1.58,1.91-3.52,2.91-4.32,2.25Z"/><path class="cls-2" d="M79.73,164.41c-1.85,1.25-3.71,1.84-4.54,1.53-1.7.88-3.13,1.12-3.62.49-.36-.46-.14-1.3.5-2.27-1.62,1.36-3.13,1.96-3.83,1.38-.68-.56-.4-2.11.58-3.91-.81.75-1.55,1.09-2.05.84-.7-.36-.74-1.8-.21-3.61-.55-.69-.33-2.7.59-4.85,1.04-2.43,2.56-4.1,3.41-3.74.43.18.6.84.54,1.76.41-.21.78-.26,1.06-.11,1.02.52.64,3.31-.85,6.22-.05.09-.1.18-.15.27,2.09-2.26,4.33-3.47,5.23-2.72.91.75.11,3.24-1.78,5.76.12-.09.23-.19.35-.28,2.58-2.01,5.25-2.9,5.95-2,.18.24.21.57.11.98.84-.2,1.47-.14,1.72.22.52.77-.84,2.58-3.03,4.05Z"/><path class="cls-2" d="M151.77,61.82c.64.53.38,1.97-.56,3.49,1.32-1.2,2.68-1.73,3.33-1.2.81.67.18,2.76-1.4,4.67s-3.52,2.91-4.32,2.25c-.64-.53-.38-1.97.56-3.49-1.32,1.2-2.68,1.73-3.33,1.2-.81-.67-.18-2.76,1.4-4.67,1.58-1.91,3.52-2.91,4.32-2.25Z"/><path class="cls-2" d="M144.05,61.1c1.85-1.25,3.71-1.84,4.54-1.53,1.7-.88,3.13-1.12,3.62-.49.36.46.14,1.3-.5,2.27,1.62-1.36,3.13-1.96,3.83-1.38.68.56.4,2.11-.58,3.91.81-.75,1.55-1.09,2.05-.84.7.36.74,1.8.21,3.61.55.69.33,2.7-.59,4.85-1.04,2.43-2.56,4.1-3.41,3.74-.43-.18-.6-.84-.54-1.76-.41.21-.78.26-1.06.11-1.02-.52-.64-3.31.85-6.22.05-.09.1-.18.15-.27-2.09,2.26-4.33,3.47-5.23,2.72s-.11-3.24,1.78-5.76c-.12.09-.23.19-.35.28-2.58,2.01-5.25,2.9-5.95,2-.18-.24-.21-.57-.11-.98-.84.2-1.47.14-1.72-.22-.52-.77.84-2.58,3.03-4.05Z"/><path class="cls-2" d="M129.09,50.4c.8.24,1.1,1.67.83,3.44.76-1.62,1.81-2.63,2.61-2.39,1,.31,1.23,2.48.51,4.85-.72,2.37-2.12,4.04-3.13,3.74-.8-.24-1.1-1.67-.83-3.44-.76,1.62-1.81,2.63-2.61,2.39-1-.31-1.23-2.48-.51-4.85.72-2.37,2.12-4.04,3.13-3.74Z"/><path class="cls-2" d="M121.68,52.7c1.23-1.86,2.71-3.13,3.6-3.16,1.23-1.46,2.46-2.24,3.15-1.84.51.29.63,1.15.41,2.29.97-1.88,2.14-3.01,3-2.75.85.26,1.18,1.79.97,3.83.45-1.01,1.01-1.61,1.57-1.56.79.06,1.38,1.37,1.58,3.25.77.42,1.34,2.37,1.32,4.7-.02,2.64-.79,4.77-1.71,4.76-.46,0-.88-.54-1.17-1.41-.3.35-.62.54-.94.51-1.14-.09-1.86-2.81-1.61-6.07,0-.1.02-.21.03-.31-1.06,2.89-2.67,4.87-3.78,4.53-1.13-.34-1.35-2.95-.57-6-.07.13-.14.26-.21.4-1.61,2.85-3.73,4.7-4.73,4.14-.26-.15-.42-.45-.48-.86-.69.51-1.31.7-1.68.46-.77-.51-.22-2.71,1.24-4.91Z"/><path class="cls-2" d="M94.68,175.12c-.8-.24-1.1-1.67-.83-3.44-.76,1.62-1.81,2.63-2.61,2.39-1-.31-1.23-2.48-.51-4.85.72-2.37,2.12-4.04,3.13-3.74.8.24,1.1,1.67.83,3.44.76-1.62,1.81-2.63,2.61-2.39,1,.31,1.23,2.48.51,4.85-.72,2.37-2.12,4.04-3.13,3.74Z"/><path class="cls-2" d="M102.09,172.81c-1.23,1.86-2.71,3.13-3.6,3.16-1.23,1.46-2.46,2.24-3.15,1.84-.51-.29-.63-1.15-.41-2.29-.97,1.88-2.14,3.01-3,2.75-.85-.26-1.18-1.79-.97-3.83-.45,1.01-1.01,1.61-1.57,1.56-.79-.06-1.38-1.37-1.58-3.25-.77-.42-1.34-2.37-1.32-4.7.02-2.64.79-4.77,1.71-4.76.46,0,.88.54,1.17,1.41.3-.35.62-.54.94-.51,1.14.09,1.86,2.81,1.61,6.07,0,.1-.02.21-.03.31,1.06-2.89,2.67-4.87,3.78-4.53s1.35,2.95.57,6c.07-.13.14-.26.21-.4,1.61-2.85,3.73-4.7,4.73-4.14.26.15.42.45.48.86.69-.51,1.31-.7,1.68-.46.77.51.22,2.71-1.24,4.91Z"/><path class="cls-2" d="M79.96,56.5c.74-.39,1.96.4,3.02,1.84-.61-1.68-.58-3.14.16-3.53.93-.49,2.62.88,3.78,3.07,1.16,2.19,1.36,4.36.43,4.85-.74.39-1.96-.4-3.02-1.84.61,1.68.58,3.14-.16,3.53-.93.49-2.62-.88-3.78-3.07-1.16-2.19-1.36-4.36-.43-4.85Z"/><path class="cls-2" d="M76.35,63.36c-.45-2.19-.29-4.13.31-4.78-.17-1.9.16-3.32.93-3.53.56-.16,1.25.37,1.91,1.33-.64-2.01-.62-3.64.18-4.07.78-.42,2.11.43,3.4,2.03-.39-1.03-.42-1.85,0-2.22.6-.51,1.94,0,3.42,1.18.84-.25,2.62.72,4.26,2.39,1.85,1.88,2.81,3.93,2.16,4.58-.33.32-1,.24-1.83-.17.04.46-.06.82-.3,1.03-.87.75-3.3-.67-5.43-3.15-.07-.08-.13-.16-.2-.24,1.3,2.79,1.56,5.33.53,5.87s-3.04-1.13-4.65-3.84c.04.14.09.29.13.43.87,3.15.69,5.96-.42,6.27-.29.08-.61-.02-.95-.27-.13.85-.43,1.42-.86,1.51-.91.18-2.07-1.76-2.59-4.35Z"/><path class="cls-2" d="M143.82,169.02c-.74.39-1.96-.4-3.02-1.84.61,1.68.58,3.14-.16,3.53-.93.49-2.62-.88-3.78-3.07-1.16-2.19-1.36-4.36-.43-4.85.74-.39,1.96.4,3.02,1.84-.61-1.68-.58-3.14.16-3.53.93-.49,2.62.88,3.78,3.07s1.36,4.36.43,4.85Z"/><path class="cls-2" d="M147.42,162.15c.45,2.19.29,4.13-.31,4.78.17,1.9-.16,3.32-.93,3.53-.56.16-1.25-.37-1.91-1.33.64,2.01.62,3.64-.18,4.07-.78.42-2.11-.43-3.4-2.03.39,1.03.42,1.85,0,2.22-.6.51-1.94,0-3.42-1.18-.84.25-2.62-.72-4.26-2.39-1.85-1.88-2.81-3.93-2.16-4.58.33-.32,1-.24,1.83.17-.04-.46.06-.82.3-1.03.87-.75,3.3.67,5.43,3.15.07.08.13.16.2.24-1.3-2.79-1.56-5.33-.53-5.87s3.04,1.13,4.65,3.84c-.04-.14-.09-.29-.13-.43-.87-3.15-.69-5.96.42-6.27.29-.08.61.02.95.27.13-.85.43-1.42.86-1.51.91-.18,2.07,1.76,2.59,4.35Z"/><path class="cls-2" d="M49.53,95.55c.24-.8,1.67-1.1,3.44-.83-1.62-.76-2.63-1.81-2.39-2.61.31-1,2.48-1.23,4.85-.51s4.04,2.12,3.74,3.13c-.24.8-1.67,1.1-3.44.83,1.62.76,2.63,1.81,2.39,2.61-.31,1-2.48,1.23-4.85.51-2.37-.72-4.04-2.12-3.74-3.13Z"/><path class="cls-2" d="M51.83,102.96c-1.86-1.23-3.13-2.71-3.16-3.6-1.46-1.23-2.24-2.46-1.84-3.15.29-.51,1.15-.63,2.29-.41-1.88-.97-3.01-2.14-2.75-3,.26-.85,1.79-1.18,3.83-.97-1.01-.45-1.61-1.01-1.56-1.57.06-.79,1.37-1.38,3.25-1.58.42-.77,2.37-1.34,4.7-1.32,2.64.02,4.77.79,4.76,1.71,0,.46-.54.88-1.41,1.17.35.3.54.62.51.94-.09,1.14-2.81,1.86-6.07,1.61-.1,0-.21-.02-.31-.03,2.89,1.06,4.87,2.67,4.53,3.78-.34,1.13-2.95,1.35-6,.57.13.07.26.14.4.21,2.85,1.61,4.7,3.73,4.14,4.73-.15.26-.45.42-.86.48.51.69.7,1.31.46,1.68-.51.77-2.71.22-4.91-1.24Z"/><path class="cls-2" d="M174.25,129.96c-.24.8-1.67,1.1-3.44.83,1.62.76,2.63,1.81,2.39,2.61-.31,1-2.48,1.23-4.85.51s-4.04-2.12-3.74-3.13c.24-.8,1.67-1.1,3.44-.83-1.62-.76-2.63-1.81-2.39-2.61.31-1,2.48-1.23,4.85-.51,2.37.72,4.04,2.12,3.74,3.13Z"/><path class="cls-2" d="M171.94,122.55c1.86,1.23,3.13,2.71,3.16,3.6,1.46,1.23,2.24,2.46,1.84,3.15-.29.51-1.15.63-2.29.41,1.88.97,3.01,2.14,2.75,3-.26.85-1.79,1.18-3.83.97,1.01.45,1.61,1.01,1.56,1.57-.06.79-1.37,1.38-3.25,1.58-.42.77-2.37,1.34-4.7,1.32-2.64-.02-4.77-.79-4.76-1.71,0-.46.54-.88,1.41-1.17-.35-.3-.54-.62-.51-.94.09-1.14,2.81-1.86,6.07-1.61.1,0,.21.02.31.03-2.89-1.06-4.87-2.67-4.53-3.78.34-1.13,2.95-1.35,6-.57-.13-.07-.26-.14-.4-.21-2.85-1.61-4.7-3.73-4.14-4.73.15-.26.45-.42.86-.48-.51-.69-.7-1.31-.46-1.68.51-.77,2.71-.22,4.91,1.24Z"/><path class="cls-2" d="M55.63,144.69c-.39-.74.4-1.96,1.84-3.02-1.68.61-3.14.58-3.53-.16-.49-.93.88-2.62,3.07-3.78,2.19-1.16,4.36-1.36,4.85-.43.39.74-.4,1.96-1.84,3.02,1.68-.61,3.14-.58,3.53.16.49.93-.88,2.62-3.07,3.78s-4.36,1.36-4.85.43Z"/><path class="cls-2" d="M62.49,148.29c-2.19.45-4.13.29-4.78-.31-1.9.17-3.32-.16-3.53-.93-.16-.56.37-1.25,1.33-1.91-2.01.64-3.64.62-4.07-.18-.42-.78.43-2.11,2.03-3.4-1.03.39-1.85.42-2.22,0-.51-.6,0-1.94,1.18-3.42-.25-.84.72-2.62,2.39-4.26,1.88-1.85,3.93-2.81,4.58-2.16.32.33.24,1-.17,1.83.46-.04.82.06,1.03.3.75.87-.67,3.3-3.15,5.43-.08.07-.16.13-.24.2,2.79-1.3,5.33-1.56,5.87-.53.55,1.04-1.13,3.04-3.84,4.65.14-.04.29-.09.43-.13,3.15-.87,5.96-.69,6.27.42.08.29-.02.61-.27.95.85.13,1.42.43,1.51.86.18.91-1.76,2.07-4.35,2.59Z"/><path class="cls-2" d="M168.15,80.83c.39.74-.4,1.96-1.84,3.02,1.68-.61,3.14-.58,3.53.16.49.93-.88,2.62-3.07,3.78-2.19,1.16-4.36,1.36-4.85.43-.39-.74.4-1.96,1.84-3.02-1.68.61-3.14.58-3.53-.16-.49-.93.88-2.62,3.07-3.78,2.19-1.16,4.36-1.36,4.85-.43Z"/><path class="cls-2" d="M161.28,77.22c2.19-.45,4.13-.29,4.78.31,1.9-.17,3.32.16,3.53.93.16.56-.37,1.25-1.33,1.91,2.01-.64,3.64-.62,4.07.18.42.78-.43,2.11-2.03,3.4,1.03-.39,1.85-.42,2.22,0,.51.6,0,1.94-1.18,3.42.25.84-.72,2.62-2.39,4.26-1.88,1.85-3.93,2.81-4.58,2.16-.32-.33-.24-1,.17-1.83-.46.04-.82-.06-1.03-.3-.75-.87.67-3.3,3.15-5.43.08-.07.16-.13.24-.2-2.79,1.3-5.33,1.56-5.87.53-.55-1.04,1.13-3.04,3.84-4.65-.14.04-.29.09-.43.13-3.15.87-5.96.69-6.27-.42-.08-.29.02-.61.27-.95-.85-.13-1.42-.43-1.51-.86-.18-.91,1.76-2.07,4.35-2.59Z"/><path class="cls-8" d="M183.08,117.27c-.08.92-1.55,1.57-3.52,1.67,1.92.46,3.25,1.36,3.17,2.28-.1,1.15-2.4,1.89-5.12,1.64-2.72-.25-4.84-1.38-4.74-2.53.08-.92,1.55-1.57,3.52-1.67-1.92-.46-3.25-1.36-3.17-2.28.1-1.15,2.4-1.89,5.12-1.64,2.72.25,4.84,1.38,4.74,2.53Z"/><path class="cls-6" d="M178.93,109.8c2.29.91,3.99,2.22,4.23,3.18,1.85,1,2.97,2.15,2.7,2.99-.2.61-1.1.93-2.38.96,2.24.63,3.73,1.63,3.64,2.62-.09.97-1.67,1.68-3.92,1.91,1.19.26,1.96.73,2.04,1.35.11.87-1.17,1.8-3.15,2.44-.28.93-2.25,1.98-4.78,2.49-2.85.57-5.33.22-5.53-.78-.1-.5.39-1.07,1.26-1.58-.44-.24-.72-.55-.77-.9-.16-1.25,2.61-2.65,6.19-3.11.11-.01.23-.03.34-.04-3.36-.49-5.85-1.78-5.74-3.06.12-1.3,2.88-2.12,6.35-1.97-.16-.05-.32-.09-.48-.14-3.44-1.1-5.91-2.97-5.53-4.17.1-.31.39-.55.82-.71-.7-.64-1.05-1.25-.87-1.71.38-.95,2.87-.84,5.58.23Z"/><path class="cls-8" d="M40.69,108.24c.08-.92,1.55-1.57,3.52-1.67-1.92-.46-3.25-1.36-3.17-2.28.1-1.15,2.4-1.89,5.12-1.64,2.72.25,4.84,1.38,4.74,2.53-.08.92-1.55,1.57-3.52,1.67,1.92.46,3.25,1.36,3.17,2.28-.1,1.15-2.4,1.89-5.12,1.64-2.72-.25-4.84-1.38-4.74-2.53Z"/><path class="cls-6" d="M44.85,115.71c-2.29-.91-3.99-2.22-4.23-3.18-1.85-1-2.97-2.15-2.7-2.99.2-.61,1.1-.93,2.38-.96-2.24-.63-3.73-1.63-3.64-2.62.09-.97,1.67-1.68,3.92-1.91-1.19-.26-1.96-.73-2.04-1.35-.11-.87,1.17-1.8,3.15-2.44.28-.93,2.25-1.98,4.78-2.49,2.85-.57,5.33-.22,5.53.78.1.5-.39,1.07-1.26,1.58.44.24.72.55.77.9.16,1.25-2.61,2.65-6.19,3.11-.11.01-.23.03-.34.04,3.36.49,5.85,1.78,5.74,3.06-.12,1.3-2.88,2.12-6.35,1.97.16.05.32.09.48.14,3.44,1.1,5.91,2.97,5.53,4.17-.1.31-.39.55-.82.71.7.64,1.05,1.25.87,1.71-.38.95-2.87.84-5.58-.23Z"/><path class="cls-8" d="M116.4,41.56c.92.08,1.57,1.55,1.67,3.52.46-1.92,1.36-3.25,2.28-3.17,1.15.1,1.89,2.4,1.64,5.12-.25,2.72-1.38,4.84-2.53,4.74-.92-.08-1.57-1.55-1.67-3.52-.46,1.92-1.36,3.25-2.28,3.17-1.15-.1-1.89-2.4-1.64-5.12.25-2.72,1.38-4.84,2.53-4.74Z"/><path class="cls-6" d="M108.93,45.72c.91-2.29,2.22-3.99,3.18-4.23,1-1.85,2.15-2.97,2.99-2.7.61.2.93,1.1.96,2.38.63-2.24,1.63-3.73,2.62-3.64.97.09,1.68,1.67,1.91,3.92.26-1.19.73-1.96,1.35-2.04.87-.11,1.8,1.17,2.44,3.15.93.28,1.98,2.25,2.49,4.78.57,2.85.22,5.33-.78,5.53-.5.1-1.07-.39-1.58-1.26-.24.44-.55.72-.9.77-1.25.16-2.65-2.61-3.11-6.19-.01-.11-.03-.23-.04-.34-.49,3.36-1.78,5.85-3.06,5.74-1.3-.12-2.12-2.88-1.97-6.35-.05.16-.09.32-.14.48-1.1,3.44-2.97,5.91-4.17,5.53-.31-.1-.55-.39-.71-.82-.64.7-1.25,1.05-1.71.87-.95-.38-.84-2.87.23-5.58Z"/><path class="cls-8" d="M107.37,183.95c-.92-.08-1.57-1.55-1.67-3.52-.46,1.92-1.36,3.25-2.28,3.17-1.15-.1-1.89-2.4-1.64-5.12.25-2.72,1.38-4.84,2.53-4.74.92.08,1.57,1.55,1.67,3.52.46-1.92,1.36-3.25,2.28-3.17,1.15.1,1.89,2.4,1.64,5.12s-1.38,4.84-2.53,4.74Z"/><path class="cls-6" d="M114.84,179.8c-.91,2.29-2.22,3.99-3.18,4.23-1,1.85-2.15,2.97-2.99,2.7-.61-.2-.93-1.1-.96-2.38-.63,2.24-1.63,3.73-2.62,3.64-.97-.09-1.68-1.67-1.91-3.92-.26,1.19-.73,1.96-1.35,2.04-.87.11-1.8-1.17-2.44-3.15-.93-.28-1.98-2.25-2.49-4.78-.57-2.85-.22-5.33.78-5.53.5-.1,1.07.39,1.58,1.26.24-.44.55-.72.9-.77,1.25-.16,2.65,2.61,3.11,6.19.01.11.03.23.04.34.49-3.36,1.78-5.85,3.06-5.74s2.12,2.88,1.97,6.35c.05-.16.09-.32.14-.48,1.1-3.44,2.97-5.91,4.17-5.53.31.1.55.39.71.82.64-.7,1.25-1.05,1.71-.87.95.38.84,2.87-.23,5.58Z"/><path class="cls-8" d="M64.74,59.22c.71-.59,2.21,0,3.67,1.31-1.03-1.68-1.34-3.26-.63-3.85.89-.74,3.03.36,4.78,2.46,1.75,2.1,2.45,4.4,1.56,5.14-.71.59-2.21,0-3.67-1.31,1.03,1.68,1.34,3.26.63,3.85-.89.74-3.03-.36-4.78-2.46-1.75-2.1-2.45-4.4-1.56-5.14Z"/><path class="cls-6" d="M62.39,67.44c-.98-2.26-1.25-4.39-.74-5.24-.61-2.02-.58-3.62.2-4.02.57-.29,1.44.11,2.36,1.01-1.14-2.03-1.49-3.79-.72-4.43.75-.63,2.37,0,4.12,1.42-.65-1.03-.87-1.9-.49-2.39.53-.69,2.1-.44,3.96.51.86-.46,3,.19,5.14,1.62,2.42,1.61,3.92,3.61,3.36,4.46-.28.42-1.03.48-2.01.23.14.49.12.9-.09,1.18-.77,1-3.72.03-6.57-2.18-.09-.07-.18-.14-.27-.21,2.03,2.72,2.88,5.4,1.9,6.22-1,.83-3.54-.54-5.88-3.1.08.14.16.29.24.44,1.65,3.21,2.09,6.28.96,6.86-.29.15-.67.11-1.08-.08.05.95-.14,1.63-.59,1.82-.94.4-2.63-1.43-3.78-4.11Z"/><path class="cls-8" d="M159.04,166.3c-.71.59-2.21,0-3.67-1.31,1.03,1.68,1.34,3.26.63,3.85-.89.74-3.03-.36-4.78-2.46-1.75-2.1-2.45-4.4-1.56-5.14.71-.59,2.21,0,3.67,1.31-1.03-1.68-1.34-3.26-.63-3.85.89-.74,3.03.36,4.78,2.46s2.45,4.4,1.56,5.14Z"/><path class="cls-6" d="M161.38,158.07c.98,2.26,1.25,4.39.74,5.24.61,2.02.58,3.62-.2,4.02-.57.29-1.44-.11-2.36-1.01,1.14,2.03,1.49,3.79.72,4.43-.75.63-2.37,0-4.12-1.42.65,1.03.87,1.9.49,2.39-.53.69-2.1.44-3.96-.51-.86.46-3-.19-5.14-1.62-2.42-1.61-3.92-3.61-3.36-4.46.28-.42,1.03-.48,2.01-.23-.14-.49-.12-.9.09-1.18.77-1,3.72-.03,6.57,2.18.09.07.18.14.27.21-2.03-2.72-2.88-5.4-1.9-6.22,1-.83,3.54.54,5.88,3.1-.08-.14-.16-.29-.24-.44-1.65-3.21-2.09-6.28-.96-6.86.29-.15.67-.11,1.08.08-.05-.95.14-1.63.59-1.82.94-.4,2.63,1.43,3.78,4.11Z"/><path class="cls-8" d="M58.35,159.91c-.59-.71,0-2.21,1.31-3.67-1.68,1.03-3.26,1.34-3.85.63-.74-.89.36-3.03,2.46-4.78,2.1-1.75,4.4-2.45,5.14-1.56.59.71,0,2.21-1.31,3.67,1.68-1.03,3.26-1.34,3.85-.63.74.89-.36,3.03-2.46,4.78-2.1,1.75-4.4,2.45-5.14,1.56Z"/><path class="cls-6" d="M66.57,162.25c-2.26.98-4.39,1.25-5.24.74-2.02.61-3.62.58-4.02-.2-.29-.57.11-1.44,1.01-2.36-2.03,1.14-3.79,1.49-4.43.72-.63-.75,0-2.37,1.42-4.12-1.03.65-1.9.87-2.39.49-.69-.53-.44-2.1.51-3.96-.46-.86.19-3,1.62-5.14,1.61-2.42,3.61-3.92,4.46-3.36.42.28.48,1.03.23,2.01.49-.14.9-.12,1.18.09,1,.77.03,3.72-2.18,6.57-.07.09-.14.18-.21.27,2.72-2.03,5.4-2.88,6.22-1.9.83,1-.54,3.54-3.1,5.88.14-.08.29-.16.44-.24,3.21-1.65,6.28-2.09,6.86-.96.15.29.11.67-.08,1.08.95-.05,1.63.14,1.82.59.4.94-1.43,2.63-4.11,3.78Z"/><path class="cls-8" d="M165.43,65.61c.59.71,0,2.21-1.31,3.67,1.68-1.03,3.26-1.34,3.85-.63.74.89-.36,3.03-2.46,4.78-2.1,1.75-4.4,2.45-5.14,1.56-.59-.71,0-2.21,1.31-3.67-1.68,1.03-3.26,1.34-3.85.63-.74-.89.36-3.03,2.46-4.78,2.1-1.75,4.4-2.45,5.14-1.56Z"/><path class="cls-6" d="M157.2,63.26c2.26-.98,4.39-1.25,5.24-.74,2.02-.61,3.62-.58,4.02.2.29.57-.11,1.44-1.01,2.36,2.03-1.14,3.79-1.49,4.43-.72.63.75,0,2.37-1.42,4.12,1.03-.65,1.9-.87,2.39-.49.69.53.44,2.1-.51,3.96.46.86-.19,3-1.62,5.14-1.61,2.42-3.61,3.92-4.46,3.36-.42-.28-.48-1.03-.23-2.01-.49.14-.9.12-1.18-.09-1-.77-.03-3.72,2.18-6.57.07-.09.14-.18.21-.27-2.72,2.03-5.4,2.88-6.22,1.9-.83-1,.54-3.54,3.1-5.88-.14.08-.29.16-.44.24-3.21,1.65-6.28,2.09-6.86.96-.15-.29-.11-.67.08-1.08-.95.05-1.63-.14-1.82-.59-.4-.94,1.43-2.63,4.11-3.78Z"/><path class="cls-8" d="M143.15,48.63c.82.43.86,2.03.2,3.89,1.15-1.6,2.49-2.49,3.31-2.06,1.03.53.83,2.93-.43,5.36-1.26,2.42-3.12,3.95-4.14,3.42-.82-.43-.86-2.03-.2-3.89-1.15,1.6-2.49,2.49-3.31,2.06-1.03-.53-.83-2.93.43-5.36,1.26-2.42,3.12-3.95,4.14-3.42Z"/><path class="cls-6" d="M134.66,49.63c1.71-1.77,3.57-2.84,4.55-2.7,1.63-1.34,3.12-1.93,3.79-1.36.49.41.45,1.37-.02,2.57,1.43-1.84,2.93-2.83,3.81-2.37.87.45.92,2.18.27,4.35.69-1,1.42-1.54,2.02-1.38.84.23,1.21,1.77,1.06,3.85.75.61.98,2.84.48,5.37-.56,2.86-1.82,5.01-2.82,4.82-.5-.1-.84-.77-.99-1.77-.39.32-.78.46-1.12.37-1.22-.33-1.45-3.42-.52-6.91.03-.11.06-.22.09-.33-1.73,2.92-3.87,4.74-5.01,4.14-1.15-.6-.86-3.47.59-6.62-.1.13-.21.26-.31.39-2.32,2.76-4.99,4.34-5.96,3.53-.25-.21-.36-.57-.35-1.03-.86.41-1.56.5-1.91.15-.73-.71.31-2.98,2.33-5.07Z"/><path class="cls-8" d="M80.62,176.88c-.82-.43-.86-2.03-.2-3.89-1.15,1.6-2.49,2.49-3.31,2.06-1.03-.53-.83-2.93.43-5.36,1.26-2.42,3.12-3.95,4.14-3.42.82.43.86,2.03.2,3.89,1.15-1.6,2.49-2.49,3.31-2.06,1.03.53.83,2.93-.43,5.36-1.26,2.42-3.12,3.95-4.14,3.42Z"/><path class="cls-6" d="M89.12,175.88c-1.71,1.77-3.57,2.84-4.55,2.7-1.63,1.34-3.12,1.93-3.79,1.36-.49-.41-.45-1.37.02-2.57-1.43,1.84-2.93,2.83-3.81,2.37-.87-.45-.92-2.18-.27-4.35-.69,1-1.42,1.54-2.02,1.38-.84-.23-1.21-1.77-1.06-3.85-.75-.61-.98-2.84-.48-5.37.56-2.86,1.82-5.01,2.82-4.82.5.1.84.77.99,1.77.39-.32.78-.46,1.12-.37,1.22.33,1.45,3.42.52,6.91-.03.11-.06.22-.09.33,1.73-2.92,3.87-4.74,5.01-4.14,1.15.6.86,3.47-.59,6.62.1-.13.21-.26.31-.39,2.32-2.76,4.99-4.34,5.96-3.53.25.21.36.57.35,1.03.86-.41,1.56-.5,1.91-.15.73.71-.31,2.98-2.33,5.07Z"/><path class="cls-8" d="M88.65,45.31c.88-.28,2.04.83,2.9,2.61-.32-1.95,0-3.52.88-3.8,1.1-.35,2.66,1.48,3.48,4.09.82,2.61.59,5-.51,5.35-.88.28-2.05-.83-2.9-2.61.32,1.95,0,3.52-.88,3.8-1.1.35-2.66-1.48-3.48-4.09-.82-2.61-.59-5,.51-5.35Z"/><path class="cls-6" d="M83.35,52.02c-.04-2.46.52-4.53,1.31-5.12.21-2.1.84-3.57,1.72-3.64.64-.06,1.28.65,1.8,1.83-.28-2.31.06-4.07,1.02-4.37.93-.29,2.19.89,3.27,2.88-.21-1.2-.08-2.09.46-2.4.76-.44,2.11.39,3.47,1.97.97-.1,2.7,1.32,4.14,3.45,1.62,2.41,2.26,4.83,1.41,5.4-.42.28-1.14.05-1.95-.55-.05.5-.23.88-.53,1.05-1.1.63-3.45-1.39-5.25-4.52-.06-.1-.11-.2-.17-.3.84,3.29.61,6.09-.61,6.47-1.24.39-3.07-1.84-4.26-5.1.02.16.04.33.05.49.31,3.6-.46,6.6-1.72,6.71-.33.03-.66-.15-.97-.48-.32.89-.75,1.45-1.24,1.46-1.02.02-1.88-2.33-1.93-5.24Z"/><path class="cls-8" d="M135.12,180.21c-.88.28-2.04-.83-2.9-2.61.32,1.95,0,3.52-.88,3.8-1.1.35-2.66-1.48-3.48-4.09-.82-2.61-.59-5,.51-5.35.88-.28,2.05.83,2.9,2.61-.32-1.95,0-3.52.88-3.8,1.1-.35,2.66,1.48,3.48,4.09.82,2.61.59,5-.51,5.35Z"/><path class="cls-6" d="M140.42,173.49c.04,2.46-.52,4.53-1.31,5.12-.21,2.1-.84,3.57-1.72,3.64-.64.06-1.28-.65-1.8-1.83.28,2.31-.06,4.07-1.02,4.37-.93.29-2.19-.89-3.27-2.88.21,1.2.08,2.09-.46,2.4-.76.44-2.11-.39-3.47-1.97-.97.1-2.7-1.32-4.14-3.45-1.62-2.41-2.26-4.83-1.41-5.4.42-.28,1.14-.05,1.95.55.05-.5.23-.88.53-1.05,1.1-.63,3.45,1.39,5.25,4.52.06.1.11.2.17.3-.84-3.29-.61-6.09.61-6.47,1.24-.39,3.07,1.84,4.26,5.1-.02-.16-.04-.33-.05-.49-.31-3.6.46-6.6,1.72-6.71.33-.03.66.15.97.48.32-.89.75-1.45,1.24-1.46,1.02-.02,1.88,2.33,1.93,5.24Z"/><path class="cls-8" d="M47.76,81.49c.43-.82,2.03-.86,3.89-.2-1.6-1.15-2.49-2.49-2.06-3.31.53-1.03,2.93-.83,5.36.43s3.95,3.12,3.42,4.14c-.43.82-2.03.86-3.89.2,1.6,1.15,2.49,2.49,2.06,3.31-.53,1.03-2.93.83-5.36-.43-2.42-1.26-3.95-3.12-3.42-4.14Z"/><path class="cls-6" d="M48.76,89.99c-1.77-1.71-2.84-3.57-2.7-4.55-1.34-1.63-1.93-3.12-1.36-3.79.41-.49,1.37-.45,2.57.02-1.84-1.43-2.83-2.93-2.37-3.81.45-.87,2.18-.92,4.35-.27-1-.69-1.54-1.42-1.38-2.02.23-.84,1.77-1.21,3.85-1.06.61-.75,2.84-.98,5.37-.48,2.86.56,5.01,1.82,4.82,2.82-.1.5-.77.84-1.77.99.32.39.46.78.37,1.12-.33,1.22-3.42,1.45-6.91.52-.11-.03-.22-.06-.33-.09,2.92,1.73,4.74,3.87,4.14,5.01-.6,1.15-3.47.86-6.62-.59.13.1.26.21.39.31,2.76,2.32,4.34,4.99,3.53,5.96-.21.25-.57.36-1.03.35.41.86.5,1.56.15,1.91-.71.73-2.98-.31-5.07-2.33Z"/><path class="cls-8" d="M176.01,144.02c-.43.82-2.03.86-3.89.2,1.6,1.15,2.49,2.49,2.06,3.31-.53,1.03-2.93.83-5.36-.43-2.42-1.26-3.95-3.12-3.42-4.14.43-.82,2.03-.86,3.89-.2-1.6-1.15-2.49-2.49-2.06-3.31.53-1.03,2.93-.83,5.36.43,2.42,1.26,3.95,3.12,3.42,4.14Z"/><path class="cls-6" d="M175.01,135.53c1.77,1.71,2.84,3.57,2.7,4.55,1.34,1.63,1.93,3.12,1.36,3.79-.41.49-1.37.45-2.57-.02,1.84,1.43,2.83,2.93,2.37,3.81-.45.87-2.18.92-4.35.27,1,.69,1.54,1.42,1.38,2.02-.23.84-1.77,1.21-3.85,1.06-.61.75-2.84.98-5.37.48-2.86-.56-5.01-1.82-4.82-2.82.1-.5.77-.84,1.77-.99-.32-.39-.46-.78-.37-1.12.33-1.22,3.42-1.45,6.91-.52.11.03.22.06.33.09-2.92-1.73-4.74-3.87-4.14-5.01.6-1.15,3.47-.86,6.62.59-.13-.1-.26-.21-.39-.31-2.76-2.32-4.34-4.99-3.53-5.96.21-.25.57-.36,1.03-.35-.41-.86-.5-1.56-.15-1.91.71-.73,2.98.31,5.07,2.33Z"/><path class="cls-8" d="M44.44,135.99c-.28-.88.83-2.04,2.61-2.9-1.95.32-3.52,0-3.8-.88-.35-1.1,1.48-2.66,4.09-3.48,2.61-.82,5-.59,5.35.51.28.88-.83,2.05-2.61,2.9,1.95-.32,3.52,0,3.8.88.35,1.1-1.48,2.66-4.09,3.48-2.61.82-5,.59-5.35-.51Z"/><path class="cls-6" d="M51.15,141.29c-2.46.04-4.53-.52-5.12-1.31-2.1-.21-3.57-.84-3.64-1.72-.06-.64.65-1.28,1.83-1.8-2.31.28-4.07-.06-4.37-1.02-.29-.93.89-2.19,2.88-3.27-1.2.21-2.09.08-2.4-.46-.44-.76.39-2.11,1.97-3.47-.1-.97,1.32-2.7,3.45-4.14,2.41-1.62,4.83-2.26,5.4-1.41.28.42.05,1.14-.55,1.95.5.05.88.23,1.05.53.63,1.1-1.39,3.45-4.52,5.25-.1.06-.2.11-.3.17,3.29-.84,6.09-.61,6.47.61.39,1.24-1.84,3.07-5.1,4.26.16-.02.33-.04.49-.05,3.6-.31,6.6.46,6.71,1.72.03.33-.15.66-.48.97.89.32,1.45.75,1.46,1.24.02,1.02-2.33,1.88-5.24,1.93Z"/><path class="cls-8" d="M179.34,89.52c.28.88-.83,2.04-2.61,2.9,1.95-.32,3.52,0,3.8.88.35,1.1-1.48,2.66-4.09,3.48-2.61.82-5,.59-5.35-.51-.28-.88.83-2.05,2.61-2.9-1.95.32-3.52,0-3.8-.88-.35-1.1,1.48-2.66,4.09-3.48s5-.59,5.35.51Z"/><path class="cls-6" d="M172.62,84.22c2.46-.04,4.53.52,5.12,1.31,2.1.21,3.57.84,3.64,1.72.06.64-.65,1.28-1.83,1.8,2.31-.28,4.07.06,4.37,1.02.29.93-.89,2.19-2.88,3.27,1.2-.21,2.09-.08,2.4.46.44.76-.39,2.11-1.97,3.47.1.97-1.32,2.7-3.45,4.14-2.41,1.62-4.83,2.26-5.4,1.41-.28-.42-.05-1.14.55-1.95-.5-.05-.88-.23-1.05-.53-.63-1.1,1.39-3.45,4.52-5.25.1-.06.2-.11.3-.17-3.29.84-6.09.61-6.47-.61-.39-1.24,1.84-3.07,5.1-4.26-.16.02-.33.04-.49.05-3.6.31-6.6-.46-6.71-1.72-.03-.33.15-.66.48-.97-.89-.32-1.45-.75-1.46-1.24-.02-1.02,2.33-1.88,5.24-1.93Z"/><path class="cls-4" d="M169.77,117.77c1.4-15.47-3.3-30.55-13.24-42.48-9.94-11.93-23.94-19.27-39.4-20.67-15.47-1.4-30.55,3.3-42.48,13.24-11.93,9.94-19.27,23.94-20.67,39.4-1.4,15.47,3.3,30.55,13.24,42.48,9.94,11.93,23.94,19.27,39.4,20.67,15.47,1.4,30.55-3.3,42.48-13.24,11.93-9.94,19.27-23.94,20.67-39.4"/><path class="cls-3" d="M167.64,117.58c-1.35,14.9-8.42,28.38-19.91,37.95-11.49,9.58-26.02,14.11-40.92,12.76-14.9-1.35-28.38-8.42-37.95-19.91-9.58-11.49-14.11-26.02-12.76-40.92,1.35-14.9,8.42-28.38,19.91-37.95,11.49-9.58,26.02-14.11,40.92-12.76,14.9,1.35,28.38,8.42,37.95,19.91,9.58,11.49,14.11,26.02,12.76,40.92M173.69,118.13c3.1-34.14-22.07-64.33-56.21-67.43-34.14-3.1-64.33,22.07-67.43,56.21-3.1,34.14,22.07,64.33,56.21,67.43,34.14,3.1,64.33-22.07,67.43-56.21h0Z"/><path class="cls-5" d="M107.62,133.6c1.99-3.65,5.62-6.3,10.22-7.46l.42-.11c7.22-1.81,9.66-2.42,16.28.61,2.84,1.3,5.2,1.01,7.94.68,2.33-.28,4.73-.57,7.49.11,3.44.84,6.03,3.25,6.94,6.43.89,3.13-.04,6.51-2.5,9.03-.74.76-1.63,1.72-2.66,2.84-4.83,5.24-11.44,12.43-17.52,14.59h0c-4.35,1.55-11.81,1.87-17.91-1.07-4.34-2.09-7.45-5.6-9.01-10.14-1.2-3.49-1.66-6.77-1.39-9.72.19-2.11.76-4.06,1.7-5.8ZM132.71,156.03c5.02-1.79,11.45-8.77,15.7-13.39,1.05-1.14,1.96-2.13,2.75-2.94,1.32-1.35,1.83-3.03,1.38-4.59-.45-1.59-1.81-2.8-3.64-3.25-1.96-.48-3.85-.25-5.86,0-2.99.36-6.37.77-10.38-1.06-5.18-2.36-6.26-2.09-13.29-.33l-.42.11c-2.37.59-5.57,1.98-7.33,5.21-1.66,3.05-1.66,7.04,0,11.86,1.17,3.41,3.42,5.94,6.68,7.51,5.26,2.54,11.5,1.92,14.41.88h0Z"/><path class="cls-5" d="M92.81,92.55c3.83-2.43,7.39-2.61,10.26-2.76,2.93-.15,5.05-.26,7.09-2.39,1.96-2.06,2.63-5.52,3.34-9.19.88-4.55,1.8-9.25,5.38-12.24,7.09-5.91,14.49-5.78,21.4.36.76.68,1.57,1.38,2.42,2.11,6.45,5.59,15.28,13.26,17.78,22.98,2.87,11.16-2.16,17.91-4,20.29-.61,1.06-3.05,4.59-8.65,4.64-2.15.02-5.44-.65-9.25-1.42-5.92-1.2-13.28-2.7-18.25-1.97-2.98.44-5.74,1.48-8.41,2.49-4.69,1.78-9.54,3.62-14.94,1.64-4.65-1.7-8.34-7.04-8.98-12.97-.11-1.06-.12-2.08-.03-3.06.33-3.67,2.04-6.74,4.84-8.52ZM152.62,109.27l.16-.2c1.55-1.99,5.67-7.27,3.3-16.5-2.15-8.35-10.03-15.18-16.36-20.67-.86-.74-1.68-1.46-2.46-2.15-5.21-4.63-10.13-4.72-15.46-.27-2.34,1.95-3.06,5.67-3.82,9.61-.81,4.15-1.64,8.44-4.52,11.46-3.29,3.44-6.93,3.63-10.15,3.8-2.69.14-5.24.27-8.05,2.05-2.96,1.88-2.89,5.7-2.72,7.25.45,4.21,2.98,8.07,6.01,9.18,3.8,1.39,7.31.06,11.75-1.62,2.76-1.05,5.89-2.23,9.37-2.74,5.76-.84,13.55.74,19.82,2.01,3.41.69,6.63,1.35,8.3,1.33,3.4-.03,4.59-2.06,4.74-2.34l.1-.2Z"/><path class="cls-5" d="M60.7,100.19c1.95-3.3,5.06-5.44,9.25-6.35,4.49-.98,8.21-.36,11.06,1.83,4.23,3.25,5.36,9.08,5.57,13.4.13,2.77-.4,5.32-.86,7.57-.49,2.4-.92,4.47-.27,5.54.24.39.49.81.77,1.24,2.03,3.26,4.82,7.73,6.06,13.85.65,3.2,2.58,4.52,5.01,6.19,1.59,1.09,3.39,2.32,4.88,4.19,2.34,2.93,2.38,5.64,2,7.4-.6,2.74-2.65,5.18-5.64,6.69-5.4,2.73-11.24-2.71-11.49-2.95l-.21-.23c-2.91-3.65-3.28-4.59-4.81-8.52-.34-.86-.74-1.89-1.24-3.13-1.72-4.27-2.62-4.76-5.99-6.61-1.27-.7-2.85-1.57-4.83-2.83-6.56-4.21-8.12-11.05-9.37-16.54-.3-1.32-.58-2.57-.91-3.67-.46-1.56-1.49-5.64-1.09-10.07.21-2.34.82-4.77,2.13-6.98ZM96.47,157.67c1.73-.88,2.94-2.22,3.24-3.59.25-1.15-.12-2.35-1.11-3.58-1.07-1.34-2.44-2.28-3.9-3.27-2.76-1.89-5.88-4.03-6.9-9.04-1.08-5.32-3.62-9.38-5.47-12.35-.28-.45-.55-.88-.8-1.29-1.58-2.6-.95-5.62-.29-8.82.43-2.08.88-4.24.77-6.43-.13-2.75-.8-7.71-3.79-10-1.74-1.33-4.2-1.67-7.32-.99-2.94.64-5,2.02-6.3,4.21-2.26,3.82-1.73,9.62-.59,13.43.37,1.25.67,2.57.99,3.96,1.18,5.17,2.39,10.51,7.39,13.72,1.84,1.18,3.29,1.98,4.56,2.67,3.95,2.17,5.79,3.36,8.02,8.9.51,1.27.91,2.3,1.26,3.18,1.44,3.69,1.64,4.21,4.02,7.2,1.08.97,4.17,3.12,6.2,2.1Z"/><circle class="cls-7" cx="154.55" cy="134.09" r="4.81"/><circle class="cls-7" cx="156.16" cy="108.83" r="4.81"/><circle class="cls-7" cx="88.14" cy="156.69" r="4.81"/><path class="cls-1" d="M118.59,37.53s.06,0,.09,0c.97.09,1.68,1.67,1.91,3.92.26-1.19.73-1.96,1.35-2.04.03,0,.07,0,.1,0,.83,0,1.72,1.26,2.34,3.16.93.28,1.98,2.25,2.49,4.78.04.22.07.44.11.66.4-.26.77-.4,1.08-.4.14,0,.28.03.39.1.51.29.63,1.15.41,2.29.88-1.69,1.91-2.79,2.74-2.79.09,0,.17.01.26.04.85.26,1.18,1.79.97,3.83.44-.97.97-1.56,1.51-1.56.02,0,.04,0,.06,0,.09,0,.17.09.26.13,0,0,0,0,0,0,1.61-1.67,3.35-2.71,4.36-2.71.06,0,.12,0,.18.01,1.21-.99,2.34-1.58,3.12-1.58.27,0,.49.07.67.21.49.41.45,1.37-.02,2.57,1.2-1.54,2.44-2.48,3.33-2.48.17,0,.34.04.48.11.87.45.92,2.18.27,4.35.61-.88,1.25-1.4,1.8-1.4.07,0,.15,0,.22.03.84.23,1.21,1.77,1.06,3.85.75.61.98,2.84.48,5.37-.06.32-.14.62-.21.92.34-.08.64-.13.91-.13.4,0,.72.1.89.33.36.46.14,1.3-.5,2.27,1.2-1.01,2.35-1.6,3.14-1.6.27,0,.51.07.68.22.68.57.4,2.11-.58,3.91.63-.59,1.22-.92,1.68-.92.13,0,.26.03.37.08.08.04.12.14.19.21,0,0,0,0,0,0,1.51-.65,2.97-.99,4.02-.99.52,0,.94.08,1.22.25.92-.28,1.76-.42,2.43-.42.8,0,1.37.2,1.59.63.29.57-.11,1.44-1.01,2.36,1.29-.73,2.48-1.13,3.33-1.13.49,0,.87.13,1.1.41.63.75,0,2.37-1.42,4.12.68-.44,1.3-.68,1.78-.68.24,0,.45.06.61.19.69.53.44,2.1-.51,3.96.46.86-.19,3-1.62,5.14-.13.19-.26.36-.39.54.68.15,1.14.42,1.26.83.16.56-.37,1.25-1.33,1.91.94-.3,1.79-.45,2.48-.45.79,0,1.36.2,1.59.63.42.78-.43,2.11-2.03,3.4.52-.2.99-.3,1.37-.3s.66.1.84.31c.06.07.06.18.09.27,0,0,0,0,0,0,.09,0,.17,0,.26,0,2.35,0,4.3.55,4.87,1.31,2.1.21,3.57.84,3.64,1.72.06.64-.65,1.28-1.83,1.8.52-.06,1.02-.1,1.47-.1,1.56,0,2.67.38,2.9,1.11.29.93-.89,2.19-2.88,3.27.36-.06.69-.1.99-.1.69,0,1.19.18,1.41.55.44.76-.39,2.11-1.97,3.47.1.97-1.32,2.7-3.45,4.14-.28.19-.56.32-.84.48.76.45,1.23.95,1.17,1.44-.07.58-.82,1.02-1.96,1.25,2.1.19,3.6.83,3.68,1.73.08.88-1.21,1.78-3.18,2.35,1.1.04,1.87.32,2.04.86.03.09-.01.19-.02.28,0,0,0,0,0,0,2.29.91,3.99,2.22,4.23,3.18,1.85,1,2.97,2.15,2.7,2.99-.2.61-1.1.93-2.38.96,2.24.63,3.73,1.63,3.64,2.62-.09.97-1.67,1.68-3.92,1.91,1.19.26,1.96.73,2.04,1.35.11.87-1.17,1.8-3.16,2.44-.28.93-2.25,1.98-4.78,2.49-.22.04-.44.07-.66.11.37.59.51,1.11.3,1.47-.2.35-.66.51-1.31.51-.29,0-.63-.03-.99-.1,1.88.97,3.01,2.14,2.75,3-.21.68-1.24,1.03-2.7,1.03-.36,0-.74-.02-1.14-.06,1.01.45,1.61,1.01,1.56,1.57,0,.09-.09.17-.13.26,0,0,0,0,0,0,1.77,1.71,2.84,3.57,2.7,4.55,1.34,1.63,1.93,3.12,1.36,3.79-.2.24-.53.35-.95.35-.45,0-1-.13-1.62-.37,1.84,1.43,2.83,2.93,2.37,3.81-.25.48-.89.71-1.79.71-.72,0-1.6-.15-2.56-.44,1,.69,1.54,1.42,1.38,2.02-.19.72-1.33,1.09-2.95,1.09-.28,0-.58-.01-.9-.04-.39.48-1.44.75-2.81.75-.77,0-1.64-.08-2.55-.26-.32-.06-.62-.14-.92-.21.21.84.18,1.51-.2,1.81-.15.12-.34.17-.56.17-.46,0-1.06-.24-1.72-.67,1.36,1.62,1.96,3.13,1.38,3.83-.21.25-.56.38-1,.38-.75,0-1.78-.34-2.91-.96.75.81,1.09,1.55.84,2.05-.04.08-.14.12-.21.19,0,0,0,0,0,0,.98,2.26,1.25,4.39.74,5.24.61,2.02.58,3.62-.2,4.02-.12.06-.26.09-.41.09-.54,0-1.23-.4-1.95-1.1,1.14,2.03,1.49,3.79.72,4.43-.2.16-.46.24-.76.24-.85,0-2.07-.61-3.36-1.67.65,1.03.87,1.9.49,2.39-.21.27-.57.39-1.04.39-.75,0-1.78-.32-2.92-.9-.18.1-.42.15-.71.15-1.06,0-2.74-.64-4.43-1.76-.19-.13-.36-.26-.54-.39-.15.68-.42,1.14-.83,1.26-.07.02-.13.03-.2.03-.52,0-1.13-.51-1.71-1.36.64,2.01.62,3.64-.18,4.07-.13.07-.28.11-.44.11-.79,0-1.88-.81-2.95-2.13.39,1.03.42,1.85,0,2.22-.07.06-.18.06-.27.09,0,0,0,0,0,0,.04,2.46-.52,4.53-1.31,5.12-.21,2.1-.84,3.57-1.72,3.64-.02,0-.05,0-.07,0-.62,0-1.23-.7-1.73-1.83.28,2.31-.06,4.07-1.02,4.37-.09.03-.19.04-.29.04-.89,0-2.01-1.14-2.98-2.93.21,1.2.08,2.09-.46,2.4-.14.08-.29.12-.46.12-.78,0-1.89-.79-3.01-2.09-.03,0-.06,0-.1,0-.98,0-2.65-1.39-4.04-3.46-.19-.28-.32-.56-.48-.84-.43.72-.9,1.17-1.35,1.17-.03,0-.06,0-.09,0-.58-.07-1.02-.82-1.25-1.96-.19,2.1-.83,3.6-1.73,3.68-.03,0-.05,0-.08,0-.86,0-1.71-1.27-2.27-3.18-.04,1.1-.32,1.87-.86,2.04-.02,0-.04,0-.07,0-.07,0-.15-.03-.22-.03,0,0,0,0,0,0-.91,2.29-2.22,3.99-3.18,4.23-.9,1.67-1.92,2.74-2.73,2.74-.09,0-.17-.01-.26-.04-.61-.2-.93-1.1-.96-2.38-.61,2.18-1.57,3.65-2.53,3.65-.03,0-.06,0-.09,0-.97-.09-1.68-1.67-1.91-3.92-.26,1.19-.73,1.96-1.35,2.04-.03,0-.07,0-.11,0-.83,0-1.72-1.26-2.34-3.16-.93-.28-1.98-2.25-2.49-4.78-.04-.22-.07-.44-.11-.66-.4.26-.77.4-1.08.4-.14,0-.28-.03-.39-.1-.51-.29-.63-1.15-.41-2.29-.88,1.7-1.91,2.79-2.74,2.79-.09,0-.17-.01-.26-.04-.85-.26-1.18-1.79-.97-3.83-.44.97-.97,1.56-1.51,1.56-.02,0-.04,0-.06,0-.09,0-.17-.09-.26-.13,0,0,0,0,0,0-1.61,1.67-3.35,2.71-4.36,2.71-.06,0-.12,0-.18-.01-1.21.99-2.34,1.58-3.12,1.58-.27,0-.49-.07-.67-.21-.49-.41-.45-1.37.02-2.57-1.2,1.54-2.44,2.48-3.33,2.48-.17,0-.34-.04-.48-.11-.87-.45-.92-2.18-.27-4.35-.61.88-1.25,1.4-1.8,1.4-.07,0-.15,0-.22-.03-.84-.23-1.21-1.77-1.06-3.85-.75-.61-.98-2.84-.48-5.37.06-.32.14-.62.21-.92-.34.08-.64.13-.91.13-.4,0-.72-.1-.89-.33-.36-.46-.14-1.3.5-2.27-1.2,1.01-2.35,1.6-3.14,1.6-.27,0-.51-.07-.68-.22-.68-.56-.4-2.11.58-3.91-.63.59-1.22.92-1.68.92-.13,0-.26-.03-.37-.08-.08-.04-.12-.14-.19-.21,0,0,0,0,0,0-1.51.65-2.97.99-4.02.99-.52,0-.94-.08-1.22-.25-.92.28-1.76.42-2.43.42-.8,0-1.37-.2-1.59-.63-.29-.57.11-1.44,1.01-2.36-1.29.73-2.48,1.13-3.33,1.13-.49,0-.87-.13-1.1-.41-.63-.75,0-2.37,1.42-4.12-.68.44-1.3.68-1.78.68-.24,0-.45-.06-.61-.19-.69-.53-.44-2.1.51-3.96-.46-.86.19-3,1.62-5.14.13-.19.26-.36.39-.54-.68-.15-1.14-.42-1.26-.83-.16-.56.37-1.25,1.33-1.91-.94.3-1.79.45-2.48.45-.79,0-1.36-.2-1.59-.63-.42-.78.43-2.11,2.03-3.4-.52.2-.99.3-1.37.3s-.66-.1-.84-.31c-.06-.07-.06-.18-.09-.27,0,0,0,0,0,0-.09,0-.17,0-.26,0-2.35,0-4.3-.55-4.87-1.31-2.1-.21-3.57-.84-3.64-1.72-.06-.64.65-1.28,1.83-1.8-.52.06-1.02.1-1.47.1-1.56,0-2.67-.38-2.9-1.11-.29-.93.89-2.19,2.88-3.27-.36.06-.69.1-.99.1-.69,0-1.19-.18-1.41-.55-.44-.76.39-2.11,1.97-3.47-.1-.97,1.32-2.7,3.45-4.14.28-.19.56-.32.84-.48-.76-.45-1.23-.95-1.17-1.44.07-.58.82-1.02,1.96-1.25-2.11-.19-3.6-.83-3.68-1.73-.08-.88,1.21-1.78,3.18-2.35-1.1-.04-1.87-.32-2.04-.86-.03-.09.01-.19.02-.28,0,0,0,0,0,0-2.29-.91-3.99-2.22-4.23-3.18-1.85-1-2.97-2.15-2.7-2.99.2-.61,1.1-.93,2.38-.96-2.24-.63-3.73-1.63-3.64-2.62.09-.97,1.67-1.68,3.92-1.91-1.19-.26-1.96-.73-2.04-1.35-.11-.87,1.17-1.8,3.16-2.44.28-.93,2.25-1.98,4.78-2.49.22-.04.44-.07.66-.11-.37-.59-.51-1.11-.3-1.48.2-.35.66-.51,1.31-.51.29,0,.63.03.99.1-1.88-.97-3.01-2.14-2.75-3,.21-.68,1.24-1.03,2.7-1.03.36,0,.74.02,1.14.06-1.01-.45-1.61-1.01-1.56-1.57,0-.09.09-.17.13-.26,0,0,0,0,0,0-1.77-1.71-2.84-3.57-2.7-4.55-1.34-1.63-1.93-3.12-1.36-3.79.2-.24.53-.35.95-.35.45,0,1,.13,1.62.37-1.84-1.43-2.83-2.93-2.37-3.81.25-.48.89-.71,1.79-.71.72,0,1.6.15,2.56.44-1-.69-1.54-1.42-1.38-2.02.19-.72,1.33-1.09,2.95-1.09.28,0,.58.01.9.04.39-.48,1.44-.75,2.81-.75.77,0,1.64.08,2.55.26.32.06.62.14.92.21-.21-.84-.18-1.51.2-1.81.15-.12.34-.17.56-.17.46,0,1.06.24,1.72.67-1.36-1.62-1.96-3.13-1.38-3.83.21-.25.56-.38,1-.38.75,0,1.78.34,2.91.96-.75-.81-1.09-1.55-.84-2.05.04-.08.14-.12.21-.19,0,0,0,0,0,0-.98-2.26-1.25-4.39-.74-5.24-.61-2.02-.58-3.62.2-4.02.12-.06.26-.09.41-.09.54,0,1.23.4,1.95,1.1-1.14-2.03-1.49-3.79-.72-4.43.2-.16.46-.24.76-.24.85,0,2.07.61,3.36,1.67-.65-1.03-.87-1.9-.49-2.39.21-.27.57-.39,1.04-.39.75,0,1.78.32,2.92.9.18-.1.42-.15.71-.15,1.06,0,2.74.64,4.43,1.76.19.13.36.26.54.39.15-.68.42-1.14.83-1.26.07-.02.13-.03.2-.03.52,0,1.13.51,1.71,1.36-.64-2.01-.62-3.64.18-4.07.13-.07.28-.11.44-.11.79,0,1.88.81,2.95,2.13-.39-1.03-.42-1.85,0-2.22.07-.06.18-.06.27-.09,0,0,0,0,0,0-.04-2.46.52-4.53,1.31-5.12.21-2.1.84-3.57,1.72-3.64.02,0,.05,0,.07,0,.62,0,1.23.7,1.73,1.83-.28-2.31.06-4.07,1.02-4.37.09-.03.19-.04.29-.04.89,0,2.01,1.14,2.98,2.93-.21-1.2-.08-2.09.46-2.4.14-.08.29-.12.46-.12.78,0,1.89.79,3.01,2.09.03,0,.06,0,.1,0,.98,0,2.65,1.39,4.04,3.46.19.28.32.56.48.84.43-.72.9-1.17,1.35-1.17.03,0,.06,0,.09,0,.58.07,1.02.82,1.25,1.96.19-2.11.83-3.6,1.73-3.68.03,0,.05,0,.08,0,.86,0,1.71,1.27,2.27,3.18.04-1.1.32-1.87.86-2.04.02,0,.04,0,.07,0,.07,0,.15.03.22.03,0,0,0,0,0,0,.91-2.29,2.22-3.99,3.18-4.23.9-1.67,1.92-2.74,2.73-2.74.09,0,.17.01.26.04.61.2.93,1.1.96,2.38.61-2.18,1.57-3.65,2.53-3.65M116.3,50.66c-.62-1.11-.97-3.09-.87-5.42-.05.16-.09.32-.14.48-.54,1.7-1.28,3.17-2.03,4.17.14.22.29.42.42.67.87.03,1.74.04,2.61.1M122.15,51.37c-.74-1.1-1.37-2.98-1.66-5.18-.01-.11-.03-.23-.04-.34-.33,2.24-1.01,4.07-1.81,5.02,1.18.13,2.34.3,3.5.5M94.31,53.02c1.12-.33,2.25-.63,3.39-.9-1.1-.74-2.39-2.22-3.49-4.12-.06-.1-.11-.2-.17-.3.56,2.18.63,4.13.27,5.32M89.59,54.65c.81-.31,1.62-.64,2.44-.92-1-.79-2.07-2.48-2.87-4.66.02.16.04.33.05.49.15,1.78.04,3.42-.26,4.63.21.14.42.27.64.45M139.6,57.03c-.17-1.26.27-3.24,1.25-5.37-.1.13-.21.26-.31.39-1.15,1.37-2.39,2.45-3.46,3.09.05.25.11.49.14.77.8.36,1.6.73,2.38,1.13M144.74,59.92c-.27-1.29-.14-3.3.43-5.45.03-.11.06-.22.09-.33-1.15,1.94-2.48,3.38-3.58,3.96,1.04.57,2.05,1.2,3.05,1.83M72.91,64.25c.93-.75,1.88-1.46,2.85-2.16-1.3-.25-3.1-1.14-4.86-2.5-.09-.07-.18-.14-.27-.21,1.36,1.83,2.18,3.63,2.28,4.87M69.22,67.52c.64-.6,1.27-1.2,1.94-1.78-1.23-.32-2.91-1.49-4.5-3.23.08.14.16.29.24.44.82,1.59,1.34,3.15,1.52,4.38.27.06.53.1.82.19M158.89,72.06c.3-1.23,1.48-2.93,3.24-4.54-.14.08-.29.16-.44.24-1.59.82-3.15,1.34-4.38,1.52-.06.28-.11.55-.2.85.6.64,1.21,1.27,1.78,1.94M162.53,76.72c.22-1.3,1.12-3.14,2.51-4.95.07-.09.14-.18.21-.27-1.87,1.39-3.7,2.21-4.94,2.28.77.96,1.51,1.93,2.22,2.93M57.26,83.02c.58-1.08,1.24-2.1,1.88-3.14-.45.1-.99.16-1.6.16-1.14,0-2.5-.19-3.94-.57-.11-.03-.22-.06-.33-.09,1.98,1.18,3.44,2.54,3.99,3.65M54.26,87.57c.29-.05.56-.11.88-.14.36-.81.74-1.6,1.13-2.39-.21.04-.44.05-.68.05-1.25,0-2.97-.44-4.8-1.29.13.1.26.21.39.31,1.37,1.15,2.45,2.39,3.09,3.46M170.8,93.06c.73-1.04,2.48-2.18,4.76-3.02-.16.02-.33.04-.49.05-.54.05-1.06.07-1.56.07-1.17,0-2.22-.12-3.07-.33-.17.26-.35.51-.56.77.31.82.65,1.63.92,2.46M173.4,95.4c-.8,0-1.48-.1-1.99-.29.36,1.21.7,2.43.98,3.67.68-1.14,2.22-2.53,4.25-3.7.1-.06.2-.11.3-.17-1.3.33-2.51.49-3.54.49M50.17,106.14c.13-1.29.33-2.55.54-3.81-1.05.8-3.04,1.51-5.39,1.82-.11.01-.23.03-.34.04,2.38.35,4.3,1.1,5.19,1.95M50,108.21c-.93.63-2.71,1.02-4.84,1.02-.26,0-.53,0-.8-.02.16.05.32.09.48.14,1.7.54,3.17,1.28,4.17,2.03.28-.18.56-.36.88-.53.02-.88.04-1.76.11-2.64M173.72,117.33c.92-.65,2.72-1.04,4.88-1.04.26,0,.53,0,.8.02-.16-.05-.32-.09-.48-.14-1.7-.54-3.17-1.28-4.17-2.03-.29.19-.59.37-.93.55-.03.88-.04,1.76-.11,2.65M172.96,123.27c1.02-.84,3.05-1.59,5.49-1.9.11-.01.23-.03.34-.04-2.44-.36-4.41-1.14-5.27-2.03-.15,1.34-.33,2.66-.56,3.97M46.83,130.6c1.3-.33,2.52-.49,3.55-.49.85,0,1.57.11,2.09.33-.38-1.26-.72-2.54-1.02-3.84-.63,1.16-2.21,2.62-4.32,3.83-.1.06-.2.11-.3.17M48.21,135.48c.16-.02.33-.04.49-.05.54-.05,1.06-.07,1.56-.07,1.17,0,2.22.12,3.07.33.2-.29.41-.58.67-.89-.32-.82-.65-1.64-.93-2.48-.66,1.07-2.48,2.28-4.86,3.16M167.23,140.52c.26-.07.57-.11.92-.11,1.25,0,2.99.45,4.83,1.3-.13-.1-.26-.21-.39-.31-1.37-1.15-2.45-2.39-3.09-3.46-.36.07-.73.12-1.13.16-.37.81-.74,1.63-1.14,2.42M164.26,145.75c.52-.18,1.2-.27,2.01-.27,1.13,0,2.48.18,3.91.57.11.03.22.06.33.09-2.15-1.28-3.7-2.77-4.13-3.93-.66,1.21-1.38,2.38-2.12,3.54M58.51,154.01c1.95-1.46,3.88-2.3,5.12-2.3.05,0,.1,0,.14,0-.86-1.05-1.67-2.14-2.46-3.25-.02,0-.03,0-.05,0-.11,1.31-1.02,3.31-2.54,5.28-.07.09-.14.18-.21.27M61.64,157.99c.14-.08.29-.16.44-.24,1.59-.82,3.15-1.34,4.38-1.52.08-.38.18-.76.31-1.17-.61-.65-1.23-1.3-1.81-1.97-.14,1.24-1.39,3.12-3.32,4.89M157.12,163.01c-.08-.14-.16-.29-.24-.44-.82-1.59-1.34-3.15-1.52-4.38-.39-.08-.78-.19-1.2-.33-.66.61-1.3,1.24-1.99,1.82,1.24.11,3.15,1.36,4.94,3.32M153.14,166.13c-1.55-2.08-2.41-4.13-2.29-5.35-1.06.86-2.16,1.69-3.27,2.48,0,.04.01.08.02.12,1.31.11,3.31,1.02,5.28,2.54.09.07.18.14.27.21M78.51,171.38c1.3-2.2,2.84-3.77,4-4.16-1.25-.67-2.45-1.43-3.64-2.18.47,1.22.41,3.5-.26,6.01-.03.11-.06.22-.09.33M82.92,173.85c.1-.13.21-.26.31-.39,1.15-1.37,2.39-2.45,3.46-3.09-.07-.39-.13-.8-.16-1.24-.83-.37-1.66-.76-2.47-1.17.4,1.18-.01,3.44-1.14,5.88M134.61,176.44c-.02-.16-.04-.33-.05-.49-.15-1.78-.04-3.42.26-4.63-.34-.23-.67-.48-1.02-.79-.84.32-1.67.66-2.53.95,1.11.56,2.41,2.45,3.33,4.96M129.73,177.81c-.65-2.55-.65-4.79-.05-5.86-1.38.41-2.77.8-4.19,1.12,1.19.53,2.77,2.19,4.07,4.44.06.1.11.2.17.3M103.32,179.67c.38-2.62,1.25-4.69,2.22-5.43-1.38-.14-2.73-.35-4.08-.58-.04.05-.07.1-.11.14.85,1,1.61,3.06,1.93,5.53.01.11.03.23.04.34M108.34,180.28c.05-.16.09-.32.14-.48.54-1.71,1.28-3.17,2.03-4.17-.23-.35-.44-.72-.65-1.15-.91-.03-1.81-.04-2.73-.11.84.92,1.33,3.18,1.21,5.9M118.59,35.78c-.99,0-1.88.51-2.63,1.48-.12-.06-.23-.1-.33-.13-.25-.08-.52-.12-.79-.12-1.7,0-3.06,1.59-3.97,3.13-1.39.79-2.45,2.56-3.07,3.83-.67-.74-1.44-1.13-2.29-1.13-.08,0-.16,0-.25.01-.68.06-1.66.41-2.4,1.76-.07-.02-.14-.03-.2-.03-.1-.01-.2-.02-.3-.02-.36,0-.7.07-1.03.22-.9-1.16-2.43-2.82-4.08-3.24-1.04-1.09-2.43-2.18-3.87-2.18-.48,0-.93.12-1.33.35-.08.05-.17.11-.26.18-.68-.56-1.44-.94-2.3-.94-.28,0-.55.04-.82.12-.69.22-1.65.82-2.1,2.46-.04,0-.08,0-.13,0-.07,0-.15,0-.22,0-1,.09-2.71.81-3.24,4.6-.98,1.27-1.28,3.31-1.36,4.71-.48-.23-.99-.37-1.51-.37-.45,0-.88.1-1.27.31-.6.32-1.38,1.02-1.53,2.55-.07.01-.13.03-.2.05-.29.08-.62.23-.93.48-1.62-.92-3.18-1.44-4.4-1.44-.19,0-.37.01-.54.04-.91-.41-2.04-.79-3.09-.79-1.32,0-2.04.58-2.42,1.07-.06.08-.12.17-.18.27-.43-.14-.87-.22-1.31-.22-.72,0-1.37.22-1.88.65-.56.47-1.22,1.39-1,3.07-.11.04-.21.08-.32.14-.89.46-2.19,1.78-1.24,5.49-.42,1.55.08,3.54.53,4.87-.08,0-.16,0-.23,0-1.25,0-1.97.55-2.35,1.01-.43.52-.88,1.47-.45,2.94-.06.04-.11.08-.17.12-.3.23-.61.58-.8,1.08-.62-.08-1.23-.12-1.81-.12-1.44,0-2.57.24-3.37.72-.11,0-.23,0-.34,0-3.48,0-4.4,1.5-4.64,2.39-.03.09-.05.2-.06.31-1.75.16-2.48,1.07-2.78,1.63-.34.64-.59,1.75.26,3.22-.09.08-.17.17-.24.25-.65.77-1.34,2.49.97,5.54.2,1.59,1.43,3.24,2.37,4.29-1.34.48-1.82,1.33-2,1.92-.2.65-.25,1.7.72,2.89-.04.06-.08.12-.11.17-.15.26-.28.6-.32,1-1.42.39-3.48,1.16-4.49,2.5-3.49,1.32-3.82,3.11-3.7,4.1.01.09.03.2.06.31-1.5.78-1.88,1.85-1.95,2.57-.07.72.12,1.84,1.46,2.88-.05.11-.1.22-.13.32-.31.96-.29,2.81,3,4.76.79,1.39,2.55,2.45,3.82,3.06-1.03.93-1.17,1.9-1.11,2.54.06.68.41,1.66,1.76,2.4-.01.07-.03.14-.03.2-.05.38-.02.84.2,1.33-1.16.9-2.82,2.43-3.24,4.08-2.71,2.56-2.33,4.34-1.83,5.21.05.08.1.17.17.26-1.08,1.3-1.03,2.43-.81,3.12.2.65.79,1.63,2.46,2.09,0,.13,0,.25,0,.36.09,1,.81,2.71,4.61,3.24,1.29.99,3.37,1.28,4.7,1.36-.6,1.26-.35,2.21-.05,2.77.28.52.96,1.36,2.54,1.53.01.07.03.14.05.21.08.29.23.62.48.93-.73,1.28-1.64,3.29-1.41,4.94-1.53,3.4-.5,4.9.28,5.51.08.06.17.12.26.18-.51,1.62-.02,2.64.44,3.19.39.47,1.14,1.04,2.44,1.04.21,0,.42-.01.63-.04.04.12.09.23.14.33.3.59,1.11,1.57,3.14,1.57.7,0,1.49-.11,2.35-.33.39.11.82.16,1.3.16,1.04,0,2.27-.24,3.56-.69-.07,1.39.51,2.17,1.01,2.58.49.41,1.11.62,1.8.62.38,0,.76-.06,1.13-.18.04.06.08.12.12.17.22.28.56.6,1.08.8-.18,1.46-.27,3.71.59,5.18-.11,3.73,1.43,4.72,2.38,4.98.1.03.2.05.31.06.15,1.69.99,2.44,1.63,2.78.39.21.83.31,1.29.31.67,0,1.32-.22,1.93-.57.09.1.17.18.25.25.49.41,1.11.62,1.79.62,1.31,0,2.69-.8,3.75-1.59,1.59-.2,3.24-1.43,4.29-2.36.47,1.31,1.31,1.81,1.93,2,.25.08.51.11.77.11.79,0,1.49-.33,2.11-.83.06.04.12.08.18.11.31.17.64.28,1,.31.39,1.42,1.16,3.49,2.5,4.49,1.15,3.05,2.67,3.72,3.77,3.72.11,0,.22,0,.33-.02.09-.01.2-.03.31-.06.78,1.5,1.85,1.88,2.57,1.95.08,0,.16.01.24.01.99,0,1.88-.51,2.63-1.48.12.06.23.1.33.13.25.08.52.12.79.12,1.7,0,3.06-1.59,3.97-3.13,1.39-.79,2.45-2.56,3.07-3.83.67.74,1.44,1.13,2.29,1.13.08,0,.16,0,.25-.01.68-.06,1.66-.41,2.4-1.76.07.01.14.03.2.03.1.01.2.02.3.02.36,0,.7-.07,1.03-.22.9,1.16,2.43,2.82,4.08,3.24,1.04,1.09,2.43,2.18,3.87,2.18.48,0,.93-.12,1.33-.35.08-.05.17-.11.26-.18.68.56,1.45.94,2.3.94.28,0,.55-.04.82-.12.69-.22,1.65-.82,2.1-2.46.04,0,.08,0,.13,0,.07,0,.15,0,.22,0,1-.09,2.71-.81,3.24-4.6.98-1.27,1.28-3.31,1.36-4.71.48.23.99.37,1.51.37.45,0,.88-.1,1.27-.31.6-.32,1.38-1.02,1.53-2.55.07-.01.13-.03.2-.05.29-.08.62-.23.93-.48,1.62.92,3.18,1.44,4.4,1.44.19,0,.37-.01.54-.04.91.41,2.04.79,3.09.79,1.32,0,2.04-.58,2.42-1.07.06-.08.12-.17.18-.27.43.14.87.22,1.31.22.72,0,1.37-.22,1.88-.65.56-.47,1.22-1.39,1-3.07.11-.04.21-.08.32-.14.89-.46,2.19-1.78,1.24-5.49.42-1.55-.08-3.54-.53-4.87.08,0,.16,0,.23,0,1.25,0,1.97-.55,2.35-1.01.43-.52.88-1.47.45-2.94.06-.04.11-.08.17-.12.3-.23.61-.58.8-1.08.62.08,1.23.12,1.81.12,1.44,0,2.57-.24,3.37-.72.11,0,.23,0,.34,0,3.48,0,4.4-1.5,4.64-2.39.03-.09.05-.2.06-.31,1.75-.16,2.48-1.07,2.78-1.63.34-.64.59-1.75-.26-3.22.09-.08.17-.17.24-.25.65-.77,1.34-2.49-.97-5.54-.2-1.59-1.43-3.24-2.37-4.29,1.34-.48,1.82-1.33,2-1.92.2-.65.25-1.7-.72-2.89.04-.06.08-.12.11-.17.15-.26.28-.6.32-1,1.42-.39,3.48-1.16,4.49-2.5,3.49-1.32,3.82-3.11,3.7-4.1-.01-.09-.03-.2-.06-.31,1.5-.78,1.88-1.85,1.95-2.57.07-.72-.12-1.84-1.46-2.88.05-.11.1-.22.13-.32.31-.96.29-2.81-3-4.76-.79-1.39-2.55-2.45-3.82-3.07,1.03-.93,1.17-1.9,1.11-2.54-.06-.68-.41-1.66-1.76-2.4.02-.07.03-.14.03-.2.05-.38.02-.84-.2-1.33,1.16-.9,2.82-2.43,3.24-4.08,2.71-2.56,2.33-4.35,1.83-5.21-.05-.08-.1-.17-.17-.26,1.08-1.3,1.03-2.43.81-3.12-.2-.65-.79-1.63-2.46-2.09,0-.13,0-.25,0-.36-.09-1-.81-2.71-4.61-3.24-1.29-.99-3.37-1.28-4.7-1.36.6-1.26.35-2.21.05-2.77-.28-.52-.96-1.36-2.54-1.53-.01-.07-.03-.14-.05-.21-.08-.29-.23-.62-.48-.93.73-1.28,1.64-3.29,1.41-4.94,1.53-3.4.5-4.9-.28-5.51-.08-.06-.17-.12-.26-.18.51-1.62.02-2.64-.44-3.19-.4-.47-1.14-1.04-2.44-1.04-.21,0-.42.01-.63.04-.04-.12-.09-.23-.14-.33-.3-.59-1.11-1.57-3.14-1.57-.7,0-1.49.11-2.35.33-.39-.11-.82-.16-1.3-.16-1.04,0-2.27.24-3.56.69.07-1.39-.51-2.17-1.01-2.58-.49-.41-1.11-.62-1.8-.62-.38,0-.76.06-1.13.18-.04-.06-.08-.12-.12-.17-.22-.28-.56-.6-1.08-.8.18-1.46.27-3.71-.59-5.18.11-3.73-1.43-4.72-2.38-4.98-.1-.03-.2-.05-.31-.06-.15-1.69-.99-2.44-1.63-2.78-.39-.21-.83-.31-1.29-.31-.67,0-1.32.22-1.93.57-.09-.1-.17-.18-.25-.25-.49-.41-1.11-.62-1.79-.62-1.3,0-2.69.8-3.75,1.59-1.59.2-3.24,1.43-4.29,2.36-.47-1.31-1.31-1.81-1.93-2-.25-.08-.51-.11-.77-.11-.79,0-1.49.33-2.11.83-.06-.04-.12-.08-.18-.11-.31-.17-.64-.28-1-.31-.39-1.42-1.16-3.49-2.5-4.49-1.15-3.05-2.67-3.72-3.77-3.72-.11,0-.22,0-.33.02-.09.01-.2.03-.31.06-.78-1.5-1.85-1.88-2.57-1.95-.08,0-.16-.01-.24-.01h0Z"/></svg>