<?xml version="1.0" encoding="UTF-8"?><svg xmlns="http://www.w3.org/2000/svg" viewBox="0 0 251.22 252.26"><defs><style>.cls-1{fill:#5b4532;}.cls-2{isolation:isolate;}.cls-3{mix-blend-mode:color;}.cls-4{fill:#f7913e;}.cls-5{fill:#935624;}</style></defs><g class="cls-2"><g id="Epstein_Barr_Virus"><g class="cls-3"><path class="cls-4" d="M124.12,189.41c-.4,0-.73-.09-1-.17-.15-.04-.3-.08-.38-.08h-.07c-.21.09-.43.13-.67.13-.1,0-.2,0-.3-.02h0c-.06,0-.12,0-.17,0-.15,0-.31-.02-.46-.07-.08,0-.17,0-.25,0-1.2,0-2.27-.36-2.99-.64-.59-.18-1.02-.49-1.35-.87-.29.22-.65.35-1.05.37-.4.02-.79.14-1.23.29-.26.12-.54.18-.83.18-.27,0-.51-.05-.7-.09-.03,0-.07-.02-.1-.02-.19.09-.46.19-.78.23-.22.08-.45.11-.7.11-.12,0-.24,0-.36-.02-.05,0-.11,0-.16,0h-.46c-.11-.01-.21-.03-.31-.06-.51-.16-.93-.38-1.29-.68-.1-.06-.2-.12-.3-.19-.06,0-.13,0-.19,0-.06,0-.12.01-.18.02-.18.03-.35.05-.53.05-.32,0-.61-.07-.88-.2l-.58-.11c-.29-.03-.57-.12-.81-.27-.34-.11-.61-.29-.8-.44-.15-.1-.28-.2-.4-.31-.26.14-.52.21-.71.25-.12.03-.25.04-.38.05,0,0-.13.02-.14.02-.13.02-.37.05-.63.05-.44,0-.82-.08-1.14-.25,0,0-.36-.09-.38-.1-.46-.14-.8-.4-1.07-.63-.07-.06-.13-.12-.18-.19-.42-.56-.47-1.15-.43-1.62-.16.02-.32.04-.48.04-.34,0-.66-.06-.97-.17-.29-.09-.52-.22-.72-.37-.21.1-.4.12-.52.13-.13.03-.27.04-.4.04-.51,0-.98-.21-1.36-.6-.16-.16-.37-.3-.69-.46-.55-.12-.98-.4-1.3-.61-.01,0-.11-.07-.12-.08l-.72-.52c-.43-.04-.83-.2-1.24-.5l-.12-.06c-.09-.05-.18-.11-.25-.17-.32-.29-.47-.62-.56-.89-.08-.04-.15-.08-.23-.12-.26-.14-.48-.26-.66-.3-.18-.04-.35-.12-.5-.24-.45-.37-1.02-.83-1.28-1.61-.45-.57-.8-1.18-1.13-1.77l-.12-.2c-.17-.3-.26-.61-.27-.91-.04-.03-.08-.06-.12-.1-.56-.27-1.06-.67-1.54-1.21-1.03-.88-1.62-2.02-2.14-3.03l-.02-.03c-.25-.05-.47-.13-.69-.21l-.27-.08c-.47-.12-.93-.36-1.32-.71-.33-.21-.58-.45-.81-.67-.13-.12-.25-.25-.39-.35-.38-.23-.6-.54-.75-.75l-.02-.03c-.59-.49-1-1.14-1.22-1.94-.28-.19-.53-.41-.75-.68-.28-.32-.41-.67-.5-.92-.02-.06-.04-.13-.07-.19-.47-.45-.59-.98-.62-1.39-.32-.2-.66-.44-.95-.78-.69-.48-.94-1.03-.98-1.53-.52-.72-.76-1.51-.97-2.21-.11-.37-.22-.73-.36-1.05-.75-.36-1.08-1.06-1.2-1.32l-.15-.3c-.21-.41-.46-.88-.6-1.45-.6-.37-1.29-.97-1.42-2.05-.02-.19-.09-.34-.22-.49-.18-.1-.34-.23-.47-.38-.26-.17-.52-.44-.68-.89-.37-.75-.07-1.45.05-1.72.04-.1.09-.22-.11-.57-.12-.21-.24-.42-.34-.63-.44-.87-.43-1.79-.04-2.56-.1-.14-.18-.29-.25-.45-.29-.42-.43-.85-.54-1.21-.04-.13-.08-.26-.12-.37l-.15-.14c-.32-.28-.88-.76-.99-1.58-.13-.42-.13-.8-.14-1.12,0-.01,0-.03,0-.04-.21-.16-.39-.35-.54-.59-.32-.52-.5-1.05-.65-1.52-.12-.36-.23-.69-.38-.96-.19-.23-.32-.49-.38-.78-.2-.35-.24-.7-.26-.88l-.05-.49c-.07-.69-.14-1.33-.39-1.87-.35-.62-.41-1.4-.15-2.24,0,0,0,0,0-.01-.03-.1-.05-.21-.05-.32,0-.15,0-.3,0-.46,0-.6,0-.96-.2-1.22-.63-.97-.14-2.24.09-2.74.37-.78.84-1.23,1.4-1.33l.02-.14c.07-.42.16-.97.49-1.48-.02-.1-.05-.23-.08-.36-.06-.24-.13-.53-.15-.85-.29-.72-.21-1.4-.15-1.93l-.03-.03c-.11-.1-.2-.23-.27-.37-.19-.41-.23-.85-.12-1.26.17-.62.27-1.26.37-1.95.09-.62.19-1.27.35-1.92,0-.04.02-.07.03-.11l.1-.3c.09-.25.17-.51.27-.75.05-.12.09-.25.14-.37.19-.51.4-1.09.85-1.62.04-.04.06-.07.09-.25,0-.06.01-.12.02-.18.03-.42.09-1.29.97-1.83.35-.21.62-.6.95-1.04l.1-.15c.1-.15.23-.33.41-.52-.71-.69-.64-1.48-.45-2.15.03-.36.14-.65.23-.86.02-.06.05-.12.07-.18.06-.91.35-1.8.89-2.78.28-.51.54-1.04.8-1.56.32-.65.65-1.32,1.03-1.98.36-.62.79-1.13,1.21-1.62.24-.28.48-.57.7-.87.34-.6.76-.92,1.15-1.08-.13-.37-.14-.7-.14-.85-.02-.73.17-1.36.33-1.93.03-.12.07-.24.1-.36v-.1c0-.24,0-.48.02-.72.04-.43.16-1.53,1.3-1.9.07-.02.15-.05.32-.43.71-1.57,1.52-3.23,2.93-4.58.15-.15.47-.45.49-.57.07-.93.5-1.67,1.28-2.21.27-.28.58-.45.86-.58.13-.14.26-.22.34-.27.15-.14.55-.49,1.17-.49.08,0,.26.02.34.04.3.05.61.13.89.25.16-.54.48-.94.67-1.18.11-.14.17-.26.2-.41.1-.58.35-1.04.57-1.45,0-.01-.01-.07-.04-.19-.37-1.4-.03-2.16,1.24-2.65.46-.34.91-.42,1.22-.42.16,0,.33.02.49.06.01,0,.23-.06.23-.06.08-.02.16-.02.23-.02.06,0,.12,0,.18.01h.09c.25,0,.49,0,.72.03.05-.02.11-.05.16-.07.28-.38.61-.68,1-.9.28-.93,1.45-1.04,1.88-1.07l.2-.02c.45-.05.79-.25,1.09-.63.06-.08.12-.14.18-.19,0-1.07.49-1.77,1.56-2.24l.35-.16c.18-.08.35-.16.53-.24.59-.25,1.18-.38,1.75-.38.39,0,.78.06,1.15.18l.2.06c.31.1.78.24,1.17.67h0c.25-.44.68-1.08,1.58-1.23.2-.03.42-.16.69-.3.12-.07.24-.13.37-.2.27-.14.64-.29,1.07-.33.43-.19.85-.22,1.19-.22h.14c.42,0,3.5-.31,5.55-.53.04,0,.08,0,.12,0,.07,0,.14,0,.2.02l.73.13c.08.01.16.04.23.07.03,0,.06,0,.09,0,.17,0,.31-.03.44-.06.07-.02.14-.02.22-.03h.19c.93,0,2.13.17,2.65,1.45.03-.11.06-.21.09-.32.25-.92,1.02-1.25,1.4-1.41.19-.08.32-.13.45-.17.03-.01.07-.02.1-.03,0,0,.01-.01.02-.02,1.08-.87,2.31-1.07,3.47-1.2.2-.02.36-.06.52-.09.31-.07.66-.15,1.07-.15.14,0,.29.01.43.03.16.02.32.07.48.11.07.02.14.05.21.05.32-.07.75-.11,1.17-.11,1.03,0,2.09.22,3.26.66.06.02.13.03.2.04.29.05.75.12,1.18.46.35.2.63.44.85.7.03-.06.06-.11.1-.16.45-.65,1-1.02,1.62-1.1.7-.09,1.44-.22,2.08-.53.25-.12.54-.18.87-.18.02,0,.14,0,.14,0,.23,0,.44-.06.75-.19.15-.06.31-.1.46-.1.05,0,.1,0,.15,0,.83.02,1.65.1,2.26.48.13.08.32.13.63.14h.15c.98.04,1.98.08,3.02.42.05.02.11.02.16.03.29.04.8.12,1.24.52.29.18.47.42.59.63.58-.73,1.37-.88,1.91-.97.09-.02.18-.03.27-.05.08-.02.17-.03.25-.03.02,0,.05,0,.07,0,.76.05,1.52.25,2.37.64.2.09.82.38,1.06,1.12.04.14.06.29.05.43,0,0,0,0,0,0,0,0,.02.03.02.07.02.07.04.15.05.25.15.04.3.1.46.17.31-.1.62-.14.95-.14s.66.05.99.15c.81.24,1.33.76,1.56,1.55.09,0,.17,0,.26,0,.18,0,.37,0,.55.02.95.09,1.52.48,1.87.92.27-.09.55-.14.83-.14,1.04,0,1.93.67,2.33,1.76.1.28.18.57.26.86,0,0,.08.3.08.3.94.64,1.55,1.52,2.09,2.29l.21.3c.29.41.45.86.48,1.34.06,0,.11,0,.17,0,.28-.15.6-.28.97-.28.78,0,1.28.55,1.62.95.26.25.41.53.53.73.04.07.1.18.12.21,1.02.83,1.76,1.86,2.48,2.85l.32.44s.05.05.07.08c.17.18.48.51.58,1.03.09.14.14.28.18.39.77.69,1.36,1.5,1.88,2.31l1.39.93c.07.05.14.1.19.16l.31.33s.08.09.12.14c.05.07.14.19.21.37.39.71.53,1.48.41,2.29v.36c.34.12.7.34,1.03.76.22.27.45.53.68.79.61.68,1.3,1.44,1.72,2.46.07.18.2.39.34.6.3.48.67,1.07.75,1.85.04.41.19.8.48,1.25.05.04.11.08.16.1,1.15.41,1.92,1.28,2.22,2.51,0,.04.02.08.02.12.04.33.16.67.35,1.02.53.55.85,1.18.97,1.93l.04.27c.08.57.12.71.25.8.22.14.37.33.46.48.37.23.69.55.95.94.34.52.51,1.03.52,1.55,0,.49.18.88.56,1.25.7.68,1.05,1.54,1.02,2.48.04.34,0,.65-.05.89.13.2.24.4.35.58l.07.13c.28.49.35,1,.21,1.46.8.24,1.46.71,1.97,1.4.06.08.1.16.14.25l.07.16c.24.46.32.93.39,1.3.04.22.08.43.13.57.02.04.03.09.04.13.22.83-.17,1.47-.38,1.8l-.08.13c-.07.12-.2.27-.31.35l-.08.06c.07.78.34,1.52.81,2.24.2.31.5.77.52,1.41v.53c.01.12,0,.25-.04.36.16.18.3.4.4.67.24.5.37,1.05.38,1.65.08.26.15.66-.04,1.07-.08.17-.25.45-.6.64-.12.3-.31.5-.5.64.03.31,0,.66-.14,1.02-.06.41-.24.91-.7,1.36l-.29.68c-.05.24-.13.46-.23.65.56.38,1.23,1.14.94,2.54.16.61.07,1.11-.06,1.48-.09.41-.35.75-.72.95-.12.1-.27.21-.45.32-.18.88-.41,1.82-.99,2.7-.02.08-.04.17-.05.25-.12.86-.43,1.67-.95,2.41.13.38.19.94-.22,1.49l-1.43,1.67s-.08.11-.13.19c-.22.31-.49.69-.94,1-.39.25-.84.49-1.39.49-.21,0-.4-.04-.58-.09.15.33.23.7.24,1.1.01.57-.09,1.14-.33,1.74.02.49-.02,1.12-.31,1.74l-.37,1.1-.06.25c-.1.46-.24.99-.59,1.5-.42.62-.82,1.33-1.2,2.18-.02.08-.12.37-.39.62-.57.52-1.04,1.18-1.47,1.81-.12.18-.41.61-.97.8l-.39.12c-.2.08-.42.12-.63.12-.34,0-.62-.1-.8-.17-.52-.17-.78-.46-.93-.62-.42-.12-.84-.25-1.25-.4v.06s.38.32.38.32c.12.1.22.23.29.38l.08.18c.34.29.62.67.83,1.12.06.12.09.25.1.38.11,1.19-.04,2.35-.44,3.47-.11.44-.41,1.56-1.51,2.12-.07.14-.16.28-.28.42v.02c-.74,1.12-1.5,2.28-2.53,3.29-.61.58-1.11,1.23-1.62,1.91-.13.25-.37.64-.85.84l-.37.19c-.13.07-.28.11-.42.12-.03,0-.16,0-.19,0-.2,0-.37-.03-.53-.07-.09.1-.18.18-.28.24-.61.52-1.26.86-1.89,1.19l-.18.09c-.07.15-.15.3-.24.44.1.63.07,1.47-.72,2.14-.21.28-.43.59-.74.87,0,.02,0,.05-.01.07-.07.52-.2,1.19-.71,1.76-.1.11-.21.2-.34.27l-.14.07c-.45.3-.94.45-1.45.45-.27,0-.52-.04-.75-.11-.08.07-.18.13-.28.19-.04.02-.08.04-.12.05l-.43.18c-.6.38-1.22.67-1.82.94l-1.2.56c-.07.03-.15.06-.23.08-.15.04-.31.14-.49.31-.5.48-1,.58-1.33.58-.37,0-.73-.12-1.07-.35.02.92-.39,1.69-1,2.04-.77.44-1.81.95-3.04.95-.05,0-.11,0-.16-.01l-.84-.12c-.07,0-.14-.03-.21-.05-.38-.13-.95-.32-1.42-.76-.88,1.02-2.14,1.57-3.83,1.69-.18.03-.37.04-.55.04-.21,0-.41-.02-.62-.03-.13,0-.25-.02-.38-.02-.11.06-.21.12-.32.17-.3.17-.64.36-1.04.5-.4.25-.84.38-1.31.38-.63,0-1.19-.24-1.59-.41-.28-.12-.5-.22-.65-.22-.04,0-.09,0-.13,0-.07,0-.14,0-.2-.01l-.22-.04c-.06-.01-.13-.03-.19-.03-.42-.02-.72-.18-.92-.34-.14.02-.28.03-.43.03-.14,0-.27,0-.41-.02-.08,0-.16-.01-.24-.01-.47,0-.93-.29-1.1-.73-.05-.12-.08-.25-.09-.38l-.02.04c.03.33.2.6.35.73-.14-.12-.32-.27-.5-.46-.46.75-1.18,1.23-2.09,1.41-.21.04-.4.11-.6.18-.26.12-.62.19-1.05.19-.16,0-.31,0-.47-.02-.11,0-.21-.02-.32-.02h-.02c-.28.11-.54.12-.7.13-.17.02-.28.02-.38.02Z"/><path class="cls-1" d="M135.4,64s1.24-.04,1.79.31c.37.24.78.3,1.21.32.96.04,1.92.05,2.84.36.36.12.78.04,1.06.38h0c.23.1.32.31.42.52.18.39.41.73.91.76.02,0,.04,0,.06,0,.49,0,.66-.31.73-.74.38-.6,1.02-.6,1.61-.73,0,0,0,0,0,0,.69.04,1.34.26,1.96.54.19.09.37.2.45.42-.02.38.28.76,0,1.14,0,.07,0,.14,0,.21.52.08,1.06.09,1.5.43h0c.07,0,.14,0,.21,0,.3-.15.61-.22.92-.22.22,0,.44.03.67.1,0,0,0,0,0,0,.71.21.84.77.86,1.4.14.07.28.15.42.22.29,0,.57-.02.86-.02.15,0,.29,0,.44.02.56.05,1.05.25,1.26.84,0,0,0,0,0,0,.18.09.33.22.53.22.08,0,.17-.02.28-.08.25-.14.5-.2.74-.2.55,0,1.01.36,1.24,1,.13.35.21.71.3,1.07.06.22.13.44.34.57.94.59,1.51,1.51,2.13,2.39.33.47.35.98.15,1.51-.26.26-.4.57-.33.95.05.02.09.02.13.02.21,0,.35-.19.5-.3.29-.23.6-.35.94-.35.09,0,.18,0,.27.02,0,0,0,0,0,0h0c.1-.01.2-.03.3-.04,0,0,0,0,0,0,.26-.16.45-.26.61-.26.23,0,.43.18.78.59,0,0,0,0,0,0,.32.28.4.74.74,1.02,1.06.87,1.82,2,2.62,3.09.17.23.46.41.46.75.03.08.07.16.1.24h0c.16.15.09.4.27.55.81.67,1.41,1.52,1.96,2.41,0,0,0,0,0,0,.53.36,1.06.71,1.6,1.07.1.11.21.22.31.33.04.06.09.11.11.18,0,0,0,0,0,.01.31.53.42,1.1.31,1.72,0,0,0,0,0,0,0,.42,0,.84,0,1.26h0,0c0,.08,0,.16,0,.24h0c.18,0,.35,0,.53,0,.33.01.57.21.76.44.77.97,1.75,1.79,2.24,2.97.3.73.93,1.31,1.01,2.13.07.75.38,1.38.8,1.98.2.12.38.27.59.34.82.29,1.3.87,1.5,1.7.08.56.28,1.08.57,1.57h0c.41.38.66.83.75,1.4.11.68.12,1.42.81,1.86.11.07.15.23.22.35.36.16.64.41.85.74h0c.18.28.32.58.32.93.02.81.32,1.49.91,2.06.47.46.71,1.03.67,1.7h0s0,0,0,0c.07.39-.08.77-.1,1.16.26.28.43.62.62.95.17.3.2.59-.07.85-.04.1-.09.2-.13.3.08.47.32.69.83.78.66.11,1.23.49,1.64,1.05,0,0,0,0,0,0,.03.07.06.14.09.21h0c.31.56.26,1.22.5,1.81.1.37-.1.66-.28.95-.02.04-.05.08-.07.12-.19.14-.37.28-.56.42-.02,1.25.34,2.39,1.02,3.43.16.26.32.51.33.82,0,.17,0,.35.01.52-.07.23-.26.36-.41.54.31.28.7.49.85.92,0,0,0,0,0,0,.22.45.31.92.3,1.41.1.22.16.44-.16.54-.12.1-.23.21-.35.31-.02.17-.06.32-.23.4-.18.16-.34.36-.61.36.19.41.33.82.09,1.26-.01.41-.21.73-.53.97-.15.35-.29.69-.44,1.04-.07.57-.45.91-.92,1.17-.02.08-.05.2-.12.2,0,0-.01,0-.02,0-.14-.05-.27-.07-.39-.07-.42,0-.76.23-1.1.51-.1.08-.27.06-.41.09-.25-.07-.49-.13-.74-.2-.04.07-.07.14-.11.22.58.39,1.09.9,1.8,1.07.18-.03.36-.06.55-.09.02-.03.05-.05.07-.08.35-.37.2-.94.55-1.31.02,0,.04,0,.06,0,.3,0,.56.12.8.3.68.31.87.84.63,1.7h0s0,.07,0,.1c.14.35.17.71,0,1.06-.01.15-.09.24-.23.29-.25.2-.49.43-.84.48-.21,1.07-.38,2.15-1.06,3.06-.04.19-.09.38-.11.57-.12.88-.49,1.64-1.06,2.3-.09.37.4.67.11,1.06-.46.53-.92,1.07-1.38,1.6-.26.34-.47.73-.84.97-.3.19-.53.29-.74.29-.25,0-.47-.13-.78-.41-.18-.16-.34-.35-.6-.35,0,0,0,0-.01,0-.11.01-.22.02-.33.02-.45,0-.87-.12-1.28-.33-.59-.31-1.25-.39-1.88-.53-.14.28-.28.56-.42.84.29.3.73.4.99.74.23.14.46.28.69.43.37.2.77.31,1.17.44.63.2.94.67.96,1.33.01.54-.13,1.04-.34,1.52.05.52.02,1.02-.21,1.5-.13.39-.26.77-.39,1.16-.03.11-.06.22-.09.33,0,0,0,0,0,0-.08.4-.19.8-.42,1.14-.51.75-.93,1.54-1.3,2.36-.03.08-.05.18-.11.23-.66.59-1.17,1.3-1.65,2.03-.1.15-.2.29-.38.35-.14.04-.28.09-.42.13-.08.04-.16.05-.24.05-.18,0-.35-.08-.52-.14-.31-.1-.41-.47-.73-.56-1.66-.43-3.19-1.19-4.78-1.79.27.63.71,1.12,1.27,1.5.32.2.58.44.62.85.01.24.02.48.03.72.25.22.5.43.75.65h0c.07.14.14.28.2.43.32.21.55.51.71.86,0,0,0,0,0,0,0,0,0,0,0,0,.09,1.02-.03,2.01-.38,2.97h0c-.19.73-.47,1.39-1.3,1.61-.09.22-.16.44-.33.62-.73,1.12-1.46,2.25-2.42,3.19-.68.64-1.24,1.38-1.8,2.13-.08.16-.15.33-.34.4-.14.07-.28.14-.42.21-.03,0-.06,0-.09,0-.47,0-.68-.36-.88-.71-.1.17-.21.34-.31.52,0,0,0,0,0,0h0c-.02.25-.09.47-.32.6-.64.57-1.43.91-2.17,1.32-.04.03-.09.07-.13.1-.11.36-.3.67-.56.94h0c.15.59.29,1.17-.31,1.6-.26.34-.5.7-.85.96-.12.2-.19.42-.21.64-.05.42-.14.82-.43,1.15-.07.04-.14.07-.21.11-.29.21-.57.29-.85.29-.39,0-.78-.16-1.16-.37-.08.24-.19.47-.43.6-.18.07-.35.15-.53.22-.73.48-1.54.81-2.33,1.18-.22.1-.43.2-.65.3h0c-.41.09-.75.33-1.03.6-.18.18-.36.25-.53.25-.18,0-.36-.09-.54-.23-.35-.29-.74-.45-1.18-.52-.12,0-.25.02-.37.02q-.7.02-.39.63c.46.9.23,1.72-.17,1.95-.75.43-1.56.8-2.47.8h0c-.28-.04-.56-.08-.84-.12-.61-.21-1.19-.44-1.39-1.14-.02-.12,0-.23.09-.32,0-.07,0-.13,0-.2-.09-.05-.17-.07-.24-.07-.28,0-.38.35-.59.49-.74,1.5-2.06,2.02-3.62,2.12-.14.02-.28.03-.42.03-.35,0-.7-.06-1.06-.06-.08,0-.16,0-.23,0-.54.24-1.01.61-1.58.78-.26.2-.53.27-.79.27-.39,0-.77-.16-1.14-.32-.36-.16-.71-.31-1.11-.31-.05,0-.1,0-.15,0-.18-.03-.37-.08-.55-.09-.33-.01-.45-.43-.78-.43-.02,0-.03,0-.05,0-.18.09-.37.12-.56.12-.21,0-.43-.03-.65-.03-.02,0-.04,0-.06,0,.03-.03-.69-.48-.81-.99-.1-.42.2-.84-.06-1.23l-.84.66c0,.08,0,.17-.09.21-.08.29-.19.58-.35.84-.29.64-.79,1.02-1.47,1.15-.26.05-.51.14-.76.22-.22.1-.45.12-.67.12-.26,0-.53-.03-.79-.03-.11,0-.23,0-.34.02-.18.13-.4.09-.6.11-.05,0-.11.01-.16.01-.47,0-.91-.25-1.38-.25-.03,0-.06,0-.09,0-.11.01-.22.03-.32.04h0c-.11.07-.22.09-.33.09-.13,0-.26-.02-.39-.02,0,0,0,0,0,0-.03,0-.06,0-.08,0-.09,0-.18-.03-.26-.08-.15.01-.3.02-.45.02-.91,0-1.77-.25-2.61-.58,0,0,0,0,0,0h0,0s0,0,0,0c-.76-.21-1.11-.8-1.39-1.48-.06-.16-.22-.24-.37-.24-.11,0-.22.05-.28.15-.03.57-.29,1-.78,1.02-.58.02-1.1.19-1.62.37-.13.07-.26.09-.39.09-.3,0-.6-.13-.9-.13-.04,0-.07,0-.11,0-.26.1-.49.25-.78.25-.02,0-.04,0-.05,0-.14.08-.29.1-.44.1-.17,0-.35-.03-.53-.03h0c-.14,0-.28,0-.42-.01-.36-.11-.68-.27-.96-.52h0c-.19-.11-.39-.21-.53-.39-.19,0-.38,0-.57-.02-.02,0-.04,0-.06,0-.24,0-.48.07-.71.07-.16,0-.32-.03-.48-.15-.1-.02-.2-.03-.31-.05-.17-.03-.35-.07-.52-.1-.18,0-.33-.07-.46-.19-.24-.04-.45-.17-.64-.32,0,0,0,0,0,0-.6-.38-.91-.96-1.14-1.6-.04,0-.07,0-.11,0,.15.84-.06,1.21-.75,1.35-.14.03-.28.04-.42.06,0,0,0,0,0,0-.02,0-.24.04-.51.04-.24,0-.51-.04-.68-.17-.16-.04-.33-.08-.49-.12,0,0,0,0,0,0h0c-.26-.08-.47-.24-.67-.41h0c-.3-.41-.23-.84-.1-1.28h0s0,0,0,0h.01c0-.34.18-.52.51-.56-.06-.09-.13-.18-.19-.28-.46,0-.91-.02-1.37-.03-.23.06-.46.1-.69.1-.19,0-.39-.03-.58-.1-.62-.19-.76-.69-.84-1.24-.26.25-.23.72-.66.83-.08.11-.2.11-.32.12-.07.02-.14.03-.21.03-.21,0-.39-.1-.54-.25-.34-.34-.74-.57-1.16-.76-.42-.05-.75-.29-1.09-.51,0,0,0,0,0,0-.35-.25-.69-.5-1.04-.75-.06.01-.13.02-.19.02-.3,0-.55-.14-.79-.33h0c-.07-.04-.14-.07-.21-.11-.25-.23-.27-.57-.4-.86h0s0,0,0,0c-.55-.22-1.01-.61-1.6-.73-.42-.34-.85-.68-.96-1.26-.52-.61-.9-1.31-1.29-2-.15-.26-.19-.54.04-.79h0,0c0-.06-.01-.11-.02-.17-.28-.11-.55-.22-.76-.45-.55-.23-.99-.61-1.37-1.06,0,0,0,0,0,0-1-.82-1.53-1.98-2.11-3.09-.04-.07-.07-.15-.11-.22-.01,0-.02,0-.03,0-.36,0-.69-.11-1.02-.23-.11-.03-.21-.07-.32-.1-.36-.09-.68-.27-.95-.53-.49-.28-.82-.75-1.27-1.06-.26-.14-.39-.4-.56-.62-.64-.47-.93-1.14-1.04-1.9,0,0,0,0,0,0-.35-.14-.65-.35-.87-.65h0c-.31-.34-.29-.85-.62-1.17,0,0,0,0,0,0-.41-.35-.28-.82-.31-1.26-.47-.27-.97-.51-1.3-.96-.4-.24-.71-.53-.6-1.06h0s0,0,0,0c0,0,0,0,0,0,0,0,0,0,0,0,0,0,0,0,0,0-1-1.08-.96-2.62-1.7-3.82,0,0,0,0,0,0-.51-.08-.76-.44-.96-.86-.32-.64-.71-1.24-.74-1.99-.62-.32-1.24-.67-1.33-1.45-.06-.54-.31-.96-.7-1.32-.17-.05-.29-.14-.32-.33-.26-.03-.36-.21-.42-.43,0,0,0,0,0,0-.17-.28-.07-.57.04-.82.25-.58.12-1.1-.18-1.61-.11-.18-.21-.37-.31-.56-.4-.79-.22-1.59.46-2.11h0s0-.07,0-.1c-.35-.19-.63-.45-.76-.85-.41-.5-.44-1.16-.74-1.71-.11-.1-.21-.19-.32-.29-.31-.27-.61-.53-.64-.98h0c-.22-.54-.03-1.13-.2-1.67,0,0,0,0,0,0-.28-.06-.49-.21-.64-.45-.49-.79-.57-1.76-1.07-2.55,0,0,0,0,0,0-.14-.15-.2-.33-.21-.53h0c-.16-.16-.2-.37-.22-.58-.11-.92-.14-1.85-.54-2.71,0,0,0,0,0,0-.25-.46-.25-.93-.09-1.41.07-.24.13-.47,0-.71-.02-.8.11-1.63-.42-2.34h0s0,0,0,0c0,0,0,0,0,0-.36-.55.38-2.2.78-2.24.71-.08.8-.2.92-.92.09-.5.13-1.02.51-1.41.16-.66-.24-1.26-.2-1.91,0,0,0,0,0,0-.39-.69-.12-1.41-.09-2.12-.15-.14-.31-.28-.46-.42,0,0,0,0,0,0-.07-.15-.1-.31-.05-.47.35-1.28.41-2.61.73-3.9.12-.33.22-.67.35-1,.23-.57.38-1.19.79-1.66.22-.26.31-.52.36-.85.06-.42-.02-.9.44-1.19.55-.34.92-.86,1.3-1.38.23-.32.43-.7.86-.82.23-.28.58-.24.88-.32,0,0,0,0,0,0,0,0,0,0,0,0-.07-.25-.29-.28-.49-.33-.3-.08-.55-.23-.71-.51,0,0,0,0,0,0-.46-.32-.53-.6-.3-1.29-.02-.41.27-.73.29-1.12.06-.84.33-1.58.75-2.33.64-1.15,1.16-2.37,1.83-3.52.53-.91,1.3-1.61,1.89-2.46,0,0,0,0,0,0,.24-.46.55-.69.95-.69.17,0,.36.04.56.13.07.06.15.13.22.19.22.15.43.3.65.45h0c.35.13.63.42,1.02.45.08.01.15.02.21.02.42,0,.68-.25.86-.66-.29-.17-.67-.2-.86-.53-.25-.4-.64-.56-1.08-.68-.35-.1-.74-.11-1.02-.39h0s0,0,0,0c-.26-.23-.33-.52-.33-.86-.02-.74.26-1.42.43-2.11h0c0-.28-.02-.57.01-.85.04-.37.07-.78.5-.91.54-.17.8-.57,1.02-1.06.69-1.53,1.43-3.03,2.68-4.22.38-.36.8-.78.84-1.32.05-.66.36-1.08.88-1.41.22-.27.54-.4.86-.53.05-.17.21-.22.33-.32h0c.13-.11.25-.23.43-.23.03,0,.06,0,.09.01.34.05.66.15.96.32h0c.63.09.68.15.52.64-.47.79-.88,1.59-.84,2.55.03,0,.07,0,.1,0,.26-.14.52-.21.8-.21.12,0,.25.01.37.04.13.02.25.04.38.04.27,0,.54-.06.8-.19.13-.03.14-.11.11-.22-.26-.23-.46-.5-.54-.85-.14-.25-.28-.5-.42-.75-.19-.18-.59-.29-.22-.66h0c.01-.26.02-.52.22-.73,0,0,0,0,0,0h0c-.1-.54.18-.96.49-1.34.23-.29.37-.58.43-.94.07-.4.26-.76.45-1.12.19-.33.14-.67.04-1.02-.24-.89-.16-1.04.7-1.33h0c.19-.18.4-.28.64-.28.09,0,.18.01.28.05.06.02.12.03.18.03.17,0,.33-.06.49-.09.04.04.78-.03,1.16.09.03-.06.72-.29.85-.48.22-.34.48-.58.84-.75.2-.09.42-.22.41-.5,0-.34.56-.34,1.09-.39.78-.09,1.4-.45,1.89-1.07.03-.04.08-.06.13-.09h0c.11-.1.29-.13.33-.31,0-.09,0-.18-.01-.26-.07-.77.13-1.1.86-1.42.29-.13.57-.27.87-.39.43-.18.86-.29,1.3-.29.27,0,.53.04.81.12.3.11.63.16.86.41.17.26.33.51.5.77,0,.03,0,.06,0,.09.06.1.13.15.21.15.04,0,.09-.01.13-.04,0,0,0,0,0,0,0,0,0,0,0,0t0,0s0,0,0,0h0s0,0,0,0h0s0,0,0,0h0s0,0,0,0h0s0,0,0,0h0s0,0,0,0h0s0,0,0,0h0s0,0,0,0h0s0,0,0,0h0s0,0,0,0h0s0,0,0,0t0,0s0,0,0,0c0,0,0,0,0,0,.08-.03.84-.24.82-.65,0-.07.02-.14.02-.21t0,0s0,0,0,0c.23-.41.4-.89.94-.98.52-.09.93-.38,1.38-.61.24-.12.48-.22.75-.22.03,0,.07,0,.1,0,.27-.19.58-.22.89-.22.04,0,.08,0,.12,0,0,0,.01,0,.02,0,.68,0,5.67-.54,5.67-.54.24.04.49.09.73.13,0,0,0,0,0,0,.17.07.35.1.53.1.23,0,.46-.04.68-.09,0,0,0,0,0,0h0c.06,0,.11,0,.16,0,1.17,0,1.58.32,1.71,1.28.02.18,0,.35-.06.52h0c.43.24.66.63.8,1.09,0,0,0,0,0,0h0c0,.36.11.7.22,1.04.11.21.22.41.34.62h0c.38-.05.53-.31.61-.64.2-.76.27-1.53.23-2.31-.17-.42-.16-.85,0-1.27h0c.1-.44.48-.57.83-.73.25-.11.55-.14.76-.34.84-.67,1.85-.84,2.87-.95.49-.04.97-.24,1.46-.24.09,0,.17,0,.26.02.28.04.58.18.85.18.04,0,.08,0,.13-.01.36-.06.72-.09,1.07-.09.98,0,1.92.23,2.85.59.37.14.82.07,1.14.38,0,0,0,0,0,0,.75.39.97.89.73,1.62,0,.31,0,.63-.01.94.1.4.21.8.31,1.2.12.31.23.62.35.93.04.01.08.02.12.02.22,0,.35-.19.49-.34.15-.31.31-.62.46-.94,0,0,0,0,0,0,.28-.74.46-1.48.04-2.24-.05-.08-.03-.21-.05-.31.04-.21.07-.43.11-.64.21-.3.48-.57.83-.61.84-.11,1.66-.26,2.43-.63.11-.05.25-.07.38-.07.03,0,.06,0,.09,0,.03,0,.06,0,.09,0,.42,0,.8-.13,1.18-.29M144.53,71.97s0,0,.01,0c0,0,0,0-.01,0,0,0,0,0,0,.01M89.96,74.18s0,0,0,0h0s0,0,0,0c0,0,0,0,.01-.01M160.26,76.65s0,0,0,0c0,0,0,0,0-.01,0,0,0,0,0,0,0,0,0,0,0,.01h0M97.19,77.08s0,0,0,0c0,0,0,0,0,0,0,0,0,0,0,0M99.11,81.85s0,0,0,0c0,0,0,0,0,0,0,0,0,0,0,0,0,0,0,0,0,0,0,0,0,0,0,0,0,0,0,0,0,0h0s0,0,0,0M111.61,82.28s.01-.03.02-.05c0-.03-.01-.05-.02-.08v.13M115.88,83.13s0,0,0,0c0,0,0,0,0,0h0s0,0,0,0c0,0,0,0,0,0h0M87.78,83.76s.01,0,.02,0c0,0,.01,0,.02,0,0,0,0,0,0,0t0,0h0s-.01,0-.02,0c0,0-.01,0-.02,0,0,0,0,0,0,0,0,0,0,0,0,0,0,0,0,0,0,0M126.16,84.06s0,0,0-.01c0,0,0,0,0,0,0,0,0,0,0,0M124.66,84.71s0-.01,0-.02c0,0,0,0,0,0,0,0,0,.01,0,.02M129.11,86.5s0,0,0,0c0,0,.01,0,.02,0,0,0,0,0,0,0,0,0,0-.01,0-.02,0,0-.02,0-.02.01M103.76,90.86s.01,0,.02,0c0,0,0,0,0,0,0,0,0,0,0,0M99.29,93.09s0,0,0,0c0,0,0,0,0,0,0,0,0,0,0,0M99.3,93.1s0,0,0-.01c0,0,0,0,0,0,0,0,0,0,0,0M164.5,100.21s0,0,0,0c0,0,0,0,0,0,0,0,0,0,0,0M122.02,100.74s0,0,0,0c0,0,0,0,0,0,0,0,0,0,0,0,0,0,0,0,0,.01h0M94.33,102.39c.09,0,.19-.02.29-.04,0,0,0,0,0,0l-.29.04M107.91,103.39s0,0,0,0c0,0,0,0,0-.01,0,0,0,0,0,.01M113.44,105.07s0,0,0,0c0,0,0,0,0,0,0,0,0,0,0,0M74.89,111.91s0,0,0-.01c0,0,0,0,0,0,0,0,0,.01,0,.02M177.45,117s0,0,0-.01h0s0,0,0,0c0,0,0,0,0,0,0,0,0,0,0,0M147.5,119.12s0-.03.01-.05c0,0-.02,0-.03.01,0,.01,0,.03.01.04M150.38,121.65s0,0,0-.01c0,0-.01,0-.02,0,0,0,0,0,0,.01M119.35,122.08c.06,0,.15-.05.22-.09-.15,0-.3-.02-.45-.03.07.04.14.07.2.12,0,0,.02,0,.03,0M121.6,122.41s0,0,0,0c0,0,0,0,0,0,0,0,0,0,0,0M121.59,122.4s0,0,0,0c0,0,0,0,0,0,0,0,0,0,0,0M118.51,128.24s0,0,0,0c0,0,0,0,0,0,0,0,0,0,0,0M187.64,134.73s0,0,0,0c0,0,0,0,0,0,0,0,0,0,0,0,0,0,0,0,0,0h0s0,0,0,0M183.71,135.89s0-.02.01-.03c0,0,0,0-.01,0,0,.01,0,.03,0,.04h0M121.91,136.95h0s0,0,0,0c0,0,0,0,0,0,0,0,0,0,0,0h0s0,0,0,0c0,0,0,0,0,0,0,0,0,0,0,0,0,0,0,0,0,0,0,0,0,0,0,0,0,0,0,0,0,0h0s0,0,0,0M70.43,137.27s.01-.03.01-.04c-.01.01-.02.02-.03.03,0,0,.01,0,.02,0M70.41,137.26s0,0,0-.01c0,0,0,0,0,0,0,0,0,0,0,0M143.89,137.8s0,0,.01-.01c0,0,0,0-.01,0,0,0,0,0,0,.01M168,137.91s0,0,0,0c0,0,0,0,0,0h0s0,0,0,0c0,0,0,0,0,0M64.56,140.56s0,0,0,0h0s0,0,0,0M102.59,144.06s0,0,0,0c0,0,0,0,0,0,0,0,0,0-.01,0,0,0,.01,0,.02,0,0,0,0,0,0,0M113.3,146.5h0s.01,0,.02,0c0,0,0,0,0-.01,0,0-.01,0-.02.01M156.65,155.28s0,0,0,0c0,0,0,0,0,0,0,0,0,0,0,0,0,0,0,0,0,0,0,0,0,0,0,0M154.51,158.2s0,0,0,0c0,0,0,0-.01,0,0,0,0,0,.01,0M160.25,158.3h0,0s0,0,0,0c0,0,0,0,0,0,0,0,0,0,0,0,0,0,0,0,.01,0,0,0,0,0,0,0,0,0,0,0,0,0M87.5,158.63h0s0,0,0-.01c0,0,0,0,0,0,0,0,.01,0,.02,0M78.16,159.46s0,0,0,0c0,0,0,0,0,0,0,0,0,0,0,0,0,0,0,0,0,0h0M152.49,161.05s0,0,0,0c0,0,0,0,0,0,0,0,0,0,0,0M152.49,161.05s0,0,0,0c0,0,0,0,0,0,0,0,0,0,0,0M90.05,163.92h0s0,0,0,0c0,0,0,0,0,0M87.61,163.93s0,0,0,0c0,0,0,0,0,0,0,0,0,0,0,0M105.89,167.33s0,0,0,0h0s0,0,0,0M101.1,171.78h0s0,0,0,0h0M155.13,174.1s0,0,0,0h0s0,0,0,0c0,0,0,0,0,0,0,0,0,0,0,0,0,0,0,0,0,0,0,0,0,0,0,0,0,0,0,0,0,0,0,0,0,0,0,0,0,0,0,0,0,0,0,0,0,0,0,0M135.4,61.69c-.31,0-.63.06-.92.19-.2.09-.27.1-.28.1-.03,0-.09,0-.16,0-.51,0-.95.09-1.36.29-.5.24-1.13.35-1.74.42-.47.06-1.1.26-1.71.78-.02-.01-.05-.03-.07-.04-.64-.47-1.29-.58-1.63-.63h-.06c-1.27-.49-2.45-.72-3.59-.72-.38,0-.76.03-1.14.08-.15-.04-.34-.09-.56-.12-.2-.03-.4-.05-.61-.05-.53,0-.99.1-1.32.18-.11.03-.27.06-.33.07-.02,0-.05,0-.07,0-1.22.14-2.63.36-3.91,1.33-.14.04-.27.09-.4.15l-.07.03c-.27.12-.79.34-1.25.8-.58-.37-1.36-.61-2.43-.61h-.21c-.14,0-.29.02-.43.05-.04,0-.08.02-.12.03-.07-.02-.13-.03-.2-.05l-.59-.11-.14-.02c-.13-.02-.27-.04-.41-.04-.08,0-.17,0-.25.01-2.33.25-5,.52-5.44.53h-.13c-.39,0-.92.03-1.49.25-.54.08-.98.27-1.29.43-.14.07-.27.14-.4.22-.13.07-.3.16-.36.18-.7.11-1.21.43-1.59.79-.23-.1-.43-.17-.59-.21l-.1-.03s-.06-.02-.09-.03c-.49-.15-.99-.23-1.5-.23-.72,0-1.47.16-2.2.47-.19.08-.38.17-.57.26-.11.05-.22.1-.33.15-1.33.59-2.07,1.54-2.22,2.82-.11.13-.18.14-.28.15h-.16c-1.56.15-2.31.79-2.67,1.44-.25.17-.48.37-.69.59-.1,0-.2,0-.3,0h0c-.09-.01-.17-.02-.26-.02-.15,0-.31.02-.46.05,0,0-.02,0-.03,0-.16-.02-.31-.03-.47-.03-.47,0-1.12.11-1.78.56-1.65.7-2.26,1.92-1.86,3.71-.18.36-.36.8-.46,1.32-.1.12-.23.29-.36.49-.04,0-.08-.01-.12-.02-.17-.03-.34-.05-.5-.05-.93,0-1.56.46-1.87.73-.08.05-.19.13-.3.23-.3.15-.63.35-.95.65-1.11.79-1.52,1.82-1.65,2.66-.06.06-.13.13-.18.18-1.54,1.48-2.44,3.29-3.16,4.89-.77.35-1.58,1.11-1.74,2.73-.03.31-.03.58-.03.8-.02.06-.04.12-.05.18-.18.61-.4,1.37-.38,2.27,0,.09,0,.18.01.27-.32.27-.6.61-.84,1.01-.18.24-.39.49-.61.76-.43.51-.91,1.08-1.32,1.79-.4.69-.74,1.37-1.07,2.04-.26.53-.51,1.04-.78,1.52-.59,1.06-.92,2.05-1.02,3.09-.09.23-.24.6-.3,1.09-.25.97-.14,1.73.15,2.32-.23.32-.48.66-.63.76-1.35.83-1.47,2.16-1.51,2.7-.48.63-.71,1.28-.89,1.77-.04.11-.08.22-.12.33-.11.27-.2.54-.29.81l-.1.29c-.02.07-.05.14-.06.21-.17.7-.27,1.37-.37,2.02-.1.65-.19,1.26-.34,1.81-.18.67-.12,1.4.18,2.05.04.1.09.19.15.27-.04.51-.03,1.15.21,1.83.03.3.09.57.14.78-.16.34-.25.67-.32.96-.49.28-1,.79-1.42,1.67-.32.68-.97,2.4-.06,3.8.01.02.03.04.04.06.02.13.01.4.01.58,0,.16,0,.33,0,.49,0,.09,0,.17.02.26-.3,1.24-.02,2.19.3,2.82.15.36.21.88.27,1.47.02.17.03.34.05.51.03.22.08.68.33,1.18.1.36.27.69.49.98.08.16.16.42.25.68.16.5.37,1.13.76,1.76.12.18.25.35.39.51.02.27.05.57.15.9.18,1.09.86,1.76,1.28,2.13,0,.02.01.04.02.06.11.36.28.88.61,1.4-.29.95-.21,2,.28,2.99.09.19.19.37.3.56-.28.83-.25,1.6.08,2.3.21.56.55,1.01.99,1.33.1.1.2.19.31.28.19,1.22.9,1.99,1.55,2.48.17.49.39.91.57,1.26.05.1.1.2.15.3.33.69.76,1.23,1.3,1.59.06.18.12.38.18.58.21.7.46,1.53.98,2.33.13.62.48,1.34,1.3,1.94.22.24.44.43.67.6.1.42.3.89.68,1.33.11.3.29.77.68,1.22.19.24.41.46.65.65.28.8.74,1.48,1.35,2.02.18.26.48.64.97.95.06.05.17.15.25.23.22.22.52.5.9.75.5.43,1.08.73,1.72.9l.15.05.08.02c.07.03.15.05.23.08.51.97,1.12,2.02,2.13,2.91.44.5.91.89,1.42,1.2.07.26.18.52.32.77l.11.2c.31.55.66,1.16,1.11,1.76.39.98,1.1,1.55,1.55,1.92.29.23.65.41,1.02.49.02,0,.12.06.22.12.15.29.36.62.69.92.15.13.31.25.49.34l.05.03c.45.32.92.52,1.4.62l.41.3.08.06s.06.04.09.06l.07.05c.35.23.86.57,1.54.74.13.07.21.12.26.18.6.6,1.37.94,2.18.94.2,0,.4-.02.59-.06.05,0,.11-.01.16-.02.18.09.37.17.55.23.23.08.48.14.72.17.11.41.29.8.56,1.15.11.14.23.27.37.39.34.29.81.64,1.47.85.04.01.09.03.13.04l.19.05c.45.21.96.32,1.54.32.32,0,.59-.03.77-.06.01,0,.02,0,.03,0h.09c.16-.03.33-.05.49-.08.1-.02.2-.04.3-.07.19.14.5.33.89.48.35.2.74.32,1.14.37l.33.06.08.02s0,0,0,0c.33.14.73.24,1.21.24.23,0,.43-.02.58-.04.45.35.96.61,1.56.8.2.06.42.1.63.1h.42s.04.01.06.01h.07c.15.02.31.03.46.03.33,0,.65-.05.95-.13.24-.04.46-.1.64-.16.19.04.43.07.69.07.44,0,.86-.09,1.26-.26.33-.11.62-.2.86-.21.29-.01.56-.06.81-.14.32.23.7.43,1.15.57.81.31,2,.71,3.37.71.04,0,.08,0,.13,0,.19.04.39.06.58.06.03,0,.07,0,.1,0,.14.01.26.02.38.02.27,0,.53-.03.78-.1.01,0,.02,0,.03,0,.3.08.76.21,1.31.21.14,0,.27,0,.41-.02.19,0,.49-.02.84-.12.03,0,.07,0,.1,0,.18.01.36.02.55.02.55,0,1.04-.09,1.5-.28.13-.05.28-.09.38-.11.76-.15,1.43-.47,1.98-.93.35.21.76.33,1.19.33.02,0,.05,0,.07,0,.04,0,.09,0,.14,0,.16.01.33.02.49.02.05,0,.1,0,.14,0,.29.15.66.28,1.1.31l.08.02c.08.02.16.03.25.05.13.02.25.03.38.03.02,0,.04,0,.06,0,.07.03.18.07.26.11.49.21,1.2.52,2.07.52.64,0,1.26-.17,1.81-.49.44-.17.8-.37,1.1-.54,0,0,0,0,.01,0,0,0,.02,0,.02,0,.24.02.48.04.71.04s.46-.01.67-.05c1.55-.12,2.83-.57,3.83-1.36.36.18.69.3.92.38.14.05.28.08.43.1l.84.12c.11.01.21.02.32.02,1.51,0,2.73-.59,3.62-1.11.61-.35,1.05-.9,1.31-1.55.06,0,.12,0,.19,0,.55,0,1.36-.16,2.13-.9.02-.02.03-.03.04-.04.12-.03.24-.08.35-.13l.22-.1.43-.2c.2-.1.38-.18.56-.26.58-.26,1.22-.56,1.86-.96l.34-.14c.06-.03.13-.06.19-.09.17.02.34.04.53.04.71,0,1.41-.21,2.03-.61l.09-.05c.26-.13.49-.32.68-.54.59-.68.82-1.44.93-2.04.2-.22.37-.44.51-.63.89-.8,1.08-1.77,1.06-2.56.56-.29,1.17-.63,1.76-1.11.06,0,.12,0,.18,0,.09,0,.19,0,.29-.01.29-.03.58-.11.84-.24l.28-.14.06-.03c.77-.34,1.16-.93,1.34-1.27.46-.61.92-1.2,1.43-1.69,1.12-1.11,1.91-2.3,2.67-3.46.07-.09.14-.18.19-.26,1.24-.79,1.64-2.09,1.8-2.68.43-1.24.59-2.54.47-3.86.05,0,.09,0,.14,0,.35,0,.69-.06,1.02-.19l.09-.03.23-.07s.04-.01.06-.02c.94-.32,1.41-1.03,1.57-1.26.38-.57.8-1.16,1.28-1.6.44-.4.63-.87.7-1.09.33-.73.68-1.37,1.06-1.91.45-.65.64-1.33.76-1.9l.03-.11.02-.09.19-.56.14-.41c.32-.72.4-1.41.4-1.98.22-.64.33-1.27.32-1.89.47-.13.86-.35,1.17-.55.67-.45,1.04-.97,1.29-1.31.04-.05.07-.1.11-.15l.65-.75.69-.8s.07-.08.1-.13c.33-.45.64-1.11.53-1.96.45-.76.74-1.58.86-2.45.5-.82.75-1.67.93-2.44.03-.02.05-.04.07-.06.58-.35.99-.91,1.16-1.56.17-.48.28-1.11.13-1.85.18-1.22-.18-2.17-.77-2.85l.13-.31.02-.04c.43-.49.72-1.07.84-1.7.1-.29.16-.57.17-.84.08-.1.17-.22.24-.34.32-.25.58-.58.75-.96.25-.54.29-1.12.14-1.72-.04-.68-.19-1.33-.47-1.92-.08-.19-.16-.37-.26-.52,0-.03,0-.05,0-.08v-.21s-.01-.31-.01-.31c-.03-.99-.47-1.67-.7-2.03-.26-.4-.44-.81-.54-1.22.04-.05.07-.1.1-.15l.06-.09.05-.07c.26-.42.87-1.4.53-2.72-.02-.09-.05-.18-.09-.26-.02-.05-.05-.22-.07-.35-.08-.42-.18-.99-.48-1.59l-.05-.12c-.07-.17-.17-.34-.28-.49-.47-.62-1.05-1.12-1.7-1.46-.04-.43-.18-.86-.41-1.27l-.07-.12c-.05-.09-.1-.18-.16-.28.02-.2.02-.43,0-.68.02-1.22-.46-2.37-1.37-3.26-.18-.17-.21-.28-.21-.45-.01-.75-.24-1.45-.7-2.15-.31-.46-.68-.85-1.09-1.15-.1-.13-.22-.27-.37-.4-.01-.07-.02-.14-.03-.2-.01-.1-.03-.19-.04-.29-.14-.92-.53-1.73-1.15-2.42-.09-.18-.14-.34-.16-.5-.01-.08-.03-.17-.05-.25-.37-1.49-1.32-2.62-2.68-3.21-.11-.22-.14-.37-.15-.49-.11-1.06-.6-1.84-.93-2.35-.1-.16-.21-.34-.25-.42-.49-1.2-1.26-2.05-1.93-2.79-.23-.26-.45-.5-.63-.73-.22-.28-.47-.52-.75-.72.04-.88-.15-1.73-.56-2.5-.12-.27-.25-.44-.31-.53-.07-.1-.13-.17-.21-.26l-.17-.18-.14-.15c-.12-.12-.25-.23-.39-.33l-.61-.41-.59-.39c-.48-.73-1.03-1.48-1.73-2.14-.02-.05-.05-.1-.07-.15-.2-.73-.64-1.2-.83-1.4l-.02-.02-.28-.38c-.69-.95-1.47-2.03-2.53-2.94,0,0,0,0,0,0-.13-.23-.33-.6-.69-.96-.41-.48-1.2-1.32-2.46-1.32-.12,0-.23,0-.34.02-.1-.2-.21-.4-.35-.59l-.21-.3c-.51-.73-1.12-1.6-2.02-2.32-.07-.27-.15-.56-.26-.87-.57-1.55-1.88-2.51-3.41-2.51-.16,0-.32.01-.48.03-.49-.39-1.17-.72-2.12-.8-.05,0-.11,0-.16-.01-.58-.99-1.5-1.37-1.98-1.52-.44-.13-.89-.19-1.32-.19-.15,0-.3,0-.44.02-.18-.56-.62-1.32-1.68-1.8-.97-.45-1.88-.69-2.78-.75-.05,0-.1,0-.15,0-.17,0-.34.02-.5.05-.07.02-.15.03-.22.04-.38.07-1,.18-1.62.54-.67-.56-1.4-.67-1.74-.72h-.05c-1.17-.38-2.28-.42-3.26-.46h-.15c-.07,0-.11-.01-.14-.02-.84-.49-1.83-.58-2.7-.61h-.01c-.08,0-.15-.01-.23-.01h0Z"/></g><path class="cls-5" d="M163.5,161.91c.41-.08.29-.4.25-.63-.16-1.03-.8-1.75-1.59-2.37-.46-.36-.88-.77-1.39-1.22-.57.17-1.14.06-1.71-.48-.4-.38-1.02-.54-1.53-.79-.51.12-1.1.19-1.63.4-.51.2-1.01.49-1.42.85-.38.34-.75.8-.9,1.27-.27.83-.93,1.1-1.59,1.46-.78.43-1.5.97-2.24,1.47-.43.29-.49.7-.37,1.19.12.46.16.93.26,1.6-.42-.18-.62-.29-.84-.36-.36-.11-.67.03-.56.42.24.82-.18,1.1-.86,1.19-.11.56-.22,1.07-.34,1.66-.42,0-.83.04-1.23-.01-.3-.04-.46-.26-.6-.57-.14-.32-.52-.54-.88-.74.23.86.93,1.63.14,2.48.5.77.97,1.5,1.45,2.23.19.28.4.55.62.8.74.84,1.59,1.38,2.78.95.17-.06.37-.03.59-.05.33.5.66.98,1.06,1.59-.39.2-.74.38-1.12.57-.08.6-.16,1.27-.27,1.93-.04.2-.16.53-.29.55-.85.18-.96.84-1.1,1.52-.04.17-.18.31-.28.48-.36-.04-.68-.08-1-.12-.25,1.26.38,2.46,1.47,2.89.71.28.84.57.8,1.85-.57-.19-.33-.78-.68-1.19-.23.02-.53.05-.93.08.1.28.14.41.2.53.32.59.2.97-.36.87-1.1-.19-1.97.7-3.06.5-.18-.03-.5.32-.65.56-.93,1.52-2.34,2.03-4.03,1.98-.76-.02-1.5,0-2.16.45-1.06.73-2.11.63-3.27-.12.31-.04.54-.07.76-.1.33-.06.69-.06.98-.2.64-.29,1.25-.65,1.87-.99.68-.38.79-.69.32-1.36-.74-1.06-1.43-2.17-2.7-2.86.55-.49,1.04-.94,1.54-1.36.7-.6,1.42-1.13,2.43-.63.22.11.52.06.77.13.4.11.68-.02.77-.41.09-.38-.05-.66-.48-.73-.1-.02-.2-.08-.28-.12-.12-1.39.86-1.78,1.88-2.12.25-.08.52-.1.77-.16.79-.2,1.1-.7.73-1.42-.39-.75-.67-1.44-.58-2.33.07-.66-1.25-1.69-1.94-1.69-.26,0-.55.07-.78-.02-.92-.35-1.49.08-1.94.82-.49-.39-.95-.81-1.48-1.13-.51-.31-1.08-.51-1.77-.83-1.38.86-2.83,1.77-4.29,2.66-.28.17-.6.32-.92.34-1.3.1-1.8.81-1.27,2.01.3.68.48,1.33.29,2.05-.09.32-.25.63-.31.96-.19,1,.05,1.44,1,1.68.93.24,1.88.38,2.95.59.31.51.69,1.14,1.23,2.02-.49-.09-.74-.07-.9-.18-.23-.18-.37-.47-.59-.67-.37-.35-.77-.41-1.21.04.44.13.85.18,1.16.37.14.09.09.47.14.81h-1.73c-.29.54-.67,1.04-.46,1.74.06.19-.08.56-.25.67-.56.4-.8.97-1.07,1.55-.58,1.27-1.84,1.35-2.96,1.5-.62.09-1.32.1-1.92-.41-.22-.19-.73-.03-1.08-.03.04-.37.26-.94.12-1.4-.14-.44-.65-.76-1.03-1.16.29-.13.47-.21.66-.29,0-.06,0-.13,0-.19-.38-.04-.76-.08-1.17-.13.24-.75.73-1.21,1.46-1.55.84-.4.95-2.48.15-2.94-.39-.22-.97-.13-1.46-.18-.22-.02-.43-.05-.69-.07-.19.39-.38.94-.72,1.38-.32.42-.24,1.14-1.1,1.39.11-.62.09-1.19.33-1.62.37-.68.15-1.25-.15-1.8-.67-1.23-1.7-1.52-3-.98-.33.14-.71.2-1.07.25-.51.08-1.03.15-1.54.16-.48,0-.96-.07-1.52-.12-.21.71-.36,1.42.3,2.02.38.35.31.74.17,1.14-.22.63.08,1.02.59,1.29,1.02.54,2.05,1.05,3.06,1.57.21.75-.14,1.36-.37,1.98-.07.18-.3.43-.46.43-.93,0-1.74.65-2.74.45-.51-.1-1.08.16-1.45.23-.37-.28-.65-.48-.96-.72.06-.34.15-.79.24-1.3-.88-.06-1.62-.11-2.35-.17-.56-.96-.54-.92.29-1.38.4-.23.75-.62,1.01-1.01.11-.16,0-.59-.17-.77-.24-.27-.61-.43-.98-.68-.8.45-1.68.41-2.58.32-.46-.05-.83-.24-.87-.72-.13-1.39-1.33-1.85-2.17-2.7.23.03.46.03.69.08.67.15,1.05.02,1.13-.64.06-.45.3-.54.6-.69,2.23-1.11,1.93-2.36,1.21-3.86-.37-.78-1.66-.92-2.24-.29-.36.39-.73.76-1.05,1.18-.41.54-.85.5-1.37.19,0-.14-.06-.29-.01-.36.72-1.02.59-2,.02-3.06-.4-.73-.84-1.48-.91-2.36-.02-.19-.21-.36-.37-.63.45-.31.91-.62,1.37-.93.12-.08.26-.17.41-.19.82-.1.41-1.09.98-1.35.57-.25.93-.56.81-1.28-.08-.48.3-.74.71-.89.84-.32,1.68-.63,2.54-.92.68-.23.96-.48.93-1.18-.03-.58-.21-1.16-.34-1.73-.17-.71-.35-1.42-.59-2.39-.22-.05-.71-.14-1.19-.28-.25-.07-.47-.24-.72-.31-.38-.1-.79-.22-1.18-.2-.8.03-1.19-.34-1.05-1.13.06-.33.15-.65.2-.98.02-.14-.02-.29-.03-.43q-1.8-.48-2.85.1c-.31-.29-.48-.57,0-.88.65-.43,1.3-.88,1.98-1.27.47-.28.88-.57.94-1.29-1.34-.65-2.58-1.55-4.21-1.63-.52-.03-1.07-.3-1.54-.59-.62-.37-1.21-.71-1.95-.83-.34-.06-.65-.39-.94-.63-.68-.56-.81-.55-1.45.02-.52.46-1.09.86-1.69,1.24-.36.54.08.9.38,1.38.27-.09.5-.2.75-.26.88-.21,1.82.19,2.13,1.03.26.72.34,1.51.53,2.41-2.02.61-3.92.21-5.87.26.12-1,.62-1.55,1.5-1.74.11-1.24.09-1.2-.91-1.78-.77-.45-1.48-1.01-2.2-1.54-.13-.1-.21-.31-.25-.49-.31-1.29-.68-2.59.27-3.83-.11-.21-.22-.43-.34-.66.45-.27.88-.51,1.29-.76.41-.25.82-.52,1.29-.82,0-.83.17-1.68-.28-2.54-.37-.71.15-1.69,1.21-2.42.43.69.95,1.34,1.27,2.08.16.38.11,1.03-.12,1.37-.85,1.28-.58,2.45,1.25,3.3.61.28,1.23.56,1.85.83.68.3,1.08.77,1.03,1.57-.02.28.07.59.19.86.43,1.02,1.55,1.17,2.29.32.32-.37.67-.72.94-1.12.27-.4.47-.85.72-1.3.78,0,1.61-.08,2.41.02,2,.25,3.15-.46,3.67-2.41.37-1.38.71-2.75.13-4.18-.13-.32-.1-.76,0-1.11.28-1.06-.07-2.07-.19-3.1-.08-.69-.42-1.08-1.14-1.16-.63-.07-1.25-.28-1.88-.3-1.14-.04-2.01-.47-2.62-1.45-.26-.41-.57-.79-.89-1.23-.89-.11-1.66.04-2.34.85-.41.49-1.05.94-1.66,1.06-.65.13-1.41-.08-2.08-.27-.53-.15-.68-1.09-.38-1.8.39-.89.8-1.77,1.13-2.68.27-.74.6-1.29,1.52-1.14.13.02.28-.05.46-.09.05-.19.13-.37.15-.54.04-.47.09-.71.73-.85.69-.16,1.37-.73,1.62-1.58.16-.53.43-1.03.71-1.51.32-.55.85-.83,1.46-.96.77-.15,1.54-.28,2.32-.42.62-.81.61-1.75.57-2.75-.06-1.63-.07-3.27.38-4.87.34-1.2.21-1.43-.93-1.88-.48-.19-1.01-.31-1.52-.31-1.15,0-2.07-.38-2.66-1.37-.41-.68-1.03-.96-1.75-1.09-1.11-.2-1.47-.02-2,.99-.4.78-.85,1.5-1.83,1.7-.15-.57-.11-1.03.32-1.46.52-.53.95-1.14,1.43-1.71.12-.14.26-.25.43-.41.28.16.53.3.94.53.13-.42.36-.79.35-1.15-.05-1.45.35-2.12,1.61-2.69.51-.23.92-.54,1.23-1.16.31-.61.75-1.36,1.63-1.66,1.06-.36,2.04-.94,3.05-1.43.7-.34.99-1.01.64-1.93-.59-1.54.26-2.74.69-4.12.33.15.55.26.84.39-.04-.15-.03-.27-.09-.33-.36-.37-.71-.78-1.12-1.08-.35-.25-.77-.44-1.19-.54-.54-.14-1.11-.25-1.66-.22-.99.06-1.65-.37-2.17-1.14-.17-.25-.34-.54-.58-.68-.33-.2-.78-.44-1.1-.36-.52.13-1.03-.11-1.58.14-.43.2-1.03,0-1.56,0-.9-.01-1.35-.49-1.38-1.36-.04-1.06-.13-2.13-.21-3.33.32-.38.75-.92,1.31-1.59.08.4.15.63.17.87.12,1.29.77,1.92,2.09,2.02.48.04,1.02.02,1.43.22.58.28,1.07.75,1.67,1.19.58-.32,1.33-.68,2.03-1.12.57-.36,1-.81,1.17-1.55.32-1.36,2.33-2.9,3.7-2.92.2,0,.48.19.6.37.13.2.13.5.2.85.31-.26.55-.56.86-.7.27-.12.62-.07.93-.1-.22-.83-.46-1.7-.7-2.61.47-.23.9-.44,1.32-.64-.1-.95-.83-1.68-.82-2.64.15.01.26,0,.28.03.37.72,1.02.76,1.73.93,1.34.33,2.4-.24,3.36-.84.76-.48,1.27.03,1.88.04.32,0,.7.33.92.61.4.53.92.71,1.53.9.94.29,1.02.14,1.56-.57.46-.61.94-1.04,1.73-1.08.18,0,.39-.05.53-.16,1.07-.85,2.46-.55,3.65-.97.36-.13.79.16.88.66.05.27.12.54.34.78-.05-.65-.05-1.31-.16-1.95-.1-.58-.44-1.17.31-1.57-.08-.8-.06-1.63-.28-2.39-.08-.28-.72-.42-1.12-.57-.35-.13-.73-.19-1.07-.39.34-.09.69-.41.97.08.06.1.33.17.46.13.64-.24.99.06,1.15.62.11.36.27.69.63.65.23-.02.47-.32.64-.54.45-.57.71-1.32,1.78-1.6-.76,1.69-1.04,3.33-2.08,4.77.8.29,1.11-.1,1.41-.57,1.08.1,2.18.14,3.26.32.56.09,1.18.26,1.5,1.01-.79.25-1.55.18-2.3.02-1.42-.31-2.55.33-3.04,1.73-.49,1.41-.99,2.81-1.54,4.38.34-.27.59-.45.87-.67.08.83-.04,1.19-.71,2.18-.16-.14-.32-.27-.63-.53.06.44,0,.79.15.97.15.19.5.21.81.33.52-.48,1.12-.76,1.91-.65.36.05.77-.21,1.4-.4.06.1.21.52.33.51.76-.06,1.04.66,1.14,1.01.22.74.9,1.07,1.09,1.69.73-.1,1.38-.27,2.03-.25.84.02,1.25-.52,1.76-1.01.31-.3.67-.55,1.01-.82.08-.07.25-.09.27-.17.24-.87,1.08-.95,1.68-1.35,1.07.48.39,1.29.41,2.07.5.09,1.02.18,1.69.29.04-1.11.21-2.17.08-3.18-.09-.65,0-1.17.26-1.71.56-1.19.25-1.98-.99-2.47-.76-.3-1.56-.53-2.29-.89-.44-.22-.79-.63-1.31-1.05,1.21-.47,2.26-.69,3.37-.59.32.54.63,1.06.94,1.58.64-1.26-.14-2.37-.03-3.54.98-.46,1.72.12,2.37.72.52.48.07,1.04-.2,1.63.21.03.36.05.61.08-.06.27-.12.52-.19.83.67.37,1.63-.48,2.17.55-.45.68-1.01,1.19-1.84,1.46-.86.29-.92,1-.2,1.69.44-.42.89-.85,1.33-1.27.13.51-.25.65-.41.94-.13.25-.34.67-.25.79.59.69.12,1.36.01,2.16.61,0,1.18-.04,1.75.01.55.05,1.09.22,1.65.29.91.12,1.27.44,1.44,1.47-.89.15-1.4.87-2.02,1.45-.51.48-1.11.89-1.72,1.24-.63.36-1.03.84-1.21,1.54-.07.25-.17.5-.27.74-.41.95-.6,1.03-1.62,1.03-.65,0-1.3.12-2.28.22-.82-.34-.6-1.48-1.11-2.43-.31-.06-.86-.12-1.37-.27-.5-.15-.97-.39-1.44-.59-.81.18-1.07.73-.97,1.53-.08,0-.16.01-.23.02-.23-.45-.48-.89-.69-1.35-.28-.63-.75-.97-1.43-.81-.76.18-1.51.41-2.24.68-.42.16-.77.46-1.17.67-.79.41-1.27.3-1.86-.38-.27.08-.52.22-.77.22-1.53.03-1.76.19-2.3,1.59-.19.49-.5.93-.66,1.43-.2.63-.29,1.3-.42,1.96-.04.22,0,.47-.09.66-.35.72-.2,1.38.17,2.02-.32-.04-.64-.07-.99-.11.28.75.32.75.96.08.29.49.07.95-.09,1.41-.1.28-.28.53-.39.81-.33.85-.24,1.23.39,1.67.42.29,1.2.14,1.68-.34.05-.05.08-.13.13-.18.05-.05.13-.08.27-.16.09.19.19.36.26.55.12.31.15.7.35.93.67.73.8,1.66,1.09,2.53.32.97-.56,2.2-1.58,2.28-.29.02-.59.08-.88.12-.4.05-.81.22-1.13-.19-.04-.05-.12-.09-.19-.1-.07,0-.18,0-.21.04-.54.74-1.69.02-2.17,1.03-.03.39-.08.9-.13,1.5.22,0,.44.03.65,0,1.39-.22,2.78-.46,4.16-.7.29-.05.64-.04.87-.19.94-.62,1.93-.31,2.78.02.92.35,1.59.29,2.4-.24,1.42-.95,2.69-2.07,3.82-3.29.41.15.76.27,1.23.43-.12-.3-.2-.5-.31-.79h3.91c-.11.76-.17,1.47-.31,2.16-.17.83-.95,1.45-1.83,1.52-.26.02-.52.04-.78.08-.1.02-.2.09-.35.16-.03.48-.36,1.02.22,1.4.56.36,1.15.32,1.69-.08.45-.34.86-.7,1.49-.63.16.02.36-.11.51-.22.25-.19.38-.66.79-.44.55.29,1.28.41,1.49,1.09.1.3.01.74-.15,1.03-.73,1.31-1.14,2.68-.98,4.21-.42.36-.82.75-1.27,1.08-.63.47-.83,1.1-.54,1.79.6,1.45.17,2.61-.87,3.64-1.65-1.24-1.96-3.76-.53-4.91-.86-1.01-1.86-1.83-3.13-2.25-1.15-.38-2.13-.82-2.34-2.23-.15-.97-.62-1.19-1.6-1.19-1.91,0-3.5.65-4.73,2.15-.44.53-.96.89-1.75.78-.34-.05-.8.19-1.09.44-.8.69-1.42,1.53-1.74,2.58-.11.35-.27.7-.47,1.01-.23.35-.54.54-1.04.49-.7-.07-1.44-.07-2.13.06-1.05.18-1.84.77-2.26,1.78,1,.96,1.89.84,4.08-.94.48.33,1.01.56,1.6.1.1-.08.49.01.57.14.09.14.03.44-.07.6-.13.21-.43.33-.54.54-.34.67-.76,1.1-1.67.91.21.23.42.48.64.7.69.68,1.39,1.32,1.75,2.27.39,1.03,1.4,1.48,2.49,1.23.22-.05.43-.13.8-.24.75.68,1.53,1.42,2.34,2.12.27.24.61.39,1.03.66.39-.64.64-1.29,1.09-1.75.75-.77,1.17-1.92,2.34-2.3.17,1.01.46,1.28,1.38,1.29.19,0,.39,0,.56-.05,1.43-.5,2.85-1.02,4.46-1.61.08.09.32.35.54.59-.62,1.05-1.02,2.09-.83,3.36,1.31-.19,2.53-.36,3.25-1.62.28-.49.65-.93.93-1.41.45-.77.66-1.57.4-2.48-.17-.57-.22-1.17-.31-1.7.2-.43.83-.38.73-.98-.04-.21.28-.49.45-.72.22-.3.72-.68.65-.87-.31-.91.47-1.41.63-2.12.06-.29.06-.59.09-.97.18.02.39.03.59.07,1.2.22,2.11-.31,2.64-1.3.46-.86,1.03-1.45,1.96-1.72.56.45.14,1,.11,1.56.61.42,1.22.83,1.89,1.29-.12.18-.24.34-.39.57.17.12.33.31.52.36,1.37.3,1.6,1.28,1.53,2.47-.03.56.04,1.13-.06,1.67-.08.41-.37.78-.61,1.25.33-.03.61-.06.89-.09.26.3.53.61.82.94.65-.24,1.06-1.11,1.91-.62.78.45.51,1.24.75,1.92-.59.25-1.12.52-1.68.68-.46.13-.93.14-1.33-.32-.21-.24-.64-.34-.98-.39-1.04-.18-1.07-.18-1.28-1.2-2.91-.58-4.18,1.04-4.58,3.48-.52.08-1.09.18-1.67.24-1,.11-2.01.29-2.29,1.43-.16.66-.13,1.4-.03,2.08.09.66.33,1.31.59,1.93.21.5.52.93-.1,1.38-.11.08-.02.49.03.74.21,1.15.78,2.03,1.78,2.71.93.64,1.87.71,2.89.44.58-.15,1.17-.29,1.72-.52.54-.23,1.04-.56,1.56-.86.23.81.08,1.05-.66,1.32-.62.23-1.21.52-1.88.82.56.95,1.11,1.67,1.92,2.13,2.49-1.73,2.7-2.02,2.5-3.43.84-.59,1.68-1.2,2.54-1.79.37-.26.71-.18.98.18.19.25.39.51.61.8.61-.4.52-.9.45-1.37-.12-.82-.24-1.64-.45-2.43-.17-.62-.05-1.11.4-1.53,1.18-1.1,1.55-2.26.19-4.08-.71-.94-.7-.99-.04-1.77.23.19.46.38.83.69,0-1.29.03-2.44-.01-3.58-.02-.66-.5-.93-1.11-1.08-.96-.23-.96-.26-1.06-1.25-.03-.26-.07-.53-.05-.79.12-1.6-.85-2.02-1.98-2.26-.38-.08-.75-.02-.92-.52.17-.33.35-.7.56-1.06.5-.85.44-1.69-.17-2.41-.55-.67-.44-1.25-.14-1.97.34-.83.6-1.67,1.25-2.34.32-.33.59-.54,1.07-.41.24.07.56.11.77.02.49-.22.84,0,1.26.19.47.21,1,.29,1.51.41.68.15.87.36.9,1.07.01.22-.06.48.02.67.24.56.03.96-.39,1.27-.38.29-.74.55-1.32.28-.66-.3-1.19-.16-1.89.21.02.07.01.19.05.2,1.55.67,2.3,2,2.86,3.48.35.91.68,1.82,1.06,2.85,1.49-.11,3,.64,4.64-.07.07.31.18.54.18.77-.03,1.44-.04,1.44,1.46,2.02.29-1.03.59-2.06.85-2.98.45-.15.96-.17,1.12-.41.18-.28.12-.79.03-1.16-.37-1.48-.81-2.95-1.2-4.43-.07-.28-.08-.58-.06-.87.06-1-.21-1.46-1.12-1.84-.28-.11-.57-.2-.86-.26-.52-.1-.73-.44-.86-.92-.37-1.42-.85-1.8-2.26-1.86-.11,0-.23-.02-.34,0-1.44.24-2.35-.37-2.93-1.68-.27-.62-.75-1.13-1.46-1.32-.18-.05-.39-.18-.53-.13-.86.32-1.89.26-2.57.99-.55.59-1.21.7-1.95.63-.26-.03-.53-.07-.79-.05-1.31.12-2.21-.54-2.94-1.53q-1.52-2.09-.34-4.42c.35-.69.64-1.42.96-2.14.39-.02.86-.03,1.34-.08.52-.05.84.06.95.66.11.6.68.94,1.31.96.77.02,1.55.04,2.32.12.33.03.73.26.91-.11.18-.38.23-.84.23-1.27,0-.28-.22-.55-.37-.89.21-.2.43-.39.64-.6.54-.55.6-.99.13-1.59-.28-.35-.64-.62-.98-.93-.33-.3-.72-.56-.99-.91-.31-.41-.57-.78-1.11-.98-.32-.12-.56-.58-.71-.94-.4-.96-.38-.97-1.48-1.26.38-.22.72-.37,1.01-.58.48-.35.91-.47,1.42-.04.17.15.49.23.71.18.72-.15.67.32.68.84.47-.42.54-.93.48-1.44-.09-.66-.3-1.29.19-1.91.14-.18.02-.57.02-1.03.54.73,1.63.57,1.84,1.63-.51.32-1.01.63-1.56.97.38.45.73.88,1.12,1.35-.5.36-.89.64-1.44,1.04.41-.06.64-.09.9-.12-.04.24-.08.44-.12.66.36.11.68.21,1.01.31q.71-.4,2-.01c.64.9,1.21,1.69,1.81,2.54-1.24.58-2.34,1.1-3.54,1.66.54.48.69,1.05.17,1.66.33.06.65.12,1.21.23-.46.41-.76.69-1.08.98.18.49.37,1,.55,1.51-.6-.32-.98.05-1.45.37.69.37,1.02-.16,1.44-.39.13.05.3.05.38.14.47.52,1.04.66,1.72.64.93-.03,1.16.3,1,1.25-.07.42-.21.8.35,1.06.16.08.14.55.23.93h-.69c.13.57.71,1.07,1.33.89,1.32-.4,2.5.14,3.73.33.88.14,1.52.58,1.96,1.51.12-.51.22-.9.32-1.29.14-.57.56-.72.96-.29.25.26.53.63.53.96.02,1.62,1.19,2.51,2.16,3.52.49.52,1.06.92.66,1.88.47-.3.77-.49,1.15-.73.31.32.61.59.87.9.12.14.29.38.24.49-.34.74-.05,1.25.43,1.8.12.14,0,.58-.11.83-.16.37-.42.7-.67,1.09-.46-.2-.92-.43-1.4-.6-.48-.16-.71-.46-.87-.93-.35-1.01-.86-1.36-1.94-1.33-.71.02-1.41.14-2.09.21-.24.49-.44.92-.65,1.35,0,.72,1.18,1.23.37,2.09.21.51.32,1.11.66,1.5.35.4.93.59,1.49.92-.27.83-.24,1.7.18,2.54.09.19-.05.5-.1.76-.28,1.3.08,1.81,1.41,1.96.06.22.13.45.22.78.29-.33.5-.57.71-.81.55.08.84.31.93.92.08.52.44.99.73,1.57.65-.6.63-1.24.65-1.85.02-.53.02-1.04.41-1.47.37-.41.27-.91.17-1.39-.08-.39-.15-.79-.11-1.21.43.75.67,1.58.73,2.42.04.62.2,1.1.69,1.46.62.45.7.99.39,1.67-.36.78-.25,1.55.35,2.17.35.37.8.65,1.22.94.82.56,1.25,1.37,1.59,2.23-1.27,1.06-1.32,1.58-.38,2.8.36-.7.62-1.52,1.14-2.09.35-.38,1.07-.4,1.7-.61q-.27.63-1.23.85c.14.15.25.27.39.41-.82.31-1.13.96-1.22,1.8-.1,1.01-.28,2.01-.89,2.72-.56.23-1.01.39-1.44.59-.72.32-1.17.12-1.49-.61-.21-.47-.52-.89-.78-1.34-.2-.35-.45-.68-.58-1.05-.42-1.14-1.46-1.65-2.71-1.25-.18.86-.16,1.74-.83,2.49-.6.67-.91,1.55-.62,2.52.16.51.27.89.92,1.1,1.03.33,1.22,1.64.48,2.48-.3.34-.58.69-.9,1.01-.55.55-.72,1.13-.13,1.93.23-.2.47-.39.69-.6.78-.8,1.1-.8,1.79.05.23.29.47.58.73.9.48-.27.73-.64.84-1.15.1-.46.15-.91.66-1.2.18-.1.25-.65.15-.93-.25-.71.1-1.29.38-1.95.15.42.26.87.46,1.27.26.52-.04.93-.15,1.38-.06.26-.05.5.24.77.82.76.84,1.84.66,2.82-.08.45-.62.93-1.07,1.18-.89.48-.93.42-.92,1.36,0,.21.03.42.05.76.41-.25.71-.43,1.01-.61-.22.83-.6,1.51-1.27,2.01-.41.3-.83.37-1.23,0-.41-.38-.9-.43-1.43-.52-.84-.14-1.66-.45-2.48-.71-.43-.14-.81-.1-1.16.34.11.16.19.36.34.49.54.49,1.11.96,1.65,1.45.1.09.14.25.18.39.19.68.37,1.36.57,2.1-.54.71-.88.64-1.75-.46-.83.47.33,1.66-.9,1.93.39.78.72,1.39,1.02,2.03.35.76.66,1.48-.06,2.28-.49.54-.39.91,0,1.44-.47.63-.93,1.27-1.42,1.89-.57.71-1.11.77-1.84.26-.18-.13-.35-.3-.55-.38-1.47-.56-2.95-1.11-4.43-1.65-.1-.04-.21,0-.39,0-.12.76.33,1.21.84,1.56.59.4.92.92,1.02,1.68-1.09.12-1.83-.41-2.43-1.25-.2.1-.38.19-.58.28,0,.04-.05.12-.02.16,1.13,1.87.9,3.02-1.12,4.3-.28-.18-.58-.38-.88-.58-.41.13-.81.26-1.24.4.05.32.11.66.21,1.24-.67-.63-.64-1.22-.71-1.79-.08-.6.03-1.31-.71-1.64h0ZM165.17,122.73c.21.24.42.48.63.72.06-.07.12-.14.17-.2-.28-.16-.55-.33-.83-.49-.26-.28-.53-.57-.79-.85.02.59.25.93.81.83ZM130.02,162.6c.14.11.32.21.43.35.68.89,1.63,1.14,2.68,1.15.19,0,.38,0,.56,0,.73,0,1.3.28,1.7.91.22.35.47.68.73,1,.31.38.68.47,1.07.13.25-.22.58-.43.67-.71.43-1.37,1.62-1.8,2.77-2,.96-.17,1.88-.28,2.72-.93.1.31.16.52.31.98.35-1.03.55-1.83.89-2.57.43-.94.08-1.69-.28-2.49-.68.15-.25.66-.45.97-.37.18-.77.41-1.18.56-.17.06-.4-.02-.61-.04.06-.19.05-.48.18-.57.7-.48,1.45-.9,2.16-1.37.3-.2.72-.4.82-.7.29-.85.49-1.74-.17-2.56-.18-.23-.32-.49-.49-.74-.13.11-.3.34-.38.32-1.12-.34-2.49-.02-3.26-1.28-.2-.33-.48-.67-.81-.84-1.08-.58-2.2-.95-3.44-.45-1.14.46-2.29.88-2.23,2.27-1.44.68-2.73,1.35-4.07,1.92-.66.28-.66.73-.55,1.28.05.25.17.5.27.74.33.78.41,1.56.2,2.41-.18.74-.17,1.54-.25,2.3-.23-.23-.47-.46-.73-.71v1.65c.26-.35.49-.65.72-.96ZM108.9,127.49c-.65.64-.85,1.26-.46,2.01.1.2.22.43.2.64-.1,1.43.83,2.18,1.88,2.81.26.15.63.21.93.17.8-.1,1.48.18,2.16.51.55.27.54.86.69,1.35.2.65.76,1.08,1.24.85.77-.38,1.54-.91,1.72-1.78.13-.62.31-1.01.91-1.26.53-.22.96-.44,1.59-.25,1.05.32,2.1.26,3.1-.34,1.33-.8,1.69-1.92,1-3.32-.13-.26-.35-.56-.31-.82.12-.88.33-1.75.53-2.62.24-1.06.11-2-.78-2.74-.17-.14-.41-.32-.44-.5-.08-.62-.57-.66-.99-.73-.48-.08-.98-.08-1.46-.05-.99.07-1.6-.33-2.02-1.25-.81-1.77-2.6-2.16-3.89-.74-1.03,1.14-2.15,1.92-3.61,2.28-.14.03-.27.14-.41.19-1.07.4-1.51,1.29-1.79,2.3-.07.24-.07.5-.11.8-.61.13-1.19.27-1.78.39-.98.2-2,.3-2.94.62-.36.12-.67.69-.79,1.12-.14.49.33.65.75.8.33.12.61.38.9.59.35.25.69.51,1.11.83.46-.75.9-1.36,1.21-2.02.28-.6.65-.87,1.31-.79.29.04.59,0,.97,0,.13.49.24.93.35,1.38-.06.03-.11.05-.17.08-.18-.15-.37-.31-.62-.51ZM111.74,151.13c-.1-.07-.2-.2-.32-.21-.23-.02-.56-.04-.66.09-.12.15-.13.56,0,.67.76.69.88,1.73,1.43,2.52.39.57.54,1.14.25,1.8-.18.41-.08.75.2,1,.26-.45.51-.89.75-1.3.48.1.85.16,1.21.25,1.24.3,2.36.7,2.81,2.11.13.39.65.69,1.05.95.39.25.81.09.85-.38.1-1.17,1.04-1.78,1.64-2.6.52-.72.84-.7,1.59-.12.52.4.98.49,1.5.03.35-.32.75-.38,1.24-.29.77.13,1.28-.32,1.45-1.07.19-.83-.3-1.33-.81-1.85-.92-.94-.77-2.33.31-3.11.2-.14.49-.34.5-.54.07-.88.19-1.77-.22-2.63-.3-.63-.73-1-1.45-1-.3,0-.6-.04-.89-.09-1.12-.2-2.14-.57-2.97-1.44-.44-.46-1.11-.72-1.71-1.01-.44-.21-.93-.27-1.38-.45-1.14-.46-1.8-.15-2.21,1.04-.21.62-.43,1.24-.72,1.82-.08.17-.44.3-.65.28-.32-.03-.71-.12-.94-.32-.43-.39-.76-.17-1.11.04-.79.48-1.36,1.14-1.56,1.85-.81.28-1.46.51-2.12.72-.17.06-.4.14-.54.07-.87-.42-1.61.08-2.38.32-.37.11-.59.38-.44.77.17.43.52.31.86.21.43-.13.87-.35,1.29-.32.71.07,1.28.02,1.83-.54.51-.5,1.15-.48,1.62.03.47.51.81,1.14,1.16,1.75.23.41-.03.7-.43.96ZM110.17,98.09c-.36.16-.73.33-1.09.51-1.12.54-1.54,1.49-1.49,2.66.03.74.11,1.5.29,2.22.18.72.14,1.29-.4,1.86-.26.28-.53.76-.47,1.09.18.95.49,1.88.83,2.79.07.19.46.4.69.38,1.49-.08,2.67.45,3.68,1.54.31.33.8.53,1.25.66.23.07.55-.1.8-.22.58-.25,1.14-.56,1.72-.79.79-.32,1.3-.83,1.46-1.7.05-.26.27-.68.44-.7.79-.06,1.53-.26,2.25-.58.09-.04.26.11.4.14.14.03.31.07.42.01.76-.38,1.62-.61,2.26-1.43-.35-.68-.59-1.49-1.1-2.06-.64-.71-.56-1.38-.35-2.15.2-.73.53-1.35,1.3-1.62-.79-1.16-1.72-1.85-3.05-2.02-1.43-.18-2.62-.76-3.22-2.27-.34-.85-1.02-.98-1.89-.61-.37.16-.72.4-1.06.63-.3.21-.58.45-1.03.81-.2-.91-.37-1.67-.55-2.43-1.82.3-2.42,1.22-2.11,3.26ZM132.86,144.49c.32.4.5.82.82,1.01.73.44,1.29,1,1.74,1.71.29.45.66.71,1.23.48.57-.23,1.06-.74.95-1.24-.19-.88.3-1.25.93-1.57.77-.38,1.53-.81,2.45-.67.21.03.52.02.64-.11.41-.45.83-.32,1.33-.22.87.18,1.44-.21,1.65-1.06.25-1.01.47-2-.2-2.98-.31-.45-.47-1.05-.08-1.59.59-.82.46-1.58-.04-2.39-.21-.34-.34-.75-.45-1.14-.23-.8-.77-1.17-1.56-1.2-.36-.01-.73.12-1.1.13-.35.01-.79.07-1.04-.1-.8-.54-1.53-1.18-2.3-1.78-1.18-.92-2.64-.75-3.54.43-.16.21-.3.43-.46.64-.68.86-1.43,1.65-2.51,2-.27.09-.6.16-.85.07-1.11-.4-1.71-.14-1.91.98-.17.94-.2,1.86.4,2.71.51.71.66,1.49.41,2.35-.12.39-.16.81-.22,1.22-.1.78.09,1.47.55,2.12.39.55.83.82,1.52.61.53-.16,1.09-.27,1.62-.4ZM111.36,84.02c-1.18.53-1.17,1.45-.89,2.54.2.75.24,1.55.29,2.33.04.68.11,1.32.61,1.84.39-.2.7-.42,1.04-.53.96-.33,2.06-.38,2.22.98.01.11.06.22.1.32.2.55.53.79,1,.56.41-.21.84-.19,1.24-.31.68-.21,1.5-.48,1.91-1,1.13-1.42,2.56-2.3,4.27-2.74.86-.22,1.76-.26,2.5.42.09-1.16-.49-2.14-.83-3.18-.14-.43-.15-.99.01-1.4.1-.27.62-.37.8-.47,0-.76-.07-1.47.02-2.17.08-.67.33-1.32.54-2.14-.72,0-1.42-.04-2.12,0-.17.01-.4.3-.46.5-.06.21.06.47.1.71-1.76.2-2.08.04-2.87-1.39-.04-.07-.07-.13-.11-.2-.5-.83-1-1.02-1.88-.64-.37.16-.66.48-1,.7-.43.29-.85.68-1.33.79-.83.19-1.7.28-2.55.27-1.49-.02-2.46.83-2.52,2.36-.03.6-.07,1.2-.1,1.84ZM163.35,150.28c.31-1.05.28-1.97-.12-2.84-.53-1.14-.52-2.12.45-3.06.66-.64.72-1.37.25-2.04-.49-.7-1.07-1.32-1.61-1.96-.22.1-.32.14-.42.18-1.24.48-1.48.38-2.23-.69-.22-.32-.57-.57-.9-.78-.37-.24-.8-.39-1.12-.54-.65.28-1.26.49-1.81.8-.75.41-1.51.84-1.52,1.88,0,.17-.11.34-.18.51-.35.9-1.15,1.04-1.93,1.05-.58.01-.9.27-1.17.7-.6.95-.63,2.03-.38,3.01.36,1.41.21,2.71-.25,4.04-.09.25,0,.73.18.88.51.41,1.06.82,1.84.56.69-.23,1.41-.35,2.18-.54-.07.29-.2.52-.14.63.34.57.7,1.13,1.12,1.65.4.5,1.14.57,1.32.05.3-.83,1.32-1.36.92-2.38,1.07-.45,2.11-.77,3.04-1.29,1.2-.67,1.3-.73,2.46.18ZM118.01,177.45c.18-.46.26-.72.37-.98.16-.36.24-.87.53-1.05.71-.47,1.48-.9,2.28-1.13.69-.2,1.49.05,2.16-.42.1-.07.38-.01.51.08.57.37.97-.21,1.47-.26.2-.02.35-.49.53-.77-.42-.38-.77-.7-1.11-1-1.78,1.23-2.01,1.33-2.84,1.25.43-.9,1.67-1.29,1.6-2.54.5-.1,1.02-.18,1.52-.3.73-.18,1.05-.73.84-1.43-.15-.5-.32-1.01-.54-1.48-.27-.57-.72-1.02-1.36-1.05-.62-.03-1.07-.3-1.49-.68-.38-.35-.78-.4-1.23-.11-.18.12-.38.2-.68.35-.16-.37-.26-.67-.41-.96-.13-.26-.28-.52-.47-.73-.67-.76-1.61-1-2.55-1.25-.52-.14-.77.01-.96.48-.17.42-.34.84-.59,1.21-.18.25-.46.49-.75.59-.49.17-1.02.24-1.53.33-.57.11-1.13.21-1.76.32.05.81-.06,1.54.17,2.14.47,1.24.5,2.39-.13,3.55-.3.54-.14.99.28,1.42.47.48,1.06.47,1.66.56.84.13,1.69.29,2.51.52.21.06.35.45.5.7.41.69,1.25,1.15,1.12,2.13-.01.08.11.18.34.52ZM171.06,132.13l.09.36c-.6.27-1.19.65-1.82.78-.75.15-1.1.69-1.12,1.22-.03.7-.24,1.3-.42,1.94-.06.21-.03.55.11.69.38.41,1.2.4,1.73.09.61-.35,1.23-.72,1.9-.96.88-.32,1.25-.04,1.37.87.05.38.14.75.22,1.12.09,0,.18.01.27.02.22-.5.43-1,.66-1.49.37-.78.69-1.59,1.74-1.7.17-.02.36-.25.45-.43.27-.52.35-1.07.13-1.63-.32-.86-.2-1.67.17-2.5.75-1.71.28-3.24-1.25-4.25-.44-.29-.88-.57-1.31-.88-.64-.45-1.34-.61-2.11-.66-.55-.03-1.09-.21-1.62-.35-.27-.07-.53-.2-.79-.3.09.26.25.39.41.53.16.14.32.28.32.28-.15.75-.26,1.33-.38,1.91-.07.35-.06.78-.26,1.04-.33.44-.8.78-1.22,1.15-1.31,1.17-1.29,1.32-.09,2.53.62.62,1.26.9,2.12.6.21-.07.47-.01.7-.01ZM172.89,154.81c.11-.16.14-.19.15-.22.35-.99.74-1.91,2.03-1.93.16,0,.38-.34.44-.56.08-.28.02-.59.01-.89-.03-1.27-.04-2.47.54-3.72.72-1.56.31-2.71-1.3-3.38-1.21-.5-2.43-.99-3.64-1.49.43.48-.29,1.08.21,1.5-.13.19-.44.43-.43.66.01.6-.41.81-.77,1.11-.86.74-1.87,1.31-2.15,2.58-.19.82.13,1.65,1.01,1.85.51.11,1.01.22,1.36.85-.57.24-1.07.47-1.58.65-.49.18-.83.47-.96.99-.08.33-.22.64-.32.96-.17.53-.23,1.04.28,1.43.45.34,1.17.36,1.66-.02.43-.34.82-.75,1.18-1.16.3-.34.56-.7,1.02-.67.41.49.8.94,1.24,1.47ZM136.59,182.06c.66.61,1.31.71,1.91.49.95-.35,1.75-.11,2.56.35.36.2.76.32,1.13.51.59.31,1.12.29,1.68-.11.5-.37,1.03-.4,1.52.1.08.08.26.06.44.1.09-.5.21-.94.22-1.38,0-.22-.13-.59-.28-.63-.7-.2-1.43-.35-2.15-.46-2.1-.32-4.08.68-6.17.55-.24-.01-.5.27-.85.48ZM103.82,166.67c1.06.63,2.09.91,3.23.61.2-.05.47-.2.54-.36.36-.98.71-1.96.96-2.97.05-.21-.25-.62-.49-.76-.19-.11-.55.03-.8.14-.2.08-.34.28-.5.44-.93.92-1.85,1.84-2.92,2.91ZM107.23,91.73c.29-.32.51-.46.52-.6.06-.89.12-1.79.07-2.68-.04-.58-.14-1.25-.46-1.69-.19-.27-.87-.19-1.32-.27-.07-.01-.14-.07-.21-.07-.53-.05-.78.25-.73.81.02.24,0,.49-.02.72-.06.5-.14.99-.22,1.5.28.08.42.13.56.16.29.05.59.09.88.13.65.09.99.45,1.02,1.1,0,.21-.04.41-.08.88ZM142.1,184.97c-1.82-.53-2.01-.46-2.83,1.08.67.72,1.51.51,2.26.29.54-.16.61-.77.57-1.38ZM122.25,93.69c-.63-.17-1.05-.3-1.47-.38-.16-.03-.4,0-.48.11-.09.11-.08.35-.04.51.09.35.27.69.35,1.05.12.56.44.7.97.67.54-.02.73-.34.76-.78.02-.4-.05-.8-.08-1.17ZM105.5,105.96c-.19-.57-.66-.71-1.08-.54-.4.17-.77.54-1.03.92-.19.28-.19.71-.25.97.47.07.93.14,1.42.22.31-.52.63-1.05.93-1.57ZM122.2,137.55c.99,1.03,1.66,1.41,3.3,1.85.11-.26.23-.54.36-.85-.68-.31-1.23-.64-1.82-.8-.58-.16-1.21-.14-1.84-.19ZM147.33,85.36c1.03.37.97-1.1,1.79-.99.28-.64.57-1.28.85-1.93-.07-.03-.14-.07-.21-.1-.89.92-1.99,1.65-2.43,3.02ZM107.63,114.42c.22.55.4,1.02.67,1.71.26-.43.6-.75.56-.99-.11-.56-.61-.71-1.23-.72ZM140.43,128.07c.8-.47.73-1.24.81-2.17-.21.26-.35.36-.38.48-.16.56-.29,1.13-.43,1.69ZM165.27,162.86c-.06-.47-.1-.87-.66-.81-.12.01-.32.27-.3.37.1.53.47.54.96.44ZM147.43,135.01c.43.09.66.2.73.14.3-.26.77-.44.71-1.11-.47.32-.85.57-1.44.97ZM130.08,170c.11.48-.1,1.1.53,1.6.39-.78-.27-1.13-.53-1.6ZM128.75,139.83c-.08-.04-.16-.07-.24-.11-.4.35-.73.73-.34,1.42l.58-1.31ZM113.97,164.17c.26-.54,0-.83-.21-1.2q-.28.69.21,1.2ZM184.95,129.79q-1.05-.08-.89.6c.31-.21.6-.4.89-.6ZM161.84,94.89c-.11-.03-.21-.06-.32-.09-.09.35-.18.69-.26,1.04.08.02.16.05.25.07.11-.34.22-.68.33-1.02ZM127.5,123.66c-.1.68.16.75.56.62.05-.02.08-.09.16-.2-.22-.13-.42-.25-.72-.42ZM167.49,98.82c-.47.26-.79.43-1.11.6.49.13.89.12,1.11-.6ZM105.79,131.03c.03-.07.06-.14.09-.21-.23-.1-.46-.2-.68-.3-.03.07-.06.15-.09.22.23.1.46.2.69.29ZM104.92,155.53c-.1-.05-.21-.1-.31-.15-.06.18-.12.36-.16.54,0,.02.17.08.26.12.07-.17.14-.35.21-.52Z"/><path class="cls-5" d="M92.76,122.18c-.02.52.05,1.05-.06,1.54-.22,1.02-.61,2.02-.78,3.04-.1.6,0,1.26.12,1.87.14.64-.14.94-.61,1.28-.53.39-.99.9-1.45,1.38-.47.48-.91,1-1.38,1.47-.76.76-1.39,1.56-1.32,2.74.02.3-.16.66-.36.9-.47.57-.63,1.18-.47,1.89.18.79,0,1.52-.53,2.09-1.34,1.41-.85,1.51-2.5,1.87-.4-.75-.81-1.5-1.25-2.33-.51.04-1.06.08-1.72.12-.18-1.14-.97-1.76-1.97-2.22-.22-.1-.38-.43-.49-.68-.24-.54-.4-1.09-1.02-1.4-.48-.24-.44-.96.02-1.87.14.12.29.21.39.34.38.51.9.59,1.49.54,1.09-.08,1.09-.05,1.28,1.05h1.42c-.18-.29-.27-.47-.39-.63-.22-.31-.19-.59-.02-.94.44-.92.98-1.61,2.1-1.8.51-.09.94-.66,1.48-1.06.21.08.48.18.76.28,1.14.4,2.03-.04,2.08-1.25.05-1.02-.24-2.05-.42-3.07-.04-.24-.23-.46-.38-.72,1.18-1.75.8-3.45-.26-4.99.71-.95,1.4-1.74,1.92-2.62.27-.45.3-1.08.32-1.63.01-.29-.23-.59-.42-1.02-.6.57-1.09,1.02-1.56,1.49-1.05,1.07-2.26,1.69-3.81,1.55-.57-.05-.8-.31-.86-.82,0-.04,0-.08,0-.11.03-1.14-.09-2.2-1.43-2.54.16-.6.54-.6.91-.58.54.03.68-.26.75-.75.09-.66.27-1.3.48-1.93.07-.21.34-.4.56-.5,1.07-.45,2.15-.9,3.25-1.27.38-.13.85-.02,1.32-.19-.39-.14-.77-.29-1.19-.45.03-.62.09-1.24.08-1.86,0-.64-.12-1.24-.45-1.83-.58-1.03-.41-1.48.6-2.1.16-.1.34-.19.44-.34.82-1.18,1.63-2.37,2.44-3.55.25-.36.38-.84.9-.83,1.39,1.39,2.35,3.11,3.94,4.25l-.04-.04c-.03.25.02.55-.11.74-.89,1.4-1.52,2.9-1.92,4.51-.1.39-.21.75-.71.91-.85.27-1.18,1.03-1.29,1.82-.12.85-.14,1.73.25,2.54.35.72.27,1.3-.25,1.94-1.03,1.25-.95,2.11.14,3.37.68.78,1.32,1.59,1.98,2.39h-.02Z"/><path class="cls-5" d="M93.7,181.36h1.12c.4-1.48.01-2.5-1.46-3.8-.19.13-.41.25-.61.4-.26.2-.46.53-.87.33-.42-.21-.76-.49-.76-1.02,0-.29,0-.58,0-.86q-1.78-.24-1.66-1.32c.13-.01.29-.07.41-.03.64.21.88-.15,1.07-.67.38-1.06.29-2.11.04-3.24-.9-.02-1.72-.44-2.65-.02-.37.17-.97-.15-1.53-.26.09-.43.09-.75.23-.99.28-.52.43-.95.1-1.56-.16-.3.06-.88.26-1.25.19-.35.26-.63.25-1.03-.02-.66.1-1.33.17-2.12.44-.02.84-.04,1.23-.07,1.07-.08,1.67-.95,1.38-1.96-.13-.45-.24-.91-.35-1.34-1.19-.09-2.07.41-2.73,1.23-.55.68-1.16.58-1.82.42-.39-.09-.76-.31-1.21-.5-.07-.32-.14-.67-.23-1.1.87-.45.65-1.26.5-2.14.77.55,1.41.68,2.19.27.67-.35.69.42.89.84.98-.33.78-1.24,1.07-1.87q.88-.43.68-1.32c-.76.8-1.37,1.77-2.52,2.06-.73-.49-.5-1.9-1.92-1.57.05-.68.09-1.17.13-1.8-.47.03-.88.05-1.34.08-.28-.86.13-1.49.71-1.98.62-.54,1.24-.36,1.58.26.85,0,1.64-.02,2.42,0,.49.01.77.24.95.76.56,1.59,1.83,2.47,3.34,3.21.45-1.32,1.51-1.73,2.65-2.08-1.08,1.23-.86,2.79-1.16,4.2-.04.18-.05.4.03.55.5.96.03,1.75-.44,2.52-.95,1.56-.52,2.51,1.29,2.85.7.13,1.37.35,2.07.5.56.12.91.48,1.19.95.28.48.61.93.91,1.4.39.62-.1,1.07-.35,1.53-.21.41-.58.42-1,.02.06-.13.13-.28.2-.44.3-.67.27-1.27-.3-1.82-.38-.37-.7-.82-1.03-1.22-.19.14-.28.17-.29.22-.61,2.2-1.37,4.38-.68,6.7.14.46.25.84-.09,1.26-.15.18-.18.47-.29.76-.16-.06-.31-.11-.55-.2.09.39.16.73.26,1.16.22-.16.38-.29.5-.38,1,.56,1.97,1.11,3,1.69.01.29-.02.63.06.95.24,1.03-.16,1.7-1.02,2.26-.44.29-.76.8-1.08,1.25-.53.76-.79.84-1.53.31-.43-.3-.85-.6-1.43-1ZM91.24,169.08c.13.31.25.57.36.84.16-.13.43-.24.45-.38.05-.45-.25-.55-.82-.45Z"/><path class="cls-5" d="M163.5,161.9c-.02.54.71,1.08.02,1.63.3.59.15,1.14-.07,1.72-.51,1.35-.42,2.65.47,3.83-.03.08-.03.18-.08.21-1.91,1.16-1.83,3.46-2.89,5.11-.41.64.3.86.76,1.05-.26.88-.81,1.42-1.62,1.78-.66.29-1.45,1.89-1.24,2.55.09.28.39.5.66.82-.63.67-1.33.44-1.88.25-1.04.56-1.98,1.07-2.93,1.56-.93.48-1.87.93-2.86,1.42-.62-.28-1.33-.59-2.14-.95,1.33-.29,1.75-1.21,1.73-2.52.58.09,1.09.17,1.6.25.6-.39,1.11-.87,1.33-1.65.09-.32.49-.55.8-.88-.07-.52.02-1.1-.44-1.62-.14-.16-.02-.64.09-.92.33-.82.48-1.64.24-2.51-.14-.51-.47-.81-.95-.83-.88-.03-1.71-.2-2.5-.58-.14-.06-.36.05-.54.08-.1-1.13.04-1.44.96-1.87,1.02-.47,2.06-.88,3.08-1.34.34-.15.64-.36.96-.55.64.62.65.63.07,1.06-.24.18-.54.3-.73.52-.15.18-.26.5-.19.7.06.19.35.37.57.42.6.13,1.18-.05,1.47-.59.75-1.35,2.11-2.12,3.08-3.26.59-.69,1.15-.53,1.52.31.08.19.15.39.24.65.61-.39.58-.92.51-1.43-.08-.52-.22-1.02-.33-1.54-.24-1.1,0-2.01,1.05-2.6.08-.05.12-.17.18-.25,0,0,0-.01,0-.01ZM156.56,175.53c.11.29.23.59.34.9-.4.46-.79.88-1.16,1.32-.29.35-.16.67.2.82.36.16.78.2,1.22.31.04.4.09.83.15,1.47.36-.47.56-.82.84-1.09.39-.38.56-.75.3-1.3-.26-.53-.05-1.02.3-1.46.4-.5.72-1.04.66-1.71q-1.16-.24-2.86.73Z"/><path class="cls-5" d="M72.15,130.68c-.92.07-1.84.13-2.75.2-.19-1.37.01-1.59,1.15-1.4.44.07.88.15,1.42.25.17-1.07.34-2.11.52-3.23-.29.02-.61.06-.92.04-.16-.01-.42-.15-.44-.25-.03-.18.05-.44.18-.58.44-.47,1.05-.55,1.65-.25.26.13.5.29.78.46.56-1,.7-2.02.7-3.09,0-.49.03-.97-.43-1.33-.11-.09-.19-.36-.14-.48.33-.73-.11-.88-.68-1.04-.45-.13-.85-.4-1.34-.64.48-.84.49-1.83,1.65-2.06.13.22.26.46.46.8,1.48-.72,2.32-1.9,2.71-3.57.98.63,1.83,1.17,2.68,1.72-.09,1.15-.16,2.27-.29,3.38-.03.27-.27.52-.43.77-.3.47-.66.91-.91,1.41-.24.46-.6.63-1.07.69-1.89.26-2.19.69-1.84,2.62.07.4.15.82.32,1.19.36.8.23,1.44-.47,1.99-.8.63-1.07,1.44-1,2.47.03.5-.22,1.13-.55,1.53-.77.92-1.14,1.92-.88,3.11-.98.61-2.02.53-3,.66-.26.03-.57-.37-.88-.59q-1.49.33-1.63-.81c.56-.74,1.33-.66,2.26-.3-.28-1.04.06-1.7.7-2.25.1-.09.2-.25.21-.38.05-.55.42-.6.86-.67.46-.07.9-.26,1.35-.4.37-.07.75-.13,1.12-.2,0-.07,0-.14,0-.21-.25-.1-.49-.21-.76-.32-.14.31-.24.54-.34.77Z"/><path class="cls-5" d="M83.24,101.7c0-.6-.04-1.12.01-1.63.04-.36.19-.71.31-1.06.1-.3.24-.59.36-.89.04-.1.01-.27.08-.32.88-.65.82-1.64.97-2.57.05-.32.24-.63.4-.92.65-1.14,1.44-1.26,2.45-.39.14.12.21.32.27.42.45-.21.77-.33,1.05-.51.27-.18.57-.38.72-.65.41-.77.73-1.58,1.11-2.36.33-.68.69-1.33,1.58-1.45,1.24-.16,1.99.43,2.19,1.85-1.38.05-1.9,1-2.1,2.19-.12.69-.18,1.41-.15,2.11.04.82-.12,1.47-.87,1.93-.27.16-.55.46-.63.74-.2.77-.82.93-1.43,1.09-.5.13-1.04.14-1.55.23-.63.1-.9.41-.96,1.04-.11,1.24-.33,1.45-1.57,1.48-.18,0-.37-.02-.55-.05-.58-.09-1.17-.2-1.7-.29Z"/><path class="cls-5" d="M71.45,111.92c.05-.1.08-.22.15-.3,1.01-1.17,1.22-1.61,1.41-3.08.14-1.07.8-1.56,1.88-1.5.29.02.59-.19,1.01-.33.33,1.36.63,2.66-.44,3.87-.76.87-.82,1.57-.1,2.4.42.48.37.84.06,1.35-.21-.15-.41-.29-.69-.49-.23.47-.43,1.07-1.25.68.12-.34.24-.65.35-.96-.04-.03-.08-.05-.12-.08-.26.3-.59.56-.77.9-.36.72-.93.78-1.6.65-.18-.04-.36-.11-.54-.13-.72-.09-1.35,0-1.69.77-.09.19-.27.34-.44.56-.53-.75-1.07-1.42-.66-2.25.94-.61,1.81-1.16,2.68-1.72-.19-.04-.42-.09-.67-.14q.46-.36,1.45-.2c.07.21.13.42.21.68.16-.1.3-.18.56-.34-.35-.15-.57-.24-.79-.33Z"/><path class="cls-5" d="M75,151.9c.85-.54,1.5-.95,2.29-1.45.13.38.24.63.3.9.31,1.2.83,1.63,2.05,1.67.3.01.61-.02.9.03.25.04.58.1.71.28.67.92,1.29,1.88,1.99,2.91-1.24.09-1.7-.8-2.48-1.43-.24.24-.53.46-.71.74-.35.57-.61,1.2-.97,1.77-.21.33-.49.64-.81.87-.84.58-1,1.18-.49,2.1q.6,1.08.09,2.2c-.4.03-.82.05-1.31.09.22-.6.58-1.11.49-1.52-.08-.34-.7-.55-1.2-.89.48-1.05,1.1-2.11,2.04-2.98-.56-.84-.52-.86.25-1.48.6-.48,1.27-.96,1.25-1.94-.27-.1-.54-.28-.81-.28-.21,0-.59.22-.6.36-.05.72-.76,1.09-.86,1.76,0,.04-.12.07-.26.14-.42-.5-.99-1.05-1.64-.82-.63.22-.98.02-1.39-.31-.03-.02-.03-.07-.1-.24.4-.48.85-1.02,1.3-1.55.45.4.8.71,1.19,1.06.25-1.28.11-1.53-1.22-1.98Z"/><path class="cls-5" d="M147.59,100.08c-.71.09-1.32.17-2.04.27-.3-1.03-.97-1.81-1.75-2.5-.39-.34-.79-.69-1.24-.91-.55-.26-.83-.69-.87-1.21-.07-.92-.02-1.85-.02-2.87.45.1.76.17,1.07.24.36-.86-.65-1.85.33-2.68.17.1.41.16.45.29.28.81.86,1.39,1.44,1.98.1.1.24.24.24.37.02,1.22.5,2.4.23,3.64-.09.39-.13.79-.2,1.23.95.5,1.87.95,2.37,2.14Z"/><path class="cls-5" d="M75.87,102.94c.77-1,1.59-1.74,1.97-2.84.32-.92,1.29-1.28,1.92-1.94.07-.07.29-.05.42,0,1.29.5,1.59,2.1.65,3.13-.36.39-.64.92-.79,1.43-.31,1.03-1.01,1.59-1.98,1.75-1,.17-1.95-.04-2.54-1.01-.35-.56-.72-1.11-1-1.7-.13-.26-.29-.7.21-.84.4-.11.48.24.58.52.16.44.34.88.57,1.49Z"/><path class="cls-5" d="M165.7,165.71c.27.44.53.7.6,1.01.16.66.5,1.02,1.19,1.17.42.09.79.39,1.28.65.16-.29.34-.65.54-.99.29-.48.58-.96.93-1.4.26-.33.61-.4.95-.06-.28.65-.52,1.26-.82,1.85-.13.26-.34.52-.58.66-.6.33-1.29.51-1.85.9-.53.37-.93.93-1.55,1.59.41,0,.62,0,.83,0,.24-.01.49-.03.83-.06-.57.75-1.04,1.43-1.56,2.06-.55.67-1.1.63-1.5-.12-.44-.83-.77-1.72-.7-2.69.03-.37.05-.82.26-1.07.82-.95.84-2.14,1.14-3.5Z"/><path class="cls-5" d="M91.07,82.26c-1.33.03-1.42,0-1.9-.73.02-.07.03-.17.08-.2,1.1-.74,1.82-1.7,2.08-3.05.18-.95.41-1.03,1.21-.53.73.45,1.37.5,2.08.02.23-.16.56-.18.9-.29.2-.66.27-1.48,1.23-1.58.54.42.45,1.01.37,1.55-.03.2-.27.43-.47.53-.37.18-.79.24-1.17.4-.8.33-.91.6-.56,1.37.16.34.38.64.59.95.26.38.47.77.22,1.4-.81-.36-1.61-.73-2.42-1.06-.37-.15-.78-.28-1.16-.27-.88.03-.99.74-1.08,1.48Z"/><path class="cls-5" d="M134.17,118.41c-1.12-.13-1.56-.46-1.83-1.46-.03-.11-.07-.21-.1-.32-.42-1.56-.01-2.47,1.43-3.2.69-.35,1.28-.25,1.83.28,1.39,1.35.98,2.98-.02,3.97-.34.34-.87.49-1.31.73Z"/><path class="cls-5" d="M152.33,101.4c.44-.06.74-.12,1.03-.13,1.61-.07,2.07.37,2.12,1.99.01.37.07.74.12,1.11.19,1.25-.1,1.77-1.32,2.32-.62-.37-1.23-.73-1.83-1.1-.62-.39-.78-.77-.65-1.5.17-.88.34-1.75.52-2.68Z"/><path class="cls-5" d="M107.16,73.31c.82.07,1.45-.31,2.14-.62.66-.29,1.4-.43,2.13-.54.8-.13,1.61-.15,2.47-.23-.26-.42-.47-.75-.71-1.13.98,0,1.42.42,1.37,1.21-.03.54.11,1.25-.18,1.58-.38.43-1.09.57-1.68.81-.63.25-1.27.46-1.91.68-.36.12-.7.21-1.01-.16-.15-.17-.45-.26-.69-.3-.82-.14-1.38-.64-1.92-1.3Z"/><path class="cls-5" d="M96.34,138.47c.14-.97.55-1.62,1.22-2.09.09-.06.21-.09.32-.1,1.03-.14,2.81,1.03,3.05,2.05.21.89-.38,1.58-.93,2.04-1.35,1.12-1.95,1.13-2.99-.39-.33-.48-.48-1.08-.67-1.5Z"/><path class="cls-5" d="M160.52,126.49c-.24.65-.38,1.22-.65,1.72-.27.52-.59,1.05-1.01,1.45-.71.69-1.77.47-2.27-.41-.63-1.12-.45-1.92.36-3.1.25-.37.65-.63.89-1,.35-.54.78-.5,1.25-.27.62.3,1.14.93,1.42,1.6Z"/><path class="cls-5" d="M153.06,96.4c-1.63-.02-2.81.66-3.81,1.78-1.15-1.21-.57-2.54-.64-3.71-.69-.4-1.37-.79-2.17-1.24.72-.18,1.26-.32,1.81-.46q1.06.82,1.8.21c1.26.81,2.14,1.97,3,3.42Z"/><path class="cls-5" d="M96.42,116.77c-1.24-.07-2.42-1.5-2.24-2.72.03-.22.1-.46.24-.62.73-.82,1.61-1.35,2.75-1.24.93.1,1.39.82,1.15,1.75-.17.65-.33,1.31-.55,1.94-.27.76-.59.94-1.35.89Z"/><path class="cls-5" d="M154.93,165.52c1.27-.96,2.31-1.8,3.41-2.57,1.12-.78,1.81-.62,2.5.48-.24.65-.55,1.25-1.19,1.66-.23.15-.32.5-.52.71-.36.37-.72.8-1.16,1.01-.37.17-1,.23-1.28.02-.56-.42-.96-1.06-1.76-1.32Z"/><path class="cls-5" d="M136.84,91.38c.08.48-.22.83-.73.87-.81.07-1.63.08-2.44.02-.61-.05-.91-.44-.96-1.05-.02-.26-.01-.52,0-.78.08-.9.67-1.34,1.55-1.13.58.15,1.15.33,1.72.53.55.19.85.74.85,1.53Z"/><path class="cls-5" d="M99.78,164.27c-.34,0-.68.04-1.01,0-.62-.09-1.09-.57-1.11-1.08-.02-.51.45-1.26.93-1.4,1.08-.32,2.17-.25,3.16.23.37.17.65.7.8,1.12.16.48-.26.78-.67.88-.68.17-1.38.24-2.08.36,0-.03,0-.06-.01-.09Z"/><path class="cls-5" d="M95.72,95.2c.25-.51.47-1.05.78-1.52.1-.14.48-.2.7-.14.57.15,1.12.39,1.67.59.58.22.77.6.51,1.14-.24.51-.5,1.01-.81,1.48-.55.83-1.37.9-2.08.2-.46-.47-.8-1-.77-1.75Z"/><path class="cls-5" d="M83.39,150.92c-.91-.08-1.75-.15-2.49-.21-.49-.83-.95-1.62-1.44-2.44.61-.97,1.45-1.16,2.42-.48.3.21.62.41.95.58.8.41.96.71.84,1.58-.04.26-.09.51-.14.77-.02.07-.08.13-.13.22Z"/><path class="cls-5" d="M73.15,146.98c.45-.79,1.54-1.35,2.4-1.24.57.07,2.05,2.06,1.95,2.61-.15.8-1,1.14-1.69.7-.34-.22-.7-.46-1.08-.55-.81-.19-1.31-.65-1.58-1.52Z"/><path class="cls-5" d="M138.06,177.62c-.75.82-1.56,1.35-2.61,1.53-.46.08-.89.36-1.31.58-.32.17-.6.47-.98.19.1-.51.18-1,.28-1.48.19-.87.93-1.52,1.89-1.69.97-.17,1.84.1,2.73.87Z"/><path class="cls-5" d="M76.86,125.6c.28-.21.51-.46.8-.61,1.02-.53,1.89-.02,1.96,1.12.09,1.36-.06,1.81-.88,2.64-.62.02-.93-.3-1.1-.88-.21-.72-.48-1.41-.78-2.27Z"/><path class="cls-5" d="M140.16,95.75c.24.34.44.64.69,1-.59.64-1.17,1.22-1.7,1.84-.56.65-1.27.56-1.97.41-.46-.09-.55-.45-.29-.85.58-.91,1.95-1.93,3.26-2.39Z"/><path class="cls-5" d="M171.42,111.73c-.5-.95-.97-1.75-1.33-2.58-.12-.29-.08-.76.08-1.04.18-.32.57-.7.88-.7.3,0,.68.38.9.69.7.98.42,2.06.17,3.11-.04.16-.32.25-.69.52Z"/><path class="cls-5" d="M80.75,106.47c.02,1.22-.4,2.21-1.11,3.08-1.26-.19-1.75-.82-1.5-1.87.32-1.37,1-1.71,2.61-1.22Z"/><path class="cls-5" d="M182.92,134.19c.16.29.47.6.43.83-.13.72-.37,1.44-.64,2.13-.2.51-.51.97-.82,1.53,0,0-.15.04-.19,0-1.03-1.13-1.14-2.65-.03-3.38.4-.26.72-.64,1.24-1.11Z"/><path class="cls-5" d="M98.52,175.91c1.61-.75,3.29-.23,4,1.1-.31.19-.61.42-.94.56-.3.12-.66.23-.95.17-.22-.04-.36-.39-.56-.57-.19-.17-.41-.3-.61-.46-.3-.25-.6-.51-.94-.8Z"/><path class="cls-5" d="M158.14,89.13c-1.71.05-1.97-1.36-2.78-2.21.37-.48.56-1.04,1.24-.85.6.17,1.19.93,1.23,1.5.02.26.06.51.11.77.04.22.11.43.2.79Z"/><path class="cls-5" d="M81.23,91.98c-.52-.82-.62-1.49-.44-2.2.12-.5.42-.79.97-.69.47.09.94.2,1.47.31.03,1.49-1.56,1.46-1.99,2.58Z"/><path class="cls-5" d="M180.18,112.63c1.26.73,1.42,2.49.48,4.2-.8-.82-1.06-2.91-.48-4.2Z"/><path class="cls-5" d="M92.78,122.19c.19-.16.38-.33.59-.47.31-.2.61-.17.92.07.4.32.81.62,1.25.88.42.25.61.53.37.99-.22.44-.61.61-1.02.39-.41-.22-.74-.59-1.1-.91-.35-.31-.68-.64-1.03-.97,0,0,.01,0,.01,0Z"/><path class="cls-5" d="M103.74,77.04c-.77,1.11-2.21,1.3-3.32.48.96-1.25,1.63-1.36,3.32-.48Z"/><path class="cls-5" d="M100.12,72.2c-1.4-.49-2.64-.93-4.05-1.43.91-.51,1.6-.52,2.34-.25.54.2,1.1.31,1.71.48v1.19Z"/><path class="cls-5" d="M139.4,77.25c-.94.17-1.77.11-2.49-.46-.28-.23-.59-.52-.36-.94.22-.41.61-.36.98-.23.38.14.76.3,1.13.46q.57.24.73,1.17Z"/><path class="cls-5" d="M71.97,115.53c1.11-.3,2.01-.55,3.06-.84-.18.54-.34,1-.48,1.43-1.16.41-1.3.38-2.58-.6Z"/><path class="cls-5" d="M86.34,123.02c.07.66.14,1.22.2,1.79-.42.25-.86.5-1.37.8-.18-.13-.44-.32-.74-.54.68-.64.85-1.69,1.92-2.05Z"/><path class="cls-5" d="M119.15,183.35c-.82.26-1.63.52-2.51.8-.35-.38-.72-.79-1.19-1.3.31-.1.6-.28.73-.2.86.51,1.8.39,2.72.38.06,0,.13.06.19.1.02.08.04.16.06.24Z"/><path class="cls-5" d="M96.07,154.97c.66.11,1.33.23,2.28.39-.54.61-.86,1.05-1.25,1.39-.3.26-.77.07-.76-.3.02-.49.11-.96-.57-1.29l.3-.2Z"/><path class="cls-5" d="M66.6,130.19c-.22-.94.38-1.59.65-2.34.39.53.76,1.03,1.19,1.61-.36.67-1.02.76-1.84.73Z"/><path class="cls-5" d="M80.93,165.62c1.63.5,1.68.74.61,2.55-.12-.02-.26-.03-.39-.06-.1-.02-.2-.05-.32-.08.11-.41.27-.8.28-1.19.02-.39-.11-.79-.18-1.21Z"/><path class="cls-5" d="M85.78,121.1c-.95.49-1.56.02-2.17-.28-.1-.05-.12-.5-.01-.67.27-.43.9-.51,1.28-.16.32.3.56.68.91,1.11Z"/><path class="cls-5" d="M78.8,96.89c-.39.52-.42,1.25-1.15,1.47-.27-.65.28-.87.57-1.2-.41-.61-1.72-.62-1.09-1.95.32.35.58.64.85.91.26.26.53.5.82.77Z"/><path class="cls-5" d="M94.72,104.01c-.07-.45-.15-.9-.25-1.5.97.29,1.47.85,2.04,1.39-.25.44-.55.61-1.01.42-.27-.11-.55-.23-.82-.35,0,0,.04.04.04.04Z"/><path class="cls-5" d="M171.18,93.1c1.12.3,1.59,1.06,1.55,2.51-.7-.49-1.55-1.86-1.55-2.51Z"/><path class="cls-5" d="M77.41,97.28c-.22.29-.34.54-.54.68-.25.18-.68.45-.84.35-.31-.18-.56-.56-.7-.92-.13-.33.1-.57.49-.49.5.1.99.23,1.58.38Z"/><path class="cls-5" d="M83.06,164.88c-1.27,0-1.93-.71-2.75-1.35,1.36-.23,2.07.1,2.75,1.35Z"/><path class="cls-5" d="M103.44,184.26c.17,1.13.04,1.4-.66,1.49-.41.05-.75-.03-.79-.53-.05-.67.41-.99,1.44-.95Z"/><path class="cls-5" d="M78.56,141.26c-.55-.73-.71-1.43-.16-2.38.32.57.61,1.02.83,1.5.26.57-.04.82-.67.88Z"/><path class="cls-5" d="M74.45,134.46c-.79-.8-.81-1.55-.18-2.32q1.01,1.09.18,2.32Z"/><path class="cls-5" d="M173.18,93c.38.6.64,1.06.94,1.49.19.27.49.47.66.75.08.13.03.46-.09.55-.1.08-.46.04-.55-.07-.28-.34-.56-.72-.7-1.13-.16-.47-.17-.99-.27-1.59Z"/><path class="cls-5" d="M172.91,92.74c-.45-.64-1.58-.58-1.62-1.64,1.44.15,1.73.43,1.62,1.64Z"/><path class="cls-5" d="M159.22,78.1c-.51-.27-.96-.51-1.55-.82.83-.43,1.5-.35,2.38-.25-.33.42-.56.72-.83,1.07Z"/><path class="cls-5" d="M84.15,102.6c1.35-.56,2.04-.45,2.65.36-.85-.21-1.69.25-2.65-.36Z"/><path class="cls-5" d="M187.83,119.09c-.15-.66-.45-1.21.1-1.72.97.65.97.96-.1,1.72Z"/><path class="cls-5" d="M186.48,134.62c.2-.55.35-.96.52-1.44.25.1.54.12.62.26.12.2.15.5.11.74-.13.77-.72.34-1.26.44Z"/><path class="cls-5" d="M86.72,85.21c.14-.37.24-.72.41-1.03.07-.13.33-.28.42-.24.17.08.36.27.39.45.11.59-.27.86-1.22.83Z"/><path class="cls-5" d="M181.82,112.7c.42.34.85.67,1.4,1.11-.4.18-.7.32-1.15.52-.16-.57-.29-1.04-.43-1.5.06-.04.11-.09.17-.13Z"/><path class="cls-5" d="M102.21,183.21c.93-.64,1.41.26,2.2.26-.49.38-.49.38-1.14.15-.36-.13-.71-.27-1.06-.4Z"/><path class="cls-5" d="M186.87,120.25c-.17-.6-.32-1.11-.46-1.6.44-.34.66-.08.77.18.19.45.29.94-.32,1.42Z"/><path class="cls-5" d="M150.84,75.22c-.42.5-.81.97-1.26,1.5-.15-1.16.09-1.43,1.26-1.5Z"/><path class="cls-5" d="M179.73,153.17c-.07.81-.52,1.35-1.12,1.8.11-.77.46-1.39,1.12-1.8Z"/><path class="cls-5" d="M157,84.66c-.65-.12-1.15-.21-1.71-.32,1.02-.94,1.14-.93,1.71.32Z"/><path class="cls-5" d="M155.48,77.61c.65.08,1.21.28,1.48,1.27-.67-.41-1.16-.71-1.65-1.02.06-.08.11-.17.17-.25Z"/><path class="cls-5" d="M188.22,124.42v-1.31c.45.33.73.55,1.24.93-.57.17-.87.26-1.24.38Z"/><path class="cls-5" d="M114.49,74.58q-.33,1.09-1.11.48c.43-.18.77-.33,1.11-.48Z"/><path class="cls-5" d="M147.29,71.78q-.47-.52-.35-1.14.89.21.35,1.14Z"/><path class="cls-5" d="M99.14,74.27c.53-.59,1-.54,1.44-.2,0,.1-.02.2-.03.3-.47-.03-.94-.07-1.41-.1Z"/><path class="cls-5" d="M78.12,142.17c-.31.4-.51.67-.76.99-.38-1.04-.31-1.15.76-.99Z"/><path class="cls-5" d="M187.78,126.46c.14-.69.23-1.17.35-1.78.44.98.44,1-.35,1.78Z"/><path class="cls-5" d="M69.42,147.34c.45.42.7.64,1.03.94-.52.25-.86.27-1.1-.07-.08-.12.02-.37.07-.87Z"/><path class="cls-5" d="M74.34,135.92c-.74-.89-.74-.89.2-1.23-.06.4-.11.72-.2,1.23Z"/><path class="cls-5" d="M153.39,176.94c-.07-.65.47-.91.7-1.52-.08.93-.11.99-.7,1.52Z"/><path class="cls-5" d="M81.62,98.58c.28.17.55.34.86.53q-.6.46-1.02-.32c.05-.07.11-.14.16-.21Z"/><path class="cls-5" d="M84.4,171.93c.31.17.62.33,1.11.59-.72.21-1-.06-1.25-.42.05-.06.09-.12.14-.18Z"/><path class="cls-5" d="M122.05,75.39c-.12.66-.31.84-.66.74-.09-.03-.13-.21-.19-.33.22-.11.44-.22.85-.41Z"/><path class="cls-5" d="M106.61,186.64c-.13-.57.01-.76.34-.82.06,0,.22.19.21.19-.14.18-.3.34-.55.62Z"/><path class="cls-5" d="M83.03,162.56c.17-.62.52-.57.96-.52-.2.48-.52.49-.96.52Z"/><path class="cls-5" d="M187.53,136.71c.14-.16.27-.33.41-.49.07.05.13.11.2.16-.14.16-.28.32-.42.48-.06-.05-.12-.1-.18-.15Z"/><path class="cls-5" d="M118.24,127.5c-.11.42-.14.9-.35,1.26-.85,1.44-2.11,1.61-3.35.5-.33-.29-.62-.63-.92-.95-.05-.05-.1-.14-.09-.19.18-.78-.05-1.66.57-2.34.58-.64,1.27-.83,2.12-.67,1.68.32,2.04.74,2.02,2.4Z"/><path class="cls-5" d="M116.63,153.1c-.18-.93-.04-1.73.48-2.42.21-.27.54-.53.87-.62.53-.14,1.1-.14,1.66-.19.92-.09,2.28.94,2.41,1.84.02.16-.09.35-.16.51-.46.98-1.24,1.49-2.32,1.48-1,0-2.03.14-2.92-.6Z"/><path class="cls-5" d="M113.47,105.24c-.29-.18-.68-.38-1.02-.64-.2-.16-.32-.41-.46-.63-.74-1.2-.7-1.57.47-2.36.6-.4,1.19-.86,2.06-.55.98.35,1.53.99,1.62,2.25.05.62-.46,1.28-1.32,1.6-.38.14-.8.2-1.36.33Z"/><path class="cls-5" d="M134.74,141.77c.12-.37.24-.8.41-1.21.24-.58.52-1.15.8-1.7.63-1.23,2.11-1.27,3-.1.65.85.73,1.96.21,2.83-.5.84-1.91,1.56-2.77,1.4-.24-.05-.48-.2-.68-.35-.32-.24-.6-.53-.97-.86Z"/><path class="cls-5" d="M118.88,81.78v.78c.26-.05.47-.09.82-.16-.04.39.05.88-.14,1.07-.69.67-1.59,1.02-2.55.86-1-.16-1.52-1.42-.97-2.28.14-.21.48-.41.73-.41.66-.01,1.33.08,2.12.14Z"/><path class="cls-5" d="M137.39,161.83c-1.2-.07-1.8-1.16-1.38-2.3.72-1.94,1.95-2.59,3.77-.65.38.4.47.86.27,1.35-.32.8-1.78,1.65-2.66,1.6Z"/><path class="cls-5" d="M161.07,145.07c-.35.93-.6,1.83-1.01,2.64-.28.54-.76.99-1.21,1.43-.35.34-.8.34-1.26.16-.97-.38-1.2-.81-.95-1.83.46-1.84,2.19-3.11,4.43-2.4Z"/><path class="cls-5" d="M120.65,171.42q-2.35,1.37-4.09,1.43c-.08-.11-.19-.25-.3-.39-.74-.92-.67-1.31.35-1.91,1.31-.77,2.9-.6,3.8.4.11.13.17.31.25.46Z"/><path class="cls-5" d="M173.67,134.89c-2.06-1.54-1.61-3.4.73-5.15.29.18.61.37.92.57.88.58.93.74.18,1.54-.53.57-.95,1.12-.91,1.95.02.55-.34.89-.92,1.09Z"/><path class="cls-5" d="M174.7,147.92c0,1.13,0,2.02,0,2.91,0,.17-.06.4-.18.51-.65.6-1.29,1.24-2.24,1.23-.45-.39-.35-.78-.16-1.16.2-.4.49-.76.62-1.17.12-.38.08-.81.11-1.24.55-.32,1.09-.63,1.86-1.07Z"/></g></g></svg>