<?xml version="1.0" encoding="UTF-8" standalone="no"?>
<!-- Created with Inkscape (http://www.inkscape.org/) -->

<svg
   width="200mm"
   height="200mm"
   viewBox="0 0 200 200"
   version="1.1"
   id="svg1"
   xml:space="preserve"
   inkscape:version="1.4.2 (f4327f4, 2025-05-13)"
   sodipodi:docname="Empty macrophage.svg"
   xmlns:inkscape="http://www.inkscape.org/namespaces/inkscape"
   xmlns:sodipodi="http://sodipodi.sourceforge.net/DTD/sodipodi-0.dtd"
   xmlns:xlink="http://www.w3.org/1999/xlink"
   xmlns="http://www.w3.org/2000/svg"
   xmlns:svg="http://www.w3.org/2000/svg"><sodipodi:namedview
     id="namedview1"
     pagecolor="#ffffff"
     bordercolor="#000000"
     borderopacity="0.25"
     inkscape:showpageshadow="2"
     inkscape:pageopacity="0.0"
     inkscape:pagecheckerboard="0"
     inkscape:deskcolor="#d1d1d1"
     inkscape:document-units="mm"
     inkscape:zoom="0.73512619"
     inkscape:cx="44.890252"
     inkscape:cy="567.92971"
     inkscape:window-width="2560"
     inkscape:window-height="1369"
     inkscape:window-x="1912"
     inkscape:window-y="-8"
     inkscape:window-maximized="1"
     inkscape:current-layer="layer1" /><defs
     id="defs1"><linearGradient
       id="linearGradient22"
       inkscape:collect="always"><stop
         style="stop-color:#ffffff;stop-opacity:0.90909094;"
         offset="0.32383421"
         id="stop22" /><stop
         style="stop-color:#ffffff;stop-opacity:0;"
         offset="1"
         id="stop23" /></linearGradient><radialGradient
       inkscape:collect="always"
       xlink:href="#linearGradient22"
       id="radialGradient23"
       cx="337.63535"
       cy="371.21951"
       fx="337.63535"
       fy="371.21951"
       r="46.517849"
       gradientTransform="matrix(0.67494716,0,0,0.64149904,-139.37138,-140.90056)"
       gradientUnits="userSpaceOnUse" /></defs><g
     inkscape:label="Camada 1"
     inkscape:groupmode="layer"
     id="layer1"
     style="display:inline"><ellipse
       style="display:inline;fill:#fff8ae;fill-opacity:1;stroke:#000000;stroke-width:2.64602;stroke-dasharray:none;stroke-opacity:1"
       id="path23"
       cx="90.357811"
       cy="102.18766"
       rx="39.523159"
       ry="34.981888" /><path
       style="fill:#fff8ae;fill-opacity:1;stroke:#000000;stroke-width:0.84897;stroke-dasharray:none;stroke-opacity:1"
       d="m 104.54126,197.38285 c -1.15017,-0.954 -3.84712,-3.43859 -5.993199,-5.52131 -4.846027,-4.70295 -6.172452,-4.84757 -12.224848,-1.33285 -6.713777,3.89879 -8.941472,3.40789 -16.613177,-3.66098 -6.059449,-5.58328 -8.798337,-6.63731 -14.654214,-5.63941 -3.532568,0.60199 -4.567942,0.58779 -5.574661,-0.0765 -0.679993,-0.44868 -3.241705,-4.37535 -5.692708,-8.72593 l -4.456366,-7.91014 -10.701319,-3.77492 -10.701329,-3.77495 -2.028107,-2.98391 c -5.9660177,-8.77767 -6.4880625,-20.12558 -1.39065,-30.22903 2.267011,-4.49338 4.196599,-7.00759 12.767681,-16.63596 2.116048,-2.37708 4.030238,-5.04602 4.253743,-5.93099 0.251155,-0.99443 -0.101766,-3.16082 -0.923957,-5.671612 -0.731689,-2.23443 -1.326315,-4.941838 -1.321401,-6.016461 0.01196,-2.627129 -0.995383,-5.101143 -2.077167,-5.101143 -0.485097,0 -3.323879,1.164378 -6.308403,2.587509 -4.099231,1.954657 -6.181604,2.592344 -8.514155,2.607287 C 9.4296097,89.61049 9.2825095,89.53153 8.901968,87.720673 8.6834484,86.680816 6.959995,83.969046 5.072068,81.694525 1.0180714,76.810366 -0.05912302,73.611689 0.90714939,69.326928 1.8461197,65.163226 3.7171225,61.912364 6.8359098,59.025694 10.099608,56.004896 10.739546,53.93339 10.760879,46.320315 c 0.01816,-6.473818 0.976085,-11.919783 2.543023,-14.457258 1.86438,-3.019153 4.060775,-3.578059 14.139782,-3.598105 7.233126,-0.01436 9.322384,-0.218098 10.884182,-1.061249 2.136618,-1.153466 4.717712,-3.966766 6.130837,-6.682369 1.082405,-2.080079 2.125764,-2.230966 3.673629,-0.531279 3.344321,3.672345 11.562563,7.524704 17.597053,8.248741 3.122252,0.374618 3.631231,0.2487 6.568908,-1.625112 1.751436,-1.117157 6.852585,-5.205944 11.33588,-9.086208 C 96.122024,6.7193663 102.73011,2.1904913 106.01242,2.1904913 c 0.63761,0 2.76114,1.5183648 4.71896,3.374139 4.69271,4.4481247 5.8263,4.4469447 12.08107,-0.01263 5.82961,-4.1564254 7.81697,-5.20195902 9.8879,-5.20195902 3.8222,0 4.31747,8.08444002 1.22086,19.92820372 -1.78445,6.825048 -1.9206,9.919115 -0.52369,11.901025 3.18208,4.514672 12.01487,4.184047 30.78515,-1.152338 9.80542,-2.787674 11.98332,-2.985771 13.57772,-1.234995 0.9753,1.07095 1.04918,1.809631 0.5984,5.981427 -1.30526,12.079478 0.58266,15.683546 9.21317,17.588111 4.19951,0.92674 4.88816,2.364558 5.20576,10.868911 0.29269,7.837718 -0.80108,12.384732 -3.95288,16.432771 -1.15963,1.489384 -2.10842,3.028635 -2.10842,3.42057 0,1.028421 2.38124,3.044108 5.33729,4.517943 5.72601,2.854884 5.87328,4.609964 1.01246,12.06686 -3.12128,4.7883 -3.52763,5.77281 -3.52763,8.5466 0,3.68542 1.36149,6.57456 5.82609,12.36314 1.69465,2.19721 3.08118,4.3828 3.08118,4.85689 0,1.33214 -1.69125,1.93011 -7.67221,2.71267 -8.99527,1.17694 -10.95363,2.51241 -11.74319,8.00813 -1.19347,8.30733 -3.2678,13.44971 -6.52342,16.17202 -4.24507,3.54967 -12.82871,4.32139 -21.59607,1.9416 -4.86703,-1.3211 -11.59035,-1.20054 -15.56458,0.27906 -6.1425,2.28687 -12.04595,8.76092 -15.55885,17.06271 -0.89863,2.12365 -2.59394,7.44474 -3.76735,11.82465 -3.75912,14.03136 -6.47638,17.09611 -11.47888,12.94684 z m -6.412583,-73.82449 c 4.723883,-1.56901 7.228963,-3.09672 11.279303,-6.87861 11.74614,-10.9676 11.74614,-29.672721 0,-40.640323 -6.48517,-6.055328 -12.45491,-8.388168 -21.46535,-8.388168 -9.010433,0 -14.98017,2.33284 -21.465352,8.388168 -5.683226,5.306543 -8.784121,12.47978 -8.784121,20.320163 0,20.01789 20.51309,33.81592 40.43552,27.19877 z"
       id="path19"
       sodipodi:nodetypes="ssssssscccssssscssssssscscssssscssssssssssssssssssssssssssssssssss" /><path
       style="fill:url(#radialGradient23);stroke:#000000;stroke-width:2.16674;stroke-dasharray:none;stroke-opacity:1"
       d="M 80.119163,125.03533 C 66.031571,121.26213 56.262258,106.85014 58.534059,93.192389 61.393558,76.00171 79.133567,64.961726 96.610619,69.496583 c 14.327581,3.71764 24.272561,18.317043 21.848271,32.073607 -1.95137,11.07294 -10.85058,20.64392 -21.848271,23.49754 -4.737835,1.22937 -11.832598,1.21541 -16.491456,-0.0326 z"
       id="path20" /></g></svg>
