<?xml version="1.0" encoding="UTF-8" standalone="no"?>
<!-- Created with Inkscape (http://www.inkscape.org/) -->

<svg
   width="210mm"
   height="210mm"
   viewBox="0 0 210 210"
   version="1.1"
   id="svg1"
   xml:space="preserve"
   inkscape:version="1.3.2 (091e20e, 2023-11-25, custom)"
   sodipodi:docname="mch-2.svg"
   xmlns:inkscape="http://www.inkscape.org/namespaces/inkscape"
   xmlns:sodipodi="http://sodipodi.sourceforge.net/DTD/sodipodi-0.dtd"
   xmlns="http://www.w3.org/2000/svg"
   xmlns:svg="http://www.w3.org/2000/svg"><sodipodi:namedview
     id="namedview1"
     pagecolor="#ffffff"
     bordercolor="#000000"
     borderopacity="0.25"
     inkscape:showpageshadow="2"
     inkscape:pageopacity="0.0"
     inkscape:pagecheckerboard="0"
     inkscape:deskcolor="#9d9d9d"
     inkscape:document-units="mm"
     inkscape:zoom="0.73139029"
     inkscape:cx="6.8362953"
     inkscape:cy="357.53824"
     inkscape:window-width="1920"
     inkscape:window-height="1017"
     inkscape:window-x="-8"
     inkscape:window-y="-8"
     inkscape:window-maximized="1"
     inkscape:current-layer="layer1"
     showguides="true" /><defs
     id="defs1" /><g
     inkscape:label="Camada 1"
     inkscape:groupmode="layer"
     id="layer1"><ellipse
       style="fill:none;fill-opacity:0.454839;stroke:#0000ff;stroke-width:2.365;stroke-opacity:0"
       id="path4"
       cx="95.157112"
       cy="45.020569"
       rx="19.952297"
       ry="18.929102" /><rect
       style="fill:#000000;fill-opacity:1;stroke:#000000;stroke-width:2.365;stroke-opacity:1"
       id="rect7"
       width="2.0463893"
       height="60.11269"
       x="75.961235"
       y="135.91124" /><rect
       style="fill:#000000;fill-opacity:1;stroke:#000000;stroke-width:2.365;stroke-opacity:1"
       id="rect7-5"
       width="2.0463893"
       height="60.11269"
       x="112.50285"
       y="134.36453" /><path
       style="fill:#b80000;fill-opacity:0.75;fill-rule:nonzero;stroke:#550000;stroke-width:2.165;stroke-dasharray:none;stroke-opacity:1"
       d="m 128.04962,43.093964 c -0.0859,-17.096255 -20.62581,-25.463471 -16.62956,-17.141483 3.99625,8.321987 -4.16814,17.458081 -10.22697,16.010777 -6.058828,-1.4473 0.17189,8.231533 0.55862,13.658913 0.38674,5.427385 -0.005,78.073859 -0.005,78.073859 l 26.37391,-0.12793 z"
       id="path17-4" /><path
       style="fill:#b80000;fill-opacity:0.75;fill-rule:nonzero;stroke:#550000;stroke-width:2.165;stroke-dasharray:none;stroke-opacity:1"
       d="m 62.488625,43.098639 c 0.0859,-17.096255 20.62581,-25.463471 16.62956,-17.141483 -3.99625,8.321987 4.16814,17.458081 10.22697,16.010777 6.05882,-1.4473 -0.17189,8.231533 -0.55862,13.658913 -0.38674,5.427385 0.005,78.073864 0.005,78.073864 l -26.37391,-0.12793 z"
       id="path17-4-8" /></g></svg>
