<?xml version="1.0" encoding="UTF-8" standalone="no"?>
<!-- Created with Inkscape (http://www.inkscape.org/) -->

<svg
   width="210mm"
   height="210mm"
   viewBox="0 0 210 210"
   version="1.1"
   id="svg1"
   xml:space="preserve"
   inkscape:version="1.3.2 (091e20e, 2023-11-25, custom)"
   sodipodi:docname="t-receptor.svg"
   xmlns:inkscape="http://www.inkscape.org/namespaces/inkscape"
   xmlns:sodipodi="http://sodipodi.sourceforge.net/DTD/sodipodi-0.dtd"
   xmlns="http://www.w3.org/2000/svg"
   xmlns:svg="http://www.w3.org/2000/svg"><sodipodi:namedview
     id="namedview1"
     pagecolor="#ffffff"
     bordercolor="#000000"
     borderopacity="0.25"
     inkscape:showpageshadow="2"
     inkscape:pageopacity="0.0"
     inkscape:pagecheckerboard="0"
     inkscape:deskcolor="#d1d1d1"
     inkscape:document-units="mm"
     inkscape:zoom="1.4627806"
     inkscape:cx="345.91654"
     inkscape:cy="370.86902"
     inkscape:window-width="1920"
     inkscape:window-height="1017"
     inkscape:window-x="-8"
     inkscape:window-y="-8"
     inkscape:window-maximized="1"
     inkscape:current-layer="layer1-8"
     showguides="true"><sodipodi:guide
       position="70.344635,186.46652"
       orientation="1,0"
       id="guide4"
       inkscape:locked="false" /><sodipodi:guide
       position="138.19001,143.43727"
       orientation="1,0"
       id="guide6"
       inkscape:locked="false" /><sodipodi:guide
       position="90.709803,145.51735"
       orientation="0,-1"
       id="guide7"
       inkscape:locked="false" /></sodipodi:namedview><defs
     id="defs1" /><g
     inkscape:label="Camada 1"
     inkscape:groupmode="layer"
     id="layer1"><g
       id="g1"
       transform="matrix(0.26458333,0,0,0.26458333,16.150769,89.496384)"><g
         inkscape:label="Camada 1"
         id="layer1-8"
         transform="matrix(3.7795276,0,0,-3.7795276,-27.343946,31.522285)"><ellipse
           style="fill:none;fill-opacity:0.454839;stroke:#0000ff;stroke-width:2.365;stroke-opacity:0"
           id="path4"
           cx="98.738297"
           cy="100.27309"
           rx="19.952297"
           ry="18.929102" /><rect
           style="fill:#000000;fill-opacity:1;stroke:#000000;stroke-width:2.365;stroke-opacity:1"
           id="rect7-7"
           width="2.0463893"
           height="60.11269"
           x="77.733856"
           y="-100.54082" /><rect
           style="fill:#000000;fill-opacity:1;stroke:#000000;stroke-width:2.09559;stroke-opacity:1"
           id="rect7-7-4"
           width="2.2982321"
           height="42.025414"
           x="-56.83025"
           y="78.535912"
           transform="matrix(0.00153369,0.99999882,0.99999217,-0.00395786,0,0)" /><rect
           style="fill:#000000;fill-opacity:1;stroke:#000000;stroke-width:2.365;stroke-opacity:1"
           id="rect7-5-4"
           width="2.0463893"
           height="60.11269"
           x="118.52608"
           y="-99.917007" /></g><path
         style="fill:#0000ff;fill-opacity:0.764516;stroke:#000080;stroke-width:8.93858;stroke-dasharray:none;stroke-opacity:1"
         d="m 284.05321,-251.41268 c 0,0 13.58306,22.46191 40.53256,23.42871 l 0.96681,118.79532 c 0,0 0,6.04249 -6.28419,7.00929 -6.28419,0.96679 -91.60413,0.7251 -91.60413,0.7251 0,0 -3.38379,0 -4.10889,-8.21779 -0.7251,-8.21778 -3.0797,-193.35466 -3.0797,-193.35466 0,0 12.64713,69.3884 63.57754,51.61403 z"
         id="path5" /><path
         style="fill:#0000ff;fill-opacity:0.758064;stroke:#000080;stroke-width:8.93858;stroke-dasharray:none;stroke-opacity:1"
         d="m 223.89381,167.31041 -0.68363,-246.448453 c 0,0 -0.34182,-6.83629 6.83629,-7.86174 7.17811,-1.02544 84.08644,-2.05089 84.08644,-2.05089 0,0 9.229,-3.07633 9.91262,7.86174 0.68363,10.93808 -0.34181,243.713933 -0.34181,243.713933 0,0 3.75996,12.98896 -8.88718,12.98896 -12.64715,0 -82.71918,-0.34181 -82.71918,-0.34181 0,0 -8.20355,1.02544 -8.20355,-7.86174 z"
         id="path6" /><path
         style="fill:#0000ff;fill-opacity:0.764516;stroke:#000080;stroke-width:8.93858;stroke-dasharray:none;stroke-opacity:1"
         d="m 410.68387,-252.26235 c 0,0 -13.58306,22.46191 -40.53256,23.42871 l -0.96681,118.79532 c 0,0 0,6.04249 6.28419,7.00929 6.28419,0.96679 91.60413,0.7251 91.60413,0.7251 0,0 3.38379,0 4.10889,-8.21779 0.7251,-8.21778 3.0797,-193.35466 3.0797,-193.35466 0,0 -12.64713,69.3884 -63.57754,51.61403 z"
         id="path5-1" /><path
         style="fill:#0000ff;fill-opacity:0.758064;stroke:#000080;stroke-width:8.93858;stroke-dasharray:none;stroke-opacity:1"
         d="m 470.84327,166.46074 0.68363,-246.448453 c 0,0 0.34182,-6.83629 -6.83629,-7.86174 -7.17811,-1.02544 -84.08644,-2.05089 -84.08644,-2.05089 0,0 -9.229,-3.07633 -9.91262,7.86174 -0.68363,10.93808 0.34181,243.713933 0.34181,243.713933 0,0 -3.75996,12.98896 8.88718,12.98896 12.64715,0 82.71918,-0.34181 82.71918,-0.34181 0,0 8.20355,1.02544 8.20355,-7.86174 z"
         id="path6-6" /></g></g></svg>
