<?xml version="1.0" encoding="UTF-8"?>
<svg id="Male_mouse_with_testes" xmlns="http://www.w3.org/2000/svg" xmlns:xlink="http://www.w3.org/1999/xlink" viewBox="0 0 500 500">
  <defs>
    <style>
      .cls-1 {
        fill: #efbba5;
      }

      .cls-2 {
        stroke-width: .25px;
      }

      .cls-2, .cls-3 {
        fill: none;
        stroke: #bab1b1;
        stroke-miterlimit: 10;
      }

      .cls-4 {
        filter: url(#drop-shadow-1);
      }

      .cls-3 {
        stroke-width: .75px;
      }

      .cls-5 {
        clip-path: url(#clippath);
      }
    </style>
    <filter id="drop-shadow-1" x="44.24" y="109.31" width="408.34" height="273.67" filterUnits="userSpaceOnUse">
      <feOffset dx="0" dy="0"/>
      <feGaussianBlur result="blur" stdDeviation="2.83"/>
      <feFlood flood-color="#afafaf" flood-opacity=".75"/>
      <feComposite in2="blur" operator="in"/>
      <feComposite in="SourceGraphic"/>
    </filter>
    <clipPath id="clippath">
      <path class="cls-3" d="M449.08,199.22c-.68-.58-1.32-1.21-2.06-1.71-6.84-4.63-12.89-10.17-18.51-16.19-.43-.46-.89-.88-1.32-1.33-3.25-3.39-7.06-5.99-11.21-8.16-7.22-3.77-14.71-6.94-22.39-9.61-2.77-.97-4.15-2.55-4.67-5.47-1.05-5.99-2.85-11.8-5.21-17.41-1.14-2.73-2.76-5.23-5-7.22-3.85-3.42-8.67-3-11.73.93-.73.94-1.14,2.02-1.46,3.14-.89,3.2-1.47,6.44-1.32,9.78.05,1.15.24,2.4-.47,3.39-.87,1.21-1,2.32-.46,3.74.58,1.49.2,2.1-1.3,2.66-.52.2-1.06.33-1.61.45-.33.07-.66.13-.99.18-2.29.38-4.61.71-6.79,1.52-1.88.7-3.39.41-4.99-.74-3.71-2.66-7.6-5.04-11.78-6.89-5.14-2.27-10.47-3.9-16.11-2.37-7.16,1.95-12.36,6.21-14.53,13.59-.18.6-.34,1.21-.58,1.78-.69,1.6-1.25,1.83-2.94,1.22-.42-.15-.81-.38-1.22-.55-3.88-1.61-7.69-3.39-11.64-4.77-10.83-3.79-22.07-5.9-33.35-7.8-27.23-4.6-53.99-2.55-79.15,9.34-26.06,12.31-40.5,33.29-56.05,56.45-1.49,2.23-3.11,4.38-4.34,6.75-3.81,7.31-6.53,8.72-12.12,14.53-3.09,3.35-6.1,6.76-9.85,9.41-2.77,1.96-5.44,4.02-7.64,6.66-1.73,2.06-3.87,3.66-6.35,4.82-3.82,1.79-7.31,4.17-10.54,6.83-28.57,23.48-32.7,60.16-11.08,88.93,17.98,23.94,50.7,30.26,78.96,26.47,33.7-4.53,58.27-24.8,89.27-36.55,29.63-11.23,67.56-14.05,97.25.26,5.21,2.51,5.6-3.01,1.01-5.51-7.13-3.87-15.39-6.4-23.21-8.39-17.03-4.33-33.36-6.4-50.84-3.96-35.2,4.9-62.69,26.86-95.94,37.4-26.23,8.31-62.97,4.94-82.22-16.93-17.81-20.23-10.36-54.04,11.43-68.45,1.72-1.14,3.63-1.73,5.71-2.11,1.04-.19,2.06-.18,3.07-.12.57,3.38,1.96,6.44,5.41,7.58,5.95,1.97,12.05,3.38,18.37,1.4,1.89-.59,1.93-.46,2.87,1.3,1.85,3.47,3.84,6.86,5.58,10.38,1.34,2.72,3.47,4.96,4.43,7.92.51,1.58,2.05,2.15,3.66,2.27,3.4.27,6.68,1.13,9.98,1.93,3.81.93,7.71,1.52,11.65.99,1.26-.17,2.26.17,3.28.8,5.94,3.64,12.41,5.79,19.27,6.92,4.03.67,8.11,1.01,11.8-.92,3.23-1.68,6.57-2.1,10.06-2.2.45-.01.9,0,1.34-.04,2.39-.23,3.66-2.28,2.21-4.13-2.64-3.37-5.57-6.49-10.46-6.56-3.02-.04-5.99.48-9.07.21-6.99-.62-12.43-4.21-17.62-8.37-2.17-1.74-2.48-4.7-1.16-6.8.93-1.48,1.45-1.71,3.03-.89,1.04.54,1.98.68,3.05.18,1.65-.78,3.42-1,5.23-.91,2.08.11,4.09-.33,6.09-.83,5.07-1.27,10.17-1.65,15.39-.97,2.82.37,5.69.35,8.55-.11,2.2-.35,4.43-.75,6.65-.72,7.25.11,14.45-.37,21.64-1.17,5.67-.63,11.36-1.18,17.01-1.98,4.95-.7,9.83-1.95,14.79-2.53,5.77-.67,11.6-1.08,16.89,2.33,1.23.79,2.3,1.57,3.07,2.87,2.35,3.94,4.22,8.09,5.19,12.57,1.21,5.59,3.86,10.3,7.82,14.38,1.45,1.5,2.98,2.21,5.01,1.67,1.5-.4,3-.4,4.52-.19,2.03.28,4.07.6,6.11.74,2.4.17,4.63-.4,6.33-2.25,1.35-1.46,1.41-3.05.15-4.57-1.2-1.46-2.69-2.6-4.31-3.58-.65-.4-1.53-.52-1.98-1.55,1.64-.24,3.18-.57,4.74-.67,3.21-.2,5.94-1.86,8.86-2.87,1.86-.64,2.67-2.65,2.57-4.64-.09-1.87-1.7-2.3-3.2-2.73-2.99-.85-5.47-2.65-7.8-4.6-5.63-4.71-4.6-12.22.84-16.31,2.98-2.24,6.32-4.05,9.64-5.79,9.65-5.07,19.02-10.62,28.34-16.25,2.23-1.35,4.72-2.12,6.98-3.39,4.28-2.41,8.59-4.77,12.86-7.18,2.94-1.66,6.09-2.47,9.43-2.79,5.15-.49,10.3-.98,15.43-1.63,7.63-.97,15.14-2.52,22.45-5,5.34-1.82,10.41-4.28,15.63-6.37,2.06-.82,3.67-2.33,4.5-4.38.74-1.82,1.87-3.18,3.45-4.3,1.01-.72,1.95-1.64,2.25-2.92.96-4.17,1.15-8.19-2.53-11.33-.68-.58,3.68,3.14,0,0ZM147.07,287.22c-.41.98-.93,1.92-1.41,2.88-1,2-1.95,4.01-1.73,6.35.1,1.12-.39,1.45-1.45,1.05-2.92-1.08-5.51-2.47-6.58-5.72-.52-1.59-1.75-2.91-1.83-4.23.03-4.88,1.45-6.08,5.64-5.11,1.99.46,3.98.99,5.94,1.58,1.93.58,2.22,1.28,1.42,3.19Z"/>
    </clipPath>
  </defs>
  <g class="cls-4">
    <g class="cls-5">
      <path class="cls-2" d="M320.7,270.69s-10.18,4.38-12.35,6.54-2.15,6.44-1.49,12.3c.18,1.57,3.76,11.01,4.51,11.4,3.97,2.08,3.16,2.65,7.49,4.7l12.15,1.12,8.47-8.47-17.59-25.69-1.19-1.9"/>
    </g>
    <path class="cls-3" d="M449.08,199.22c-.68-.58-1.32-1.21-2.06-1.71-6.84-4.63-12.89-10.17-18.51-16.19-.43-.46-.89-.88-1.32-1.33-3.25-3.39-7.06-5.99-11.21-8.16-7.22-3.77-14.71-6.94-22.39-9.61-2.77-.97-4.15-2.55-4.67-5.47-1.05-5.99-2.85-11.8-5.21-17.41-1.14-2.73-2.76-5.23-5-7.22-3.85-3.42-8.67-3-11.73.93-.73.94-1.14,2.02-1.46,3.14-.89,3.2-1.47,6.44-1.32,9.78.05,1.15.24,2.4-.47,3.39-.87,1.21-1,2.32-.46,3.74.58,1.49.2,2.1-1.3,2.66-.52.2-1.06.33-1.61.45-.33.07-.66.13-.99.18-2.29.38-4.61.71-6.79,1.52-1.88.7-3.39.41-4.99-.74-3.71-2.66-7.6-5.04-11.78-6.89-5.14-2.27-10.47-3.9-16.11-2.37-7.16,1.95-12.36,6.21-14.53,13.59-.18.6-.34,1.21-.58,1.78-.69,1.6-1.25,1.83-2.94,1.22-.42-.15-.81-.38-1.22-.55-3.88-1.61-7.69-3.39-11.64-4.77-10.83-3.79-22.07-5.9-33.35-7.8-27.23-4.6-53.99-2.55-79.15,9.34-26.06,12.31-40.5,33.29-56.05,56.45-1.49,2.23-3.11,4.38-4.34,6.75-3.81,7.31-6.53,8.72-12.12,14.53-3.09,3.35-6.1,6.76-9.85,9.41-2.77,1.96-5.44,4.02-7.64,6.66-1.73,2.06-3.87,3.66-6.35,4.82-3.82,1.79-7.31,4.17-10.54,6.83-28.57,23.48-32.7,60.16-11.08,88.93,17.98,23.94,50.7,30.26,78.96,26.47,33.7-4.53,58.27-24.8,89.27-36.55,29.63-11.23,67.56-14.05,97.25.26,5.21,2.51,5.6-3.01,1.01-5.51-7.13-3.87-15.39-6.4-23.21-8.39-17.03-4.33-33.36-6.4-50.84-3.96-35.2,4.9-62.69,26.86-95.94,37.4-26.23,8.31-62.97,4.94-82.22-16.93-17.81-20.23-10.36-54.04,11.43-68.45,1.72-1.14,3.63-1.73,5.71-2.11,1.04-.19,2.06-.18,3.07-.12.57,3.38,1.96,6.44,5.41,7.58,5.95,1.97,12.05,3.38,18.37,1.4,1.89-.59,1.93-.46,2.87,1.3,1.85,3.47,3.84,6.86,5.58,10.38,1.34,2.72,3.47,4.96,4.43,7.92.51,1.58,2.05,2.15,3.66,2.27,3.4.27,6.68,1.13,9.98,1.93,3.81.93,7.71,1.52,11.65.99,1.26-.17,2.26.17,3.28.8,5.94,3.64,12.41,5.79,19.27,6.92,4.03.67,8.11,1.01,11.8-.92,3.23-1.68,6.57-2.1,10.06-2.2.45-.01.9,0,1.34-.04,2.39-.23,3.66-2.28,2.21-4.13-2.64-3.37-5.57-6.49-10.46-6.56-3.02-.04-5.99.48-9.07.21-6.99-.62-12.43-4.21-17.62-8.37-2.17-1.74-2.48-4.7-1.16-6.8.93-1.48,1.45-1.71,3.03-.89,1.04.54,1.98.68,3.05.18,1.65-.78,3.42-1,5.23-.91,2.08.11,4.09-.33,6.09-.83,5.07-1.27,10.17-1.65,15.39-.97,2.82.37,5.69.35,8.55-.11,2.2-.35,4.43-.75,6.65-.72,7.25.11,14.45-.37,21.64-1.17,5.67-.63,11.36-1.18,17.01-1.98,4.95-.7,9.83-1.95,14.79-2.53,5.77-.67,11.6-1.08,16.89,2.33,1.23.79,2.3,1.57,3.07,2.87,2.35,3.94,4.22,8.09,5.19,12.57,1.21,5.59,3.86,10.3,7.82,14.38,1.45,1.5,2.98,2.21,5.01,1.67,1.5-.4,3-.4,4.52-.19,2.03.28,4.07.6,6.11.74,2.4.17,4.63-.4,6.33-2.25,1.35-1.46,1.41-3.05.15-4.57-1.2-1.46-2.69-2.6-4.31-3.58-.65-.4-1.53-.52-1.98-1.55,1.64-.24,3.18-.57,4.74-.67,3.21-.2,5.94-1.86,8.86-2.87,1.86-.64,2.67-2.65,2.57-4.64-.09-1.87-1.7-2.3-3.2-2.73-2.99-.85-5.47-2.65-7.8-4.6-5.63-4.71-4.6-12.22.84-16.31,2.98-2.24,6.32-4.05,9.64-5.79,9.65-5.07,19.02-10.62,28.34-16.25,2.23-1.35,4.72-2.12,6.98-3.39,4.28-2.41,8.59-4.77,12.86-7.18,2.94-1.66,6.09-2.47,9.43-2.79,5.15-.49,10.3-.98,15.43-1.63,7.63-.97,15.14-2.52,22.45-5,5.34-1.82,10.41-4.28,15.63-6.37,2.06-.82,3.67-2.33,4.5-4.38.74-1.82,1.87-3.18,3.45-4.3,1.01-.72,1.95-1.64,2.25-2.92.96-4.17,1.15-8.19-2.53-11.33-.68-.58,3.68,3.14,0,0ZM147.07,287.22c-.41.98-.93,1.92-1.41,2.88-1,2-1.95,4.01-1.73,6.35.1,1.12-.39,1.45-1.45,1.05-2.92-1.08-5.51-2.47-6.58-5.72-.52-1.59-1.75-2.91-1.83-4.23.03-4.88,1.45-6.08,5.64-5.11,1.99.46,3.98.99,5.94,1.58,1.93.58,2.22,1.28,1.42,3.19Z"/>
  </g>
  <ellipse class="cls-1" cx="109.94" cy="273.22" rx="15.55" ry="11.54" transform="translate(-82.66 50.42) rotate(-18.92)"/>
</svg>