<?xml version="1.0" encoding="UTF-8"?>
<svg id="Mouse_fetus_with_placenta" xmlns="http://www.w3.org/2000/svg" xmlns:xlink="http://www.w3.org/1999/xlink" viewBox="0 0 500 500">
  <defs>
    <style>
      .cls-1 {
        stroke: #9e998d;
      }

      .cls-1, .cls-2, .cls-3, .cls-4, .cls-5, .cls-6, .cls-7, .cls-8, .cls-9, .cls-10, .cls-11, .cls-12, .cls-13, .cls-14 {
        stroke-miterlimit: 10;
      }

      .cls-1, .cls-2, .cls-14 {
        stroke-width: 1.32px;
      }

      .cls-1, .cls-4, .cls-5, .cls-6, .cls-7, .cls-11 {
        fill: none;
      }

      .cls-15 {
        fill: url(#linear-gradient-2);
      }

      .cls-16 {
        mask: url(#mask-1);
      }

      .cls-2, .cls-8 {
        fill: #efbba5;
        stroke: #93786d;
      }

      .cls-17 {
        fill: #f8f8f8;
      }

      .cls-18 {
        mask: url(#mask);
      }

      .cls-3 {
        fill: #b4e1ff;
        stroke: #87a3af;
      }

      .cls-3, .cls-8, .cls-9, .cls-10, .cls-12, .cls-13 {
        stroke-width: .66px;
      }

      .cls-19 {
        fill: #efe7d8;
      }

      .cls-20 {
        fill: url(#linear-gradient-4);
      }

      .cls-4 {
        clip-path: url(#clippath-1);
      }

      .cls-4, .cls-5, .cls-6, .cls-7, .cls-11 {
        stroke: #a09595;
        stroke-width: .99px;
      }

      .cls-6 {
        clip-path: url(#clippath-3);
      }

      .cls-7 {
        clip-path: url(#clippath-2);
      }

      .cls-21 {
        mask: url(#mask-2);
      }

      .cls-22 {
        fill: url(#linear-gradient-3);
      }

      .cls-23 {
        fill: #c4bead;
      }

      .cls-24, .cls-9 {
        fill: #f48e9a;
      }

      .cls-25 {
        clip-path: url(#clippath-5);
      }

      .cls-26 {
        fill: #e9e1cd;
      }

      .cls-9, .cls-12 {
        stroke: #8c3e47;
      }

      .cls-10 {
        fill: #bb0a21;
        stroke: #700719;
      }

      .cls-11 {
        clip-path: url(#clippath-4);
      }

      .cls-12 {
        fill: url(#linear-gradient-5);
      }

      .cls-13 {
        fill: #e2c0d0;
        stroke: #968c91;
      }

      .cls-27 {
        fill: #faceaa;
      }

      .cls-28 {
        fill: #fff7e5;
      }

      .cls-29 {
        fill: #9e998d;
      }

      .cls-30 {
        filter: url(#luminosity-invert);
      }

      .cls-31 {
        fill: url(#linear-gradient);
      }

      .cls-32 {
        clip-path: url(#clippath);
      }

      .cls-14 {
        fill: #d1a7a0;
        stroke: #916d77;
      }
    </style>
    <filter id="luminosity-invert" x="27.11" y="61.72" width="437.42" height="369.51" color-interpolation-filters="sRGB" filterUnits="userSpaceOnUse">
      <feColorMatrix result="cm" values="-1 0 0 0 1 0 -1 0 0 1 0 0 -1 0 1 0 0 0 1 0"/>
    </filter>
    <linearGradient id="linear-gradient" x1="61.57" y1="246.47" x2="441.97" y2="246.47" gradientUnits="userSpaceOnUse">
      <stop offset="0" stop-color="#fff"/>
      <stop offset=".1" stop-color="#000"/>
      <stop offset=".92" stop-color="#000"/>
      <stop offset=".99" stop-color="#fff"/>
    </linearGradient>
    <mask id="mask" x="27.11" y="61.72" width="437.42" height="369.51" maskUnits="userSpaceOnUse">
      <g class="cls-30">
        <rect class="cls-31" x="61.57" y="61.72" width="380.39" height="369.51"/>
      </g>
    </mask>
    <clipPath id="clippath">
      <path class="cls-19" d="M362.19,242.7c-.33-2.62-.66-5.21-1.29-7.79-.84-3.44-1.9-6.78-3.23-10.06-9.63-23.71-34.25-32.21-58.38-28.68-2.44.36-4.81,1.02-7.26,1.37-1.2.17-2.38.82-3.54.89-2.17.12-4.4.41-6.56-.23-2.43-.71-4.85-1.49-7.36-1.91-.64-.11-1.2-.54-1.86-.61-1.43-.16-2.86-.37-4.27-.57-8.81-1.25-14.55,9.36-17.01,16.04-.21.56-.41,1.16-.32,1.75.07.44-.02.77-.27,1.09-.53,1.98-.58,4.01-.44,6.03.13,1.93.47,3.85.72,5.78.32.94.87,1.77,1.29,2.66.03,0,.05,0,.08.02,1.61.98,3.54.96,5.24,1.67,1.5.64,2.84,1.6,4.33,2.24,1.84.79,3.5,1.89,5.19,2.93.57.35.71,1.34.31,2.02-.7,1.19-1.67,1.8-2.86,2.15-1,.29-1.41.61-2.45.48-1.17.09-3.15-.86-4.27-1.1-.62-.13-1.22-.28-1.86-.23-1.34.11-2.66-.22-4-.15-1.12.06-2.05.62-2.88,1.32-.2.17-.42.3-.64.45,1.85,1.79,3.69,3.61,5.23,5.65,1.36,1.8,2.82,3.51,4.21,5.28,1.23,1.59,2.7,2.99,3.77,4.7.64,1.02,1.42,1.89,2.31,2.68,1.31-.45,2.24.54,3.23,1.01,2.28,1.07,4.54,2.16,6.93,2.96.93.31,1.84.71,2.74,1.11.89.39,1.83.62,2.78.82.29.06.61.13.6.59,0,.49-.32.45-.63.49-1.57.22-3.13.15-4.7.03-1.49-.12-2.96-.21-4.41-.64-2.07-.61-3.3-1.15-4.94-2.57-.67-.58-1.03-1.41-1.38-2.27,0-.09-.21-.19-.22-.28-.63-.3-.78-1.3-1.18-1.8-1.35-1.68-2.75-3.51-4.1-5.19-.46-.57-1.1-.95-1.59-1.52-2.14-2.51-3.92-5.64-6.28-7.97-.92-.91-1.01-1.69-2.2-2.33l-.47-.21s-.46.14-.46.1c-.47.06-.6-.45-.97-.58-1.88-.68-3.76-1.36-5.69-1.91.1-.47.15-.76.15-.71-.21-.99.36-1.37.56-2.26.29-1.26.15-2.75.55-3.99.54-1.67.53-3.4.48-5.13-.01-.42.02-.84.17-1.23-.17-.09,1.73-.22,1.69-.42-.31-1.5.2-3.82-.49-5.16-1.21-2.32-4.52-4.03-6.26-5.97-.26-.29-1.19-.39-1.19-.87-.26-.01-1.05-1.22-1.33-1.4-1.66-1.09-1.65-1.93-3.18-3.15-.94-.75-2.38-2.31-3.31-3.06-.75-.61-1.55-1.6-1.91-2.51-.68-1.71-.5-2.45,1.23-3.13,1.73-.69,3.31-1.67,4.96-2.5,3.65-1.84,7.42-3.35,11.23-4.76,13.77-5.11,52.97-4.03,60.6-19.96,1.41-2.94,1.52-6.04.85-9.18-.39-1.8-1.15-3.49-1.97-5.13-.8-1.61-1.53-3.26-2.8-4.61-43.55-46.75-127.91-10.55-160.71,30.56-3.63,4.54-6.69,9.41-8.86,14.82-1.32,3.29-2.52,6.62-3.2,10.11-.4,2.06-.63,4.13-.8,6.22-.23,2.82-.23,5.63.28,8.39.59,3.21,2.48,5.76,4.68,8.1,1.93,2.05,4.52,2.4,7.11,2.75.39.05.78,0,1.17.1,1.38.33,2.82.03,4.07-.32,17.27-4.85,31.11-20.71,48.58-25.84,2.71-.79,5.44-1.53,8.22-2.02,2.04-.36,4.03-.97,6.19-.27,1.86.61,3.6,1.39,5.03,2.66,1.37,1.21,2.98,2.11,4.19,3.55.75.89,1.53,1.76,2.22,2.71.26,0-.09.29-.43.62-.01,0-.02-.01-.04-.01-.76-.31-1.51.07-2.24.14-2.87.28-5.73.79-8.54,1.45-2.43.57-4.86,1.17-7.3,1.76-.24,1.23-.61,2.41-1.13,3.55-.11.25-.21.54-.03.74.17.19.36-.09.55-.13,1.12-.24,2.19-.74,3.37-.7,1.08.03,3.2,1.35,3.38,2.8.1.83-.2,1.6-.36,2.38-.14.71-.34,1.46-.73,2.05-.54.84-.75,1.83-1.38,2.6-.39.48-.58,1.05-.78,1.6-.24.65.15,1.19.76,1.55.94.56,2.1.88,2.58,2.03,1.43-.84,2.83-1.75,4.31-2.51,1.51-.77,3.08-1.43,4.7-1.97.84-.28,1.55-.83,2.42-1.09,2.07-.62,4.1-1.39,6.16-2.06.91-.3,1.87-.47,2.79-.76.57-.18,1.07-.62,1.73-.48-.04-.16-.1-.31-.14-.46.37-.16.64-.17.67.46.03.65-.49.98-.28,2.26.18,1.11.03,2.15-.24,3.23-.07.28.11.55-.17.69.07.64-.77-.03-1.07.47-.13.22-.3.47-.47.71.16-.37.32-.74.47-1.12-1.8-.57-3.51.12-5.25.4-.74,1.14-1.5,2.26-2.22,3.41-1.08,1.71-2,3.51-2.53,5.47-.37,1.39-.42,1.46-1.75,1.54-.16.61-.35,1.21-1.05,1.39-.71.19-1.26.63-1.84,1.02-1,.68-1.47,1.79-1.94,2.82-.28.6.23,1.26.56,1.81.69,1.15,1.58,1.97,3.07,1.81.72-.08,1.45.07,2.14.32.28-.27.23-.71.47-.97.01-.01.02-.03.03-.04-.01,1.08.12,2.15-.47,3.48-.88,2-1.89,3.95-2.65,6-.7,1.87-2.07,3-3.78,3.81-4.22,2-8.74,3.28-12.91,5.4-.57.29-1.18.51-1.77.78-1.32.6-1.64,1.24-1.07,2.59.74,1.74,1.07,3.65,2.06,5.29.03.04.02.1.03.15.04.24.33.53-.02.69-.39.19-.39-.25-.5-.44-.99-1.8-1.91-3.63-2.95-5.4-1.62-2.77-3.28-5.52-5.01-8.21-.79-1.23-.93-2.35-.46-3.76.97-2.88,2.04-5.7,3.34-8.44.67-1.4,1.49-2.74,2.43-3.99.18-.97.84-1.67,1.42-2.39.64-.78,1.31-1.54,2.12-2.19.77-.61,1.36-1.43,2.07-2.13.94-.93,2.12-1.46,3.3-1.99.73-.33,1.42-.77,2.16-1.1,1.24-.55,1.35-1.73,1.41-2.89.02-.29,0-.58,0-.87-.38-.69-.87-1.28-1.6-1.59-.82-.34-1.66-.64-2.49-.95-.72-.27-.72-.39-.34-1.04,1.4-2.39,3.21-4.57,3.83-7.38.19-.87.18-1.74.07-2.58-.07-.53-.61-.98-1.18-1.17-2.08-.69-3.95-.37-5.56,1.18-.51.49-1.04.96-1.7,1.23-.03.07-.02.23-.13.16-.1-.06,0-.16.08-.21.39-1.16,1.25-2.09,1.63-3.25.4-1.22.94-2.4,1.07-3.69-.23-.73,0-1.48-.07-2.23-.14-1.47-2-2.75-3.34-2.13-.56.26-1.11.57-1.56,1.03-.32.33-.68.66-1.2.65-.05.05-.1.1-.15.14.05.21-.06.35-.2.48-.89.81-1.5,1.78-1.76,2.97-.02.09-.11.16-.29.4.13-1.29.47-2.39.37-3.51-.27-.92-.8-1.65-1.46-2.34-.46-.47-.9-.76-1.57-.69-.65.07-1.31.16-1.95.09-.81-.08-1.36.28-1.81.85-.75.95-1.39,1.99-1.87,3.08-.38.87-1.19,1.56-1.15,2.61.44,1.13-.12,2.19-.22,3.28-.02.23-.1.45-.17.79-.58-.97-.33-2-.54-2.94-.51.02-.98-.14-1.45-.33-.44-.17-.89-.36-1.37-.3-1.79.25-3.28,1.55-3.65,3.35-.3,1.42-.32,2.87-.1,4.31,0,.05.01.21.08.55.4.77.56,1.59.63,2.46.27,3.14-.37,6.17-1.14,9.17-.41,1.58-.79,3.18-1.27,4.75-.42,1.42-.68,2.9-1.18,4.29-1.04,2.93-2.06,5.86-3.05,8.81-.85,2.54-1.85,5.04-2.73,7.58-1.8,5.25-3.11,11.1-2.37,16.68.2,1.53-.3,3.01-.37,4.53-.02.55-.49,1.16-.73,1.79,0-.24-.02-.48,0-.72.13-1.45.1-2.93.06-4.35-.05-2.14.53-3.84.29-5.99-.15-1.32.11-3.16.42-4.48.37-1.59.75-3.22,1.32-4.75.62-1.66.62-3.36,1.14-5.05.89-2.93,2.04-5.77,3.03-8.65,1.03-2.97,2.1-5.93,3.12-8.9.72-2.11,1.37-4.27,1.79-6.47.16-1.95.87-3.67.87-5.79,0-1.18-.06-2.35-.34-3.5-.26,0-.46.09-.7.25-.58.38-.96.98-1.5,1.35-1.58,1.1-2.98,2.41-4.38,3.71-3.26,3.02-6.29,6.27-9,9.8-3.76,4.88-6.88,10.16-9.6,15.68-1.51,3.07-3.07,6.1-4.39,9.26-3.6,8.66-6.35,19.14-6.43,28.61-.05,5.98-.19,11.97.57,17.94,7.02,55.06,70.72,78.83,116.23,52.78,3.76-2.15,7.43-4.43,11.21-6.54,8.11-4.53,17.7-10.22,24.51-16.52,31-28.68,69.54-47.6,71.9-94.94.15-2.98-.02-5.97-.4-8.95ZM247.81,241.24c-.04.12-.09.24-.17.34.07-.1.13-.21.17-.34ZM235.9,248.3c-.13.28-.27.55-.4.82.12-.28.25-.56.4-.82ZM240.74,265.85h.01s-.09-.08-.13-.12c-.92.04-1.78-.36-2.66-.45-.95-.1-1.87-.36-2.85-.37-1.66,0-3.26-.65-4.94-.65-.35.37.17-.98-.38-.58-.01-1.12.09-1.66.27-2.63.19-.96.58-1.49,1.07-1.89-.02.1-.05.19-.06.3,2.17.34,4.15,1.13,5.95,2.39.36.25.74.48,1.19.54.04-.2.1-.4.13-.61-.03.21-.08.41-.13.61.78.69,1.54,1.4,2.34,2.07.21.18.38.35.38.64.19-.03-.02,1.45-.19.75ZM294.35,218.56c.08-1.58.78-2.89,1.79-3.98,2.07-2.24,5.83-3.5,8.77-1.46,1.92,1.34,3.78,2.76,5.07,4.77.59.92,1.02,1.9.98,3.05-.3,2.47-1.42,4.5-3.28,6.15-1.28,1.13-2.84,1.62-4.47,1.57-1.6-.04-3.09-.68-4.37-1.69-1.09-.86-2.07-1.83-2.95-2.92-1.3-1.62-1.66-3.47-1.55-5.5ZM313.15,267.81c-1.8,1.56-3.65,2.99-6.04,3.62-4.11,1.08-7,.14-11.01-.8-1.72-.4-3.22-1.32-4.78-2.07-.6-.29-1.29-.36-2.02-.84,1.02-.42,1.88-.39,2.71-.16,2.27.63,4.52,1.39,6.87,1.7,2.72.37,5.43.3,8.17.04,1.99-.19,3.59-1.18,5.31-1.93.14-.06.3-.09.44-.16.18-.08.36-.13.47.09.09.18.03.37-.12.5Z"/>
    </clipPath>
    <clipPath id="clippath-1">
      <path class="cls-5" d="M192.3,217.03c-.13-.44-1.01-4.24-5.67-3.42-3.69.65-4.84,6.9-4.84,7.12,0,.44-.25.56-.62.57-.31.01-1.68-1.6-4.52-.29-.48.22-1.96,1.95-2.39,3.85-.55,2.43,0,5.15-.07,5.42-1.18.8-5.18,4.01-6.58,5.3-3.26,3.02-6.29,6.27-9,9.8-3.76,4.88-6.88,10.16-9.6,15.68-1.51,3.07-3.07,6.1-4.39,9.26-3.6,8.66-6.35,19.14-6.43,28.61-.05,5.98-.19,11.97.57,17.94,7.02,55.06,70.72,78.83,116.23,52.78,1.51-.87,22.61-11.95,43-28.67,30.18-24.73,59.58-44.5,64.75-88.16.35-2.97-.16-7.14-.54-10.13-.33-2.62-.66-5.21-1.29-7.79-.84-3.44-1.9-6.78-3.23-10.06-9.63-23.71-34.25-32.21-58.38-28.68-2.44.36-15.2,2.66-17.36,2.02-2.43-.71-12.08-2.89-13.49-3.09-8.81-1.25-14.55,9.36-17.01,16.04-.21.56-.74,1.99-1.03,2.98-4.16-.49-12.61-.95-13.03-.99-1.13-.93-2.4-2.59-3.7-3.8-2.71-2.5-6.04-5.45-6.29-6.07-.68-1.7-.75-3.16.98-3.84,3.01-1.36,12.37-5.84,16.19-7.26,13.77-5.11,52.97-4.03,60.6-19.96,1.41-2.94,1.52-6.04.85-9.18-.39-1.8-1.15-3.49-1.97-5.13-.8-1.61-1.54-3.26-2.8-4.61-43.55-46.75-127.91-10.55-160.71,30.56-3.63,4.54-6.69,9.41-8.86,14.82-1.32,3.29-2.52,6.62-3.2,10.11-.4,2.06-.63,4.13-.8,6.22-.23,2.82-1.89,5.63-1.38,8.39.3,1.6,2.63,6.49,5.96,8.92s9.32,2.4,12.74,1.71c17.27-4.85,31.11-20.71,48.58-25.84,2.71-.79,5.44-1.53,8.22-2.02,2.04-.36,6.22-1.09,11.22,2.39,1.37,1.21,5.72,5.31,6.41,6.26-.99.1-5.59.64-9.87,1.53-4.76.99-9.19,2.35-9.29,2.55.17-.87.11-1.37.04-2.12-.15-1.47-1.55-2.38-3.59-2.38-2.57,0-3.55,1.79-4.41,2.64Z"/>
    </clipPath>
    <clipPath id="clippath-2">
      <path class="cls-4" d="M229.38,228.43c.21,1.35-.41,4.77-1.25,6.1-1.8-.57-3.67.21-5.41.5-.94.02-1.88.12-2.81.19-1.84.14-3,1.38-4.06,2.74-.52.67-.73,1.52-1.65,1.96-.64.31-1.26.89-1.58,1.67-.55,1.31.23,3.01,1.54,3.5.69.25,1.41.07,2.07.37-.16.61-.35,1.21-1.05,1.39-.39.1-1.87.47-2.74,1.39-.35.37-1.67,1.92-1.12,3.37s2.29,2.7,3.72,2.7c.72-.08,1.45.07,2.14.32-.26.54-.5,1.09-.79,1.61-.46.84-.63,1.84-1.44,2.48-.23-.01-.57.12-.66-.1-.1-.24-2.48-5.91-8.55-7.89-4.92-1.61-11.49.69-11.77.87.18-.97.84-1.67,1.42-2.39.64-.78,6.3-5.77,7.49-6.31.73-.33,1.42-.77,2.16-1.1.6-.27,1.5-1.28,1.83-2.28.36-1.07.25-1.54.25-2.25.66-.39,5.01-2.94,9.93-4.89,5.83-2.32,11.98-4.02,12.33-3.94Z"/>
    </clipPath>
    <clipPath id="clippath-3">
      <path class="cls-7" d="M243.5,225.1c.64-.08,6.91.41,7.53.42.23,1.42,1.47,3.72,2.05,4.46.72.97,3.93,5.02,5.07,6.32,1,1.14,1.93,2.32,3.24,3.13-1.17.09-7.91-.99-9.25-.92-1.12.06-2.05.62-2.88,1.32-.2.17-.7.66-.92.98-.97-.64-5.78-2.6-6.03-2.78.85-2.47,1.57-6.27,1.2-12.94Z"/>
    </clipPath>
    <clipPath id="clippath-4">
      <path class="cls-6" d="M272.89,262.23c.93.31,6.41,2.11,7.54,2.84-.66.42-5.39.83-9,.01-4.92-1.42-7.67-5.82-7.67-5.82,1.38.13,6.75,2.17,9.14,2.97Z"/>
    </clipPath>
    <clipPath id="clippath-5">
      <path class="cls-11" d="M240.74,265.85s-8.89-1.59-10.57-1.58c0-.17.05-1.51.27-2.66.21-.93.6-2.13.63-2.15,2.34.51,4.15,1.13,5.95,2.39.36.25,2.53,2.46,3.72,4Z"/>
    </clipPath>
    <linearGradient id="linear-gradient-2" x1="102.27" y1="242.11" x2="91.77" y2="248.05" gradientUnits="userSpaceOnUse">
      <stop offset="0" stop-color="#fff"/>
      <stop offset="1" stop-color="#000"/>
    </linearGradient>
    <mask id="mask-1" x="40.22" y="41.29" width="358.58" height="259.7" maskUnits="userSpaceOnUse">
      <polygon class="cls-15" points="40.22 171.25 271.17 41.29 398.8 180.45 117.29 300.99 41.99 179.37 40.22 171.25"/>
    </mask>
    <linearGradient id="linear-gradient-3" x1="216.07" y1="198.75" x2="198.67" y2="272.95" gradientUnits="userSpaceOnUse">
      <stop offset="0" stop-color="#f48e9a"/>
      <stop offset=".52" stop-color="#f48e9a" stop-opacity="0"/>
    </linearGradient>
    <linearGradient id="linear-gradient-4" x1="202.67" y1="259.96" x2="202.67" y2="272.7" gradientUnits="userSpaceOnUse">
      <stop offset="0" stop-color="#fff"/>
      <stop offset="1" stop-color="#000"/>
    </linearGradient>
    <mask id="mask-2" x="89.57" y="123.77" width="226.22" height="179.54" maskUnits="userSpaceOnUse">
      <rect class="cls-20" x="89.57" y="123.77" width="226.22" height="158.57"/>
    </mask>
    <linearGradient id="linear-gradient-5" x1="217.82" y1="202.76" x2="219.18" y2="288.05" gradientUnits="userSpaceOnUse">
      <stop offset="0" stop-color="#f48e9a"/>
      <stop offset=".8" stop-color="#f48e9a" stop-opacity="0"/>
    </linearGradient>
  </defs>
  <g class="cls-18">
    <g>
      <g>
        <path class="cls-28" d="M392.5,206.38c5.28,5.28,15.15,10.69,27.66,13.59,12.51,2.9,36.95,9.01,36.95,9.01l5.01-39.71s-29.5-36.22-31.75-36.22-67.78-3.92-67.78-3.92l-8.42,7.21,22.52,21.13,15.81,28.91Z"/>
        <path class="cls-13" d="M458.79,231.43l-2.16-.54c-.24-.06-24.56-6.14-36.91-9-11.81-2.73-22.51-8.01-28.62-14.11l-.2-.2-15.79-28.88-23.9-22.43,10.7-9.16.8.05c18.21,1.09,65.85,3.91,67.66,3.91,1.12,0,3.19,0,33.28,36.95l.53.66-5.39,42.76ZM394.09,205.18c5.64,5.52,15.52,10.32,26.51,12.86,10.21,2.36,28.56,6.92,34.82,8.48l4.62-36.66c-12.78-15.68-27.3-32.74-30.16-34.85-5.95-.24-59.09-3.41-66.62-3.86l-6.14,5.26,21.14,19.84,15.82,28.93Z"/>
      </g>
      <g>
        <g>
          <path class="cls-28" d="M125.06,167.18l-24.02,66.35-8.23,5.16s-21.36,28.47-37.88,40.5-25.35-39.2-25.35-39.2l26.73-25.65,35.09-19.78,33.66-27.36Z"/>
          <path class="cls-13" d="M49.98,282.98c-14.57,0-21.59-38.3-22.34-42.67l-.18-1.03,27.88-26.68,34.94-19.7,39.06-31.75-26.68,73.69-8.5,5.32c-2.44,3.23-22.22,29.07-38.07,40.61-2.01,1.47-4.07,2.21-6.11,2.21ZM31.72,240.67c2.77,15.26,9.97,38.36,18.27,38.36,1.19,0,2.47-.49,3.79-1.45,16.09-11.72,37.25-39.8,37.46-40.09l.22-.29,7.97-4.99,21.36-59.01-28.41,23.06-34.87,19.66-25.79,24.75Z"/>
        </g>
        <path class="cls-8" d="M55.85,228.63l-15.01-29.31,7.5,14.66-7.52-14.65c.32-.16,32.02-16.66,61.75-46.39,32.32-32.32,70.98-62.54,134.54-64.87,63.77-2.33,100.58,16.75,114.44,23.94,4.09,2.12,7.88,4.66,11.89,7.34,10.13,6.78,20.61,13.79,33.17,12.12,26.83-3.58,57.22,1.51,58.5,1.73l-5.54,32.46c-.25-.04-26.82-4.46-48.61-1.55-17.72,2.36-32.28-3.28-43.64-9.7-4.59-2.59-8.65-5.31-12.2-7.69-3.23-2.16-6.28-4.2-8.63-5.42-12.97-6.72-43.1-22.35-98.18-20.32-49.29,1.81-80.6,23.39-112.46,55.25-33.56,33.56-68.54,51.66-70.01,52.41Z"/>
      </g>
      <path class="cls-2" d="M40.82,199.32c.32-.16,32.02-16.66,61.75-46.39,32.32-32.32,70.98-62.54,134.54-64.87,63.77-2.33,100.58,16.75,114.44,23.94,4.09,2.12,7.88,4.66,11.89,7.34,10.13,6.78,20.61,13.79,33.17,12.12,26.83-3.58,57.22,1.51,58.5,1.73"/>
    </g>
  </g>
  <path class="cls-14" d="M356.57,154.39c-4.19-3.19-8.65-5.31-12.2-7.69-3.23-2.16-6.28-4.2-8.63-5.42-12.97-6.72-43.1-22.35-98.18-20.32-49.29,1.81-80.6,23.39-112.46,55.25,0,0-47.21,42.65-37.33,122.7,9.88,80.05,85.3,127.88,151.82,118.62,66.52-9.26,137.33-91.22,155.11-129.77,17.78-38.55,20.24-88.88-38.12-133.37Z"/>
  <path class="cls-17" d="M244.29,133.85c32.38,0,53.37,15.27,56.11,19.37,2.9,4.34,4.28,7.89,5.4,10.75,1.52,3.89,3.24,8.3,8.65,8.3,3.01,0,15.61,1.76,29.52,7.41,12.01,4.88,27.98,13.99,35.88,29.72,9.09,18.08,9.72,43.52,1.7,68.06-10.87,33.23-37.14,65.24-75.97,92.58-32.8,23.1-64.39,34.81-93.88,34.81-20.19,0-38.39-5.53-54.1-16.45-14.78-10.26-26.78-25.17-34.73-43.11-21.28-48.06,2.04-89.35,13.05-104.88,1.47-2.08,1.37-3.89,1.03-5.05-.81-2.74-3.48-3.8-4.62-4.25-1.38-.55-5.03-4.14-4.52-10.85.45-5.97,1.38-18.39,10.15-32.17,10.12-15.91,28.17-29.97,53.66-41.78,17.84-8.27,35.56-12.46,52.66-12.46h0"/>
  <g id="mouse_fetus">
    <g>
      <path class="cls-17" d="M193.78,216.22h0c-.62.16-1.16.75-1.88.33-.27-.92-.8-1.65-1.47-2.34-.46-.47-.9-.76-1.57-.69-.65.07-1.31.16-1.95.09-.81-.08-1.36.28-1.81.85-.75.95-1.39,1.99-1.87,3.08-.38.87-1.19,1.56-1.15,2.61-.2.14-.3.35-.3.57,0,.44-.25.56-.62.57-.51.02-.98-.14-1.45-.33-.44-.17-.89-.36-1.37-.3-1.79.25-3.28,1.55-3.65,3.35-.34,1.6-.34,3.24-.02,4.86.06.55-.38.91-.49,1.4-.26,0-.46.09-.7.25-.58.38-.96.98-1.5,1.35-1.58,1.1-2.98,2.41-4.38,3.71-3.26,3.02-6.29,6.27-9,9.8-3.76,4.88-6.88,10.16-9.6,15.68-1.51,3.07-3.07,6.1-4.39,9.26-3.6,8.66-6.35,19.14-6.43,28.61-.05,5.98-.19,11.97.57,17.94,7.02,55.06,70.72,78.83,116.23,52.78,3.75-2.15,7.43-4.43,11.21-6.54,7.99-4.47,17.76-10.28,24.51-16.52,31-28.68,69.54-47.6,71.9-94.94.15-2.98-.02-5.97-.4-8.95-.33-2.62-.66-5.21-1.29-7.79-.84-3.44-1.9-6.78-3.23-10.06-9.63-23.71-34.25-32.21-58.38-28.68-2.44.36-4.81,1.02-7.26,1.37-1.2.17-2.38.82-3.54.89-2.17.12-4.4.41-6.56-.23-2.43-.71-4.85-1.49-7.36-1.91-.64-.11-1.2-.54-1.86-.61-1.43-.16-2.86-.37-4.27-.57-8.81-1.25-14.55,9.36-17.01,16.04-.21.56-.41,1.16-.32,1.75.07.44-.02.77-.27,1.09-.41-.15-.82-.2-1.25-.12-4.16-.49-8.36-.18-12.52-.61-.42-.04-.83-.08-1.25-.12-.26-.01-.48,0-.75-.19-1.66-1.09-2.9-2.63-4.43-3.86-.94-.75-1.64-1.72-2.56-2.47-.75-.61-1.5-1.27-1.87-2.18-.68-1.7.43-4.33,2.15-5.02,1.73-.69,3.31-1.67,4.96-2.5,3.65-1.84,7.42-3.35,11.23-4.76,13.77-5.11,52.97-4.03,60.6-19.96,1.41-2.94,1.52-6.04.85-9.18-.39-1.8-1.15-3.49-1.97-5.13-.8-1.61-1.54-3.26-2.8-4.61-43.55-46.75-127.91-10.55-160.71,30.56-3.63,4.54-6.69,9.41-8.86,14.82-1.32,3.29-2.52,6.62-3.2,10.11-.4,2.06-.63,4.13-.8,6.22-.23,2.82-.23,5.63.28,8.39.59,3.21,2.48,5.76,4.68,8.1,1.93,2.05,4.52,2.4,7.11,2.75.39.05.78,0,1.17.1,1.38.33,2.82.03,4.07-.32,17.27-4.85,31.11-20.71,48.58-25.84,2.71-.79,5.44-1.53,8.22-2.02,2.04-.36,4.03-.97,6.19-.27,1.86.61,3.6,1.39,5.03,2.66,1.37,1.21,2.98,2.11,4.19,3.55.75.89,1.53,1.76,2.22,2.71.03.35-.34.38-.46.61-.76-.31-1.51.07-2.24.14-2.87.28-5.73.79-8.54,1.45-2.43.57-4.86,1.17-7.3,1.76-.25,0-.51-.02-.76-.03-.23-.73,0-1.48-.07-2.23-.15-1.47-2.01-2.75-3.34-2.13-.56.26-1.11.57-1.56,1.03-.32.33-.68.66-1.2.65-.09,0-.2-.01-.16.14Z"/>
      <g>
        <path class="cls-19" d="M362.19,242.7c-.33-2.62-.66-5.21-1.29-7.79-.84-3.44-1.9-6.78-3.23-10.06-9.63-23.71-34.25-32.21-58.38-28.68-2.44.36-4.81,1.02-7.26,1.37-1.2.17-2.38.82-3.54.89-2.17.12-4.4.41-6.56-.23-2.43-.71-4.85-1.49-7.36-1.91-.64-.11-1.2-.54-1.86-.61-1.43-.16-2.86-.37-4.27-.57-8.81-1.25-14.55,9.36-17.01,16.04-.21.56-.41,1.16-.32,1.75.07.44-.02.77-.27,1.09-.53,1.98-.58,4.01-.44,6.03.13,1.93.47,3.85.72,5.78.32.94.87,1.77,1.29,2.66.03,0,.05,0,.08.02,1.61.98,3.54.96,5.24,1.67,1.5.64,2.84,1.6,4.33,2.24,1.84.79,3.5,1.89,5.19,2.93.57.35.71,1.34.31,2.02-.7,1.19-1.67,1.8-2.86,2.15-1,.29-1.41.61-2.45.48-1.17.09-3.15-.86-4.27-1.1-.62-.13-1.22-.28-1.86-.23-1.34.11-2.66-.22-4-.15-1.12.06-2.05.62-2.88,1.32-.2.17-.42.3-.64.45,1.85,1.79,3.69,3.61,5.23,5.65,1.36,1.8,2.82,3.51,4.21,5.28,1.23,1.59,2.7,2.99,3.77,4.7.64,1.02,1.42,1.89,2.31,2.68,1.31-.45,2.24.54,3.23,1.01,2.28,1.07,4.54,2.16,6.93,2.96.93.31,1.84.71,2.74,1.11.89.39,1.83.62,2.78.82.29.06.61.13.6.59,0,.49-.32.45-.63.49-1.57.22-3.13.15-4.7.03-1.49-.12-2.96-.21-4.41-.64-2.07-.61-3.3-1.15-4.94-2.57-.67-.58-1.03-1.41-1.38-2.27,0-.09-.21-.19-.22-.28-.63-.3-.78-1.3-1.18-1.8-1.35-1.68-2.75-3.51-4.1-5.19-.46-.57-1.1-.95-1.59-1.52-2.14-2.51-3.92-5.64-6.28-7.97-.92-.91-1.01-1.69-2.2-2.33l-.47-.21s-.46.14-.46.1c-.47.06-.6-.45-.97-.58-1.88-.68-3.76-1.36-5.69-1.91.1-.47.15-.76.15-.71-.21-.99.36-1.37.56-2.26.29-1.26.15-2.75.55-3.99.54-1.67.53-3.4.48-5.13-.01-.42.02-.84.17-1.23-.17-.09,1.73-.22,1.69-.42-.31-1.5.2-3.82-.49-5.16-1.21-2.32-4.52-4.03-6.26-5.97-.26-.29-1.19-.39-1.19-.87-.26-.01-1.05-1.22-1.33-1.4-1.66-1.09-1.65-1.93-3.18-3.15-.94-.75-2.38-2.31-3.31-3.06-.75-.61-1.55-1.6-1.91-2.51-.68-1.71-.5-2.45,1.23-3.13,1.73-.69,3.31-1.67,4.96-2.5,3.65-1.84,7.42-3.35,11.23-4.76,13.77-5.11,52.97-4.03,60.6-19.96,1.41-2.94,1.52-6.04.85-9.18-.39-1.8-1.15-3.49-1.97-5.13-.8-1.61-1.53-3.26-2.8-4.61-43.55-46.75-127.91-10.55-160.71,30.56-3.63,4.54-6.69,9.41-8.86,14.82-1.32,3.29-2.52,6.62-3.2,10.11-.4,2.06-.63,4.13-.8,6.22-.23,2.82-.23,5.63.28,8.39.59,3.21,2.48,5.76,4.68,8.1,1.93,2.05,4.52,2.4,7.11,2.75.39.05.78,0,1.17.1,1.38.33,2.82.03,4.07-.32,17.27-4.85,31.11-20.71,48.58-25.84,2.71-.79,5.44-1.53,8.22-2.02,2.04-.36,4.03-.97,6.19-.27,1.86.61,3.6,1.39,5.03,2.66,1.37,1.21,2.98,2.11,4.19,3.55.75.89,1.53,1.76,2.22,2.71.26,0-.09.29-.43.62-.01,0-.02-.01-.04-.01-.76-.31-1.51.07-2.24.14-2.87.28-5.73.79-8.54,1.45-2.43.57-4.86,1.17-7.3,1.76-.24,1.23-.61,2.41-1.13,3.55-.11.25-.21.54-.03.74.17.19.36-.09.55-.13,1.12-.24,2.19-.74,3.37-.7,1.08.03,3.2,1.35,3.38,2.8.1.83-.2,1.6-.36,2.38-.14.71-.34,1.46-.73,2.05-.54.84-.75,1.83-1.38,2.6-.39.48-.58,1.05-.78,1.6-.24.65.15,1.19.76,1.55.94.56,2.1.88,2.58,2.03,1.43-.84,2.83-1.75,4.31-2.51,1.51-.77,3.08-1.43,4.7-1.97.84-.28,1.55-.83,2.42-1.09,2.07-.62,4.1-1.39,6.16-2.06.91-.3,1.87-.47,2.79-.76.57-.18,1.07-.62,1.73-.48-.04-.16-.1-.31-.14-.46.37-.16.64-.17.67.46.03.65-.49.98-.28,2.26.18,1.11.03,2.15-.24,3.23-.07.28.11.55-.17.69.07.64-.77-.03-1.07.47-.13.22-.3.47-.47.71.16-.37.32-.74.47-1.12-1.8-.57-3.51.12-5.25.4-.74,1.14-1.5,2.26-2.22,3.41-1.08,1.71-2,3.51-2.53,5.47-.37,1.39-.42,1.46-1.75,1.54-.16.61-.35,1.21-1.05,1.39-.71.19-1.26.63-1.84,1.02-1,.68-1.47,1.79-1.94,2.82-.28.6.23,1.26.56,1.81.69,1.15,1.58,1.97,3.07,1.81.72-.08,1.45.07,2.14.32.28-.27.23-.71.47-.97.01-.01.02-.03.03-.04-.01,1.08.12,2.15-.47,3.48-.88,2-1.89,3.95-2.65,6-.7,1.87-2.07,3-3.78,3.81-4.22,2-8.74,3.28-12.91,5.4-.57.29-1.18.51-1.77.78-1.32.6-1.64,1.24-1.07,2.59.74,1.74,1.07,3.65,2.06,5.29.03.04.02.1.03.15.04.24.33.53-.02.69-.39.19-.39-.25-.5-.44-.99-1.8-1.91-3.63-2.95-5.4-1.62-2.77-3.28-5.52-5.01-8.21-.79-1.23-.93-2.35-.46-3.76.97-2.88,2.04-5.7,3.34-8.44.67-1.4,1.49-2.74,2.43-3.99.18-.97.84-1.67,1.42-2.39.64-.78,1.31-1.54,2.12-2.19.77-.61,1.36-1.43,2.07-2.13.94-.93,2.12-1.46,3.3-1.99.73-.33,1.42-.77,2.16-1.1,1.24-.55,1.35-1.73,1.41-2.89.02-.29,0-.58,0-.87-.38-.69-.87-1.28-1.6-1.59-.82-.34-1.66-.64-2.49-.95-.72-.27-.72-.39-.34-1.04,1.4-2.39,3.21-4.57,3.83-7.38.19-.87.18-1.74.07-2.58-.07-.53-.61-.98-1.18-1.17-2.08-.69-3.95-.37-5.56,1.18-.51.49-1.04.96-1.7,1.23-.03.07-.02.23-.13.16-.1-.06,0-.16.08-.21.39-1.16,1.25-2.09,1.63-3.25.4-1.22.94-2.4,1.07-3.69-.23-.73,0-1.48-.07-2.23-.14-1.47-2-2.75-3.34-2.13-.56.26-1.11.57-1.56,1.03-.32.33-.68.66-1.2.65-.05.05-.1.1-.15.14.05.21-.06.35-.2.48-.89.81-1.5,1.78-1.76,2.97-.02.09-.11.16-.29.4.13-1.29.47-2.39.37-3.51-.27-.92-.8-1.65-1.46-2.34-.46-.47-.9-.76-1.57-.69-.65.07-1.31.16-1.95.09-.81-.08-1.36.28-1.81.85-.75.95-1.39,1.99-1.87,3.08-.38.87-1.19,1.56-1.15,2.61.44,1.13-.12,2.19-.22,3.28-.02.23-.1.45-.17.79-.58-.97-.33-2-.54-2.94-.51.02-.98-.14-1.45-.33-.44-.17-.89-.36-1.37-.3-1.79.25-3.28,1.55-3.65,3.35-.3,1.42-.32,2.87-.1,4.31,0,.05.01.21.08.55.4.77.56,1.59.63,2.46.27,3.14-.37,6.17-1.14,9.17-.41,1.58-.79,3.18-1.27,4.75-.42,1.42-.68,2.9-1.18,4.29-1.04,2.93-2.06,5.86-3.05,8.81-.85,2.54-1.85,5.04-2.73,7.58-1.8,5.25-3.11,11.1-2.37,16.68.2,1.53-.3,3.01-.37,4.53-.02.55-.49,1.16-.73,1.79,0-.24-.02-.48,0-.72.13-1.45.1-2.93.06-4.35-.05-2.14.53-3.84.29-5.99-.15-1.32.11-3.16.42-4.48.37-1.59.75-3.22,1.32-4.75.62-1.66.62-3.36,1.14-5.05.89-2.93,2.04-5.77,3.03-8.65,1.03-2.97,2.1-5.93,3.12-8.9.72-2.11,1.37-4.27,1.79-6.47.16-1.95.87-3.67.87-5.79,0-1.18-.06-2.35-.34-3.5-.26,0-.46.09-.7.25-.58.38-.96.98-1.5,1.35-1.58,1.1-2.98,2.41-4.38,3.71-3.26,3.02-6.29,6.27-9,9.8-3.76,4.88-6.88,10.16-9.6,15.68-1.51,3.07-3.07,6.1-4.39,9.26-3.6,8.66-6.35,19.14-6.43,28.61-.05,5.98-.19,11.97.57,17.94,7.02,55.06,70.72,78.83,116.23,52.78,3.76-2.15,7.43-4.43,11.21-6.54,8.11-4.53,17.7-10.22,24.51-16.52,31-28.68,69.54-47.6,71.9-94.94.15-2.98-.02-5.97-.4-8.95ZM247.81,241.24c-.04.12-.09.24-.17.34.07-.1.13-.21.17-.34ZM235.9,248.3c-.13.28-.27.55-.4.82.12-.28.25-.56.4-.82ZM240.74,265.85h.01s-.09-.08-.13-.12c-.92.04-1.78-.36-2.66-.45-.95-.1-1.87-.36-2.85-.37-1.66,0-3.26-.65-4.94-.65-.35.37.17-.98-.38-.58-.01-1.12.09-1.66.27-2.63.19-.96.58-1.49,1.07-1.89-.02.1-.05.19-.06.3,2.17.34,4.15,1.13,5.95,2.39.36.25.74.48,1.19.54.04-.2.1-.4.13-.61-.03.21-.08.41-.13.61.78.69,1.54,1.4,2.34,2.07.21.18.38.35.38.64.19-.03-.02,1.45-.19.75ZM294.35,218.56c.08-1.58.78-2.89,1.79-3.98,2.07-2.24,5.83-3.5,8.77-1.46,1.92,1.34,3.78,2.76,5.07,4.77.59.92,1.02,1.9.98,3.05-.3,2.47-1.42,4.5-3.28,6.15-1.28,1.13-2.84,1.62-4.47,1.57-1.6-.04-3.09-.68-4.37-1.69-1.09-.86-2.07-1.83-2.95-2.92-1.3-1.62-1.66-3.47-1.55-5.5ZM313.15,267.81c-1.8,1.56-3.65,2.99-6.04,3.62-4.11,1.08-7,.14-11.01-.8-1.72-.4-3.22-1.32-4.78-2.07-.6-.29-1.29-.36-2.02-.84,1.02-.42,1.88-.39,2.71-.16,2.27.63,4.52,1.39,6.87,1.7,2.72.37,5.43.3,8.17.04,1.99-.19,3.59-1.18,5.31-1.93.14-.06.3-.09.44-.16.18-.08.36-.13.47.09.09.18.03.37-.12.5Z"/>
        <g class="cls-32">
          <path class="cls-27" d="M125.06,239.98s9.33-2.95,16.66-11.58,71.61-42.45,71.61-42.45l85.37-15.3s12.61-13.64,12.61-16.03-41.47-44.06-41.47-44.06l-126.75,16.1-33.21,100.21,15.17,13.1Z"/>
        </g>
      </g>
      <g>
        <polygon class="cls-19" points="193.78 216.22 193.79 216.22 193.79 216.22 193.78 216.22"/>
        <polygon class="cls-19" points="263.35 259.69 263.35 259.69 263.35 259.69 263.35 259.69"/>
        <path class="cls-19" d="M289.3,267.72c.73.48,1.02-.42,0,0h0Z"/>
      </g>
      <g>
        <path class="cls-19" d="M362.12,242.07c-.01-.1-.02-.12,0,0h0Z"/>
        <path class="cls-19" d="M362.15,242.35s0,0,0-.01c0,0,0,0,0,.01Z"/>
        <path class="cls-19" d="M362.19,242.67c-.02-.12-.03-.23-.04-.32.01.1.03.2.04.32Z"/>
        <path class="cls-19" d="M362.15,242.34c-.02-.12-.03-.21-.03-.27,0,.06.02.15.03.27Z"/>
        <path class="cls-19" d="M362.28,243.37c.04.33.03.25,0,0h0Z"/>
        <path class="cls-19" d="M362.25,243.18c0,.07.02.14.02.19,0-.06-.01-.11-.02-.19Z"/>
        <path class="cls-19" d="M362.19,242.67s0,.02,0,.04c.02.2.04.35.06.48-.02-.16-.04-.34-.06-.52Z"/>
      </g>
      <path class="cls-23" d="M237.08,213.27c4.16.44,8.81.1,12.97.58-.22,2.71-.49,5.46-.14,8.18.13.97.15,2.24.31,3.21-.09.43-.75-.03-1-.02-1.17.04-2.32-.21-3.49-.17-.62.02-1.98.21-2.61.06-.22-.75.02-1.52-.25-2.25-.79-2.09-1.91-3.71-2.96-5.65-.78-1.43-2.01-2.54-2.83-3.94Z"/>
      <path class="cls-29" d="M174.68,228.89c.4.77.56,1.59.63,2.46.27,3.14-.37,6.17-1.14,9.17-.41,1.58-.79,3.18-1.27,4.75-.42,1.42-.68,2.9-1.18,4.29-1.04,2.93-2.06,5.86-3.05,8.81-.85,2.54-1.85,5.04-2.73,7.58-1.8,5.25-3.11,11.1-2.37,16.68.2,1.53-.3,3.01-.37,4.53-.02.55-.49,1.16-.73,1.79,0-.24-.02-.48,0-.72.13-1.45.1-2.93.06-4.35-.05-2.14-.04-9.15.27-10.47.37-1.59,2.38-8.1,2.9-9.8.89-2.93,2.04-5.77,3.03-8.65,1.03-2.97,2.1-5.93,3.12-8.9.43-1.27,1.8-6.21,2.35-10.27.36-2.68.08-5.03-.03-5.49.12-.48.56-.85.49-1.4.4.77.06.55,0,0,.4.77.06.55,0,0Z"/>
      <path class="cls-29" d="M197.98,225.48c.44-.27.82-.61,1.19-.97,1.61-1.55,3.49-1.87,5.56-1.18,1.73.7,1.14,2.88.95,3.74-.62,2.81-2.27,4.98-3.67,7.38-.38.64-.38.77.34,1.04.83.31,1.67.6,2.49.95.74.31,1.23.9,1.6,1.59.22-.26.45-.52.67-.78-.48-1.16-1.63-1.48-2.58-2.03-.61-.36-1-.9-.76-1.55.2-.55,2.74-4.58,3.04-6.26.16-.78.39-1.64.29-2.47-.19-2.21-2.38-2.68-3.46-2.71-1.87-.18-3.76,1.02-3.92.83-.18-.2-.09-.49.03-.74.51-1.14.88-2.33,1.13-3.55-.25,0-.51-.02-.76-.03-.13,1.3-.67,2.48-1.07,3.69-.33,1.02-1.03,1.86-1.46,2.83l-.44.89.84-.68Z"/>
      <path class="cls-29" d="M250.09,224.93c-.16-.97-.35-1.93-.48-2.9-.36-2.72-.05-5.43.17-8.15.43-.08.84-.03,1.25.12-.53,1.98-.58,4.01-.44,6.03.13,1.93.93,3.85,1.18,5.78-.62,0-1.32-.53-1.68-.89Z"/>
      <path class="cls-29" d="M182.09,220.16c.44,1.13-.12,2.19-.22,3.28-.02.23-.1.45-.17.79-.58-.97-.33-2-.54-2.94.38,0,.62-.13.62-.57,0-.22.11-.43.3-.57Z"/>
      <path class="cls-29" d="M193.79,216.21c.05.21-.06.35-.2.48-.89.81-1.5,1.78-1.76,2.97-.02.09-.11.16-.29.4.13-1.29.47-2.39.37-3.51.72.42,1.26-.17,1.88-.33Z"/>
      <path class="cls-29" d="M193.94,216.07c-.05.05-.1.1-.16.14-.05-.16.07-.14.16-.14Z"/>
      <path class="cls-23" d="M310.96,220.94c-.3,2.47-1.42,4.5-3.28,6.15-1.28,1.13-2.84,1.62-4.47,1.57-1.6-.04-3.09-.68-4.37-1.69-1.09-.86-2.07-1.83-2.95-2.92-1.3-1.62-1.66-3.47-1.55-5.5.08-1.58.78-2.89,1.79-3.98,2.07-2.24,5.83-3.5,8.77-1.46,1.92,1.34,3.78,2.76,5.07,4.77.59.92,1.02,1.9.98,3.05ZM302.35,214.8c-2.16-.01-4.05,1.85-4.07,4-.01,2.16,1.85,4.05,4,4.07,2.16.01,4.05-1.85,4.07-4,.01-2.16-1.85-4.05-4-4.07Z"/>
      <path class="cls-29" d="M217.2,257.12c-.88,2-1.89,3.95-2.65,6-.7,1.87-2.07,3-3.78,3.81-4.22,2-8.74,3.28-12.91,5.4-.57.29-1.18.51-1.77.78-1.32.6-1.64,1.24-1.07,2.59.74,1.74,1.07,3.65,2.06,5.29.03.04.02.1.03.15.04.24.33.53-.02.69-.39.19-.39-.25-.5-.44-.99-1.8-1.91-3.63-2.95-5.4-1.62-2.77-3.28-5.52-5.01-8.21-.79-1.23-.93-2.35-.46-3.76.97-2.88,2.04-5.7,3.34-8.44.67-1.4,1.49-2.74,2.43-3.99,1.19-.73,2.54-.97,3.88-1.23,1.17-.23,2.34-.14,3.52-.14-.27.19-.52.4-.8.57-.73.43-1.09,1.26-1.83,1.67-1.61.35-3.19.87-4.28,2.13-1.98,2.29-3.58,4.81-3.96,7.93-.14,1.18-.14,2.28.52,3.39.67,1.13,1.4,2.24,2.02,3.41.75,1.43,1.69,1.91,3.25,1.7,1.91-.26,3.64-1.14,5.47-1.65.53-.15,1.16-.17,1.54-.69,1.65-.29,3.23-.83,4.8-1.39.49-.18.95-.41,1.39-.72,1.39-.95,2.48-2.17,3.5-3.5,1-1.31,1.51-2.81,1.98-4.34.81-.64.98-1.64,1.44-2.48.29-.52.53-1.07.79-1.61.28-.27.23-.71.47-.97,1.21-1.32.59,1.12-.44,3.44Z"/>
      <path class="cls-29" d="M261.57,240.03c-1.3-.82-2.42-2.59-3.42-3.73-1.14-1.3-2.14-2.73-3.38-3.95-.7-.69-1.22-1.56-1.57-2.49-.19-.51-2-2.61-1.87-3.28.03,0,.03-2.88.37-1.32,1.79,1.57,4.36,4.18,6.06,4.9,1.5.64,2.84,1.6,4.33,2.24,1.84.79,3.5,1.89,5.19,2.93.57.35.71,1.34.31,2.02-.7,1.19-.97,1.62-2.37,2.11-1,.29-1.71.59-3.64.56Z"/>
      <path class="cls-29" d="M289.3,267.72c1.02-.42,1.88-.39,2.71-.16,2.27.63,4.52,1.39,6.87,1.7,2.72.37,5.43.3,8.17.04,1.99-.19,3.59-1.18,5.31-1.93.14-.06.3-.09.44-.16.18-.08.36-.13.47.09.09.18.03.37-.12.5-1.8,1.56-3.65,2.99-6.04,3.62-4.11,1.08-7,.14-11.01-.8-1.72-.4-3.22-1.32-4.78-2.07-.6-.29-1.29-.36-2.02-.84,1.02-.42.73.48,0,0Z"/>
      <path class="cls-29" d="M263.35,259.69c.18.09.18.18,0,.28,0-.1,0-.19,0-.28Z"/>
      <path class="cls-29" d="M240.62,265.73s.09.09.13.13c-.04-.04-.09-.09-.13-.13Z"/>
      <path class="cls-19" d="M214.94,258.73c-.47,1.53-.99,3.03-1.98,4.34-1.01,1.33-2.11,2.54-3.5,3.5-.44.3-.89.54-1.39.72-1.57.56-3.15,1.1-4.8,1.39-.61-.64-1.39-.6-2.19-.61-1.24-.02-2.54-.35-3.31-1.23-1.55-1.76-2.23-3.89-1.74-6.32.2-.99.72-1.86.86-2.83.13-.89.41-1.72.69-2.56.31-.92.78-1.76,1.13-2.66.74-.41,1.1-1.24,1.83-1.67.28-.17.54-.38.8-.57,1.76-.36,3.38.18,5.02.72.99.33,2.05.54,2.88,1.16,1.43,1.08,2.85,2.21,3.53,3.98.36.92,1.1,1.63,1.48,2.54.09.22.43.09.66.1Z"/>
      <path class="cls-26" d="M222.72,235.03c-.74,1.14-1.5,2.26-2.22,3.41-1.08,1.72-2,3.51-2.53,5.47-.37,1.39-.42,1.46-1.75,1.54-.65-.3-1.38-.12-2.07-.37-1.31-.48-2.09-2.19-1.54-3.5.33-.78.95-1.36,1.58-1.67.92-.44,1.13-1.3,1.65-1.96,1.06-1.36,2.22-2.61,4.06-2.74.93-.07,1.87-.17,2.81-.19Z"/>
      <path class="cls-26" d="M302.35,214.8c2.15.01,4.01,1.91,4,4.07-.01,2.15-1.91,4.01-4.07,4-2.15-.01-4.01-1.91-4-4.07.01-2.15,1.91-4.01,4.07-4Z"/>
      <path class="cls-23" d="M198.72,252.46c-.35.9-.82,1.74-1.13,2.66-.28.84-.57,1.67-.69,2.56-.14.98-.66,1.85-.86,2.83-.49,2.43.19,4.55,1.74,6.32.77.88,2.07,1.21,3.31,1.23.8.01,1.58-.03,2.19.61-.38.52-1.01.54-1.54.69-1.84.51-3.56,1.4-5.47,1.65-1.56.21-2.5-.27-3.25-1.7-.61-1.17-1.34-2.28-2.02-3.41-.66-1.11-.66-2.2-.52-3.39.38-3.12,1.98-5.64,3.96-7.93,1.09-1.26,2.68-1.78,4.28-2.13Z"/>
      <path class="cls-29" d="M247.86,241.02s0-.44,0-.47c.39-.05.54-.02.76-.27"/>
    </g>
    <g>
      <g class="cls-25">
        <path class="cls-23" d="M241.01,233.31l6.96,3.26-14.21,26.56-6.58-3.44s7.4-17.58,8.55-18.73,5.27-7.66,5.27-7.66Z"/>
        <path class="cls-23" d="M209.72,213.27s15.04,12.16,15.59,19.69c-2.96,5.93-11.97,22.28-11.97,22.28l2.23,1.56,3.59-1.45,14.71-22.94s-10.67-21.08-11.15-21.08-13,1.93-13,1.93Z"/>
        <g>
          <path class="cls-19" d="M214.32,268.53c.21-1.79,1.39-10.34,5.62-19.09,1.43-2.96,3.14-5.65,4.65-8.03,1.6-2.52,3.11-4.9,3.97-7.06,2.25-5.62,1.62-7.84-4.2-14.79-3.29-3.93-9.32-8.7-11.71-10.46l8.13-11.19c1.56,1.15,9.37,7.02,14.19,12.78,6.4,7.65,11.72,15.61,6.44,28.81-1.34,3.34-3.26,6.38-5.13,9.32-1.44,2.28-2.8,4.42-3.89,6.66-3.13,6.47-4.11,12.9-4.3,14.41l-13.77-1.35Z"/>
          <path class="cls-29" d="M220.85,198.37c2.03,1.51,9.3,7.07,13.87,12.53,6.34,7.57,11.6,15.44,6.38,28.47-1.33,3.32-3.25,6.34-5.11,9.28-1.44,2.28-2.81,4.42-3.89,6.67-2.94,6.08-4,12.23-4.29,14.2l-13.12-1.29c.3-2.33,1.56-10.4,5.55-18.65,1.42-2.94,3.13-5.62,4.64-8.01,1.6-2.53,3.12-4.92,3.99-7.1,2.31-5.78,1.68-8.04-4.25-15.12-3.2-3.82-8.96-8.42-11.51-10.32l7.74-10.66M220.71,197.45l-8.51,11.73c2.16,1.57,8.51,6.54,11.92,10.6,5.78,6.9,6.36,8.93,4.14,14.45-.85,2.13-2.35,4.5-3.94,7-1.52,2.39-3.23,5.1-4.67,8.06-4.69,9.69-5.65,19.13-5.69,19.53l14.42,1.42c0-.07.79-7.36,4.31-14.63,1.07-2.22,2.43-4.35,3.86-6.62,1.87-2.95,3.81-6.01,5.16-9.38,5.35-13.37-.02-21.41-6.49-29.14-5.26-6.28-14.14-12.75-14.51-13.03h0Z"/>
        </g>
        <path class="cls-19" d="M198.01,201.75s17.41,8.97,19.57,8.97,18.38-7,18.38-7l-3.62-13.26-16.14-3.62-18.2,14.9Z"/>
        <path class="cls-19" d="M240.7,226.28l5.64,3.46-1.03,6.79-4.4,2.22-11.81-2.51-1.93-3.54s6.96-4.31,7.33-4.31,6.22-2.11,6.22-2.11Z"/>
        <path class="cls-19" d="M211.02,272.31s4.96-15.67,6.06-16.77,6.9-2.49,6.9-2.49l8.73.82-4.28,3.13,2.14,3.51,1.26,11.4-6.97,3.91-13.83-3.51Z"/>
        <path class="cls-29" d="M282.81,301.52c-16.07,3.79-27.13-12.42-34.28-24.35-2.6-4.18-5.31-8.31-8.86-11.6,0,0,.89-.97.89-.97,3.72,3.45,6.48,7.69,9.09,11.88,7.74,12.98,16.55,25.12,33.16,25.04h0Z"/>
        <path class="cls-23" d="M246,237.6s12.25,15.02,13.2,15.97c.95.95,7.32,8.82,7.32,8.82l3.1.33,1.19-2.74s-15.44-21.63-19.04-23.4c-3.6-1.77-5.77,1.03-5.77,1.03Z"/>
        <path class="cls-1" d="M245.26,239.07s2.99,1.37,5.74,4.05c5.22,5.1,10.32,12.5,13.37,16.99"/>
      </g>
      <path class="cls-5" d="M192.3,217.03c-.13-.44-1.01-4.24-5.67-3.42-3.69.65-4.84,6.9-4.84,7.12,0,.44-.25.56-.62.57-.31.01-1.68-1.6-4.52-.29-.48.22-1.96,1.95-2.39,3.85-.55,2.43,0,5.15-.07,5.42-1.18.8-5.18,4.01-6.58,5.3-3.26,3.02-6.29,6.27-9,9.8-3.76,4.88-6.88,10.16-9.6,15.68-1.51,3.07-3.07,6.1-4.39,9.26-3.6,8.66-6.35,19.14-6.43,28.61-.05,5.98-.19,11.97.57,17.94,7.02,55.06,70.72,78.83,116.23,52.78,1.51-.87,22.61-11.95,43-28.67,30.18-24.73,59.58-44.5,64.75-88.16.35-2.97-.16-7.14-.54-10.13-.33-2.62-.66-5.21-1.29-7.79-.84-3.44-1.9-6.78-3.23-10.06-9.63-23.71-34.25-32.21-58.38-28.68-2.44.36-15.2,2.66-17.36,2.02-2.43-.71-12.08-2.89-13.49-3.09-8.81-1.25-14.55,9.36-17.01,16.04-.21.56-.74,1.99-1.03,2.98-4.16-.49-12.61-.95-13.03-.99-1.13-.93-2.4-2.59-3.7-3.8-2.71-2.5-6.04-5.45-6.29-6.07-.68-1.7-.75-3.16.98-3.84,3.01-1.36,12.37-5.84,16.19-7.26,13.77-5.11,52.97-4.03,60.6-19.96,1.41-2.94,1.52-6.04.85-9.18-.39-1.8-1.15-3.49-1.97-5.13-.8-1.61-1.54-3.26-2.8-4.61-43.55-46.75-127.91-10.55-160.71,30.56-3.63,4.54-6.69,9.41-8.86,14.82-1.32,3.29-2.52,6.62-3.2,10.11-.4,2.06-.63,4.13-.8,6.22-.23,2.82-1.89,5.63-1.38,8.39.3,1.6,2.63,6.49,5.96,8.92s9.32,2.4,12.74,1.71c17.27-4.85,31.11-20.71,48.58-25.84,2.71-.79,5.44-1.53,8.22-2.02,2.04-.36,6.22-1.09,11.22,2.39,1.37,1.21,5.72,5.31,6.41,6.26-.99.1-5.59.64-9.87,1.53-4.76.99-9.19,2.35-9.29,2.55.17-.87.11-1.37.04-2.12-.15-1.47-1.55-2.38-3.59-2.38-2.57,0-3.55,1.79-4.41,2.64Z"/>
      <path class="cls-5" d="M229.38,228.43c.21,1.35-.41,4.77-1.25,6.1-1.8-.57-3.67.21-5.41.5-.94.02-1.88.12-2.81.19-1.84.14-3,1.38-4.06,2.74-.52.67-.73,1.52-1.65,1.96-.64.31-1.26.89-1.58,1.67-.55,1.31.23,3.01,1.54,3.5.69.25,1.41.07,2.07.37-.16.61-.35,1.21-1.05,1.39-.39.1-1.87.47-2.74,1.39-.35.37-1.67,1.92-1.12,3.37s2.29,2.7,3.72,2.7c.72-.08,1.45.07,2.14.32-.26.54-.5,1.09-.79,1.61-.46.84-.63,1.84-1.44,2.48-.23-.01-.57.12-.66-.1-.1-.24-2.48-5.91-8.55-7.89-4.92-1.61-11.49.69-11.77.87.18-.97.84-1.67,1.42-2.39.64-.78,6.3-5.77,7.49-6.31.73-.33,1.42-.77,2.16-1.1.6-.27,1.5-1.28,1.83-2.28.36-1.07.25-1.54.25-2.25.66-.39,5.01-2.94,9.93-4.89,5.83-2.32,11.98-4.02,12.33-3.94Z"/>
      <path class="cls-5" d="M243.5,225.1c.64-.08,6.91.41,7.53.42.23,1.42,1.47,3.72,2.05,4.46.72.97,3.93,5.02,5.07,6.32,1,1.14,1.93,2.32,3.24,3.13-1.17.09-7.91-.99-9.25-.92-1.12.06-2.05.62-2.88,1.32-.2.17-.7.66-.92.98-.97-.64-5.78-2.6-6.03-2.78.85-2.47,1.57-6.27,1.2-12.94Z"/>
      <path class="cls-5" d="M272.89,262.23c.93.31,6.41,2.11,7.54,2.84-.66.42-5.39.83-9,.01-4.92-1.42-7.67-5.82-7.67-5.82,1.38.13,6.75,2.17,9.14,2.97Z"/>
      <path class="cls-5" d="M240.74,265.85s-8.89-1.59-10.57-1.58c0-.17.05-1.51.27-2.66.21-.93.6-2.13.63-2.15,2.34.51,4.15,1.13,5.95,2.39.36.25,2.53,2.46,3.72,4Z"/>
    </g>
  </g>
  <path class="cls-3" d="M244.29,133.85c32.38,0,53.37,15.27,56.11,19.37,2.9,4.34,4.28,7.89,5.4,10.75,1.52,3.89,3.24,8.3,8.65,8.3,3.01,0,15.61,1.76,29.52,7.41,12.01,4.88,27.98,13.99,35.88,29.72,9.09,18.08,9.72,43.52,1.7,68.06-10.87,33.23-37.14,65.24-75.97,92.58-32.8,23.1-64.39,34.81-93.88,34.81-20.19,0-38.39-5.53-54.1-16.45-14.78-10.26-26.78-25.17-34.73-43.11-21.28-48.06,2.04-89.35,13.05-104.88,1.47-2.08,1.37-3.89,1.03-5.05-.81-2.74-3.48-3.8-4.62-4.25-1.38-.55-5.03-4.14-4.52-10.85.45-5.97,1.38-18.39,10.15-32.17,10.12-15.91,28.17-29.97,53.66-41.78,17.84-8.27,35.56-12.46,52.66-12.46h0M244.29,129.89c-15.67,0-33.97,3.4-54.32,12.83-60.62,28.1-64.9,61.47-66.08,77.24-.63,8.34,3.91,13.6,7.01,14.82,2.01.8,3.02,1.65,1.83,3.34-7.84,11.04-37,55.57-13.44,108.76,16.3,36.81,49.12,61.91,92.44,61.91,28.17,0,60.77-10.62,96.16-35.53,89.8-63.24,91.55-133.78,75.53-165.65-16.03-31.87-62.13-39.31-68.94-39.31-4.83,0-3.62-6.61-10.76-17.29-3.15-4.72-24.94-21.13-59.41-21.13h0Z"/>
  <ellipse class="cls-10" cx="139.33" cy="170.5" rx="4.28" ry="2.89" transform="translate(-76.8 128.43) rotate(-39.73)"/>
  <ellipse class="cls-10" cx="170.95" cy="146.21" rx="4.28" ry="2.89" transform="translate(-49.03 99.2) rotate(-28.48)"/>
  <ellipse class="cls-10" cx="209.51" cy="129.89" rx="4.28" ry="2.89" transform="translate(-27.06 60.6) rotate(-15.47)"/>
  <ellipse class="cls-10" cx="248.8" cy="125.49" rx="2.89" ry="4.28" transform="translate(118.39 371.75) rotate(-88.86)"/>
  <g class="cls-16">
    <g>
      <path class="cls-10" d="M93.53,224.92s0,0,0-.02c-.01,0-.02.01,0,.02Z"/>
      <path class="cls-10" d="M329.38,152.17c-1.89,0-3.27,1.27-4.6,2.5-.98.91-2,1.85-3.14,2.28-1.03.39-1.96.25-3.96-.13-1.75-.32-3.93-.73-6.96-.73-3.36,0-5.94,1.41-7.81,3.05-2.07.94-4.05,1.05-6.74.4-3.05-.74-10.7-6.5-13.17-6.5s-4.61,1.81-5.02,4.12c-.41,2.31-1.84,7.71-4.03,9.9-2.19,2.19-10.29,2.86-11.61,2.26-1.32-.6-1.07-3.43-.25-5.65.82-2.22,2.63-6.92,2.63-8.86s-2.88-5.3-5.27-5.79c-2.39-.49-5.43,3.62-7.33,4.36-1.89.74-2.8-3.05-4.53-3.05s-3.62,2.88-3.62,6.75-.99,9.3-2.62,11.94-6.44,4.12-7.42,3.13-.61-3.41,1.07-5.09c1.68-1.68,1.81-4.3.66-7.04-1.15-2.74-4.45-2.11-5.68-3.35-1.23-1.23.74-3.95-.99-4.94-1.73-.99-4.4.7-5.27,1.56-.86.86-5.27,2.06-6.59,2.06s-4.03-.41-4.78,3.38c-.74,3.79,1.65,9.88,2.8,13.67,1.15,3.79-.99,5.1-3.79,5.1s-4.28-4.36-4.28-7-3.46-8.4-5.52-9.39c-2.06-.99-3.13.58-3.7,2.22-.58,1.65-1.61,1.52-3.38,3.29-1.77,1.77-.99,7.66,1.15,11.77,2.14,4.12,1.98,5.35,1.56,6.75-.41,1.4-4.13,3.88-6.42,1.58-2.3-2.3-6.09-3.56-8.07-3.56s-5.35,2.31-7,2.31-3.79-7.99-4.45-9.56c-.66-1.56-3.32-1.4-3.32.58s-.06,5.26-1.22,6.42c-1.16,1.16-.8,3.87.44,6.48,1.24,2.6,3.28,8.01,2.53,9.46-.75,1.44-6.5,1.36-7.98-1.2-1.48-2.55-4.12-4.94-7.82-4.11-3.7.83-12.39,5.88-13.67,7.16-1.02,1.02-3.43,2.71-4.37,3.36-.01,0-.03,0-.04.01-.99.23-2.25.36-3.74.29-.74-.04-1.54-.13-2.37-.3-.4-.08-.87-.19-1.23-.29-.16-.04-.44-.13-.69-.21l-.6-.17c-.26-.06-.45-.13-.78-.16-.32-.03-.65-.04-.97-.04-.34.02-.75.11-1.12.21-.73.22-1.45.68-1.89,1.12-.92.91-1.25,1.67-1.57,2.27-.29.58-.52,1.06-.73,1.44-.21.35-.41.61-.56.75-.04.05,0-.01,0,0,0,0,.02,0,.03.01.02,0-.12.06-.17.09l-.25.13h0s-.02,0-.03,0c-.08,0,.02.07-.24-.02-.5-.11-1.63-1-3.42-1.78-.94-.37-2.12-.65-3.34-.57-.59.09-1.15.13-1.75.36-.3.11-.59.22-.89.35-.3.13-.35.18-.53.28l-.46.26-.21.12-.04.03-.08.06-.17.13-.33.26c-.22.18-.44.35-.64.54l-.57.66c-.76.9-1.2,1.98-1.49,2.98-.5,2-.39,3.66-.42,5.05,0,1.38-.12,2.54-.39,2.88-.03.04-.05.1-.07.14,0-.02,0-.04.03-.04.01,0,.03,0,.05.01.01.01-.13.09-.18.14l-.27.19s-.11.02-.26,0c-.76-.08-2.09-.59-3.42-1.11-1.37-.53-2.84-1.14-4.7-1.48-.49-.06-.94-.16-1.48-.16-.54,0-1-.04-1.76.12-.34.06-.7.15-1.01.23l-.49.17-.24.08-.06.02h-.03s-.33.17-.33.17l-.15.08-.59.32c-1.52.86-2.6,1.64-3.76,2.44-1.11.8-2.17,1.6-3.19,2.38-2.04,1.56-3.9,3.09-5.6,4.5-1.34,1.11-8.46,6.81-14.03,12.54-8.64,8.89-16.54,18.78-16.54,18.78l6.36,6.72s11.75-13.59,20.61-23.14c3.88-4.18,8.06-7.93,9.01-8.85,1.56-1.49,3.26-3.11,5.05-4.83.9-.83,1.82-1.68,2.76-2.55.92-.82,1.95-1.73,2.76-2.31l.29-.21.07-.05c-.09.04.11-.05,0,0l.04-.02.47-.22s0,0,0,.01c.04-.01.21-.03.32-.05.16-.04.41,0,.62,0,.94.06,2.17.45,3.5.91.67.24,1.36.5,2.16.74.76.25,1.66.5,2.73.63,1.08.11,2.58.07,4.12-.94l.45-.32c.09-.07.12-.07.25-.19l.42-.39c.27-.27.53-.56.77-.85.18-.27.33-.53.48-.8.34-.55.47-1.07.66-1.62.13-.51.23-1.02.29-1.5.11-.93.13-1.79.12-2.54,0-1.51-.01-2.79.2-3.59.26-.78.41-.97,1.17-1.44.13-.06.37-.22.4-.21.04,0,.07,0,.1-.02.04-.05.2-.02.29-.07.18,0,.37.02.71.15.34.15.82.43,1.39.78.58.35,1.32.82,2.33,1.18.97.4,2.44.51,3.6.19l.44-.13.22-.07.11-.04c.12-.05-.19.09.28-.12h.03s.43-.23.43-.23c.09-.05.1-.04.25-.13l.41-.27c.26-.18.57-.4.75-.57.79-.7,1.31-1.46,1.74-2.15.39-.68.69-1.28.93-1.75.02-.03.03-.05.05-.08.14.05.28.1.42.14.64.21,1.17.35,1.74.49,1.12.27,2.2.43,3.24.53,2.05.18,3.9.06,5.42-.23.9,0,2.62.06,2.45.49-.21.54-2.36,6.01-4.2,10.7-2.09,5.34-.75,10.88.69,10.88s12.56-7.91,20.06-13.02c7.49-5.1,38.86-19.84,45.61-21.82s8.32-1,8.32-1l6.44.45s-1.42-3.5,7.47-7.36c4.65-2.02,30.38-6.92,37.87-8.23,7.49-1.32,19.6-3.99,23.12-4.8,4.65-1.06,12.44-2.78,14.83-4.26,2.39-1.48,5.02-6.17,7.49-8.64,1.86-1.86,3.52-2.27,4.24-2.36,2.16.06,3.82.35,5.28.62,2.23.41,4.33.8,6.79-.13,2.1-.8,3.62-2.2,4.84-3.34.43-.4,1.01-.93,1.31-1.12,1.32-.14,2.35-1.26,2.35-2.62,0-1.45-1.18-2.63-2.63-2.63Z"/>
      <path class="cls-10" d="M335.14,155.68s1.63.38,3.78,4.31c.48.88,1.38,1.37,2.31,1.37.43,0,.86-.1,1.26-.32,1.28-.7,1.75-2.3,1.05-3.57-1.99-3.65-4.08-5.41-5.67-6.26-2.84-1.34-4.98,2.23-2.73,4.48Z"/>
      <path class="cls-10" d="M366.42,180.1c-.39-1.67-.59-2.51-.59-7.74,0-6.48-3.44-10.13-3.59-10.28-1-1.04-2.64-1.07-3.69-.08-1.05.99-1.1,2.65-.13,3.71.09.1,2.14,2.39,2.14,6.65,0,5.61.22,6.8.73,8.95.29,1.21,1.37,2.03,2.56,2.03.2,0,.4-.02.61-.07,1.42-.33,2.29-1.75,1.96-3.17Z"/>
    </g>
  </g>
  <path class="cls-10" d="M178.22,166.27c1.29-.27,3.02.93,3.24,1.87s-1.18,1.73-.55,2.36,4.56,2.8,7.08,4.12,5.43,6.42,5.43,8.23-1.73,1.56-3.29,0-4.34-4.56-6.37-3.73-5.1,4.78-6.64,3.79-1.98-4.5-3.07-5.6-1.87-3.35-1.05-4.17,3.57-2.25,3.57-3.82.33-2.77,1.65-3.05Z"/>
  <path class="cls-10" d="M184.53,160.73c-.77.77.33,2.47.93,4.06s1.7,3.62,3.07,3.35,2.36-1.87,3.46-2.96c1.1-1.1,2.25-1.43,1.92-2.47s-1.56-.36-2.09-.88,1.98-1.87,2.58-2.47.16-2.25-.99-2.25-2.41,1.87-3.95,2.42-4.42.69-4.94,1.21Z"/>
  <path class="cls-10" d="M198.42,150.74c1.51-1.51,4.34-.92,5.54.28s3.84,2.46,5.27,1.91,2.8-.99,3.35.49-2.25,4.94-2.25,7.14,1.26,7.41.05,7.9-3.33-5.76-4.85-8.4-2.67-4.28-4.76-4.94-3.92-2.83-2.36-4.39Z"/>
  <path class="cls-10" d="M217.28,150.39c-.27,1.15,1.43,3.04,3.73,2s6.97-2.43,8.23-2.43,2.69.56,1.92-.98-2.58-2.25-4.39-1.92-3.95,1.54-5.54,1.54-3.57.17-3.95,1.79Z"/>
  <path class="cls-10" d="M242.33,147.66c.7,1.33-.97,2.47-.97,4.47s-.45,6.89-.73,8.7.11,2.96-1.21,2.74-.22-3.84-2.2-7.46c-1.98-3.62-2.27-5.15-.71-6.71s5.21-2.9,5.82-1.75Z"/>
  <path class="cls-10" d="M293.28,131.39c-.38-1.4-1.81-2.23-3.21-1.86-1.4.37-2.24,1.81-1.88,3.21.27,1.06.2,2.47-.12,2.61-.56.24-1.09.16-2.06,0-1.42-.24-3.81-.65-5.91,1.45-1.32,1.32-2.25,3.8-2.89,6.15-.08.16-.16.34-.22.54-.99,3.38-4.53,1.81-7,2.39-2.47.58-1.98,2.72-1.23,6.26.74,3.54,2.8,5.84,5.35,5.84s3.73-4.91,4.67-5.84c.93-.93,2.91-.91,3.81,0,.91.91,2.48-1.82,1.56-2.73-.8-.8-1.4-5.12-1.54-6.17.4-1.31.83-2.34,1.2-2.71.08-.08.13-.11.13-.11.16-.05.76.06,1.16.12,1.27.22,3,.52,5.01-.33,3.92-1.66,3.83-6.32,3.16-8.82Z"/>
  <path class="cls-10" d="M271.64,160.01c1.68.53,1.73,1.97.82,3.59-.91,1.62-1.32,2.15-3.7,2.62-2.39.48-4.28,1.22-4.28-1s3.95-6.23,7.16-5.21Z"/>
  <path class="cls-10" d="M152.75,186.86c-.83-1.77,3.87-4.76,6.59-3.6,2.72,1.15,3.05,4.01,1.65,5.42s-6.34,2.2-8.23-1.81Z"/>
  <g>
    <path class="cls-24" d="M139.53,222.19s0-.01,0-.02c0,0-.02,0-.03,0h.02Z"/>
    <path class="cls-22" d="M294.8,163.99c-.37.71-.87,1.32-1.46,1.83-1.13.98-2.36.61-2.87-.79-.45-1.23-.85-2.48-.83-3.82,0-.31,0-.71-.41-.78-.5-.09-.69.32-.77.7-.23,1.05-.03,2.08.2,3.11.2.91-.11,1.54-1.12,1.69-1.1.16-2.2.37-3.3.48-1.05.11-1.51-.22-1.5-1.29.03-2.4-.81-4.63-1.22-6.94-.07-.37-.02-.82-.64-.93-.7.73-.63,1.58-.35,2.48.78,2.52.57,5.03-.03,7.54-.19.79-.62,1.45-1.24,1.96-1.16.95-2.46,1.65-3.95,1.98-.34-1.72-.76-2.24-1.65-2.15-.34.04-.6.21-.85.44-.67.62-.12,1.44-.21,2.13-.46-.03-.55-.29-.66-.52-.34-.69-.79-1.26-1.65-1.11-.73.13-1.12.68-1.16,1.4-.06.98-.7,1.13-1.49,1.16-.72.03-1.44.06-2.15.17-.91.13-1.81.47-1.99-1-.08-.6-.86-.74-1.42-.89-1.63-.45-3.26-.32-4.84.19-1.27.41-2.65.59-3.28,2.16-.3.74-1.34.77-2.11.57-.7-.19-.66-.9-.65-1.49.04-1.98.13-4.04,1.06-5.75,1.16-2.13,2.3-4.4,4.82-5.46,1.06-.44,1.79-1.38,2.1-2.94-.99.76-1.68,1.32-2.4,1.83-.26.18-.6.36-.91.15-.32-.21-.23-.57-.17-.89.38-1.93,1.1-3.62,3.36-4.38-1.54-.31-1.53-.31-2.23.09-1.15.67-1.77,1.71-2.12,2.95-.5,1.78-1.26,3.45-2.32,4.96-.73,1.04-1.32,1.08-2.24.24-1.19-1.09-1.56-2.52-1.64-4.07-.04-.82.16-1.65-.08-2.45-.54-.01-.68.34-.77.61-.69,2.15-.65,4.25.58,6.23.31.5.64.99.94,1.5.63,1.07.27,2.15.02,3.24-.19.82-.71,1.1-1.44,1.4-1.3.54-1.39,1.58-.27,2.59.45.41.98.71.74,1.42-.21.62-.81.6-1.32.67-4.25.55-8.28,1.89-12.28,3.37-.12.05-.25.09-.37.13-.37.11-.79.34-1.04-.13-.23-.44-.68-.88-.3-1.43.25-.37.65-.65.72-1.14.11-.75-.17-1.3-.89-1.55-.64-.22-1.46.02-1.46.58.01,1.37-.67,2.48-.97,3.72-.05.22.16.49.22.74.05.18.14.45.06.55-.61.76-1.54.97-2.4,1.2-.71.2-1.04-.42-1.28-.97-.94-2.19-1.48-4.49-1.59-6.85-.09-2-.52-4.01.23-6.02.8-2.14,1.16-2.42,3.45-2.05,1.42.23,2.82.29,4-.96-1.77.53-3.34-.12-4.95-.56-.12-.03-.26-.03-.39-.04q-1.68-.14-2.09-1.82c-.12-.51-.21-1.03-.36-1.53-.16-.52-.08-1.38-.85-1.28-.66.09-.37.86-.39,1.34-.02.52.06,1.05.06,1.57,0,1.18.02,2.36-.03,3.53-.05,1.04-.27,2.05-1.02,3.04-.84-.75-1.64-1.4-2.36-2.13-.73-.75-1.29-1.69-2.09-2.33-.8-.64-.64-1.99-1.81-2.35-.46.9-.14,1.63.18,2.35.69,1.51,1.65,2.84,2.84,3.97,1.05.99,1.73,2.12,1.94,3.53-.36-.27-.71-.57-1.2-.57-.77,0-1.43.53-1.47,1.25-.03.72.3,1.27,1.01,1.47.73.2,1.25-.16,1.57-.81.21-.43.15-.88.09-1.33.32.53.31,1.13.38,1.71.33,2.67.75,5.31,1.79,7.82.79,1.88.72,2.11-.97,3.2-2.98,1.94-5.72,4.13-7.92,6.97-1.49,1.92-4.74,2.6-7.19,1.26-1.67-.92-1.56-2.85-1.51-4.56.02-.52.05-1.05.1-1.57.27-2.76-.33-5.33-1.69-7.74-.74-1.31-1.5-2.61-2.2-3.94-.77-1.47-1.33-2.96-.81-4.69.18-.6.1-1.31.04-1.95-.12-1.17-.68-2.1-1.84-2.79,1.16,2.43.71,4.72-.19,6.97-.64.1-.96-.31-1.2-.65-.8-1.08-1.98-1.69-2.94-2.57-.28-.25-.67-.62-1.01-.29-.44.43-.02.87.28,1.19.62.67,1.49,1.11,1.95,1.92,1.39,2.44,3.21,4.62,4.45,7.16-.52-.03-1.04-.17-1.54.07-.51.24-.81.66-.81,1.23,0,.66.34,1.11.97,1.31.57.19,1.03-.03,1.4-.44.32-.35.41-.8.47-1.26,1.07,1.64,1.55,3.42,1.45,5.39-.1,1.89-.12,3.79-.14,5.68-.01,1.04-.51,1.54-1.52,1.66-3.52.42-6.92,1.34-10.32,2.31-.55.16-1.11.45-1.72.25-2.51-.85-5.13-.78-7.72-.95-2.05-.14-3.01-.97-3.51-3.03-.12-.48,0-1.08-.72-1.31-.99,1.03-.42,2.31-.43,3.88-1.96-2.11-3.73-3.89-5.36-5.8-1.1-1.28-.99-1.46.54-2.34.57-.33.85-.81.73-1.47-.11-.66-.54-1.04-1.19-1.11-.99-.11-2.7,1.76-2.43,2.71.42,1.51.93,2.99,2.11,4.14.75.73,1.53,1.47,2.08,2.34,1.23,1.92,2.74,3.45,5.2,4.17-1.1.43-1.64.98-1.37,1.91.26.88.98,1.16,1.85,1.11.43-.49.87-1,.79-1.71-.08-.79.31-1.07,1.02-1.04.89.04,1.78.11,3.14.2-1.77,1.34-3.42,1.83-4.95,2.56-2.37,1.25-4.79,2.41-7.08,3.78-2.1,1.25-4.34,1.72-6.72,1.7-.74,0-1.42.18-2.12.32-.34.07-.64.25-.6.64.03.27.32.38.57.48.73.31,1.62-.03,2.56.52-3.38,1.99-6.33,4.15-9.6,5.81-.11.09-.23.18-.34.27-3.01,2.13-3.94,2.16-6.86.22-.22-.14-.4-.33-.62-.47-1.81-1.16-3.62-2.33-5-4.03-.21-.25-.51-.5-.84-.31-.43.25-.31.66-.16,1.03.23.56.66.97,1.08,1.38,1.26,1.23,2.53,2.45,3.78,3.69.47.46,1.05,1.01.29,1.63-2.21,1.83-4.12,4.02-6.69,5.39-.65.35-1.25.69-1.35,1.51,1.35-.09,2.45-.76,3.53-1.51,3.06-2.12,6.09-4.21,10.07-4.41,1.71-.08,3.41-.88,4.9-1.89,2.82-1.9,5.7-3.72,8.68-5.36,4.25-2.32,8.49-4.66,12.76-6.93,1.67-.89,3.44-1.58,5.24-2.21,5.66-1.97,11.52-2.91,17.43-3.66,2.04-.26,4.02-.18,6.05.15,1.99.32,3.63,1.94,3.89,2.5,0,0,0,.01,0,.02h0c1.36,2.96,4.46,8.08,11.18,13.71,7.28,6.09,11.02,11.89,10.27,15.9-.7,3.76-1.95,8-9.37,18.51l.05.03c-2.34,3.76-14.9,25.55-6.75,47.03l-3.48,1.94,11.27,6.74.2-13.13-3.34,1.86c-7.18-20.37,6.7-41.87,6.85-42.09l2.93-4.42c5.03-7.86,6.14-11.86,6.82-15.5,1.45-7.73-5.76-15.64-12.07-20.91-5.26-4.4-7.94-8.35-9.26-10.83-1.08-3,1.96-5.67,1.96-5.67,1.99-2.1,4.2-3.94,6.54-5.62,3.48-2.49,7.4-4.16,11.35-5.76,3.16-1.28,6.35-2.43,9.74-2.96,2.2-.35,4.41-.49,6.63-.66,4.93-.38,9.8-1.51,14.8-1.2,1.29.08,2.51-.61,3.82-.79,4.16-.58,8.05-1.82,10.82-5.3.71-.9,1.68-1.37,2.8-1.69,1.88-.55,3.76-.3,5.65-.24,2.75.09,4.55-1.88,4.24-4.73-.55.07-.74.51-.94.9ZM257.22,173.33c-.19-.01-.23-.12-.06-.32,1.44-.46,2.93-.89,4.51-.17-1.47.22-2.93.6-4.44.49Z"/>
    <path class="cls-24" d="M156.43,211.52c.65-.71-.51-1.75.36-2.34.69-.47,1.51-.76,2.27-1.14.23-.12.46-.25.67-.4.53-.36,1.27-.7.87-1.5-.42-.82-1.11-.38-1.7-.12-.12.05-.24.12-.34.19-2,1.4-4.23,1.6-6.56,1.31-.45-.06-.91-.16-1.36-.12-.6.05-1.15.53-.78,1.03.58.77.35,1.36.15,2.13-.21.83.51,1.58,1.31,1.58.72,0,1.29-.6,1.37-1.39.05-.46-.46-.79-.25-1.3.76.06,1.42.15,1.44,1.17.03,1.31.9,1.61,2.02,1.53.11-.09.23-.18.34-.27.06-.11.1-.25.19-.34Z"/>
    <path class="cls-24" d="M210.39,181.49c.7.97,1.58.53,2.41.07.33,1.55-.24,3.05.53,4.38.06.05.12.1.19.15,1.14-.33,1.22-1.22,1.19-2.19-.07-1.79.29-3.48,1.2-5.17.2.24.32.4.45.54.52.54,1.11.68,1.76.24.54-.37.77-.9.55-1.54-.24-.7-.78-1.02-1.52-.98-.39.03-.78.15-1.16-.02-1.09-.49-1.53.18-1.94,1.02-.33.68-.35,1.52-1.05,2.12-.77-.59-1.54-1.26-2.44-.41-.55.51-.61,1.17-.17,1.78Z"/>
    <path class="cls-24" d="M185.73,201.62c-.19.05-.5.13-.81.23-2.04.69-4.1,1.35-6.12,2.1-1.92.7-3.62,1.81-5.29,2.97-.49.34-1.06.75-.67,1.42.47.81,1.12.35,1.7.06.17-.09.34-.2.5-.31,2.16-1.52,4.52-2.59,7.07-3.31,1.44-.41,2.84-1,4.23-1.56.45-.18.73-.58.51-1.12-.18-.43-.56-.5-1.12-.48Z"/>
    <path class="cls-24" d="M183.49,187.19c-.14.78.52.97,1.09,1.13.38.1.77.14,1.16.2,1.81.24,3.68.31,4.85,2.08.26.4.78.53,1.22.19.54-.43.35-.95.01-1.39-.9-1.14-1.87-2.2-3.44-2.39-1.17-.14-2.33-.32-3.5-.48-.62-.11-1.26-.1-1.39.66Z"/>
    <path class="cls-24" d="M270.88,154.55c.16.64.94.86,1.37.33.32-.39.53-.9.7-1.38.49-1.34,1-2.58,2.81-2.42.48.04.89-.27.86-.85-.03-.45-.36-.68-.76-.78-.31-.07-.64-.08-.8-.1-2.23.04-4.67,3.2-4.17,5.19Z"/>
    <path class="cls-24" d="M211.51,186.69c-.29.79-.67.71-1.32.53-.72-.2-1.25.21-1.49.91-.21.62-.03,1.16.5,1.54.55.4,1.1.29,1.61-.11.44-.35.75-.78,1.43-.87,1.83-.24,2.05-.8,1.28-2.61-.06-.05-.13-.1-.18-.15-.74-.06-1.54-.05-1.83.75Z"/>
    <path class="cls-24" d="M256.88,177.95c-.55.13-1.04.56-1.62.33-.76-.18-1.34.03-1.69.68-.27.49-.23,1.02.12,1.46.53.68,1.21.7,1.9.28.57-.35,1.14-.05,1.7-.1.89-.07,1.45-.76,1.32-1.57-.12-.81-.85-1.29-1.73-1.08Z"/>
    <path class="cls-24" d="M149.06,219.76c-1.58.33-3.16,1.26-4.73,2.2-.47.28-.88.68-.58,1.28.37.73.98.51,1.52.22,1.45-.76,2.85-1.61,4.44-2.07.47-.13.84-.47.71-1.01-.13-.53-.6-.64-1.35-.62Z"/>
    <path class="cls-24" d="M219.47,181.73c-.85.22-1.42.16-2.05-.49-.46-.47-1.1-.32-1.58.14-.4.38-.59.86-.39,1.41.22.61.7,1.07,1.32.9.83-.22,1.36-.11,2.05.47.82.68,2.03-.09,2.03-1.16,0-.74-.64-1.47-1.38-1.28Z"/>
    <path class="cls-24" d="M226.81,159.59c-.04.73.54,1.39,1.28,1.43.74.04,1.38-.55,1.41-1.29.03-.73-.57-1.41-1.28-1.45-.71-.04-1.37.57-1.41,1.31Z"/>
    <path class="cls-24" d="M283.81,160.45c-.03.72.59,1.41,1.28,1.45.69.04,1.37-.59,1.42-1.31.05-.73-.54-1.38-1.28-1.42-.75-.04-1.39.54-1.42,1.28Z"/>
    <path class="cls-24" d="M178.85,181.7c.73-.03,1.31-.69,1.27-1.44-.04-.74-.7-1.35-1.41-1.31-.71.05-1.33.73-1.29,1.44.04.71.72,1.34,1.42,1.31Z"/>
    <path class="cls-24" d="M198.81,176.2c-.02-.75-.64-1.33-1.39-1.31-.74.02-1.34.66-1.31,1.39.03.72.7,1.37,1.39,1.35.69-.02,1.32-.71,1.31-1.43Z"/>
    <path class="cls-24" d="M232.97,167.77c-.02-.69-.69-1.36-1.38-1.37-.71,0-1.32.66-1.31,1.4.01.74.65,1.37,1.36,1.36.7,0,1.34-.68,1.32-1.4Z"/>
    <path class="cls-24" d="M150.44,202.71c.75.03,1.39-.55,1.42-1.29.03-.72-.57-1.38-1.3-1.42-.74-.04-1.36.53-1.4,1.3-.04.77.52,1.39,1.27,1.42Z"/>
    <path class="cls-24" d="M251.27,157.21c.7.02,1.36-.61,1.4-1.34.03-.73-.57-1.39-1.3-1.41-.74-.03-1.37.57-1.39,1.32-.02.73.59,1.41,1.3,1.43Z"/>
    <path class="cls-24" d="M228.45,177.33c.72.02,1.37-.7,1.33-1.42-.04-.74-.73-1.36-1.45-1.3-.73.06-1.3.76-1.2,1.52.11.75.56,1.18,1.31,1.2Z"/>
    <path class="cls-24" d="M224.29,150.62c.72.08,1.36-.61,1.35-1.37,0-.75-.67-1.4-1.38-1.35-.72.05-1.36.76-1.27,1.47.09.75.58,1.17,1.3,1.25Z"/>
    <path class="cls-24" d="M202.69,183.16c-.01-.73-.66-1.36-1.37-1.33-.71.03-1.31.7-1.3,1.42.02.74.65,1.36,1.37,1.33.7-.02,1.31-.68,1.29-1.42Z"/>
    <path class="cls-24" d="M245.58,179.35c-.71-.07-1.4.61-1.41,1.33-.01.71.66,1.39,1.37,1.38.72,0,1.35-.69,1.28-1.44-.07-.74-.49-1.21-1.24-1.28Z"/>
    <path class="cls-24" d="M238.52,154.94c.71.02,1.34-.62,1.35-1.35,0-.74-.6-1.38-1.31-1.39-.73-.01-1.35.61-1.35,1.34,0,.73.61,1.38,1.32,1.4Z"/>
    <path class="cls-24" d="M178.83,177.34c.72-.01,1.32-.66,1.3-1.41-.02-.74-.64-1.36-1.36-1.34-.74.02-1.33.65-1.3,1.4.03.74.66,1.36,1.37,1.35Z"/>
    <path class="cls-24" d="M214.99,164.08c-.73.03-1.32.72-1.23,1.48.09.74.51,1.2,1.28,1.23.72.04,1.38-.66,1.37-1.38-.01-.72-.7-1.36-1.42-1.33Z"/>
    <path class="cls-24" d="M246.45,166.79c.72.01,1.39-.65,1.39-1.37,0-.72-.69-1.39-1.41-1.34-.76.06-1.18.52-1.25,1.27-.07.76.54,1.43,1.27,1.45Z"/>
    <path class="cls-24" d="M250.83,178.66c-.71.05-1.33.77-1.24,1.5.09.75.55,1.17,1.31,1.21.75.03,1.39-.63,1.35-1.37-.03-.73-.73-1.38-1.42-1.34Z"/>
    <path class="cls-24" d="M299.23,164.1c-.75.07-1.18.54-1.28,1.27-.1.73.53,1.41,1.27,1.44.74.03,1.41-.62,1.4-1.34-.01-.72-.71-1.43-1.39-1.37Z"/>
    <path class="cls-24" d="M205.73,174.52c.69,0,1.37-.71,1.32-1.43-.05-.75-.49-1.19-1.24-1.26-.75-.07-1.42.54-1.43,1.28-.01.72.66,1.42,1.35,1.41Z"/>
    <path class="cls-24" d="M277.78,168.19c.71-.05,1.31-.71,1.27-1.44-.03-.74-.68-1.34-1.4-1.3-.71.04-1.3.71-1.27,1.44.03.74.68,1.34,1.4,1.29Z"/>
    <path class="cls-24" d="M266.24,177.87c-.7-.01-1.38.68-1.35,1.41.04.75.46,1.21,1.21,1.3.76.09,1.43-.51,1.45-1.26.02-.73-.62-1.44-1.32-1.45Z"/>
    <path class="cls-24" d="M258.67,169.15c.71,0,1.36-.65,1.37-1.36,0-.69-.65-1.37-1.34-1.39-.7-.02-1.33.62-1.34,1.36,0,.74.61,1.39,1.31,1.39Z"/>
    <path class="cls-24" d="M228.17,169.42c.71,0,1.35-.7,1.32-1.44-.03-.75-.7-1.35-1.45-1.27-.75.09-1.18.54-1.22,1.3-.04.73.64,1.42,1.35,1.41Z"/>
    <path class="cls-24" d="M287.08,170.56c-.72.04-1.29.69-1.25,1.44.03.74.68,1.34,1.4,1.29.71-.05,1.29-.72,1.26-1.45-.03-.75-.65-1.32-1.4-1.28Z"/>
    <path class="cls-24" d="M179.87,185.31c-.67-.04-1.36.59-1.41,1.3-.05.71.53,1.38,1.26,1.42.73.04,1.38-.54,1.41-1.27.03-.7-.59-1.41-1.26-1.46Z"/>
    <path class="cls-24" d="M231.32,171.55c-.05-.75-.74-1.34-1.46-1.27-.73.08-1.28.78-1.16,1.54.12.75.58,1.17,1.33,1.17.73,0,1.34-.72,1.29-1.45Z"/>
    <path class="cls-24" d="M220.58,159.76c.75.08,1.42-.54,1.44-1.28.02-.72-.64-1.42-1.34-1.42-.7,0-1.38.69-1.33,1.42.05.75.48,1.2,1.24,1.28Z"/>
    <path class="cls-24" d="M214.98,159.26c.72.07,1.41-.6,1.43-1.32.02-.72-.64-1.4-1.36-1.4-.72,0-1.35.67-1.3,1.43.06.74.47,1.22,1.23,1.29Z"/>
    <path class="cls-24" d="M188.78,190.69c-.76.11-1.14.61-1.17,1.35-.03.74.66,1.38,1.39,1.34.74-.04,1.33-.71,1.26-1.46-.06-.77-.73-1.33-1.48-1.22Z"/>
    <path class="cls-24" d="M220.02,174.23c-.7-.02-1.37.6-1.41,1.31-.03.69.59,1.38,1.3,1.42.7.05,1.35-.57,1.38-1.31.03-.74-.56-1.4-1.27-1.42Z"/>
    <path class="cls-24" d="M283.54,157.67c.72.12,1.39-.5,1.43-1.27.04-.76-.56-1.44-1.28-1.44-.72,0-1.4.66-1.36,1.39.04.75.48,1.21,1.21,1.32Z"/>
    <path class="cls-24" d="M201.01,154.08c.7,0,1.36-.7,1.34-1.43-.02-.74-.68-1.35-1.44-1.27-.76.07-1.18.53-1.23,1.28-.05.73.63,1.42,1.33,1.42Z"/>
    <path class="cls-24" d="M189.09,199.42c-.73-.05-1.44.55-1.48,1.25-.04.71.6,1.43,1.31,1.43.75,0,1.21-.44,1.33-1.17.13-.76-.43-1.46-1.16-1.51Z"/>
    <path class="cls-24" d="M256.2,163.67c-.72-.01-1.39.65-1.39,1.37,0,.73.68,1.4,1.39,1.35.76-.06,1.17-.53,1.25-1.26.08-.76-.53-1.44-1.26-1.45Z"/>
    <path class="cls-24" d="M261.43,157.7c.71-.05,1.27-.74,1.22-1.48-.06-.75-.71-1.33-1.43-1.27-.72.06-1.29.74-1.22,1.47.07.73.74,1.33,1.43,1.28Z"/>
    <path class="cls-24" d="M169.98,202.68c.76.03,1.37-.52,1.4-1.27.03-.75-.55-1.39-1.27-1.41-.73-.02-1.37.56-1.41,1.29-.04.74.53,1.36,1.28,1.39Z"/>
    <path class="cls-24" d="M224.92,155.52c.03.75.67,1.34,1.39,1.29.71-.05,1.3-.72,1.26-1.45-.03-.74-.68-1.33-1.4-1.29-.71.04-1.28.7-1.26,1.45Z"/>
    <path class="cls-24" d="M176.74,198.25c-.02-.76-.63-1.36-1.35-1.35-.73.02-1.32.65-1.3,1.39.02.72.66,1.37,1.36,1.36.71,0,1.31-.66,1.29-1.41Z"/>
    <path class="cls-24" d="M222.85,179.65c0-.72-.67-1.41-1.35-1.4-.7,0-1.35.71-1.28,1.45.07.74.48,1.2,1.24,1.27.73.07,1.39-.58,1.39-1.32Z"/>
    <path class="cls-24" d="M262.43,178.22c-.71.04-1.31.74-1.25,1.48.06.77.52,1.18,1.25,1.25.72.07,1.35-.59,1.35-1.36,0-.76-.65-1.41-1.35-1.37Z"/>
    <path class="cls-24" d="M271.23,150.31c.72-.04,1.29-.69,1.26-1.43-.03-.74-.68-1.35-1.38-1.31-.72.04-1.29.69-1.25,1.44.03.75.66,1.34,1.38,1.3Z"/>
    <path class="cls-24" d="M209.95,185.26c.74.1,1.42-.5,1.46-1.24.03-.72-.6-1.44-1.29-1.47-.69-.03-1.41.66-1.36,1.38.05.73.44,1.23,1.19,1.33Z"/>
    <path class="cls-24" d="M232.21,184.71c.03.74.41,1.23,1.16,1.34.73.11,1.4-.5,1.44-1.25.04-.74-.56-1.43-1.27-1.46-.71-.03-1.37.62-1.33,1.37Z"/>
    <path class="cls-24" d="M273.64,153.87c-.07.72.61,1.42,1.31,1.42.69,0,1.35-.7,1.33-1.42-.01-.75-.68-1.37-1.42-1.29-.75.08-1.16.56-1.23,1.29Z"/>
    <path class="cls-24" d="M156.44,188.77c.71-.01,1.31-.66,1.3-1.4-.01-.74-.64-1.36-1.35-1.35-.72.02-1.31.66-1.3,1.4.01.74.64,1.37,1.35,1.35Z"/>
    <path class="cls-24" d="M209.88,157.21c.73.04,1.35-.57,1.36-1.34.02-.77-.58-1.39-1.34-1.34-.75.05-1.18.49-1.26,1.23-.08.76.49,1.42,1.24,1.46Z"/>
    <path class="cls-24" d="M237.78,156.65c-.03.73.66,1.4,1.36,1.39.71-.01,1.33-.71,1.29-1.44-.05-.75-.72-1.35-1.45-1.26-.75.1-1.16.57-1.19,1.31Z"/>
    <path class="cls-24" d="M194.4,189.76c0,.73.61,1.37,1.32,1.38.71,0,1.33-.63,1.33-1.36,0-.73-.61-1.38-1.32-1.38-.7,0-1.33.64-1.33,1.37Z"/>
    <path class="cls-24" d="M208.07,160.79c.71,0,1.35-.7,1.31-1.43-.04-.75-.71-1.36-1.44-1.28-.75.09-1.17.55-1.21,1.3-.04.73.64,1.41,1.34,1.41Z"/>
    <path class="cls-24" d="M220.21,161.78c-.03.74.65,1.37,1.37,1.33.71-.05,1.31-.74,1.26-1.47-.05-.75-.73-1.31-1.48-1.2-.76.11-1.12.62-1.15,1.34Z"/>
    <path class="cls-24" d="M292.12,164.32c.69.1,1.39-.56,1.44-1.29.05-.73-.56-1.4-1.3-1.41-.72-.01-1.4.65-1.35,1.38.05.73.46,1.22,1.2,1.32Z"/>
    <path class="cls-24" d="M188.92,167.1c.71,0,1.38-.67,1.34-1.4-.05-.74-.45-1.22-1.2-1.31-.71-.08-1.41.56-1.45,1.28-.04.72.6,1.41,1.32,1.42Z"/>
    <path class="cls-24" d="M157.72,196.32c-.73.06-1.2.48-1.3,1.22-.1.74.5,1.44,1.23,1.47.71.03,1.4-.61,1.43-1.32.02-.71-.66-1.43-1.36-1.37Z"/>
    <path class="cls-24" d="M219.18,168.4c-.07-.73-.48-1.2-1.24-1.28-.73-.07-1.4.57-1.4,1.31,0,.72.66,1.4,1.35,1.4.71,0,1.36-.7,1.29-1.43Z"/>
    <path class="cls-24" d="M158.69,200.77c.02-.7-.65-1.4-1.36-1.4-.72,0-1.37.67-1.31,1.41.06.74.49,1.2,1.24,1.29.71.09,1.41-.58,1.43-1.3Z"/>
    <path class="cls-24" d="M225.66,171.59c-.06.71.65,1.41,1.34,1.39.69-.02,1.34-.73,1.32-1.44-.03-.74-.71-1.36-1.45-1.26-.76.1-1.15.59-1.21,1.31Z"/>
    <path class="cls-24" d="M179.79,173.26c.74-.13,1.15-.6,1.16-1.36,0-.76-.65-1.34-1.42-1.29-.77.05-1.33.71-1.25,1.46.08.75.77,1.32,1.52,1.19Z"/>
    <path class="cls-24" d="M162.28,202.7c.75-.01,1.35-.66,1.28-1.42-.07-.73-.47-1.21-1.23-1.27-.75-.06-1.37.55-1.38,1.33-.01.78.58,1.38,1.34,1.37Z"/>
    <path class="cls-24" d="M238.96,173.06c-.07.72.58,1.42,1.28,1.45.7.03,1.37-.64,1.36-1.36,0-.74-.66-1.37-1.39-1.32-.76.05-1.19.49-1.26,1.24Z"/>
    <path class="cls-24" d="M144.85,207.81c.74.05,1.39-.54,1.39-1.32,0-.74-.37-1.25-1.12-1.39-.74-.13-1.42.43-1.49,1.21-.07.77.47,1.45,1.22,1.5Z"/>
    <path class="cls-24" d="M236.75,176.1c.71-.01,1.35-.7,1.28-1.44-.08-.73-.49-1.2-1.24-1.27-.74-.07-1.39.57-1.39,1.31,0,.73.66,1.4,1.36,1.39Z"/>
    <path class="cls-24" d="M168.1,209.93c-.75.03-1.42.72-1.41,1.4.02.71.72,1.35,1.43,1.29.7-.06,1.32-.78,1.22-1.49-.1-.73-.54-1.15-1.25-1.19Z"/>
    <path class="cls-24" d="M140.44,218.3c.72-.03,1.35-.71,1.29-1.44-.07-.75-.52-1.18-1.25-1.25-.72-.07-1.37.6-1.38,1.33,0,.75.63,1.39,1.35,1.36Z"/>
    <path class="cls-24" d="M205.72,157.68c.7,0,1.35-.71,1.31-1.43-.04-.75-.72-1.37-1.44-1.28-.75.09-1.17.56-1.21,1.3-.04.71.65,1.42,1.34,1.41Z"/>
    <path class="cls-24" d="M183.34,177.31c.69.02,1.37-.66,1.38-1.38,0-.73-.66-1.4-1.38-1.34-.75.06-1.17.53-1.26,1.26-.09.72.56,1.44,1.27,1.46Z"/>
    <path class="cls-24" d="M199.4,190.11c-.08.71.55,1.42,1.27,1.46.72.05,1.38-.59,1.38-1.33,0-.74-.65-1.42-1.37-1.36-.74.06-1.2.49-1.29,1.24Z"/>
    <path class="cls-24" d="M147.17,201.48c.77-.06,1.16-.52,1.21-1.27.05-.77-.54-1.42-1.28-1.43-.73-.01-1.34.63-1.33,1.39.02.76.64,1.37,1.39,1.31Z"/>
    <path class="cls-24" d="M187.89,176.15c-.74-.09-1.39.48-1.44,1.23-.05.74.54,1.39,1.28,1.41.72.02,1.37-.61,1.34-1.36-.03-.74-.44-1.2-1.18-1.29Z"/>
    <path class="cls-24" d="M206.8,176.67c-.71.05-1.32.76-1.24,1.48.08.74.53,1.17,1.28,1.21.7.03,1.36-.67,1.36-1.38,0-.72-.7-1.37-1.4-1.32Z"/>
    <path class="cls-24" d="M267.33,166.7c.7.04,1.4-.62,1.39-1.33,0-.7-.69-1.4-1.38-1.36-.75.04-1.19.48-1.27,1.23-.07.72.56,1.43,1.26,1.47Z"/>
    <path class="cls-24" d="M159.65,187.46c.74-.04,1.33-.71,1.27-1.45-.06-.75-.75-1.33-1.48-1.21-.74.12-1.15.59-1.17,1.34-.02.75.64,1.36,1.38,1.32Z"/>
    <path class="cls-24" d="M243.66,171.74c.75.03,1.36-.62,1.34-1.38-.02-.75-.67-1.34-1.42-1.29-.75.05-1.31.71-1.23,1.48.09.77.57,1.16,1.31,1.19Z"/>
    <path class="cls-24" d="M149.25,203.66c-.76.05-1.33.72-1.23,1.47.1.76.58,1.16,1.31,1.2.75.05,1.36-.61,1.33-1.37-.03-.77-.66-1.36-1.41-1.3Z"/>
    <path class="cls-24" d="M155.22,203.66c-.74.02-1.35.67-1.28,1.43.06.76.53,1.18,1.26,1.25.73.07,1.39-.59,1.39-1.33,0-.74-.62-1.36-1.38-1.34Z"/>
    <path class="cls-24" d="M270.4,163.44c.73.08,1.42-.54,1.45-1.25.03-.72-.61-1.38-1.33-1.39-.74-.01-1.4.63-1.33,1.36.06.72.46,1.2,1.21,1.28Z"/>
    <path class="cls-24" d="M142.62,215.77c.74-.02,1.32-.67,1.29-1.42-.04-.77-.69-1.36-1.42-1.26-.74.1-1.16.55-1.19,1.3-.03.76.6,1.39,1.33,1.37Z"/>
    <path class="cls-24" d="M170.65,181.25c.7.05,1.4-.6,1.41-1.32,0-.7-.66-1.41-1.36-1.38-.75.03-1.19.47-1.28,1.21-.09.71.54,1.43,1.24,1.49Z"/>
    <path class="cls-24" d="M138.2,224.58c.46.62,1.08.73,1.72.32.64-.41.75-1.03.5-1.72-.16-.45-.57-.68-.89-.99-.4.2-.87.33-1.19.63-.55.5-.58,1.16-.13,1.77Z"/>
    <path class="cls-24" d="M139.53,222.19h-.02s.01,0,.02,0c0,0,0,0,0,0Z"/>
    <path class="cls-24" d="M240.14,180.72c-.72.03-1.31.68-1.24,1.43.07.74.5,1.16,1.25,1.21.76.05,1.35-.54,1.34-1.31-.01-.76-.61-1.36-1.35-1.33Z"/>
    <path class="cls-24" d="M154.16,199.63c.74-.03,1.31-.67,1.26-1.43-.05-.75-.71-1.32-1.44-1.22-.75.1-1.13.58-1.15,1.32-.02.76.6,1.36,1.34,1.33Z"/>
    <path class="cls-24" d="M189.72,163.72c.75.05,1.36-.57,1.35-1.32-.01-.75-.64-1.36-1.36-1.33-.73.03-1.31.69-1.24,1.44.07.75.51,1.16,1.25,1.21Z"/>
    <path class="cls-24" d="M216.11,173.13c-.04.75.59,1.38,1.32,1.35.73-.03,1.31-.67,1.27-1.42-.04-.75-.68-1.32-1.42-1.23-.75.09-1.13.57-1.17,1.3Z"/>
    <path class="cls-24" d="M186.42,163.71c.75.12,1.41-.41,1.48-1.16.07-.75-.48-1.42-1.2-1.47-.73-.05-1.38.53-1.39,1.28,0,.74.36,1.22,1.11,1.34Z"/>
    <path class="cls-24" d="M231.47,162.51c.75-.04,1.17-.47,1.26-1.21.09-.76-.48-1.41-1.22-1.44-.74-.03-1.36.57-1.38,1.31-.01.74.59,1.37,1.34,1.33Z"/>
    <path class="cls-24" d="M258.6,153.51c.77-.07,1.14-.52,1.19-1.19-.04-.83-.71-1.42-1.45-1.32-.75.1-1.14.58-1.18,1.32-.04.75.61,1.26,1.44,1.19Z"/>
    <path class="cls-24" d="M220.66,151.81c.68.05,1.36-.68,1.34-1.38-.02-.7-.72-1.36-1.4-1.32-.7.05-1.33.77-1.22,1.47.11.72.55,1.17,1.29,1.22Z"/>
    <path class="cls-24" d="M284.88,163.34c-.68,0-1.08.38-1.18,1.05-.11.8.38,1.32,1.25,1.39.74.06,1.08-.31,1.18-.93.06-.81-.52-1.51-1.25-1.51Z"/>
  </g>
  <g class="cls-21">
    <g>
      <path class="cls-9" d="M139.53,222.19s0-.01,0-.02c0,0-.02,0-.03,0h.02Z"/>
      <path class="cls-12" d="M294.8,163.99c-.37.71-.87,1.32-1.46,1.83-1.13.98-2.36.61-2.87-.79-.45-1.23-.85-2.48-.83-3.82,0-.31,0-.71-.41-.78-.5-.09-.69.32-.77.7-.23,1.05-.03,2.08.2,3.11.2.91-.11,1.54-1.12,1.69-1.1.16-2.2.37-3.3.48-1.05.11-1.51-.22-1.5-1.29.03-2.4-.81-4.63-1.22-6.94-.07-.37-.02-.82-.64-.93-.7.73-.63,1.58-.35,2.48.78,2.52.57,5.03-.03,7.54-.19.79-.62,1.45-1.24,1.96-1.16.95-2.46,1.65-3.95,1.98-.34-1.72-.76-2.24-1.65-2.15-.34.04-.6.21-.85.44-.67.62-.12,1.44-.21,2.13-.46-.03-.55-.29-.66-.52-.34-.69-.79-1.26-1.65-1.11-.73.13-1.12.68-1.16,1.4-.06.98-.7,1.13-1.49,1.16-.72.03-1.44.06-2.15.17-.91.13-1.81.47-1.99-1-.08-.6-.86-.74-1.42-.89-1.63-.45-3.26-.32-4.84.19-1.27.41-2.65.59-3.28,2.16-.3.74-1.34.77-2.11.57-.7-.19-.66-.9-.65-1.49.04-1.98.13-4.04,1.06-5.75,1.16-2.13,2.3-4.4,4.82-5.46,1.06-.44,1.79-1.38,2.1-2.94-.99.76-1.68,1.32-2.4,1.83-.26.18-.6.36-.91.15-.32-.21-.23-.57-.17-.89.38-1.93,1.1-3.62,3.36-4.38-1.54-.31-1.53-.31-2.23.09-1.15.67-1.77,1.71-2.12,2.95-.5,1.78-1.26,3.45-2.32,4.96-.73,1.04-1.32,1.08-2.24.24-1.19-1.09-1.56-2.52-1.64-4.07-.04-.82.16-1.65-.08-2.45-.54-.01-.68.34-.77.61-.69,2.15-.65,4.25.58,6.23.31.5.64.99.94,1.5.63,1.07.27,2.15.02,3.24-.19.82-.71,1.1-1.44,1.4-1.3.54-1.39,1.58-.27,2.59.45.41.98.71.74,1.42-.21.62-.81.6-1.32.67-4.25.55-8.28,1.89-12.28,3.37-.12.05-.25.09-.37.13-.37.11-.79.34-1.04-.13-.23-.44-.68-.88-.3-1.43.25-.37.65-.65.72-1.14.11-.75-.17-1.3-.89-1.55-.64-.22-1.46.02-1.46.58.01,1.37-.67,2.48-.97,3.72-.05.22.16.49.22.74.05.18.14.45.06.55-.61.76-1.54.97-2.4,1.2-.71.2-1.04-.42-1.28-.97-.94-2.19-1.48-4.49-1.59-6.85-.09-2-.52-4.01.23-6.02.8-2.14,1.16-2.42,3.45-2.05,1.42.23,2.82.29,4-.96-1.77.53-3.34-.12-4.95-.56-.12-.03-.26-.03-.39-.04q-1.68-.14-2.09-1.82c-.12-.51-.21-1.03-.36-1.53-.16-.52-.08-1.38-.85-1.28-.66.09-.37.86-.39,1.34-.02.52.06,1.05.06,1.57,0,1.18.02,2.36-.03,3.53-.05,1.04-.27,2.05-1.02,3.04-.84-.75-1.64-1.4-2.36-2.13-.73-.75-1.29-1.69-2.09-2.33-.8-.64-.64-1.99-1.81-2.35-.46.9-.14,1.63.18,2.35.69,1.51,1.65,2.84,2.84,3.97,1.05.99,1.73,2.12,1.94,3.53-.36-.27-.71-.57-1.2-.57-.77,0-1.43.53-1.47,1.25-.03.72.3,1.27,1.01,1.47.73.2,1.25-.16,1.57-.81.21-.43.15-.88.09-1.33.32.53.31,1.13.38,1.71.33,2.67.75,5.31,1.79,7.82.79,1.88.72,2.11-.97,3.2-2.98,1.94-5.72,4.13-7.92,6.97-1.49,1.92-4.74,2.6-7.19,1.26-1.67-.92-1.56-2.85-1.51-4.56.02-.52.05-1.05.1-1.57.27-2.76-.33-5.33-1.69-7.74-.74-1.31-1.5-2.61-2.2-3.94-.77-1.47-1.33-2.96-.81-4.69.18-.6.1-1.31.04-1.95-.12-1.17-.68-2.1-1.84-2.79,1.16,2.43.71,4.72-.19,6.97-.64.1-.96-.31-1.2-.65-.8-1.08-1.98-1.69-2.94-2.57-.28-.25-.67-.62-1.01-.29-.44.43-.02.87.28,1.19.62.67,1.49,1.11,1.95,1.92,1.39,2.44,3.21,4.62,4.45,7.16-.52-.03-1.04-.17-1.54.07-.51.24-.81.66-.81,1.23,0,.66.34,1.11.97,1.31.57.19,1.03-.03,1.4-.44.32-.35.41-.8.47-1.26,1.07,1.64,1.55,3.42,1.45,5.39-.1,1.89-.12,3.79-.14,5.68-.01,1.04-.51,1.54-1.52,1.66-3.52.42-6.92,1.34-10.32,2.31-.55.16-1.11.45-1.72.25-2.51-.85-5.13-.78-7.72-.95-2.05-.14-3.01-.97-3.51-3.03-.12-.48,0-1.08-.72-1.31-.99,1.03-.42,2.31-.43,3.88-1.96-2.11-3.73-3.89-5.36-5.8-1.1-1.28-.99-1.46.54-2.34.57-.33.85-.81.73-1.47-.11-.66-.54-1.04-1.19-1.11-.99-.11-2.7,1.76-2.43,2.71.42,1.51.93,2.99,2.11,4.14.75.73,1.53,1.47,2.08,2.34,1.23,1.92,2.74,3.45,5.2,4.17-1.1.43-1.64.98-1.37,1.91.26.88.98,1.16,1.85,1.11.43-.49.87-1,.79-1.71-.08-.79.31-1.07,1.02-1.04.89.04,1.78.11,3.14.2-1.77,1.34-3.42,1.83-4.95,2.56-2.37,1.25-4.79,2.41-7.08,3.78-2.1,1.25-4.34,1.72-6.72,1.7-.74,0-1.42.18-2.12.32-.34.07-.64.25-.6.64.03.27.32.38.57.48.73.31,1.62-.03,2.56.52-3.38,1.99-6.33,4.15-9.6,5.81-.11.09-.23.18-.34.27-3.01,2.13-3.94,2.16-6.86.22-.22-.14-.4-.33-.62-.47-1.81-1.16-3.62-2.33-5-4.03-.21-.25-.51-.5-.84-.31-.43.25-.31.66-.16,1.03.23.56.66.97,1.08,1.38,1.26,1.23,2.53,2.45,3.78,3.69.47.46,1.05,1.01.29,1.63-2.21,1.83-4.12,4.02-6.69,5.39-.65.35-1.25.69-1.35,1.51,1.35-.09,2.45-.76,3.53-1.51,3.06-2.12,6.09-4.21,10.07-4.41,1.71-.08,3.41-.88,4.9-1.89,2.82-1.9,5.7-3.72,8.68-5.36,4.25-2.32,8.49-4.66,12.76-6.93,1.67-.89,3.44-1.58,5.24-2.21,5.66-1.97,11.52-2.91,17.43-3.66,2.04-.26,4.02-.18,6.05.15,1.99.32,3.63,1.94,3.89,2.5,0,0,0,.01,0,.02h0c1.36,2.96,4.46,8.08,11.18,13.71,7.28,6.09,11.02,11.89,10.27,15.9-.7,3.76-1.95,8-9.37,18.51l.05.03c-2.34,3.76-14.9,25.55-6.75,47.03l-3.48,1.94,11.27,6.74.2-13.13-3.34,1.86c-7.18-20.37,6.7-41.87,6.85-42.09l2.93-4.42c5.03-7.86,6.14-11.86,6.82-15.5,1.45-7.73-5.76-15.64-12.07-20.91-5.26-4.4-7.94-8.35-9.26-10.83-1.08-3,1.96-5.67,1.96-5.67,1.99-2.1,4.2-3.94,6.54-5.62,3.48-2.49,7.4-4.16,11.35-5.76,3.16-1.28,6.35-2.43,9.74-2.96,2.2-.35,4.41-.49,6.63-.66,4.93-.38,9.8-1.51,14.8-1.2,1.29.08,2.51-.61,3.82-.79,4.16-.58,8.05-1.82,10.82-5.3.71-.9,1.68-1.37,2.8-1.69,1.88-.55,3.76-.3,5.65-.24,2.75.09,4.55-1.88,4.24-4.73-.55.07-.74.51-.94.9ZM257.22,173.33c-.19-.01-.23-.12-.06-.32,1.44-.46,2.93-.89,4.51-.17-1.47.22-2.93.6-4.44.49Z"/>
      <path class="cls-9" d="M156.43,211.52c.65-.71-.51-1.75.36-2.34.69-.47,1.51-.76,2.27-1.14.23-.12.46-.25.67-.4.53-.36,1.27-.7.87-1.5-.42-.82-1.11-.38-1.7-.12-.12.05-.24.12-.34.19-2,1.4-4.23,1.6-6.56,1.31-.45-.06-.91-.16-1.36-.12-.6.05-1.15.53-.78,1.03.58.77.35,1.36.15,2.13-.21.83.51,1.58,1.31,1.58.72,0,1.29-.6,1.37-1.39.05-.46-.46-.79-.25-1.3.76.06,1.42.15,1.44,1.17.03,1.31.9,1.61,2.02,1.53.11-.09.23-.18.34-.27.06-.11.1-.25.19-.34Z"/>
      <path class="cls-9" d="M210.39,181.49c.7.97,1.58.53,2.41.07.33,1.55-.24,3.05.53,4.38.06.05.12.1.19.15,1.14-.33,1.22-1.22,1.19-2.19-.07-1.79.29-3.48,1.2-5.17.2.24.32.4.45.54.52.54,1.11.68,1.76.24.54-.37.77-.9.55-1.54-.24-.7-.78-1.02-1.52-.98-.39.03-.78.15-1.16-.02-1.09-.49-1.53.18-1.94,1.02-.33.68-.35,1.52-1.05,2.12-.77-.59-1.54-1.26-2.44-.41-.55.51-.61,1.17-.17,1.78Z"/>
      <path class="cls-9" d="M185.73,201.62c-.19.05-.5.13-.81.23-2.04.69-4.1,1.35-6.12,2.1-1.92.7-3.62,1.81-5.29,2.97-.49.34-1.06.75-.67,1.42.47.81,1.12.35,1.7.06.17-.09.34-.2.5-.31,2.16-1.52,4.52-2.59,7.07-3.31,1.44-.41,2.84-1,4.23-1.56.45-.18.73-.58.51-1.12-.18-.43-.56-.5-1.12-.48Z"/>
      <path class="cls-9" d="M183.49,187.19c-.14.78.52.97,1.09,1.13.38.1.77.14,1.16.2,1.81.24,3.68.31,4.85,2.08.26.4.78.53,1.22.19.54-.43.35-.95.01-1.39-.9-1.14-1.87-2.2-3.44-2.39-1.17-.14-2.33-.32-3.5-.48-.62-.11-1.26-.1-1.39.66Z"/>
      <path class="cls-9" d="M270.88,154.55c.16.64.94.86,1.37.33.32-.39.53-.9.7-1.38.49-1.34,1-2.58,2.81-2.42.48.04.89-.27.86-.85-.03-.45-.36-.68-.76-.78-.31-.07-.64-.08-.8-.1-2.23.04-4.67,3.2-4.17,5.19Z"/>
      <path class="cls-9" d="M211.51,186.69c-.29.79-.67.71-1.32.53-.72-.2-1.25.21-1.49.91-.21.62-.03,1.16.5,1.54.55.4,1.1.29,1.61-.11.44-.35.75-.78,1.43-.87,1.83-.24,2.05-.8,1.28-2.61-.06-.05-.13-.1-.18-.15-.74-.06-1.54-.05-1.83.75Z"/>
      <path class="cls-9" d="M256.88,177.95c-.55.13-1.04.56-1.62.33-.76-.18-1.34.03-1.69.68-.27.49-.23,1.02.12,1.46.53.68,1.21.7,1.9.28.57-.35,1.14-.05,1.7-.1.89-.07,1.45-.76,1.32-1.57-.12-.81-.85-1.29-1.73-1.08Z"/>
      <path class="cls-9" d="M149.06,219.76c-1.58.33-3.16,1.26-4.73,2.2-.47.28-.88.68-.58,1.28.37.73.98.51,1.52.22,1.45-.76,2.85-1.61,4.44-2.07.47-.13.84-.47.71-1.01-.13-.53-.6-.64-1.35-.62Z"/>
      <path class="cls-9" d="M219.47,181.73c-.85.22-1.42.16-2.05-.49-.46-.47-1.1-.32-1.58.14-.4.38-.59.86-.39,1.41.22.61.7,1.07,1.32.9.83-.22,1.36-.11,2.05.47.82.68,2.03-.09,2.03-1.16,0-.74-.64-1.47-1.38-1.28Z"/>
      <path class="cls-9" d="M226.81,159.59c-.04.73.54,1.39,1.28,1.43.74.04,1.38-.55,1.41-1.29.03-.73-.57-1.41-1.28-1.45-.71-.04-1.37.57-1.41,1.31Z"/>
      <path class="cls-9" d="M283.81,160.45c-.03.72.59,1.41,1.28,1.45.69.04,1.37-.59,1.42-1.31.05-.73-.54-1.38-1.28-1.42-.75-.04-1.39.54-1.42,1.28Z"/>
      <path class="cls-9" d="M178.85,181.7c.73-.03,1.31-.69,1.27-1.44-.04-.74-.7-1.35-1.41-1.31-.71.05-1.33.73-1.29,1.44.04.71.72,1.34,1.42,1.31Z"/>
      <path class="cls-9" d="M198.81,176.2c-.02-.75-.64-1.33-1.39-1.31-.74.02-1.34.66-1.31,1.39.03.72.7,1.37,1.39,1.35.69-.02,1.32-.71,1.31-1.43Z"/>
      <path class="cls-9" d="M232.97,167.77c-.02-.69-.69-1.36-1.38-1.37-.71,0-1.32.66-1.31,1.4.01.74.65,1.37,1.36,1.36.7,0,1.34-.68,1.32-1.4Z"/>
      <path class="cls-9" d="M150.44,202.71c.75.03,1.39-.55,1.42-1.29.03-.72-.57-1.38-1.3-1.42-.74-.04-1.36.53-1.4,1.3-.04.77.52,1.39,1.27,1.42Z"/>
      <path class="cls-9" d="M251.27,157.21c.7.02,1.36-.61,1.4-1.34.03-.73-.57-1.39-1.3-1.41-.74-.03-1.37.57-1.39,1.32-.02.73.59,1.41,1.3,1.43Z"/>
      <path class="cls-9" d="M228.45,177.33c.72.02,1.37-.7,1.33-1.42-.04-.74-.73-1.36-1.45-1.3-.73.06-1.3.76-1.2,1.52.11.75.56,1.18,1.31,1.2Z"/>
      <path class="cls-9" d="M224.29,150.62c.72.08,1.36-.61,1.35-1.37,0-.75-.67-1.4-1.38-1.35-.72.05-1.36.76-1.27,1.47.09.75.58,1.17,1.3,1.25Z"/>
      <path class="cls-9" d="M202.69,183.16c-.01-.73-.66-1.36-1.37-1.33-.71.03-1.31.7-1.3,1.42.02.74.65,1.36,1.37,1.33.7-.02,1.31-.68,1.29-1.42Z"/>
      <path class="cls-9" d="M245.58,179.35c-.71-.07-1.4.61-1.41,1.33-.01.71.66,1.39,1.37,1.38.72,0,1.35-.69,1.28-1.44-.07-.74-.49-1.21-1.24-1.28Z"/>
      <path class="cls-9" d="M238.52,154.94c.71.02,1.34-.62,1.35-1.35,0-.74-.6-1.38-1.31-1.39-.73-.01-1.35.61-1.35,1.34,0,.73.61,1.38,1.32,1.4Z"/>
      <path class="cls-9" d="M178.83,177.34c.72-.01,1.32-.66,1.3-1.41-.02-.74-.64-1.36-1.36-1.34-.74.02-1.33.65-1.3,1.4.03.74.66,1.36,1.37,1.35Z"/>
      <path class="cls-9" d="M214.99,164.08c-.73.03-1.32.72-1.23,1.48.09.74.51,1.2,1.28,1.23.72.04,1.38-.66,1.37-1.38-.01-.72-.7-1.36-1.42-1.33Z"/>
      <path class="cls-9" d="M246.45,166.79c.72.01,1.39-.65,1.39-1.37,0-.72-.69-1.39-1.41-1.34-.76.06-1.18.52-1.25,1.27-.07.76.54,1.43,1.27,1.45Z"/>
      <path class="cls-9" d="M250.83,178.66c-.71.05-1.33.77-1.24,1.5.09.75.55,1.17,1.31,1.21.75.03,1.39-.63,1.35-1.37-.03-.73-.73-1.38-1.42-1.34Z"/>
      <path class="cls-9" d="M299.23,164.1c-.75.07-1.18.54-1.28,1.27-.1.73.53,1.41,1.27,1.44.74.03,1.41-.62,1.4-1.34-.01-.72-.71-1.43-1.39-1.37Z"/>
      <path class="cls-9" d="M205.73,174.52c.69,0,1.37-.71,1.32-1.43-.05-.75-.49-1.19-1.24-1.26-.75-.07-1.42.54-1.43,1.28-.01.72.66,1.42,1.35,1.41Z"/>
      <path class="cls-9" d="M277.78,168.19c.71-.05,1.31-.71,1.27-1.44-.03-.74-.68-1.34-1.4-1.3-.71.04-1.3.71-1.27,1.44.03.74.68,1.34,1.4,1.29Z"/>
      <path class="cls-9" d="M266.24,177.87c-.7-.01-1.38.68-1.35,1.41.04.75.46,1.21,1.21,1.3.76.09,1.43-.51,1.45-1.26.02-.73-.62-1.44-1.32-1.45Z"/>
      <path class="cls-9" d="M258.67,169.15c.71,0,1.36-.65,1.37-1.36,0-.69-.65-1.37-1.34-1.39-.7-.02-1.33.62-1.34,1.36,0,.74.61,1.39,1.31,1.39Z"/>
      <path class="cls-9" d="M228.17,169.42c.71,0,1.35-.7,1.32-1.44-.03-.75-.7-1.35-1.45-1.27-.75.09-1.18.54-1.22,1.3-.04.73.64,1.42,1.35,1.41Z"/>
      <path class="cls-9" d="M287.08,170.56c-.72.04-1.29.69-1.25,1.44.03.74.68,1.34,1.4,1.29.71-.05,1.29-.72,1.26-1.45-.03-.75-.65-1.32-1.4-1.28Z"/>
      <path class="cls-9" d="M179.87,185.31c-.67-.04-1.36.59-1.41,1.3-.05.71.53,1.38,1.26,1.42.73.04,1.38-.54,1.41-1.27.03-.7-.59-1.41-1.26-1.46Z"/>
      <path class="cls-9" d="M231.32,171.55c-.05-.75-.74-1.34-1.46-1.27-.73.08-1.28.78-1.16,1.54.12.75.58,1.17,1.33,1.17.73,0,1.34-.72,1.29-1.45Z"/>
      <path class="cls-9" d="M220.58,159.76c.75.08,1.42-.54,1.44-1.28.02-.72-.64-1.42-1.34-1.42-.7,0-1.38.69-1.33,1.42.05.75.48,1.2,1.24,1.28Z"/>
      <path class="cls-9" d="M214.98,159.26c.72.07,1.41-.6,1.43-1.32.02-.72-.64-1.4-1.36-1.4-.72,0-1.35.67-1.3,1.43.06.74.47,1.22,1.23,1.29Z"/>
      <path class="cls-9" d="M188.78,190.69c-.76.11-1.14.61-1.17,1.35-.03.74.66,1.38,1.39,1.34.74-.04,1.33-.71,1.26-1.46-.06-.77-.73-1.33-1.48-1.22Z"/>
      <path class="cls-9" d="M220.02,174.23c-.7-.02-1.37.6-1.41,1.31-.03.69.59,1.38,1.3,1.42.7.05,1.35-.57,1.38-1.31.03-.74-.56-1.4-1.27-1.42Z"/>
      <path class="cls-9" d="M283.54,157.67c.72.12,1.39-.5,1.43-1.27.04-.76-.56-1.44-1.28-1.44-.72,0-1.4.66-1.36,1.39.04.75.48,1.21,1.21,1.32Z"/>
      <path class="cls-9" d="M201.01,154.08c.7,0,1.36-.7,1.34-1.43-.02-.74-.68-1.35-1.44-1.27-.76.07-1.18.53-1.23,1.28-.05.73.63,1.42,1.33,1.42Z"/>
      <path class="cls-9" d="M189.09,199.42c-.73-.05-1.44.55-1.48,1.25-.04.71.6,1.43,1.31,1.43.75,0,1.21-.44,1.33-1.17.13-.76-.43-1.46-1.16-1.51Z"/>
      <path class="cls-9" d="M256.2,163.67c-.72-.01-1.39.65-1.39,1.37,0,.73.68,1.4,1.39,1.35.76-.06,1.17-.53,1.25-1.26.08-.76-.53-1.44-1.26-1.45Z"/>
      <path class="cls-9" d="M261.43,157.7c.71-.05,1.27-.74,1.22-1.48-.06-.75-.71-1.33-1.43-1.27-.72.06-1.29.74-1.22,1.47.07.73.74,1.33,1.43,1.28Z"/>
      <path class="cls-9" d="M169.98,202.68c.76.03,1.37-.52,1.4-1.27.03-.75-.55-1.39-1.27-1.41-.73-.02-1.37.56-1.41,1.29-.04.74.53,1.36,1.28,1.39Z"/>
      <path class="cls-9" d="M224.92,155.52c.03.75.67,1.34,1.39,1.29.71-.05,1.3-.72,1.26-1.45-.03-.74-.68-1.33-1.4-1.29-.71.04-1.28.7-1.26,1.45Z"/>
      <path class="cls-9" d="M176.74,198.25c-.02-.76-.63-1.36-1.35-1.35-.73.02-1.32.65-1.3,1.39.02.72.66,1.37,1.36,1.36.71,0,1.31-.66,1.29-1.41Z"/>
      <path class="cls-9" d="M222.85,179.65c0-.72-.67-1.41-1.35-1.4-.7,0-1.35.71-1.28,1.45.07.74.48,1.2,1.24,1.27.73.07,1.39-.58,1.39-1.32Z"/>
      <path class="cls-9" d="M262.43,178.22c-.71.04-1.31.74-1.25,1.48.06.77.52,1.18,1.25,1.25.72.07,1.35-.59,1.35-1.36,0-.76-.65-1.41-1.35-1.37Z"/>
      <path class="cls-9" d="M271.23,150.31c.72-.04,1.29-.69,1.26-1.43-.03-.74-.68-1.35-1.38-1.31-.72.04-1.29.69-1.25,1.44.03.75.66,1.34,1.38,1.3Z"/>
      <path class="cls-9" d="M209.95,185.26c.74.1,1.42-.5,1.46-1.24.03-.72-.6-1.44-1.29-1.47-.69-.03-1.41.66-1.36,1.38.05.73.44,1.23,1.19,1.33Z"/>
      <path class="cls-9" d="M232.21,184.71c.03.74.41,1.23,1.16,1.34.73.11,1.4-.5,1.44-1.25.04-.74-.56-1.43-1.27-1.46-.71-.03-1.37.62-1.33,1.37Z"/>
      <path class="cls-9" d="M273.64,153.87c-.07.72.61,1.42,1.31,1.42.69,0,1.35-.7,1.33-1.42-.01-.75-.68-1.37-1.42-1.29-.75.08-1.16.56-1.23,1.29Z"/>
      <path class="cls-9" d="M156.44,188.77c.71-.01,1.31-.66,1.3-1.4-.01-.74-.64-1.36-1.35-1.35-.72.02-1.31.66-1.3,1.4.01.74.64,1.37,1.35,1.35Z"/>
      <path class="cls-9" d="M209.88,157.21c.73.04,1.35-.57,1.36-1.34.02-.77-.58-1.39-1.34-1.34-.75.05-1.18.49-1.26,1.23-.08.76.49,1.42,1.24,1.46Z"/>
      <path class="cls-9" d="M237.78,156.65c-.03.73.66,1.4,1.36,1.39.71-.01,1.33-.71,1.29-1.44-.05-.75-.72-1.35-1.45-1.26-.75.1-1.16.57-1.19,1.31Z"/>
      <path class="cls-9" d="M194.4,189.76c0,.73.61,1.37,1.32,1.38.71,0,1.33-.63,1.33-1.36,0-.73-.61-1.38-1.32-1.38-.7,0-1.33.64-1.33,1.37Z"/>
      <path class="cls-9" d="M208.07,160.79c.71,0,1.35-.7,1.31-1.43-.04-.75-.71-1.36-1.44-1.28-.75.09-1.17.55-1.21,1.3-.04.73.64,1.41,1.34,1.41Z"/>
      <path class="cls-9" d="M220.21,161.78c-.03.74.65,1.37,1.37,1.33.71-.05,1.31-.74,1.26-1.47-.05-.75-.73-1.31-1.48-1.2-.76.11-1.12.62-1.15,1.34Z"/>
      <path class="cls-9" d="M292.12,164.32c.69.1,1.39-.56,1.44-1.29.05-.73-.56-1.4-1.3-1.41-.72-.01-1.4.65-1.35,1.38.05.73.46,1.22,1.2,1.32Z"/>
      <path class="cls-9" d="M188.92,167.1c.71,0,1.38-.67,1.34-1.4-.05-.74-.45-1.22-1.2-1.31-.71-.08-1.41.56-1.45,1.28-.04.72.6,1.41,1.32,1.42Z"/>
      <path class="cls-9" d="M157.72,196.32c-.73.06-1.2.48-1.3,1.22-.1.74.5,1.44,1.23,1.47.71.03,1.4-.61,1.43-1.32.02-.71-.66-1.43-1.36-1.37Z"/>
      <path class="cls-9" d="M219.18,168.4c-.07-.73-.48-1.2-1.24-1.28-.73-.07-1.4.57-1.4,1.31,0,.72.66,1.4,1.35,1.4.71,0,1.36-.7,1.29-1.43Z"/>
      <path class="cls-9" d="M158.69,200.77c.02-.7-.65-1.4-1.36-1.4-.72,0-1.37.67-1.31,1.41.06.74.49,1.2,1.24,1.29.71.09,1.41-.58,1.43-1.3Z"/>
      <path class="cls-9" d="M225.66,171.59c-.06.71.65,1.41,1.34,1.39.69-.02,1.34-.73,1.32-1.44-.03-.74-.71-1.36-1.45-1.26-.76.1-1.15.59-1.21,1.31Z"/>
      <path class="cls-9" d="M179.79,173.26c.74-.13,1.15-.6,1.16-1.36,0-.76-.65-1.34-1.42-1.29-.77.05-1.33.71-1.25,1.46.08.75.77,1.32,1.52,1.19Z"/>
      <path class="cls-9" d="M162.28,202.7c.75-.01,1.35-.66,1.28-1.42-.07-.73-.47-1.21-1.23-1.27-.75-.06-1.37.55-1.38,1.33-.01.78.58,1.38,1.34,1.37Z"/>
      <path class="cls-9" d="M238.96,173.06c-.07.72.58,1.42,1.28,1.45.7.03,1.37-.64,1.36-1.36,0-.74-.66-1.37-1.39-1.32-.76.05-1.19.49-1.26,1.24Z"/>
      <path class="cls-9" d="M144.85,207.81c.74.05,1.39-.54,1.39-1.32,0-.74-.37-1.25-1.12-1.39-.74-.13-1.42.43-1.49,1.21-.07.77.47,1.45,1.22,1.5Z"/>
      <path class="cls-9" d="M236.75,176.1c.71-.01,1.35-.7,1.28-1.44-.08-.73-.49-1.2-1.24-1.27-.74-.07-1.39.57-1.39,1.31,0,.73.66,1.4,1.36,1.39Z"/>
      <path class="cls-9" d="M168.1,209.93c-.75.03-1.42.72-1.41,1.4.02.71.72,1.35,1.43,1.29.7-.06,1.32-.78,1.22-1.49-.1-.73-.54-1.15-1.25-1.19Z"/>
      <path class="cls-9" d="M140.44,218.3c.72-.03,1.35-.71,1.29-1.44-.07-.75-.52-1.18-1.25-1.25-.72-.07-1.37.6-1.38,1.33,0,.75.63,1.39,1.35,1.36Z"/>
      <path class="cls-9" d="M205.72,157.68c.7,0,1.35-.71,1.31-1.43-.04-.75-.72-1.37-1.44-1.28-.75.09-1.17.56-1.21,1.3-.04.71.65,1.42,1.34,1.41Z"/>
      <path class="cls-9" d="M183.34,177.31c.69.02,1.37-.66,1.38-1.38,0-.73-.66-1.4-1.38-1.34-.75.06-1.17.53-1.26,1.26-.09.72.56,1.44,1.27,1.46Z"/>
      <path class="cls-9" d="M199.4,190.11c-.08.71.55,1.42,1.27,1.46.72.05,1.38-.59,1.38-1.33,0-.74-.65-1.42-1.37-1.36-.74.06-1.2.49-1.29,1.24Z"/>
      <path class="cls-9" d="M147.17,201.48c.77-.06,1.16-.52,1.21-1.27.05-.77-.54-1.42-1.28-1.43-.73-.01-1.34.63-1.33,1.39.02.76.64,1.37,1.39,1.31Z"/>
      <path class="cls-9" d="M187.89,176.15c-.74-.09-1.39.48-1.44,1.23-.05.74.54,1.39,1.28,1.41.72.02,1.37-.61,1.34-1.36-.03-.74-.44-1.2-1.18-1.29Z"/>
      <path class="cls-9" d="M206.8,176.67c-.71.05-1.32.76-1.24,1.48.08.74.53,1.17,1.28,1.21.7.03,1.36-.67,1.36-1.38,0-.72-.7-1.37-1.4-1.32Z"/>
      <path class="cls-9" d="M267.33,166.7c.7.04,1.4-.62,1.39-1.33,0-.7-.69-1.4-1.38-1.36-.75.04-1.19.48-1.27,1.23-.07.72.56,1.43,1.26,1.47Z"/>
      <path class="cls-9" d="M159.65,187.46c.74-.04,1.33-.71,1.27-1.45-.06-.75-.75-1.33-1.48-1.21-.74.12-1.15.59-1.17,1.34-.02.75.64,1.36,1.38,1.32Z"/>
      <path class="cls-9" d="M243.66,171.74c.75.03,1.36-.62,1.34-1.38-.02-.75-.67-1.34-1.42-1.29-.75.05-1.31.71-1.23,1.48.09.77.57,1.16,1.31,1.19Z"/>
      <path class="cls-9" d="M149.25,203.66c-.76.05-1.33.72-1.23,1.47.1.76.58,1.16,1.31,1.2.75.05,1.36-.61,1.33-1.37-.03-.77-.66-1.36-1.41-1.3Z"/>
      <path class="cls-9" d="M155.22,203.66c-.74.02-1.35.67-1.28,1.43.06.76.53,1.18,1.26,1.25.73.07,1.39-.59,1.39-1.33,0-.74-.62-1.36-1.38-1.34Z"/>
      <path class="cls-9" d="M270.4,163.44c.73.08,1.42-.54,1.45-1.25.03-.72-.61-1.38-1.33-1.39-.74-.01-1.4.63-1.33,1.36.06.72.46,1.2,1.21,1.28Z"/>
      <path class="cls-9" d="M142.62,215.77c.74-.02,1.32-.67,1.29-1.42-.04-.77-.69-1.36-1.42-1.26-.74.1-1.16.55-1.19,1.3-.03.76.6,1.39,1.33,1.37Z"/>
      <path class="cls-9" d="M170.65,181.25c.7.05,1.4-.6,1.41-1.32,0-.7-.66-1.41-1.36-1.38-.75.03-1.19.47-1.28,1.21-.09.71.54,1.43,1.24,1.49Z"/>
      <path class="cls-9" d="M138.2,224.58c.46.62,1.08.73,1.72.32.64-.41.75-1.03.5-1.72-.16-.45-.57-.68-.89-.99-.4.2-.87.33-1.19.63-.55.5-.58,1.16-.13,1.77Z"/>
      <path class="cls-9" d="M139.53,222.19h-.02s.01,0,.02,0c0,0,0,0,0,0Z"/>
      <path class="cls-9" d="M240.14,180.72c-.72.03-1.31.68-1.24,1.43.07.74.5,1.16,1.25,1.21.76.05,1.35-.54,1.34-1.31-.01-.76-.61-1.36-1.35-1.33Z"/>
      <path class="cls-9" d="M154.16,199.63c.74-.03,1.31-.67,1.26-1.43-.05-.75-.71-1.32-1.44-1.22-.75.1-1.13.58-1.15,1.32-.02.76.6,1.36,1.34,1.33Z"/>
      <path class="cls-9" d="M189.72,163.72c.75.05,1.36-.57,1.35-1.32-.01-.75-.64-1.36-1.36-1.33-.73.03-1.31.69-1.24,1.44.07.75.51,1.16,1.25,1.21Z"/>
      <path class="cls-9" d="M216.11,173.13c-.04.75.59,1.38,1.32,1.35.73-.03,1.31-.67,1.27-1.42-.04-.75-.68-1.32-1.42-1.23-.75.09-1.13.57-1.17,1.3Z"/>
      <path class="cls-9" d="M186.42,163.71c.75.12,1.41-.41,1.48-1.16.07-.75-.48-1.42-1.2-1.47-.73-.05-1.38.53-1.39,1.28,0,.74.36,1.22,1.11,1.34Z"/>
      <path class="cls-9" d="M231.47,162.51c.75-.04,1.17-.47,1.26-1.21.09-.76-.48-1.41-1.22-1.44-.74-.03-1.36.57-1.38,1.31-.01.74.59,1.37,1.34,1.33Z"/>
      <path class="cls-9" d="M258.6,153.51c.77-.07,1.14-.52,1.19-1.19-.04-.83-.71-1.42-1.45-1.32-.75.1-1.14.58-1.18,1.32-.04.75.61,1.26,1.44,1.19Z"/>
      <path class="cls-9" d="M220.66,151.81c.68.05,1.36-.68,1.34-1.38-.02-.7-.72-1.36-1.4-1.32-.7.05-1.33.77-1.22,1.47.11.72.55,1.17,1.29,1.22Z"/>
      <path class="cls-9" d="M284.88,163.34c-.68,0-1.08.38-1.18,1.05-.11.8.38,1.32,1.25,1.39.74.06,1.08-.31,1.18-.93.06-.81-.52-1.51-1.25-1.51Z"/>
    </g>
  </g>
</svg>