<?xml version="1.0" encoding="UTF-8"?>
<svg id="Pregnant_Mouse" data-name="Pregnant Mouse" xmlns="http://www.w3.org/2000/svg" xmlns:xlink="http://www.w3.org/1999/xlink" viewBox="0 0 239.81 146.92">
  <defs>
    <style>
      .cls-1 {
        fill: #cfaab1;
        stroke: #916d77;
      }

      .cls-1, .cls-2, .cls-3, .cls-4, .cls-5 {
        stroke-miterlimit: 10;
      }

      .cls-1, .cls-2, .cls-4 {
        stroke-width: .31px;
      }

      .cls-2 {
        stroke: #9e998d;
      }

      .cls-2, .cls-3, .cls-4, .cls-5 {
        fill: none;
      }

      .cls-6 {
        fill: #f8f8f8;
      }

      .cls-7 {
        fill: #efe7d8;
      }

      .cls-8 {
        fill: #87a3af;
      }

      .cls-9 {
        clip-path: url(#clippath-1);
      }

      .cls-10 {
        fill: #c4bead;
      }

      .cls-11 {
        clip-path: url(#clippath-5);
      }

      .cls-12 {
        fill: #e9e1cd;
      }

      .cls-13 {
        clip-path: url(#clippath-3);
      }

      .cls-3 {
        stroke: #93786d;
        stroke-width: .63px;
      }

      .cls-4 {
        stroke: #8c8181;
      }

      .cls-5 {
        filter: url(#drop-shadow-1);
        stroke: #bab1b1;
        stroke-width: .94px;
      }

      .cls-14 {
        fill: #9e998d;
      }
    </style>
    <filter id="drop-shadow-1" x="0" y="0" width="239.81" height="146.92" filterUnits="userSpaceOnUse">
      <feOffset dx="0" dy="0"/>
      <feGaussianBlur result="blur" stdDeviation="3.55"/>
      <feFlood flood-color="#afafaf" flood-opacity=".75"/>
      <feComposite in2="blur" operator="in"/>
      <feComposite in="SourceGraphic"/>
    </filter>
    <clipPath id="clippath-1">
      <path class="cls-4" d="M89.81,70.92s-.1-.43-.57-.34c-.37.07-.49.69-.49.71,0,.04-.02.06-.06.06-.03,0-.17-.16-.45-.03-.05.02-.2.2-.24.39-.06.24,0,.52,0,.54-.12.08-.52.4-.66.53-.33.3-.63.63-.9.98-.38.49-.69,1.02-.96,1.57-.15.31-.31.61-.44.93-.36.87-.64,1.92-.64,2.87,0,.6-.02,1.2.06,1.8.7,5.52,7.09,7.91,11.66,5.29.15-.09,2.27-1.2,4.31-2.88,3.03-2.48,5.98-4.46,6.5-8.84.04-.3-.02-.72-.05-1.02-.03-.26-.07-.52-.13-.78-.08-.34-.19-.68-.32-1.01-.97-2.38-3.44-3.23-5.86-2.88-.24.04-1.52.27-1.74.2-.24-.07-1.21-.29-1.35-.31-.88-.13-1.46.94-1.71,1.61-.02.06-.07.2-.1.3-.42-.05-1.27-.1-1.31-.1-.11-.09-.24-.26-.37-.38-.27-.25-.61-.55-.63-.61-.07-.17-.07-.32.1-.39.3-.14,1.24-.59,1.62-.73,1.38-.51,5.31-.4,6.08-2,.14-.3.15-.61.09-.92-.04-.18-.12-.35-.2-.51-.08-.16-.15-.33-.28-.46-4.37-4.69-12.83-1.06-16.12,3.07-.36.46-.67.94-.89,1.49-.13.33-.25.66-.32,1.01-.04.21-.06.41-.08.62-.02.28-.19.56-.14.84.03.16.26.65.6.89s.93.24,1.28.17c1.73-.49,3.12-2.08,4.87-2.59.27-.08.55-.15.82-.2.2-.04.62-.11,1.13.24.14.12.57.53.64.63-.1.01-.56.06-.99.15-.48.1-.92.24-.93.26.02-.09.01-.14,0-.21-.01-.15-.16-.24-.36-.24-.26,0-.36.18-.44.27ZM93.53,72.06c.02.14-.04.48-.13.61-.18-.06-.37.02-.54.05-.09,0-.19.01-.28.02-.18.01-.3.14-.41.28-.05.07-.07.15-.17.2-.06.03-.13.09-.16.17-.06.13.02.3.15.35.07.03.14,0,.21.04-.02.06-.04.12-.11.14-.04.01-.19.05-.27.14-.03.04-.17.19-.11.34s.23.27.37.27c.07,0,.15,0,.21.03-.03.05-.05.11-.08.16-.05.08-.06.18-.14.25-.02,0-.06.01-.07-.01-.01-.02-.25-.59-.86-.79-.49-.16-1.15.07-1.18.09.02-.1.08-.17.14-.24.06-.08.63-.58.75-.63.07-.03.14-.08.22-.11.06-.03.15-.13.18-.23.04-.11.03-.15.03-.23.07-.04.5-.29,1-.49.59-.23,1.2-.4,1.24-.39ZM94.95,71.73c.06,0,.69.04.75.04.02.14.15.37.21.45.07.1.39.5.51.63.1.11.19.23.32.31-.12,0-.79-.1-.93-.09-.11,0-.21.06-.29.13-.02.02-.07.07-.09.1-.1-.06-.58-.26-.61-.28.08-.25.16-.63.12-1.3ZM97.89,75.45c.09.03.64.21.76.29-.07.04-.54.08-.9,0-.49-.14-.77-.58-.77-.58.14.01.68.22.92.3ZM94.67,75.81s-.89-.16-1.06-.16c0-.02,0-.15.03-.27.02-.09.06-.21.06-.22.23.05.42.11.6.24.04.03.25.25.37.4Z"/>
    </clipPath>
    <clipPath id="clippath-3">
      <path class="cls-4" d="M119.02,63.08s-.44.02-.45.49c0,.38.58.61.61.62.04,0,.05.04.04.07,0,.03-.19.13-.12.44.01.05.15.23.33.31.23.1.51.1.53.11.06.13.29.59.39.75.23.38.49.74.79,1.08.41.47.86.88,1.35,1.25.27.21.54.42.82.61.78.52,1.76,1,2.69,1.19.59.12,1.17.25,1.78.3,5.55.39,9.14-5.41,7.47-10.4-.06-.17-.73-2.46-1.98-4.79-1.84-3.45-3.21-6.73-7.4-8.1-.29-.09-.71-.12-1.01-.15-.26-.02-.53-.04-.79-.03-.35.02-.7.05-1.05.12-2.52.48-3.84,2.74-3.97,5.18-.01.25-.04,1.55-.14,1.75-.12.23-.52,1.13-.57,1.27-.3.84.64,1.62,1.24,1.99.05.03.18.11.27.16-.13.4-.34,1.22-.35,1.26-.11.09-.3.18-.45.29-.3.22-.65.49-.72.5-.18.03-.33.01-.36-.17-.07-.32-.33-1.33-.4-1.74-.23-1.45.64-5.29-.77-6.35-.26-.2-.56-.27-.89-.26-.18,0-.37.05-.54.09-.17.05-.35.09-.51.18-5.45,3.37-3.55,12.38-.15,16.41.38.45.79.84,1.28,1.16.3.19.6.38.93.51.19.08.39.14.6.2.27.08.52.3.8.3.16,0,.69-.13.99-.41s.42-.87.42-1.22c-.14-1.79-1.43-3.47-1.59-5.29-.03-.28-.04-.56-.04-.85,0-.21.02-.63.46-1.06.15-.11.64-.46.74-.51,0,.1-.05.56-.04,1,0,.49.05.95.07.96-.08-.03-.13-.04-.21-.05-.15-.01-.26.11-.3.31-.05.25.11.38.17.49ZM120.87,59.66c.14,0,.46.13.58.24-.09.17-.05.37-.06.54-.02.09-.03.19-.04.28-.02.18.08.32.19.45.06.06.14.1.16.2.02.07.06.14.13.19.12.08.3.04.37-.08.04-.06.03-.14.08-.2.06.03.11.06.12.13,0,.04,0,.19.08.3.03.04.16.2.31.18s.31-.17.34-.31c0-.07.03-.14.07-.2.05.04.1.07.14.11.07.06.17.1.22.19,0,.02,0,.06-.02.06-.03,0-.63.13-.94.69-.25.45-.16,1.14-.15,1.18-.09-.04-.15-.12-.21-.19-.06-.08-.44-.73-.47-.86-.02-.08-.05-.15-.07-.23-.01-.06-.1-.17-.19-.22-.1-.06-.15-.05-.22-.07-.03-.07-.19-.55-.29-1.07-.11-.62-.16-1.26-.15-1.29ZM120.82,58.21c0-.06.18-.67.19-.73.14,0,.39-.07.48-.11.11-.05.57-.29.72-.37.13-.08.27-.14.37-.26-.01.12-.25.76-.27.89-.02.11.02.21.07.31.01.02.05.08.08.11-.08.08-.37.52-.39.54-.23-.13-.59-.28-1.25-.37ZM125.05,56.04c.05-.09.33-.59.43-.69.03.07-.02.55-.18.89-.24.46-.72.64-.72.64.04-.13.35-.62.47-.84ZM124.77,59.28s-.33.84-.36,1.01c-.02,0-.15-.03-.26-.08-.09-.04-.2-.1-.2-.1.1-.22.19-.39.35-.54.03-.03.29-.2.47-.29Z"/>
    </clipPath>
    <clipPath id="clippath-5">
      <path class="cls-4" d="M57.89,65.7s-.33-.28-.66.06c-.26.27.01.85.03.86.03.04.01.06-.02.08-.02.02-.23-.03-.38.24-.03.05-.04.27.03.45.1.23.3.42.31.44-.05.13-.18.63-.22.82-.09.44-.14.88-.15,1.33-.02.62.04,1.23.14,1.84.06.34.11.68.19,1.01.22.91.61,1.93,1.16,2.7.35.49.69.98,1.1,1.42,3.81,4.06,10.38,2.24,12.55-2.56.07-.16,1.13-2.3,1.8-4.86.99-3.79,2.22-7.12.07-10.97-.15-.26-.43-.57-.64-.79-.18-.19-.36-.38-.56-.56-.27-.23-.55-.44-.85-.63-2.18-1.36-4.68-.6-6.43,1.11-.18.17-1.08,1.11-1.29,1.19-.24.09-1.15.48-1.28.54-.79.42-.63,1.62-.44,2.3.02.06.06.2.09.3-.37.21-1.08.67-1.12.69-.15,0-.35-.07-.52-.09-.37-.04-.81-.09-.87-.12-.16-.1-.25-.21-.15-.37.16-.29.66-1.2.89-1.54.82-1.23,4.06-3.45,3.74-5.19-.06-.32-.23-.58-.47-.8-.14-.12-.3-.22-.46-.3-.16-.08-.32-.17-.5-.21-6.29-1.23-11.01,6.68-11.25,11.95-.03.58.01,1.16.15,1.73.09.34.19.69.34,1.01.09.19.19.37.3.55.15.24.18.57.38.76.12.11.6.37,1.01.37s.9-.35,1.13-.61c1.12-1.41,1.31-3.51,2.42-4.96.17-.22.35-.44.55-.65.14-.15.44-.45,1.05-.47.18.02.78.09.89.13-.07.07-.42.38-.71.71-.33.36-.61.73-.6.75-.04-.08-.07-.12-.12-.17-.1-.11-.27-.1-.43.02-.21.15-.18.35-.2.47ZM61.57,64.44c.1.1.25.41.26.57-.18.06-.29.23-.41.36-.08.06-.15.12-.22.18-.14.12-.16.29-.17.46,0,.08.03.17-.02.26-.03.06-.05.15-.03.23.03.14.2.23.33.19.07-.02.12-.08.19-.09.02.06.04.12,0,.17-.03.03-.12.15-.14.27,0,.05-.02.25.11.34s.34.08.46,0c.05-.05.12-.08.19-.1.01.06.02.12.03.18.01.1.06.19.03.29-.02.01-.04.04-.06.03-.02-.01-.55-.33-1.16-.14-.49.16-.89.73-.9.76-.04-.09-.03-.19-.03-.28,0-.1.17-.84.24-.95.04-.07.07-.15.11-.22.03-.06.05-.19.01-.29-.03-.11-.07-.14-.11-.2.03-.07.23-.53.52-.98.34-.53.74-1.03.77-1.05ZM62.52,63.34s.59-.37.64-.41c.1.1.34.22.43.24.12.04.61.18.78.21.15.03.29.07.45.06-.09.08-.7.39-.81.47-.09.07-.13.17-.16.28,0,.03-.02.1-.02.13-.12,0-.62.13-.65.13-.08-.25-.24-.6-.66-1.12ZM67.09,64.63c.09-.03.65-.21.78-.21-.03.07-.39.39-.73.53-.48.17-.97-.02-.97-.02.12-.07.68-.22.92-.3ZM64.7,66.81s-.82.39-.95.49c-.01-.01-.08-.13-.14-.23-.04-.09-.08-.21-.08-.21.22-.1.4-.15.62-.16.04,0,.35.05.54.11Z"/>
    </clipPath>
  </defs>
  <path class="cls-5" d="M159.05,101.14c.27.62.72.68,1.06.88.95.56,1.82,1.22,2.54,2.06.85.99.81,1.97-.14,2.9-1,.99-2.25,1.28-3.6,1.18-1.24-.1-2.48-.3-3.72-.46-.78-.1-1.56-.11-2.33.11-1.32.38-2.26-.13-3.18-1.08-2.35-2.44-3.8-5.29-4.52-8.59-.56-2.56-1.66-4.93-3.04-7.16-.22-.36-.42-.75-.78-.96-1.86-1.04-3.68-2.11-5.95-2.13-1.37,0-19.97,7.32-32.38,8.81-15.74,1.89-20.59-4.45-21.49-4.23-1.01.25-2.03.51-3.08.47-1.26-.04-2.5.04-3.67.6-.59.28-1.09.08-1.63-.19-.89-.44-1.14-.34-1.68.44-.83,1.2-.72,2.92.52,3.98,3.47,2.99,7.36,5.15,12.11,5.1,1.24-.01,2.49-.21,3.74-.23,1.27-.02,2.34.39,3.28,1.22.58.52,1.22.98,1.8,1.5.39.34.74.74.95,1.23.48,1.14-.07,2.13-1.29,2.26-.93.1-1.88.23-2.8.16-1.1-.07-2.05.26-2.99.73-2.16,1.08-4.38,1.38-6.81,1.1-3.53-.4-6.8-1.55-10.03-2.86-.81-.33-1.54-.88-2.29-1.34-.54-.34-1.09-.57-1.76-.47-2.3.36-4.57-.02-6.8-.53-1.98-.45-3.94-1-5.98-1.16-.94-.07-1.81-.43-2.12-1.35-.61-1.81-1.92-3.21-2.74-4.89-.97-1.96-2.01-3.89-3.11-5.78-1.02-1.75-2.15-3.45-3.53-4.94-1.06-1.14-2.63-1.46-4.09-1.78-2.14-.47-4.31-.74-6.52-.67-1.39.04-2.76-.33-4.19-.07-1.22.22-2.33.56-3.33,1.23-12.72,8.41-17.06,28.14-6.67,39.94,11.23,12.76,32.68,14.73,47.98,9.88,19.41-6.15,35.45-18.97,55.99-21.83,10.2-1.42,19.73-.22,29.67,2.31,4.56,1.16,9.38,2.64,13.54,4.9,2.68,1.46,2.45,4.68-.59,3.21-17.32-8.36-39.46-6.71-56.75-.15-18.09,6.86-32.43,18.69-52.09,21.33-16.49,2.22-35.58-1.48-46.08-15.44-12.62-16.79-10.21-38.2,6.46-51.9,1.89-1.55,3.92-2.94,6.15-3.99,1.44-.68,2.7-1.61,3.7-2.81,1.29-1.54,2.84-2.74,4.46-3.89,2.19-1.55,3.95-3.54,5.75-5.49,2.57-2.78,3.86-6.29,5.37-9.64C58.12,13.24,101.2,5.55,140,16.34c3.73,1.04,7.24,2.65,10.82,4.07.34.13.67.3,1.01.42.58.2,1.04,0,1.28-.56.19-.43.33-.88.46-1.33,1.25-4.25,4.25-6.71,8.35-7.88,3.34-.96,6.5.02,9.55,1.37,2.34,1.04,4.54,2.35,6.61,3.85,1.06.77,2.05,1.01,3.33.55,1.16-.42,2.43-.56,3.65-.82.46-.1.93-.15,1.37-.29,1.16-.37,1.35-.68.98-1.83-.21-.65-.26-1.2.18-1.76.49-.62.45-1.38.42-2.1-.09-2,.26-3.94.77-5.87.32-1.22,1.02-2.16,1.97-2.94,1.41-1.15,2.94-.81,4.44-.23,1.11.43,1.86,1.3,2.56,2.23,1.67,2.21,2.53,4.78,3.27,7.4.61,2.15,1.35,4.27,1.66,6.5.13.97.72,1.54,1.64,1.89,3.01,1.17,6.04,2.31,8.99,3.61,3.24,1.43,6.48,2.89,9.27,5.15.49.39.97.79,1.42,1.22.53.5,1.05,1.01,1.55,1.55,3.25,3.48,6.73,6.67,10.68,9.35.39.26.73.58,1.1.87,2.19,1.75,2.27,4.07,1.77,6.54-.2.98-.89,1.65-1.66,2.19-.75.53-1.28,1.18-1.62,2.04-.53,1.31-1.47,2.3-2.78,2.82-3,1.2-5.91,2.61-8.97,3.66-4.31,1.48-8.74,2.4-13.25,2.96-2.99.38-6,.66-9.01.95-1.95.19-3.79.67-5.5,1.64-2.49,1.41-5.01,2.79-7.51,4.19-1.32.74-2.77,1.19-4.08,1.98-5.45,3.28-10.91,6.53-16.54,9.48-1.94,1.02-3.89,2.07-5.62,3.38-3.16,2.4-3.76,6.77-.45,9.52,1.36,1.13,2.8,2.18,4.55,2.67.88.25,1.8.52,1.85,1.61.05,1.11-.48,2.01-1.38,2.66-.25.18-.56.26-.86.36-.25.09-.5.14-.76.2-1.07.24-1.96.98-3.08,1.09-1.08.1-2.16.25-3.38.39.27.62,1.22-.14,0,0,.27.62,1.22-.14,0,0ZM59.51,98.58c-.41-2.39.75-4.11,1.62-5.92.09-.19.19-.37.25-.57.29-.88.14-1.31-.73-1.56-1.65-.47-3.32-.86-4.99-1.25-.71-.17-1.23.09-1.47.81-.45,1.35-.82,2.7.13,4.02.3.42.52.91.7,1.39.75,1.98,2.52,2.4,4.48,3.08Z"/>
  <path class="cls-3" d="M36.88,86.68c.16-.18.33-.4.51-.68.82-1.29,4.42-7.43,7.13-8.53,1.4-.57,5.57-.32,6.97,1.5,5.35,6.93,12.89,6.59,20.68,4.75.84-.2,1.68-.39,2.55-.45.7-.05,1.24.27,1.8.65,1.36.91,2.3,2.29,3.61,3.24,10.38,7.55,21.79,7.73,29.11-4.29,1.07-1.76,1.9-3.69,3.13-5.35,1.3-1.74,2.64-2.54,4.71-1.56,9.88,4.7,21.6.53,23.99-9.18.23-1.16,1.08-5.25-.74-10.28-2.3-6.39-4.98-10.45-7.69-12.54-9.42-7.23-22.42-.17-24.25,11.51-.25,1.6-.85,3.14-1.13,4.74-.16.91-.71,1.08-1.4,1.16-.58.07-1.13-.05-1.65-.39-.93-.62-1.97-1.01-3.03-1.34-2.88-.91-5.81-.89-8.77-.52-1.8.23-3.56.7-5.25,1.3-1.86.66-3.53.81-5.1-.59-.66-.58-1.32-1.19-1.57-2.04-.35-1.2-.88-2.29-1.6-3.3-6.63-9.31-18.73-5.98-25.64.1s-20.61,26.12-22.68,29.59c-.17.28-.28.51-.36.72"/>
  <g>
    <path class="cls-1" d="M106.29,64.63c-.42-.32-.87-.53-1.22-.77-.32-.22-.63-.42-.87-.54-1.3-.67-4.32-2.24-9.85-2.04-4.94.18-8.09,2.35-11.28,5.54,0,0-4.74,4.28-3.74,12.31.99,8.03,8.56,12.83,15.23,11.9,6.67-.93,13.77-9.15,15.56-13.02,1.78-3.87,2.03-8.92-3.82-13.38Z"/>
    <path class="cls-6" d="M95.02,62.57c3.25,0,5.35,1.53,5.63,1.94.29.43.43.79.54,1.08.15.39.32.83.87.83.3,0,1.57.18,2.96.74,1.2.49,2.81,1.4,3.6,2.98.91,1.81.98,4.37.17,6.83-1.09,3.33-3.73,6.54-7.62,9.29-3.29,2.32-6.46,3.49-9.42,3.49-2.02,0-3.85-.56-5.43-1.65-1.48-1.03-2.69-2.53-3.48-4.32-2.13-4.82.2-8.96,1.31-10.52.15-.21.14-.39.1-.51-.08-.27-.35-.38-.46-.43-.14-.05-.5-.41-.45-1.09.05-.6.14-1.84,1.02-3.23,1.02-1.6,2.83-3.01,5.38-4.19,1.79-.83,3.57-1.25,5.28-1.25h0"/>
    <g id="mouse_fetus" data-name="mouse fetus">
      <g>
        <path class="cls-6" d="M89.96,70.84h0c-.06.02-.12.08-.19.03-.03-.09-.08-.17-.15-.23-.05-.05-.09-.08-.16-.07-.06,0-.13.02-.2,0-.08,0-.14.03-.18.09-.08.1-.14.2-.19.31-.04.09-.12.16-.12.26-.02.01-.03.04-.03.06,0,.04-.02.06-.06.06-.05,0-.1-.01-.15-.03-.04-.02-.09-.04-.14-.03-.18.03-.33.16-.37.34-.03.16-.03.32,0,.49,0,.05-.04.09-.05.14-.03,0-.05,0-.07.02-.06.04-.1.1-.15.14-.16.11-.3.24-.44.37-.33.3-.63.63-.9.98-.38.49-.69,1.02-.96,1.57-.15.31-.31.61-.44.93-.36.87-.64,1.92-.64,2.87,0,.6-.02,1.2.06,1.8.7,5.52,7.09,7.91,11.66,5.29.38-.22.75-.44,1.12-.66.8-.45,1.78-1.03,2.46-1.66,3.11-2.88,6.98-4.77,7.21-9.52.01-.3,0-.6-.04-.9-.03-.26-.07-.52-.13-.78-.08-.34-.19-.68-.32-1.01-.97-2.38-3.44-3.23-5.86-2.88-.24.04-.48.1-.73.14-.12.02-.24.08-.36.09-.22.01-.44.04-.66-.02-.24-.07-.49-.15-.74-.19-.06-.01-.12-.05-.19-.06-.14-.02-.29-.04-.43-.06-.88-.13-1.46.94-1.71,1.61-.02.06-.04.12-.03.18,0,.04,0,.08-.03.11-.04-.02-.08-.02-.13-.01-.42-.05-.84-.02-1.26-.06-.04,0-.08,0-.13-.01-.03,0-.05,0-.08-.02-.17-.11-.29-.26-.44-.39-.09-.08-.16-.17-.26-.25-.08-.06-.15-.13-.19-.22-.07-.17.04-.43.22-.5.17-.07.33-.17.5-.25.37-.18.74-.34,1.13-.48,1.38-.51,5.31-.4,6.08-2,.14-.3.15-.61.09-.92-.04-.18-.12-.35-.2-.51-.08-.16-.15-.33-.28-.46-4.37-4.69-12.83-1.06-16.12,3.07-.36.46-.67.94-.89,1.49-.13.33-.25.66-.32,1.01-.04.21-.06.41-.08.62-.02.28-.02.56.03.84.06.32.25.58.47.81.19.21.45.24.71.28.04,0,.08,0,.12.01.14.03.28,0,.41-.03,1.73-.49,3.12-2.08,4.87-2.59.27-.08.55-.15.82-.2.2-.04.4-.1.62-.03.19.06.36.14.5.27.14.12.3.21.42.36.08.09.15.18.22.27,0,.03-.03.04-.05.06-.08-.03-.15,0-.22.01-.29.03-.57.08-.86.15-.24.06-.49.12-.73.18-.03,0-.05,0-.08,0-.02-.07,0-.15,0-.22-.01-.15-.2-.28-.33-.21-.06.03-.11.06-.16.1-.03.03-.07.07-.12.07,0,0-.02,0-.02.01Z"/>
        <path class="cls-7" d="M106.85,73.49c-.03-.26-.07-.52-.13-.78-.08-.34-.19-.68-.32-1.01-.97-2.38-3.44-3.23-5.86-2.88-.24.04-.48.1-.73.14-.12.02-.24.08-.36.09-.22.01-.44.04-.66-.02-.24-.07-.49-.15-.74-.19-.06-.01-.12-.05-.19-.06-.14-.02-.29-.04-.43-.06-.88-.13-1.46.94-1.71,1.61-.02.06-.04.12-.03.18,0,.04,0,.08-.03.11-.05.2-.06.4-.04.6.01.19.05.39.07.58.03.09.09.18.13.27,0,0,0,0,0,0,.16.1.36.1.53.17.15.06.28.16.43.22.18.08.35.19.52.29.06.04.07.13.03.2-.07.12-.17.18-.29.22-.1.03-.14.06-.25.05-.12,0-.32-.09-.43-.11-.06-.01-.12-.03-.19-.02-.13.01-.27-.02-.4-.02-.11,0-.21.06-.29.13-.02.02-.04.03-.06.04.19.18.37.36.53.57.14.18.28.35.42.53.12.16.27.3.38.47.06.1.14.19.23.27.13-.04.22.05.32.1.23.11.46.22.7.3.09.03.18.07.28.11.09.04.18.06.28.08.03,0,.06.01.06.06,0,.05-.03.05-.06.05-.16.02-.31.02-.47,0-.15-.01-.3-.02-.44-.06-.21-.06-.33-.12-.5-.26-.07-.06-.1-.14-.14-.23,0,0-.02-.02-.02-.03-.06-.03-.08-.13-.12-.18-.14-.17-.28-.35-.41-.52-.05-.06-.11-.09-.16-.15-.21-.25-.39-.57-.63-.8-.09-.09-.1-.17-.22-.23l-.05-.02s-.05.01-.05.01c-.05,0-.06-.05-.1-.06-.19-.07-.38-.14-.57-.19,0-.05.02-.08.02-.07-.02-.1.04-.14.06-.23.03-.13.01-.28.05-.4.05-.17.05-.34.05-.51,0-.04,0-.08.02-.12-.02,0,.17-.02.17-.04-.03-.15.02-.38-.05-.52-.12-.23-.45-.4-.63-.6-.03-.03-.12-.04-.12-.09-.03,0-.11-.12-.13-.14-.17-.11-.17-.19-.32-.32-.09-.08-.24-.23-.33-.31-.08-.06-.16-.16-.19-.25-.07-.17-.05-.25.12-.31.17-.07.33-.17.5-.25.37-.18.74-.34,1.13-.48,1.38-.51,5.31-.4,6.08-2,.14-.3.15-.61.09-.92-.04-.18-.12-.35-.2-.51-.08-.16-.15-.33-.28-.46-4.37-4.69-12.83-1.06-16.12,3.07-.36.46-.67.94-.89,1.49-.13.33-.25.66-.32,1.01-.04.21-.06.41-.08.62-.02.28-.02.56.03.84.06.32.25.58.47.81.19.21.45.24.71.28.04,0,.08,0,.12.01.14.03.28,0,.41-.03,1.73-.49,3.12-2.08,4.87-2.59.27-.08.55-.15.82-.2.2-.04.4-.1.62-.03.19.06.36.14.5.27.14.12.3.21.42.36.08.09.15.18.22.27.03,0,0,.03-.04.06,0,0,0,0,0,0-.08-.03-.15,0-.22.01-.29.03-.57.08-.86.15-.24.06-.49.12-.73.18-.02.12-.06.24-.11.36-.01.03-.02.05,0,.07.02.02.04,0,.06-.01.11-.02.22-.07.34-.07.11,0,.32.14.34.28,0,.08-.02.16-.04.24-.01.07-.03.15-.07.21-.05.08-.08.18-.14.26-.04.05-.06.11-.08.16-.02.07.02.12.08.16.09.06.21.09.26.2.14-.08.28-.18.43-.25.15-.08.31-.14.47-.2.08-.03.16-.08.24-.11.21-.06.41-.14.62-.21.09-.03.19-.05.28-.08.06-.02.11-.06.17-.05,0-.02,0-.03-.01-.05.04-.02.06-.02.07.05,0,.07-.05.1-.03.23.02.11,0,.22-.02.32,0,.03.01.05-.02.07,0,.06-.08,0-.11.05-.01.02-.03.05-.05.07.02-.04.03-.07.05-.11-.18-.06-.35.01-.53.04-.07.11-.15.23-.22.34-.11.17-.2.35-.25.55-.04.14-.04.15-.18.15-.02.06-.04.12-.11.14-.07.02-.13.06-.18.1-.1.07-.15.18-.19.28-.03.06.02.13.06.18.07.12.16.2.31.18.07,0,.15,0,.21.03.03-.03.02-.07.05-.1,0,0,0,0,0,0,0,.11.01.22-.05.35-.09.2-.19.4-.27.6-.07.19-.21.3-.38.38-.42.2-.88.33-1.29.54-.06.03-.12.05-.18.08-.13.06-.16.12-.11.26.07.17.11.37.21.53,0,0,0,.01,0,.02,0,.02.03.05,0,.07-.04.02-.04-.02-.05-.04-.1-.18-.19-.36-.3-.54-.16-.28-.33-.55-.5-.82-.08-.12-.09-.24-.05-.38.1-.29.2-.57.34-.85.07-.14.15-.27.24-.4.02-.1.08-.17.14-.24.06-.08.13-.15.21-.22.08-.06.14-.14.21-.21.09-.09.21-.15.33-.2.07-.03.14-.08.22-.11.12-.05.13-.17.14-.29,0-.03,0-.06,0-.09-.04-.07-.09-.13-.16-.16-.08-.03-.17-.06-.25-.09-.07-.03-.07-.04-.03-.1.14-.24.32-.46.38-.74.02-.09.02-.17,0-.26,0-.05-.06-.1-.12-.12-.21-.07-.4-.04-.56.12-.05.05-.1.1-.17.12,0,0,0,.02-.01.02,0,0,0-.02,0-.02.04-.12.13-.21.16-.33.04-.12.09-.24.11-.37-.02-.07,0-.15,0-.22-.01-.15-.2-.28-.33-.21-.06.03-.11.06-.16.1-.03.03-.07.07-.12.07,0,0-.01,0-.02.01,0,.02,0,.03-.02.05-.09.08-.15.18-.18.3,0,0-.01.02-.03.04.01-.13.05-.24.04-.35-.03-.09-.08-.17-.15-.23-.05-.05-.09-.08-.16-.07-.06,0-.13.02-.2,0-.08,0-.14.03-.18.09-.08.1-.14.2-.19.31-.04.09-.12.16-.12.26.04.11-.01.22-.02.33,0,.02,0,.05-.02.08-.06-.1-.03-.2-.05-.29-.05,0-.1-.01-.15-.03-.04-.02-.09-.04-.14-.03-.18.03-.33.16-.37.34-.03.14-.03.29-.01.43,0,0,0,.02,0,.06.04.08.06.16.06.25.03.32-.04.62-.11.92-.04.16-.08.32-.13.48-.04.14-.07.29-.12.43-.1.29-.21.59-.31.88-.09.26-.19.51-.27.76-.18.53-.31,1.11-.24,1.67.02.15-.03.3-.04.45,0,.06-.05.12-.07.18,0-.02,0-.05,0-.07.01-.15,0-.29,0-.44,0-.21.05-.38.03-.6-.01-.13.01-.32.04-.45.04-.16.07-.32.13-.48.06-.17.06-.34.11-.51.09-.29.2-.58.3-.87.1-.3.21-.59.31-.89.07-.21.14-.43.18-.65.02-.2.09-.37.09-.58,0-.12,0-.24-.03-.35-.03,0-.05,0-.07.02-.06.04-.1.1-.15.14-.16.11-.3.24-.44.37-.33.3-.63.63-.9.98-.38.49-.69,1.02-.96,1.57-.15.31-.31.61-.44.93-.36.87-.64,1.92-.64,2.87,0,.6-.02,1.2.06,1.8.7,5.52,7.09,7.91,11.66,5.29.38-.22.75-.44,1.12-.66.81-.45,1.78-1.03,2.46-1.66,3.11-2.88,6.98-4.77,7.21-9.52.01-.3,0-.6-.04-.9ZM95.38,73.35s0,.02-.02.03c0-.01.01-.02.02-.03ZM94.18,74.05s-.03.06-.04.08c.01-.03.03-.06.04-.08ZM94.67,75.81h0s0,0-.01-.01c-.09,0-.18-.04-.27-.05-.1-.01-.19-.04-.29-.04-.17,0-.33-.07-.5-.06-.04.04.02-.1-.04-.06,0-.11,0-.17.03-.26.02-.1.06-.15.11-.19,0,.01,0,.02,0,.03.22.03.42.11.6.24.04.03.07.05.12.05,0-.02.01-.04.01-.06,0,.02,0,.04-.01.06.08.07.15.14.23.21.02.02.04.03.04.06.02,0,0,.15-.02.08ZM100.05,71.07c0-.16.08-.29.18-.4.21-.22.58-.35.88-.15.19.13.38.28.51.48.06.09.1.19.1.31-.03.25-.14.45-.33.62-.13.11-.28.16-.45.16-.16,0-.31-.07-.44-.17-.11-.09-.21-.18-.3-.29-.13-.16-.17-.35-.16-.55ZM101.93,76.01c-.18.16-.37.3-.61.36-.41.11-.7.01-1.1-.08-.17-.04-.32-.13-.48-.21-.06-.03-.13-.04-.2-.08.1-.04.19-.04.27-.02.23.06.45.14.69.17.27.04.54.03.82,0,.2-.02.36-.12.53-.19.01,0,.03,0,.04-.02.02,0,.04-.01.05,0,0,.02,0,.04-.01.05Z"/>
        <g>
          <polygon class="cls-7" points="89.96 70.84 89.96 70.83 89.96 70.83 89.96 70.84"/>
          <polygon class="cls-7" points="96.94 75.2 96.94 75.2 96.94 75.2 96.94 75.2"/>
          <path class="cls-7" d="M99.54,76c.07.05.1-.04,0,0h0Z"/>
        </g>
        <g>
          <path class="cls-7" d="M106.84,73.43s0-.01,0,0h0Z"/>
          <path class="cls-7" d="M106.85,73.46h0s0,0,0,0Z"/>
          <path class="cls-7" d="M106.85,73.49s0-.02,0-.03c0,0,0,.02,0,.03Z"/>
          <path class="cls-7" d="M106.85,73.46s0-.02,0-.03c0,0,0,.02,0,.03Z"/>
          <path class="cls-7" d="M106.86,73.56s0,.03,0,0h0Z"/>
          <path class="cls-7" d="M106.86,73.54s0,.01,0,.02c0,0,0-.01,0-.02Z"/>
          <path class="cls-7" d="M106.85,73.49s0,0,0,0c0,.02,0,.04,0,.05,0-.02,0-.03,0-.05Z"/>
        </g>
        <path class="cls-10" d="M94.3,70.54c.42.04.88,0,1.3.06-.02.27-.05.55-.01.82.01.1.02.23.03.32,0,.04-.07,0-.1,0-.12,0-.23-.02-.35-.02-.06,0-.2.02-.26,0-.02-.08,0-.15-.03-.23-.08-.21-.19-.37-.3-.57-.08-.14-.2-.25-.28-.4Z"/>
        <path class="cls-14" d="M88.04,72.11c.04.08.06.16.06.25.03.32-.04.62-.11.92-.04.16-.08.32-.13.48-.04.14-.07.29-.12.43-.1.29-.21.59-.31.88-.09.26-.19.51-.27.76-.18.53-.31,1.11-.24,1.67.02.15-.03.3-.04.45,0,.06-.05.12-.07.18,0-.02,0-.05,0-.07.01-.15,0-.29,0-.44,0-.21,0-.92.03-1.05.04-.16.24-.81.29-.98.09-.29.2-.58.3-.87.1-.3.21-.59.31-.89.04-.13.18-.62.24-1.03.04-.27,0-.5,0-.55.01-.05.06-.09.05-.14.04.08,0,.05,0,0,.04.08,0,.05,0,0Z"/>
        <path class="cls-14" d="M90.38,71.76s.08-.06.12-.1c.16-.15.35-.19.56-.12.17.07.11.29.1.38-.06.28-.23.5-.37.74-.04.06-.04.08.03.1.08.03.17.06.25.09.07.03.12.09.16.16.02-.03.04-.05.07-.08-.05-.12-.16-.15-.26-.2-.06-.04-.1-.09-.08-.16.02-.06.27-.46.31-.63.02-.08.04-.16.03-.25-.02-.22-.24-.27-.35-.27-.19-.02-.38.1-.39.08-.02-.02,0-.05,0-.07.05-.11.09-.23.11-.36-.03,0-.05,0-.08,0-.01.13-.07.25-.11.37-.03.1-.1.19-.15.28l-.04.09.08-.07Z"/>
        <path class="cls-14" d="M95.61,71.71c-.02-.1-.04-.19-.05-.29-.04-.27,0-.55.02-.82.04,0,.08,0,.13.01-.05.2-.06.4-.04.6.01.19.09.39.12.58-.06,0-.13-.05-.17-.09Z"/>
        <path class="cls-14" d="M88.79,71.23c.04.11-.01.22-.02.33,0,.02,0,.05-.02.08-.06-.1-.03-.2-.05-.29.04,0,.06-.01.06-.06,0-.02.01-.04.03-.06Z"/>
        <path class="cls-14" d="M89.96,70.83s0,.03-.02.05c-.09.08-.15.18-.18.3,0,0-.01.02-.03.04.01-.13.05-.24.04-.35.07.04.13-.02.19-.03Z"/>
        <path class="cls-14" d="M89.97,70.82s-.01,0-.02.01c0-.02,0-.01.02-.01Z"/>
        <path class="cls-10" d="M101.71,71.31c-.03.25-.14.45-.33.62-.13.11-.28.16-.45.16-.16,0-.31-.07-.44-.17-.11-.09-.21-.18-.3-.29-.13-.16-.17-.35-.16-.55,0-.16.08-.29.18-.4.21-.22.58-.35.88-.15.19.13.38.28.51.48.06.09.1.19.1.31ZM100.85,70.69c-.22,0-.41.19-.41.4,0,.22.19.41.4.41.22,0,.41-.19.41-.4,0-.22-.19-.41-.4-.41Z"/>
        <path class="cls-14" d="M92.31,74.94c-.09.2-.19.4-.27.6-.07.19-.21.3-.38.38-.42.2-.88.33-1.29.54-.06.03-.12.05-.18.08-.13.06-.16.12-.11.26.07.17.11.37.21.53,0,0,0,.01,0,.02,0,.02.03.05,0,.07-.04.02-.04-.02-.05-.04-.1-.18-.19-.36-.3-.54-.16-.28-.33-.55-.5-.82-.08-.12-.09-.24-.05-.38.1-.29.2-.57.34-.85.07-.14.15-.27.24-.4.12-.07.25-.1.39-.12.12-.02.23-.01.35-.01-.03.02-.05.04-.08.06-.07.04-.11.13-.18.17-.16.04-.32.09-.43.21-.2.23-.36.48-.4.8-.01.12-.01.23.05.34.07.11.14.23.2.34.08.14.17.19.33.17.19-.03.36-.11.55-.17.05-.01.12-.02.15-.07.17-.03.32-.08.48-.14.05-.02.09-.04.14-.07.14-.1.25-.22.35-.35.1-.13.15-.28.2-.44.08-.06.1-.16.14-.25.03-.05.05-.11.08-.16.03-.03.02-.07.05-.1.12-.13.06.11-.04.35Z"/>
        <path class="cls-14" d="M96.76,73.22c-.13-.08-.24-.26-.34-.37-.11-.13-.21-.27-.34-.4-.07-.07-.12-.16-.16-.25-.02-.05-.2-.26-.19-.33,0,0,0-.29.04-.13.18.16.44.42.61.49.15.06.28.16.43.22.18.08.35.19.52.29.06.04.07.13.03.2-.07.12-.1.16-.24.21-.1.03-.17.06-.37.06Z"/>
        <path class="cls-14" d="M99.54,76c.1-.04.19-.04.27-.02.23.06.45.14.69.17.27.04.54.03.82,0,.2-.02.36-.12.53-.19.01,0,.03,0,.04-.02.02,0,.04-.01.05,0,0,.02,0,.04-.01.05-.18.16-.37.3-.61.36-.41.11-.7.01-1.1-.08-.17-.04-.32-.13-.48-.21-.06-.03-.13-.04-.2-.08.1-.04.07.05,0,0Z"/>
        <path class="cls-14" d="M96.94,75.2s.02.02,0,.03c0,0,0-.02,0-.03Z"/>
        <path class="cls-14" d="M94.66,75.8s0,0,.01.01c0,0,0,0-.01-.01Z"/>
        <path class="cls-7" d="M92.08,75.1c-.05.15-.1.3-.2.44-.1.13-.21.26-.35.35-.04.03-.09.05-.14.07-.16.06-.32.11-.48.14-.06-.06-.14-.06-.22-.06-.12,0-.25-.04-.33-.12-.16-.18-.22-.39-.17-.63.02-.1.07-.19.09-.28.01-.09.04-.17.07-.26.03-.09.08-.18.11-.27.07-.04.11-.12.18-.17.03-.02.05-.04.08-.06.18-.04.34.02.5.07.1.03.21.05.29.12.14.11.29.22.35.4.04.09.11.16.15.26,0,.02.04,0,.07.01Z"/>
        <path class="cls-12" d="M92.86,72.72c-.07.11-.15.23-.22.34-.11.17-.2.35-.25.55-.04.14-.04.15-.18.15-.07-.03-.14-.01-.21-.04-.13-.05-.21-.22-.15-.35.03-.08.09-.14.16-.17.09-.04.11-.13.17-.2.11-.14.22-.26.41-.28.09,0,.19-.02.28-.02Z"/>
        <path class="cls-12" d="M100.85,70.69c.22,0,.4.19.4.41,0,.22-.19.4-.41.4-.22,0-.4-.19-.4-.41,0-.22.19-.4.41-.4Z"/>
        <path class="cls-10" d="M90.45,74.47c-.04.09-.08.17-.11.27-.03.08-.06.17-.07.26-.01.1-.07.19-.09.28-.05.24.02.46.17.63.08.09.21.12.33.12.08,0,.16,0,.22.06-.04.05-.1.05-.15.07-.18.05-.36.14-.55.17-.16.02-.25-.03-.33-.17-.06-.12-.13-.23-.2-.34-.07-.11-.07-.22-.05-.34.04-.31.2-.57.4-.8.11-.13.27-.18.43-.21Z"/>
        <path class="cls-14" d="M95.38,73.32s0-.04,0-.05c.04,0,.05,0,.08-.03"/>
      </g>
      <g>
        <g class="cls-9">
          <path class="cls-10" d="M94.7,72.55l.7.33-1.43,2.66-.66-.34s.74-1.76.86-1.88.53-.77.53-.77Z"/>
          <path class="cls-10" d="M91.56,70.54s1.51,1.22,1.56,1.98c-.3.59-1.2,2.23-1.2,2.23l.22.16.36-.15,1.48-2.3s-1.07-2.11-1.12-2.11-1.3.19-1.3.19Z"/>
          <g>
            <path class="cls-7" d="M91.99,76.08s.13-.95.6-1.91c.14-.3.31-.57.47-.81.16-.26.31-.49.4-.71.23-.56.16-.79-.42-1.48-.34-.41-.98-.91-1.2-1.07l.86-1.13s.88.68,1.4,1.31c.64.77,1.17,1.57.65,2.89-.13.33-.32.64-.51.93-.15.24-.29.45-.39.67-.31.64-.41,1.29-.43,1.45l-1.41-.14Z"/>
            <path class="cls-14" d="M92.67,69.05c.2.15.94.72,1.39,1.26.64.76,1.16,1.55.64,2.86-.13.33-.33.64-.51.93-.14.23-.28.44-.39.67-.3.61-.4,1.23-.43,1.42l-1.32-.13c.03-.23.16-1.04.56-1.87.14-.29.31-.56.47-.8.16-.25.31-.49.4-.71.23-.58.17-.81-.43-1.52-.32-.38-.9-.84-1.15-1.04l.78-1.07M92.66,68.95l-.85,1.18c.22.16.85.66,1.2,1.06.58.69.64.9.42,1.45-.09.21-.24.45-.4.7-.15.24-.32.51-.47.81-.47.97-.57,1.92-.57,1.96l1.45.14s.08-.74.43-1.47c.11-.22.24-.44.39-.66.19-.3.38-.6.52-.94.54-1.34,0-2.15-.65-2.92-.53-.63-1.42-1.28-1.46-1.31h0Z"/>
          </g>
          <path class="cls-7" d="M90.38,69.38s1.75.9,1.96.9,1.84-.7,1.84-.7l-.36-1.33-1.62-.36-1.83,1.49Z"/>
          <path class="cls-7" d="M94.66,71.84l.57.35-.1.68-.44.22-1.19-.25-.19-.36s.7-.43.74-.43.62-.21.62-.21Z"/>
          <path class="cls-7" d="M91.69,76.46s.5-1.57.61-1.68.69-.25.69-.25l.88.08-.43.31.21.35.13,1.14-.7.39-1.39-.35Z"/>
          <path class="cls-14" d="M98.89,79.39c-2.28.45-3.06-2.33-4.33-3.61,0,0,.09-.1.09-.1,1.31,1.38,1.97,3.79,4.24,3.7h0Z"/>
          <path class="cls-10" d="M95.2,72.98s1.23,1.51,1.32,1.6c.1.1.73.88.73.88l.31.03.12-.27s-1.55-2.17-1.91-2.35c-.36-.18-.58.1-.58.1Z"/>
          <path class="cls-2" d="M95.12,73.13s.3.14.58.41c.52.51,1.04,1.25,1.34,1.7"/>
        </g>
        <path class="cls-4" d="M89.81,70.92s-.1-.43-.57-.34c-.37.07-.49.69-.49.71,0,.04-.02.06-.06.06-.03,0-.17-.16-.45-.03-.05.02-.2.2-.24.39-.06.24,0,.52,0,.54-.12.08-.52.4-.66.53-.33.3-.63.63-.9.98-.38.49-.69,1.02-.96,1.57-.15.31-.31.61-.44.93-.36.87-.64,1.92-.64,2.87,0,.6-.02,1.2.06,1.8.7,5.52,7.09,7.91,11.66,5.29.15-.09,2.27-1.2,4.31-2.88,3.03-2.48,5.98-4.46,6.5-8.84.04-.3-.02-.72-.05-1.02-.03-.26-.07-.52-.13-.78-.08-.34-.19-.68-.32-1.01-.97-2.38-3.44-3.23-5.86-2.88-.24.04-1.52.27-1.74.2-.24-.07-1.21-.29-1.35-.31-.88-.13-1.46.94-1.71,1.61-.02.06-.07.2-.1.3-.42-.05-1.27-.1-1.31-.1-.11-.09-.24-.26-.37-.38-.27-.25-.61-.55-.63-.61-.07-.17-.07-.32.1-.39.3-.14,1.24-.59,1.62-.73,1.38-.51,5.31-.4,6.08-2,.14-.3.15-.61.09-.92-.04-.18-.12-.35-.2-.51-.08-.16-.15-.33-.28-.46-4.37-4.69-12.83-1.06-16.12,3.07-.36.46-.67.94-.89,1.49-.13.33-.25.66-.32,1.01-.04.21-.06.41-.08.62-.02.28-.19.56-.14.84.03.16.26.65.6.89s.93.24,1.28.17c1.73-.49,3.12-2.08,4.87-2.59.27-.08.55-.15.82-.2.2-.04.62-.11,1.13.24.14.12.57.53.64.63-.1.01-.56.06-.99.15-.48.1-.92.24-.93.26.02-.09.01-.14,0-.21-.01-.15-.16-.24-.36-.24-.26,0-.36.18-.44.27ZM93.53,72.06c.02.14-.04.48-.13.61-.18-.06-.37.02-.54.05-.09,0-.19.01-.28.02-.18.01-.3.14-.41.28-.05.07-.07.15-.17.2-.06.03-.13.09-.16.17-.06.13.02.3.15.35.07.03.14,0,.21.04-.02.06-.04.12-.11.14-.04.01-.19.05-.27.14-.03.04-.17.19-.11.34s.23.27.37.27c.07,0,.15,0,.21.03-.03.05-.05.11-.08.16-.05.08-.06.18-.14.25-.02,0-.06.01-.07-.01-.01-.02-.25-.59-.86-.79-.49-.16-1.15.07-1.18.09.02-.1.08-.17.14-.24.06-.08.63-.58.75-.63.07-.03.14-.08.22-.11.06-.03.15-.13.18-.23.04-.11.03-.15.03-.23.07-.04.5-.29,1-.49.59-.23,1.2-.4,1.24-.39ZM94.95,71.73c.06,0,.69.04.75.04.02.14.15.37.21.45.07.1.39.5.51.63.1.11.19.23.32.31-.12,0-.79-.1-.93-.09-.11,0-.21.06-.29.13-.02.02-.07.07-.09.1-.1-.06-.58-.26-.61-.28.08-.25.16-.63.12-1.3ZM97.89,75.45c.09.03.64.21.76.29-.07.04-.54.08-.9,0-.49-.14-.77-.58-.77-.58.14.01.68.22.92.3ZM94.67,75.81s-.89-.16-1.06-.16c0-.02,0-.15.03-.27.02-.09.06-.21.06-.22.23.05.42.11.6.24.04.03.25.25.37.4Z"/>
      </g>
    </g>
    <path class="cls-8" d="M95.02,62.57c3.25,0,5.35,1.53,5.63,1.94.29.43.43.79.54,1.08.15.39.32.83.87.83.3,0,1.57.18,2.96.74,1.2.49,2.81,1.4,3.6,2.98.91,1.81.98,4.37.17,6.83-1.09,3.33-3.73,6.54-7.62,9.29-3.29,2.32-6.46,3.49-9.42,3.49-2.02,0-3.85-.56-5.43-1.65-1.48-1.03-2.69-2.53-3.48-4.32-2.13-4.82.2-8.96,1.31-10.52.15-.21.14-.39.1-.51-.08-.27-.35-.38-.46-.43-.14-.05-.5-.41-.45-1.09.05-.6.14-1.84,1.02-3.23,1.02-1.6,2.83-3.01,5.38-4.19,1.79-.83,3.57-1.25,5.28-1.25h0M95.02,62.18c-1.57,0-3.41.34-5.45,1.29-6.08,2.82-6.51,6.17-6.63,7.75-.06.84.39,1.36.7,1.49.2.08.3.17.18.34-.79,1.11-3.71,5.57-1.35,10.91,1.63,3.69,4.93,6.21,9.27,6.21,2.83,0,6.1-1.06,9.65-3.56,9.01-6.34,9.18-13.42,7.58-16.62-1.61-3.2-6.23-3.94-6.92-3.94-.48,0-.36-.66-1.08-1.73-.32-.47-2.5-2.12-5.96-2.12h0Z"/>
  </g>
  <g>
    <path class="cls-1" d="M116.08,45.7c-.4.35-.69.75-1,1.05-.28.28-.54.54-.7.74-.92,1.14-3.04,3.8-3.93,9.26-.79,4.88.72,8.39,3.23,12.15,0,0,3.27,5.48,11.34,6.08,8.07.6,14.25-5.88,14.65-12.61.39-6.73-6.28-15.3-9.72-17.81-3.44-2.51-8.35-3.74-13.87,1.13Z"/>
    <path class="cls-6" d="M111.86,56.34c.64-3.19,2.55-4.95,3.01-5.14.48-.2.86-.27,1.16-.32.41-.07.88-.16.99-.69.06-.3.48-1.5,1.31-2.76.72-1.09,1.93-2.48,3.63-2.95,1.96-.54,4.47-.1,6.73,1.17,3.06,1.72,5.69,4.93,7.62,9.29,1.63,3.68,2.16,7.02,1.58,9.92-.4,1.99-1.3,3.67-2.68,5-1.3,1.25-3,2.14-4.92,2.57-5.15,1.15-8.75-1.95-10.06-3.34-.18-.19-.36-.21-.48-.2-.29.03-.44.27-.51.37-.08.13-.51.41-1.16.23-.58-.16-1.78-.5-2.97-1.63-1.37-1.31-2.39-3.36-3.06-6.1-.46-1.92-.53-3.74-.19-5.43h0"/>
    <g id="mouse_fetus-2" data-name="mouse fetus">
      <g>
        <path class="cls-6" d="M118.97,62.92h0c0,.06.05.13,0,.19-.1,0-.18.05-.26.1-.06.04-.09.07-.1.14,0,.07-.01.13-.03.19-.02.08,0,.14.05.19.08.09.17.18.27.24.08.05.13.15.23.16,0,.02.03.04.05.04.04,0,.05.04.04.07,0,.05-.03.09-.06.14-.03.04-.05.08-.06.13-.01.18.09.35.26.43.15.06.31.1.48.1.06,0,.08.06.13.08,0,.03,0,.05.01.07.03.06.08.11.1.17.08.18.18.34.28.5.23.38.49.74.79,1.08.41.47.86.88,1.35,1.25.27.21.54.42.82.61.78.52,1.76,1,2.69,1.19.59.12,1.17.25,1.78.3,5.55.39,9.14-5.41,7.47-10.4-.14-.41-.29-.82-.42-1.23-.28-.87-.66-1.95-1.14-2.74-2.21-3.61-3.32-7.78-7.93-8.94-.29-.07-.59-.11-.89-.14-.26-.02-.53-.04-.79-.03-.35.02-.7.05-1.05.12-2.52.48-3.84,2.74-3.97,5.18-.01.25,0,.49,0,.74,0,.12.03.25.02.37-.03.22-.05.44-.15.64-.12.23-.24.45-.33.69-.02.06-.08.11-.1.17-.04.14-.09.27-.14.41-.3.84.64,1.62,1.24,1.99.05.03.11.06.17.07.04,0,.08.02.1.05-.02.04-.04.08-.04.12-.13.4-.18.82-.31,1.22-.01.04-.02.08-.04.12,0,.03,0,.05-.03.07-.14.14-.32.23-.47.36-.09.08-.2.13-.29.2-.07.06-.15.12-.25.14-.18.03-.42-.13-.45-.31-.03-.18-.1-.36-.15-.54-.11-.39-.18-.8-.25-1.2-.23-1.45.64-5.29-.77-6.35-.26-.2-.56-.27-.89-.26-.18,0-.37.05-.54.09-.17.05-.35.09-.51.18-5.45,3.37-3.55,12.38-.15,16.41.38.45.79.84,1.28,1.16.3.19.6.38.93.51.19.08.39.14.6.2.27.08.55.13.83.14.33,0,.62-.13.89-.3.24-.15.32-.4.41-.65.01-.04.02-.08.03-.11.06-.13.06-.28.05-.41-.14-1.79-1.43-3.47-1.59-5.29-.03-.28-.04-.56-.04-.85,0-.21-.02-.42.1-.61.1-.17.21-.33.36-.44.15-.11.27-.25.43-.34.1-.06.2-.12.31-.17.03,0,.03.04.05.06-.05.07-.02.15-.03.22-.03.29-.04.58-.03.87,0,.25.02.5.03.75,0,.02-.01.05-.02.07-.08,0-.15-.03-.22-.04-.15-.01-.31.14-.27.29.01.06.03.12.07.17.03.04.05.08.04.13,0,0,0,.02.01.02Z"/>
        <path class="cls-7" d="M124.88,46.88c-.26-.02-.53-.04-.79-.03-.35.02-.7.05-1.05.12-2.52.48-3.84,2.74-3.97,5.18-.01.25,0,.49,0,.74,0,.12.03.25.02.37-.03.22-.05.44-.15.64-.12.23-.24.45-.33.69-.02.06-.08.11-.1.17-.04.14-.09.27-.14.41-.3.84.64,1.62,1.24,1.99.05.03.11.06.17.07.04,0,.08.02.1.05.18.09.38.14.58.16.19.02.39.03.58.04.1-.01.19-.05.29-.08,0,0,0,0,0,0,.13-.14.16-.33.27-.48.09-.14.21-.25.31-.38.11-.17.25-.31.39-.45.05-.05.15-.04.2,0,.1.09.14.2.16.32,0,.1.03.15,0,.25-.01.12-.15.29-.19.4-.02.06-.05.11-.06.18-.02.13-.07.26-.09.39-.02.11.02.21.07.31.01.02.02.05.03.07.21-.15.43-.29.66-.4.2-.1.4-.21.6-.31.18-.09.35-.21.54-.28.11-.04.21-.1.31-.17-.02-.14.1-.21.16-.3.15-.2.3-.4.43-.62.05-.09.11-.17.16-.25.06-.08.1-.17.14-.26.01-.03.02-.06.07-.05.05.01.04.04.04.07,0,.16-.05.31-.09.46-.04.14-.08.29-.15.42-.1.19-.18.3-.35.44-.07.05-.16.07-.25.09,0,0-.02.02-.03.02-.04.06-.14.05-.2.08-.19.1-.4.2-.59.3-.06.03-.11.09-.18.13-.29.16-.63.28-.91.46-.11.07-.19.07-.27.17l-.03.04s0,.05,0,.05c0,.05-.06.05-.08.08-.1.17-.21.34-.3.52-.04-.02-.07-.03-.07-.03-.1,0-.13-.06-.21-.1-.12-.05-.27-.07-.38-.13-.15-.09-.32-.12-.5-.15-.04,0-.08-.02-.12-.04-.01.01.01-.17,0-.17-.15,0-.37-.09-.52-.05-.25.07-.49.37-.71.5-.03.02-.06.11-.11.1,0,.03-.14.08-.16.1-.14.14-.22.12-.37.25-.09.08-.27.19-.37.27-.07.06-.19.12-.28.14-.18.03-.25,0-.28-.18-.03-.18-.1-.36-.15-.54-.11-.39-.18-.8-.25-1.2-.23-1.45.64-5.29-.77-6.35-.26-.2-.56-.27-.89-.26-.18,0-.37.05-.54.09-.17.05-.35.09-.51.18-5.45,3.37-3.55,12.38-.15,16.41.38.45.79.84,1.28,1.16.3.19.6.38.93.51.19.08.39.14.6.2.27.08.55.13.83.14.33,0,.62-.13.89-.3.24-.15.32-.4.41-.65.01-.04.02-.08.03-.11.06-.13.06-.28.05-.41-.14-1.79-1.43-3.47-1.59-5.29-.03-.28-.04-.56-.04-.85,0-.21-.02-.42.1-.61.1-.17.21-.33.36-.44.15-.11.27-.25.43-.34.1-.06.2-.12.31-.17,0-.03.03.01.05.05,0,0,0,0,0,0-.05.07-.02.15-.03.22-.03.29-.04.58-.03.87,0,.25.02.5.03.75.12.05.23.11.33.18.02.02.05.03.07.02.02-.01,0-.04,0-.06,0-.12-.03-.23,0-.35.02-.11.2-.29.34-.28.08,0,.15.05.23.08.07.03.14.06.19.11.07.07.17.11.23.19.04.05.09.08.14.11.06.04.12,0,.17-.04.07-.08.13-.19.25-.21-.05-.16-.12-.31-.16-.47-.05-.16-.08-.33-.1-.5-.01-.09-.05-.17-.06-.26-.02-.22-.06-.43-.08-.65-.01-.1,0-.19-.02-.29,0-.06-.04-.12-.01-.18-.02,0-.03,0-.05,0,0-.04,0-.07.06-.06.06.01.09.07.22.07.11,0,.21.04.31.09.03.01.06,0,.06.03.06,0-.02.08.02.11.02.02.04.04.06.06-.03-.02-.07-.05-.1-.07-.09.17-.06.35-.06.52.1.1.19.19.29.29.15.14.31.27.49.36.13.06.14.07.12.2.06.03.11.06.12.13,0,.07.04.14.06.2.05.11.15.18.24.25.05.04.13,0,.19-.02.13-.05.22-.12.24-.27,0-.07.03-.14.07-.2-.02-.03-.07-.04-.09-.06,0,0,0,0,0,0,.11.02.21.03.33.11.18.13.35.26.54.38.17.11.25.26.3.45.11.45.15.92.28,1.38.02.06.03.13.04.19.03.14.09.19.23.16.19-.04.38-.03.56-.1,0,0,.01,0,.02,0,.02,0,.06-.02.07.02.01.04-.03.03-.05.04-.2.06-.4.12-.59.18-.3.11-.61.21-.91.33-.14.05-.25.05-.38-.03-.26-.15-.52-.31-.76-.49-.12-.09-.24-.2-.35-.32-.09-.04-.15-.12-.21-.19-.06-.08-.13-.16-.17-.25-.05-.09-.11-.16-.17-.25-.07-.11-.1-.24-.13-.36-.02-.08-.05-.15-.07-.23-.03-.13-.14-.17-.26-.2-.03,0-.06-.01-.09-.02-.08.02-.14.06-.19.13-.05.07-.1.15-.14.23-.04.07-.05.06-.11.01-.21-.18-.39-.41-.65-.52-.08-.04-.17-.05-.25-.06-.05,0-.11.04-.14.09-.11.19-.11.38,0,.57.04.06.07.12.09.19,0,0,.02,0,.01.02,0,0-.02,0-.02-.01-.11-.06-.18-.16-.29-.22-.11-.06-.22-.14-.34-.18-.08,0-.15-.03-.22-.04-.15-.01-.31.14-.27.29.01.06.03.12.07.17.03.04.05.08.04.13,0,0,0,.01.01.02.02,0,.03.01.04.03.06.1.15.18.26.23,0,0,.01.01.03.04-.12-.04-.23-.09-.34-.11-.1,0-.18.05-.26.1-.06.04-.09.07-.1.14,0,.07-.01.13-.03.19-.02.08,0,.14.05.19.08.09.17.18.27.24.08.05.13.15.23.16.12-.02.21.05.32.09.02,0,.04.02.07.03-.11.04-.2,0-.3,0,0,.05-.03.09-.06.14-.03.04-.05.08-.06.13-.01.18.09.35.26.43.13.06.28.09.42.09,0,0,.02,0,.06,0,.08-.02.17-.02.25-.01.31.03.6.16.88.29.15.07.3.14.44.22.13.07.27.12.4.2.27.16.54.32.81.47.23.13.46.28.69.42.48.28,1.03.52,1.59.56.15.01.29.09.44.13.05.01.1.07.16.11-.02,0-.05,0-.07-.01-.14-.04-.29-.07-.43-.09-.21-.04-.37-.13-.58-.15-.13-.01-.31-.07-.43-.13-.15-.07-.3-.14-.44-.22-.15-.09-.32-.13-.47-.21-.27-.14-.53-.31-.79-.47-.27-.16-.54-.32-.81-.48-.19-.11-.39-.22-.6-.3-.19-.05-.34-.16-.55-.2-.12-.02-.23-.04-.35-.04,0,.03,0,.05.01.07.03.06.08.11.1.17.08.18.18.34.28.5.23.38.49.74.79,1.08.41.47.86.88,1.35,1.25.27.21.54.42.82.61.78.52,1.76,1,2.69,1.19.59.12,1.17.25,1.78.3,5.55.39,9.14-5.41,7.47-10.4-.14-.41-.29-.82-.42-1.23-.29-.89-.66-1.94-1.14-2.74-2.21-3.61-3.32-7.78-7.93-8.94-.29-.07-.59-.11-.89-.14ZM122.49,58.1s.02.01.03.02c0,0-.02-.02-.03-.02ZM122.95,59.41s.05.04.07.06c-.03-.02-.05-.04-.07-.06ZM124.77,59.28h0s-.01,0-.02,0c-.01.09-.07.17-.1.25-.03.09-.07.18-.09.27-.03.16-.13.31-.16.47.03.04-.09-.04-.06.03-.11-.02-.16-.04-.25-.08-.09-.04-.14-.09-.16-.14,0,0,.02,0,.03.01.08-.21.19-.39.35-.54.03-.03.06-.06.08-.11-.02,0-.04-.02-.06-.02.02,0,.04.02.06.02.08-.06.17-.12.25-.19.02-.02.04-.03.07-.02,0-.02.14.03.07.03ZM121.17,53.08c-.15-.04-.27-.13-.36-.25-.18-.25-.23-.64.03-.89.17-.16.35-.32.57-.41.1-.04.21-.06.32-.04.24.08.41.23.54.44.09.15.1.31.07.47-.04.16-.13.29-.25.4-.11.09-.22.17-.35.23-.18.1-.37.09-.57.05ZM126.39,52.19c.12.21.22.42.24.67.03.43-.12.69-.29,1.07-.07.16-.19.29-.3.43-.04.05-.06.12-.12.18-.02-.11,0-.19.04-.27.11-.21.22-.42.3-.64.09-.26.14-.53.16-.8.02-.2-.05-.38-.09-.56,0-.02,0-.03,0-.05,0-.02,0-.04.02-.04.02,0,.04,0,.05.02Z"/>
        <g>
          <polygon class="cls-7" points="118.97 62.92 118.97 62.92 118.97 62.92 118.97 62.92"/>
          <polygon class="cls-7" points="124.61 56.93 124.61 56.93 124.61 56.93 124.61 56.93"/>
          <path class="cls-7" d="M125.91,54.54c.06-.06-.02-.11,0,0h0Z"/>
        </g>
        <g>
          <path class="cls-7" d="M124.82,46.87s-.01,0,0,0h0Z"/>
          <path class="cls-7" d="M124.84,46.87s0,0,0,0c0,0,0,0,0,0Z"/>
          <path class="cls-7" d="M124.88,46.88s-.02,0-.03,0c0,0,.02,0,.03,0Z"/>
          <path class="cls-7" d="M124.84,46.87s-.02,0-.03,0c0,0,.02,0,.03,0Z"/>
          <path class="cls-7" d="M124.95,46.88s.03,0,0,0h0Z"/>
          <path class="cls-7" d="M124.93,46.88s.01,0,.02,0c0,0-.01,0-.02,0Z"/>
          <path class="cls-7" d="M124.88,46.88s0,0,0,0c.02,0,.04,0,.05,0-.02,0-.03,0-.05,0Z"/>
        </g>
        <path class="cls-10" d="M119.53,58.61c.12-.4.18-.87.31-1.26.26.07.53.16.8.17.1,0,.22.03.32.03.04.02-.02.07-.02.1-.02.12-.07.22-.09.34-.01.06-.02.2-.05.26-.08,0-.15-.03-.23-.02-.22.04-.4.11-.61.18-.16.05-.29.15-.44.2Z"/>
        <path class="cls-14" d="M119.84,65.05c.08-.02.17-.02.25-.01.31.03.6.16.88.29.15.07.3.14.44.22.13.07.27.12.4.2.27.16.54.32.81.47.23.13.46.28.69.42.48.28,1.03.52,1.59.56.15.01.29.09.44.13.05.01.1.07.16.11-.02,0-.05,0-.07-.01-.14-.04-.29-.07-.43-.09-.21-.04-.9-.18-1.02-.23-.15-.07-.75-.39-.91-.48-.27-.14-.53-.31-.79-.47-.27-.16-.54-.32-.81-.48-.12-.07-.58-.3-.96-.43-.26-.09-.49-.11-.54-.1-.05-.02-.07-.07-.13-.08.08-.02.06,0,0,0,.08-.02.06,0,0,0Z"/>
        <path class="cls-14" d="M119.96,62.69s-.04-.09-.07-.14c-.12-.19-.12-.38,0-.57.1-.16.31-.06.39-.02.26.12.45.32.65.51.06.05.07.05.11-.01.05-.08.09-.15.14-.23.05-.07.11-.1.19-.13-.02-.03-.04-.05-.06-.08-.12.02-.18.13-.25.21-.05.05-.11.08-.17.04-.05-.03-.4-.36-.56-.42-.07-.03-.15-.07-.24-.08-.22-.03-.31.18-.33.29-.05.18.03.39,0,.4-.02.01-.05,0-.07-.02-.1-.07-.21-.13-.33-.18,0,.02-.01.05-.02.07.13.04.23.11.34.18.09.05.16.14.25.2l.08.06-.05-.1Z"/>
        <path class="cls-14" d="M120.93,57.55c-.1,0-.2,0-.29,0-.27-.02-.54-.1-.8-.18,0-.04.01-.08.04-.12.18.09.38.14.58.16.19.02.4-.02.59,0-.01.06-.08.12-.12.15Z"/>
        <path class="cls-14" d="M119.13,64.15c.12-.02.21.05.32.09.02,0,.04.02.07.03-.11.04-.2,0-.3,0,0-.04,0-.06-.04-.07-.02,0-.04-.02-.05-.04Z"/>
        <path class="cls-14" d="M118.97,62.92s.03.01.04.03c.06.1.15.18.26.23,0,0,.01.01.03.04-.12-.04-.23-.09-.34-.11.06-.06,0-.13,0-.19Z"/>
        <path class="cls-14" d="M118.96,62.9s0,.01.01.02c-.02,0-.01,0-.01-.02Z"/>
        <path class="cls-10" d="M121.73,51.49c.24.08.41.23.54.44.09.15.1.31.07.47-.04.16-.13.29-.25.4-.11.09-.22.17-.35.23-.18.1-.37.09-.57.05-.15-.04-.27-.13-.36-.25-.18-.25-.23-.64.03-.89.17-.16.35-.32.57-.41.1-.04.21-.06.32-.04ZM120.96,52.22c-.04.21.1.43.31.48.21.04.43-.1.48-.31.04-.21-.1-.43-.31-.48-.21-.04-.43.1-.48.31Z"/>
        <path class="cls-14" d="M123.45,61.42c.18.13.35.26.54.38.17.11.25.26.3.45.11.45.15.92.28,1.38.02.06.03.13.04.19.03.14.09.19.23.16.19-.04.38-.03.56-.1,0,0,.01,0,.02,0,.02,0,.06-.02.07.02.01.04-.03.03-.05.04-.2.06-.4.12-.59.18-.3.11-.61.21-.91.33-.14.05-.25.05-.38-.03-.26-.15-.52-.31-.76-.49-.12-.09-.24-.2-.35-.32-.05-.13-.05-.27-.05-.41,0-.12.03-.23.06-.35.01.03.03.06.04.09.03.08.1.13.13.21,0,.17.02.33.13.46.19.24.4.45.7.55.11.04.22.06.34.02.12-.04.25-.09.38-.13.16-.05.22-.13.23-.29.01-.19-.04-.38-.06-.57,0-.05,0-.12-.04-.17,0-.17-.02-.33-.04-.5,0-.05-.02-.1-.04-.15-.07-.16-.16-.29-.28-.41-.11-.12-.25-.2-.39-.28-.05-.09-.14-.13-.22-.19-.05-.04-.09-.07-.14-.11-.02-.03-.07-.04-.09-.06-.11-.14.12-.04.33.11Z"/>
        <path class="cls-14" d="M122.64,56.72c-.11.11-.3.19-.43.26-.15.09-.31.16-.45.26-.08.06-.18.09-.28.11-.05,0-.3.15-.36.12,0,0-.28-.06-.12-.06.19-.15.5-.35.6-.5.09-.14.21-.25.31-.38.11-.17.25-.31.39-.45.05-.05.15-.04.2,0,.1.09.14.13.16.27,0,.1.02.18-.02.37Z"/>
        <path class="cls-14" d="M125.91,54.54c-.02-.11,0-.19.04-.27.11-.21.22-.42.3-.64.09-.26.14-.53.16-.8.02-.2-.05-.38-.09-.56,0-.02,0-.03,0-.05,0-.02,0-.04.02-.04.02,0,.04,0,.05.02.12.21.22.42.24.67.03.43-.12.69-.29,1.07-.07.16-.19.29-.3.43-.04.05-.06.12-.12.18-.02-.11.06-.06,0,0Z"/>
        <path class="cls-14" d="M124.61,56.93s.02-.01.03,0c0,0-.02,0-.03,0Z"/>
        <path class="cls-14" d="M124.76,59.29s.01,0,.02-.01c0,0-.01,0-.02.01Z"/>
        <path class="cls-7" d="M123.57,61.68c.14.08.28.16.39.28.11.13.21.26.28.41.02.05.04.1.04.15.02.17.05.33.04.5-.08.05-.09.13-.1.2-.03.12-.08.24-.19.3-.2.12-.43.14-.66.05-.09-.04-.17-.11-.26-.14-.09-.03-.16-.07-.24-.12-.08-.05-.16-.11-.24-.16-.03-.08-.1-.13-.13-.21-.01-.03-.03-.06-.04-.09,0-.18.08-.33.17-.48.05-.09.09-.19.17-.26.13-.12.27-.24.46-.27.1-.02.18-.08.28-.1.02,0,.02-.04.02-.06Z"/>
        <path class="cls-12" d="M121.39,60.45c.1.1.19.19.29.29.15.14.31.27.49.36.13.06.14.07.12.2-.04.06-.04.13-.08.2-.07.12-.26.16-.37.08-.07-.05-.12-.12-.13-.19-.03-.1-.11-.14-.16-.2-.11-.13-.21-.27-.19-.45.01-.09.02-.19.04-.28Z"/>
        <path class="cls-12" d="M120.96,52.22c.04-.21.27-.36.48-.31.21.04.36.27.31.48-.04.21-.27.36-.48.31-.21-.04-.36-.27-.31-.48Z"/>
        <path class="cls-10" d="M122.63,63.15c.08.05.16.11.24.16.08.04.15.09.24.12.09.03.17.1.26.14.23.1.45.07.66-.05.1-.06.16-.18.19-.3.02-.08.03-.16.1-.2.04.05.03.11.04.17.01.19.07.38.06.57,0,.16-.08.24-.23.29-.13.04-.25.09-.38.13-.12.04-.23.02-.34-.02-.3-.1-.52-.31-.7-.55-.1-.13-.12-.3-.13-.46Z"/>
        <path class="cls-14" d="M122.47,58.09s-.04,0-.05,0c0-.04,0-.05-.01-.08"/>
      </g>
      <g>
        <g class="cls-13">
          <path class="cls-10" d="M121.58,58.61l.46-.62,2.33,1.92-.47.58s-1.58-1.07-1.67-1.21-.65-.67-.65-.67Z"/>
          <path class="cls-10" d="M118.99,61.3s1.49-1.24,2.24-1.15c.53.41,1.96,1.61,1.96,1.61l.2-.19-.07-.38-1.97-1.9s-2.28.64-2.29.68-.06,1.32-.06,1.32Z"/>
          <g>
            <path class="cls-7" d="M124.52,61.93c-.19-.06-.99-.34-1.77-.93-.26-.2-.49-.42-.7-.61-.22-.21-.43-.41-.62-.53-.22-.14-.4-.23-.6-.23-.24,0-.52.12-.94.35-.47.26-1.09.79-1.28.97l-.94-1.06h0s.85-.73,1.56-1.12c.46-.25,1-.52,1.6-.52.45,0,.89.15,1.36.45.3.2.56.45.82.69.2.19.38.36.58.51.62.47,1.29.69,1.36.72l-.43,1.32Z"/>
            <path class="cls-14" d="M120.83,58.21v.07c.44,0,.88.15,1.34.45.3.2.56.44.81.68.2.19.38.36.58.51.54.41,1.12.63,1.31.7l-.38,1.27c-.22-.07-.99-.36-1.73-.91-.26-.2-.49-.42-.7-.61-.22-.21-.42-.4-.62-.53-.22-.15-.4-.24-.62-.24-.25,0-.53.13-.95.36-.44.24-1,.72-1.24.93l-.9-.97c.19-.17.89-.78,1.5-1.12.46-.25.99-.52,1.58-.52v-.07M120.83,58.21c-.58,0-1.1.24-1.61.52-.72.39-1.53,1.14-1.57,1.17l.99,1.07c.2-.18.81-.71,1.28-.96.43-.24.69-.35.92-.35.19,0,.36.08.58.23.19.13.4.32.61.53.21.2.44.42.7.62.86.65,1.77.93,1.81.94l.42-1.39s-.71-.22-1.35-.71c-.2-.15-.38-.32-.57-.51-.25-.24-.52-.49-.82-.69-.51-.33-.96-.46-1.38-.46h0Z"/>
          </g>
          <path class="cls-7" d="M117.63,62.22s1.22-1.54,1.27-1.75-.33-1.95-.33-1.95l-1.38.1-.67,1.52,1.11,2.08Z"/>
          <path class="cls-7" d="M120.88,58.51l.45-.49.65.23.13.48-.48,1.11-.39.12s-.29-.77-.28-.81-.09-.65-.09-.65Z"/>
          <path class="cls-7" d="M124.82,62.33s-1.44-.8-1.53-.92-.11-.73-.11-.73l.25-.84.22.48.39-.14,1.15.1.25.76-.62,1.29Z"/>
          <path class="cls-14" d="M129.11,55.84c0,2.32-2.89,2.55-4.38,3.54,0,0-.08-.11-.08-.11,1.61-1.01,4.1-1.19,4.46-3.43h0Z"/>
          <path class="cls-10" d="M122.1,58.21s1.72-.91,1.83-.99c.11-.07,1.01-.55,1.01-.55l.09-.3-.25-.17s-2.43,1.09-2.68,1.41c-.24.32-.01.59-.01.59Z"/>
          <path class="cls-2" d="M122.23,58.31s.19-.27.51-.48c.6-.41,1.43-.77,1.93-.98"/>
        </g>
        <path class="cls-4" d="M119.02,63.08s-.44.02-.45.49c0,.38.58.61.61.62.04,0,.05.04.04.07,0,.03-.19.13-.12.44.01.05.15.23.33.31.23.1.51.1.53.11.06.13.29.59.39.75.23.38.49.74.79,1.08.41.47.86.88,1.35,1.25.27.21.54.42.82.61.78.52,1.76,1,2.69,1.19.59.12,1.17.25,1.78.3,5.55.39,9.14-5.41,7.47-10.4-.06-.17-.73-2.46-1.98-4.79-1.84-3.45-3.21-6.73-7.4-8.1-.29-.09-.71-.12-1.01-.15-.26-.02-.53-.04-.79-.03-.35.02-.7.05-1.05.12-2.52.48-3.84,2.74-3.97,5.18-.01.25-.04,1.55-.14,1.75-.12.23-.52,1.13-.57,1.27-.3.84.64,1.62,1.24,1.99.05.03.18.11.27.16-.13.4-.34,1.22-.35,1.26-.11.09-.3.18-.45.29-.3.22-.65.49-.72.5-.18.03-.33.01-.36-.17-.07-.32-.33-1.33-.4-1.74-.23-1.45.64-5.29-.77-6.35-.26-.2-.56-.27-.89-.26-.18,0-.37.05-.54.09-.17.05-.35.09-.51.18-5.45,3.37-3.55,12.38-.15,16.41.38.45.79.84,1.28,1.16.3.19.6.38.93.51.19.08.39.14.6.2.27.08.52.3.8.3.16,0,.69-.13.99-.41s.42-.87.42-1.22c-.14-1.79-1.43-3.47-1.59-5.29-.03-.28-.04-.56-.04-.85,0-.21.02-.63.46-1.06.15-.11.64-.46.74-.51,0,.1-.05.56-.04,1,0,.49.05.95.07.96-.08-.03-.13-.04-.21-.05-.15-.01-.26.11-.3.31-.05.25.11.38.17.49ZM120.87,59.66c.14,0,.46.13.58.24-.09.17-.05.37-.06.54-.02.09-.03.19-.04.28-.02.18.08.32.19.45.06.06.14.1.16.2.02.07.06.14.13.19.12.08.3.04.37-.08.04-.06.03-.14.08-.2.06.03.11.06.12.13,0,.04,0,.19.08.3.03.04.16.2.31.18s.31-.17.34-.31c0-.07.03-.14.07-.2.05.04.1.07.14.11.07.06.17.1.22.19,0,.02,0,.06-.02.06-.03,0-.63.13-.94.69-.25.45-.16,1.14-.15,1.18-.09-.04-.15-.12-.21-.19-.06-.08-.44-.73-.47-.86-.02-.08-.05-.15-.07-.23-.01-.06-.1-.17-.19-.22-.1-.06-.15-.05-.22-.07-.03-.07-.19-.55-.29-1.07-.11-.62-.16-1.26-.15-1.29ZM120.82,58.21c0-.06.18-.67.19-.73.14,0,.39-.07.48-.11.11-.05.57-.29.72-.37.13-.08.27-.14.37-.26-.01.12-.25.76-.27.89-.02.11.02.21.07.31.01.02.05.08.08.11-.08.08-.37.52-.39.54-.23-.13-.59-.28-1.25-.37ZM125.05,56.04c.05-.09.33-.59.43-.69.03.07-.02.55-.18.89-.24.46-.72.64-.72.64.04-.13.35-.62.47-.84ZM124.77,59.28s-.33.84-.36,1.01c-.02,0-.15-.03-.26-.08-.09-.04-.2-.1-.2-.1.1-.22.19-.39.35-.54.03-.03.29-.2.47-.29Z"/>
      </g>
    </g>
    <path class="cls-8" d="M111.86,56.34c.64-3.19,2.55-4.95,3.01-5.14.48-.2.86-.27,1.16-.32.41-.07.88-.16.99-.69.06-.3.48-1.5,1.31-2.76.72-1.09,1.93-2.48,3.63-2.95,1.96-.54,4.47-.1,6.73,1.17,3.06,1.72,5.69,4.93,7.62,9.29,1.63,3.68,2.16,7.02,1.58,9.92-.4,1.99-1.3,3.67-2.68,5-1.3,1.25-3,2.14-4.92,2.57-5.15,1.15-8.75-1.95-10.06-3.34-.18-.19-.36-.21-.48-.2-.29.03-.44.27-.51.37-.08.13-.51.41-1.16.23-.58-.16-1.78-.5-2.97-1.63-1.37-1.31-2.39-3.36-3.06-6.1-.46-1.92-.53-3.74-.19-5.43h0M111.47,56.26c-.31,1.54-.33,3.41.2,5.6,1.57,6.51,4.77,7.59,6.3,8.02.81.23,1.41-.12,1.6-.4.12-.18.22-.26.36-.11.93.99,4.74,4.73,10.43,3.46,3.94-.88,7.05-3.62,7.9-7.88.55-2.77.15-6.19-1.61-10.16-4.46-10.07-11.36-11.63-14.81-10.68-3.45.95-5.09,5.34-5.22,6.01-.09.48-.72.23-1.91.72-.53.22-2.57,2.04-3.24,5.43h0Z"/>
  </g>
  <g>
    <path class="cls-1" d="M67.54,50.94c-.53-.01-1.02.08-1.44.09-.39.01-.76.03-1.02.07-1.45.22-4.82.72-9.17,4.13-3.9,3.05-5.17,6.65-5.88,11.11,0,0-1.32,6.24,4.19,12.16,5.52,5.92,14.46,5.36,19.31.69,4.86-4.67,5.78-15.49,4.95-19.67s-3.59-8.41-10.95-8.58Z"/>
    <path class="cls-6" d="M57.21,55.89c2.63-1.91,5.23-1.9,5.7-1.73.49.18.81.39,1.07.55.35.23.75.48,1.19.16.24-.18,1.37-.78,2.83-1.14,1.26-.31,3.1-.51,4.66.3,1.8.93,3.35,2.96,4.15,5.43,1.07,3.34.83,7.48-.72,11.99-1.3,3.81-3.18,6.62-5.57,8.36-1.64,1.19-3.44,1.81-5.36,1.85-1.8.04-3.66-.47-5.36-1.46-4.56-2.65-5.1-7.38-5.12-9.28,0-.26-.12-.4-.21-.47-.23-.17-.51-.1-.63-.07-.14.04-.65-.04-1.01-.61-.32-.51-.97-1.57-1.07-3.21-.12-1.89.52-4.09,1.9-6.55.96-1.72,2.15-3.11,3.54-4.11h0"/>
    <g id="mouse_fetus-3" data-name="mouse fetus">
      <g>
        <path class="cls-6" d="M57.96,65.55h0s-.05.13-.13.14c-.08-.06-.16-.09-.26-.1-.06-.01-.12,0-.17.04-.05.04-.1.09-.15.12-.07.04-.09.1-.1.18,0,.12,0,.24.03.36.02.09,0,.2.06.28,0,.02,0,.05,0,.06.03.04.01.06-.02.08-.04.03-.09.05-.14.06-.05.01-.09.02-.13.06-.13.13-.17.32-.1.49.07.15.16.28.28.4.04.04.02.1.04.14-.02.02-.03.03-.04.06-.02.06-.02.14-.04.2-.06.18-.1.37-.14.56-.09.44-.14.88-.15,1.33-.02.62.04,1.23.14,1.84.06.34.11.68.19,1.01.22.91.61,1.93,1.16,2.7.35.49.69.98,1.1,1.42,3.81,4.06,10.38,2.24,12.55-2.56.18-.4.34-.8.52-1.19.39-.83.84-1.88,1.02-2.78.83-4.15,2.84-7.96.25-11.94-.16-.25-.35-.48-.56-.7-.18-.19-.36-.38-.56-.56-.27-.23-.55-.44-.85-.63-2.18-1.36-4.68-.6-6.43,1.11-.18.17-.33.37-.51.54-.09.08-.15.21-.24.28-.17.14-.33.29-.55.37-.24.09-.48.16-.71.28-.06.03-.13.03-.19.06-.13.07-.25.14-.38.21-.79.42-.63,1.62-.44,2.3.02.06.03.12.08.16.03.03.04.06.04.1-.04.01-.08.03-.11.06-.37.21-.69.48-1.05.69-.04.02-.07.04-.11.06-.02.01-.04.03-.07.03-.2,0-.39-.04-.59-.05-.12,0-.23-.04-.35-.05-.1,0-.2-.01-.28-.07-.16-.1-.22-.38-.12-.53.1-.16.17-.33.26-.49.19-.36.41-.71.63-1.05.82-1.23,4.06-3.45,3.74-5.19-.06-.32-.23-.58-.47-.8-.14-.12-.3-.22-.46-.3-.16-.08-.32-.17-.5-.21-6.29-1.23-11.01,6.68-11.25,11.95-.03.58.01,1.16.15,1.73.09.34.19.69.34,1.01.09.19.19.37.3.55.15.24.31.47.52.66.24.23.54.32.86.38.28.05.51-.07.74-.2.03-.02.06-.05.1-.06.13-.05.23-.16.31-.27,1.12-1.41,1.31-3.51,2.42-4.96.17-.22.35-.44.55-.65.14-.15.27-.32.49-.39.19-.06.37-.1.56-.08.18.02.37,0,.55.04.11.03.23.05.34.09.02.03,0,.05,0,.08-.08.02-.12.09-.17.14-.22.19-.42.4-.61.62-.16.19-.33.38-.49.57-.02.01-.04.03-.06.04-.06-.05-.09-.12-.14-.18-.1-.11-.32-.11-.4.02-.03.05-.06.11-.07.18,0,.05-.02.09-.06.12,0,0-.02.01,0,.02Z"/>
        <path class="cls-7" d="M73.19,57.78c-.18-.19-.36-.38-.56-.56-.27-.23-.55-.44-.85-.63-2.18-1.36-4.68-.6-6.43,1.11-.18.17-.33.37-.51.54-.09.08-.15.21-.24.28-.17.14-.33.29-.55.37-.24.09-.48.16-.71.28-.06.03-.13.03-.19.06-.13.07-.25.14-.38.21-.79.42-.63,1.62-.44,2.3.02.06.03.12.08.16.03.03.04.06.04.1.07.19.19.36.32.52.12.15.27.28.4.43.08.06.17.09.26.14,0,0,0,0,0,0,.19-.02.34-.13.52-.17.16-.04.32-.04.48-.07.2-.04.4-.05.59-.07.07,0,.14.07.14.15.01.14-.03.24-.11.34-.06.08-.08.13-.17.18-.09.08-.31.12-.41.16-.06.03-.12.05-.16.09-.1.09-.23.14-.33.22-.09.07-.13.17-.16.28,0,.03-.02.05-.03.07.26.04.51.08.76.15.22.07.44.12.65.18.19.06.4.08.58.16.11.05.23.07.35.08.08-.11.21-.09.32-.11.25-.05.5-.09.74-.17.09-.03.19-.05.29-.07.1-.02.18-.06.27-.1.03-.01.06-.03.08.01.03.04,0,.06-.02.08-.11.11-.24.2-.38.28-.13.08-.25.16-.4.21-.2.07-.34.1-.55.08-.09,0-.17-.05-.25-.1,0,0-.03,0-.03-.01-.07.01-.14-.06-.2-.08-.21-.06-.43-.12-.64-.18-.07-.02-.15-.01-.22-.03-.32-.08-.65-.23-.98-.28-.13-.02-.18-.08-.32-.06h-.05s-.03.05-.03.05c-.03.03-.07,0-.11,0-.19.06-.39.11-.57.18-.02-.04-.03-.07-.03-.07-.08-.07-.05-.13-.09-.22-.05-.12-.15-.23-.19-.36-.05-.17-.16-.31-.26-.45-.03-.03-.05-.07-.06-.11-.02,0,.13-.12.11-.13-.11-.1-.21-.32-.34-.39-.23-.12-.6-.06-.86-.12-.04,0-.12.04-.15,0-.02.01-.16-.04-.19-.04-.2,0-.25-.06-.44-.07-.12,0-.33-.05-.45-.05-.1,0-.22-.04-.3-.09-.16-.1-.18-.17-.08-.33.1-.16.17-.33.26-.49.19-.36.41-.71.63-1.05.82-1.23,4.06-3.45,3.74-5.19-.06-.32-.23-.58-.47-.8-.14-.12-.3-.22-.46-.3-.16-.08-.32-.17-.5-.21-6.29-1.23-11.01,6.68-11.25,11.95-.03.58.01,1.16.15,1.73.09.34.19.69.34,1.01.09.19.19.37.3.55.15.24.31.47.52.66.24.23.54.32.86.38.28.05.51-.07.74-.2.03-.02.06-.05.1-.06.13-.05.23-.16.31-.27,1.12-1.41,1.31-3.51,2.42-4.96.17-.22.35-.44.55-.65.14-.15.27-.32.49-.39.19-.06.37-.1.56-.08.18.02.37,0,.55.04.11.03.23.05.34.09.02-.02,0,.03,0,.08,0,0,0,0,0,0-.08.02-.12.09-.17.14-.22.19-.42.4-.61.62-.16.19-.33.38-.49.57.05.11.09.23.12.35,0,.03.01.06.04.06.02,0,.02-.03.04-.04.08-.09.13-.19.23-.26.09-.06.34-.08.44.03.06.06.08.14.11.21.03.07.06.14.06.21,0,.1.05.19.04.29,0,.06.01.12.03.18.02.07.08.09.15.08.11-.01.22-.05.33.01.07-.15.13-.31.2-.46.08-.15.17-.3.27-.44.05-.07.08-.16.13-.23.13-.17.25-.35.38-.53.06-.08.12-.15.18-.23.04-.05.05-.11.11-.14-.01-.01-.03-.02-.04-.03.02-.04.04-.05.08,0,.04.05.02.11.11.2.08.08.13.17.17.28.01.03.04.04.03.07.04.05-.06.04-.06.1,0,.03,0,.06,0,.09,0-.04-.02-.08-.03-.12-.18.06-.28.22-.4.34,0,.14.01.27.02.41.01.2.04.4.12.59.05.13.05.14-.05.23.02.06.04.12,0,.17-.05.06-.07.13-.09.19-.04.11-.01.23,0,.34.01.07.09.09.15.11.12.05.24.07.36-.03.05-.05.12-.08.19-.1,0-.04-.02-.07-.02-.11,0,0,0,0,0,0,.06.09.14.17.17.31.05.21.08.43.14.64.05.19,0,.37-.08.53-.22.41-.52.78-.73,1.2-.03.06-.07.11-.1.17-.07.13-.06.2.07.27.16.1.3.23.48.31,0,0,0,0,.01.01.02.02.06.02.04.06-.02.04-.05,0-.07,0-.19-.09-.37-.18-.56-.26-.29-.13-.59-.26-.89-.37-.14-.05-.21-.14-.26-.28-.09-.29-.17-.58-.23-.88-.03-.15-.04-.31-.04-.47-.04-.09-.03-.19-.03-.28,0-.1.02-.2.04-.3.03-.09.03-.2.04-.29.02-.13.09-.24.15-.36.04-.07.07-.15.11-.22.07-.12,0-.22-.06-.32-.02-.02-.03-.05-.05-.07-.07-.03-.15-.05-.22-.04-.09.02-.17.05-.26.07-.07.02-.08.01-.09-.06-.03-.28,0-.56-.12-.82-.04-.08-.09-.15-.15-.21-.04-.04-.11-.04-.16-.03-.21.07-.34.2-.38.42-.01.07-.03.14-.07.2,0,0,.01.02,0,.02-.01,0,0-.01,0-.02-.04-.12-.02-.24-.06-.36-.04-.12-.06-.25-.13-.36-.06-.05-.09-.12-.14-.18-.1-.11-.32-.11-.4.02-.03.05-.06.11-.07.18,0,.05-.02.09-.06.12,0,0,0,.01,0,.02.02.01.02.03.01.05-.02.12-.02.23.03.34,0,0,0,.02,0,.05-.07-.11-.1-.22-.18-.31-.08-.06-.16-.09-.26-.1-.06-.01-.12,0-.17.04-.05.04-.1.09-.15.12-.07.04-.09.1-.1.18,0,.12,0,.24.03.36.02.09,0,.2.06.28.1.07.12.18.18.28.01.02.02.04.03.07-.1-.04-.14-.14-.22-.21-.04.03-.09.05-.14.06-.05.01-.09.02-.13.06-.13.13-.17.32-.1.49.06.13.14.25.25.36,0,0,.01.02.04.04.08.04.14.1.2.16.21.24.33.52.45.81.06.15.12.3.18.46.05.14.11.28.16.42.09.3.18.6.27.89.08.26.15.52.22.78.16.53.4,1.08.79,1.49.11.11.15.26.24.39.03.05.03.12.05.19-.01-.02-.03-.04-.04-.06-.07-.13-.16-.24-.25-.36-.13-.17-.18-.34-.33-.5-.09-.1-.18-.26-.23-.39-.06-.15-.13-.31-.17-.46-.05-.17-.15-.31-.21-.48-.1-.29-.17-.59-.26-.88-.09-.3-.18-.61-.27-.91-.07-.21-.14-.43-.24-.63-.1-.17-.15-.35-.27-.52-.07-.1-.14-.19-.23-.26-.02.02-.03.03-.04.06-.02.07-.02.14-.04.2-.06.18-.1.37-.14.56-.09.44-.14.88-.15,1.33-.02.62.04,1.23.14,1.84.06.34.11.68.19,1.01.22.91.61,1.93,1.16,2.7.35.49.69.98,1.1,1.42,3.81,4.06,10.38,2.24,12.55-2.56.18-.4.34-.8.52-1.19.39-.85.84-1.87,1.02-2.78.83-4.15,2.84-7.96.25-11.94-.16-.25-.35-.48-.56-.7ZM63.82,64.4s0,.02,0,.04c0-.01,0-.02,0-.04ZM63.27,65.67s.01.06.02.09c0-.03-.01-.06-.02-.09ZM64.7,66.81h0s-.01,0-.02,0c-.07.06-.17.08-.24.12-.08.05-.17.08-.25.14-.13.1-.3.14-.44.24,0,.05-.04-.09-.07-.02-.07-.09-.09-.14-.13-.23-.04-.09-.04-.16-.02-.22,0,0,0,.02.01.03.2-.1.4-.15.62-.16.04,0,.09,0,.13-.03,0-.02-.02-.04-.03-.06,0,.02.02.04.03.06.1.01.21.02.31.03.03,0,.05,0,.07.03.01-.01.08.12.03.07ZM66.26,59.82c-.09-.13-.11-.28-.09-.43.04-.3.27-.63.63-.63.23,0,.47,0,.69.09.1.04.19.09.26.19.12.22.15.45.1.69-.04.17-.14.3-.27.39-.13.09-.29.13-.45.12-.14,0-.28-.03-.41-.06-.2-.06-.34-.18-.45-.35ZM70.69,62.71c-.05.23-.12.46-.28.65-.27.33-.56.42-.94.58-.16.07-.34.08-.51.11-.07.01-.13.05-.21.05.06-.09.13-.14.21-.17.22-.08.45-.15.66-.27.24-.13.46-.3.67-.48.15-.13.22-.31.32-.47,0-.01.02-.03.03-.04.01-.02.02-.03.04-.02.02,0,.02.03.02.05Z"/>
        <g>
          <polygon class="cls-7" points="57.96 65.55 57.96 65.55 57.96 65.55 57.96 65.55"/>
          <polygon class="cls-7" points="66.17 64.98 66.17 64.98 66.17 64.98 66.17 64.98"/>
          <path class="cls-7" d="M68.75,64.11c.09,0,.06-.09,0,0h0Z"/>
        </g>
        <g>
          <path class="cls-7" d="M73.15,57.73s0,0,0,0h0Z"/>
          <path class="cls-7" d="M73.17,57.76s0,0,0,0c0,0,0,0,0,0Z"/>
          <path class="cls-7" d="M73.19,57.78s-.02-.02-.02-.02c0,0,.01.02.02.02Z"/>
          <path class="cls-7" d="M73.17,57.75s-.01-.02-.02-.02c0,0,.01.01.02.02Z"/>
          <path class="cls-7" d="M73.24,57.83s.02.02,0,0h0Z"/>
          <path class="cls-7" d="M73.23,57.82s0,0,.01.01c0,0,0,0-.01-.01Z"/>
          <path class="cls-7" d="M73.19,57.78s0,0,0,0c.01.01.02.03.03.04-.01-.01-.02-.03-.04-.04Z"/>
        </g>
        <path class="cls-10" d="M61.3,62.76c.36-.21.72-.51,1.09-.72.14.23.28.47.47.67.07.07.14.17.21.24.02.04-.06.04-.08.06-.09.07-.2.12-.29.19-.05.04-.15.13-.21.16-.06-.05-.09-.12-.15-.17-.19-.12-.37-.19-.57-.28-.15-.07-.31-.09-.46-.15Z"/>
        <path class="cls-14" d="M57.15,67.7c.08.04.14.1.2.16.21.24.33.52.45.81.06.15.12.3.18.46.05.14.11.28.16.42.09.3.18.6.27.89.08.26.15.52.22.78.16.53.4,1.08.79,1.49.11.11.15.26.24.39.03.05.03.12.05.19-.01-.02-.03-.04-.04-.06-.07-.13-.16-.24-.25-.36-.13-.17-.54-.74-.59-.87-.06-.15-.28-.8-.34-.97-.1-.29-.17-.59-.26-.88-.09-.3-.18-.61-.27-.91-.04-.13-.22-.61-.41-.97-.13-.24-.29-.41-.33-.44-.02-.05,0-.1-.04-.14.08.04.04.04,0,0,.08.04.04.04,0,0Z"/>
        <path class="cls-14" d="M58.85,66.05s.03-.1.04-.15c.04-.22.17-.36.38-.42.18-.04.26.17.3.25.12.26.11.54.14.82,0,.07.01.09.09.06.09-.02.17-.05.26-.07.08-.02.15,0,.22.04,0-.03,0-.07,0-.1-.11-.07-.22-.02-.33-.01-.07,0-.13-.01-.15-.08-.02-.06-.05-.53-.12-.69-.03-.07-.06-.16-.12-.22-.15-.17-.35-.08-.44-.02-.16.1-.25.3-.27.3-.03,0-.04-.03-.04-.06-.03-.12-.07-.24-.12-.35-.02.01-.04.03-.06.04.07.11.09.24.13.36.03.1.03.21.05.32l.02.1.03-.1Z"/>
        <path class="cls-14" d="M63.04,62.94c-.07-.07-.14-.14-.21-.21-.19-.2-.32-.44-.47-.67.03-.03.07-.05.11-.06.07.19.19.36.32.52.12.15.3.26.44.4-.05.04-.14.04-.19.03Z"/>
        <path class="cls-14" d="M57.24,66.56c.1.07.12.18.18.28.01.02.02.04.03.07-.1-.04-.14-.14-.22-.21.03-.02.04-.05.02-.08-.01-.02-.02-.04,0-.06Z"/>
        <path class="cls-14" d="M57.96,65.55s.02.03.01.05c-.02.12-.02.23.03.34,0,0,0,.02,0,.05-.07-.11-.1-.22-.18-.31.08,0,.09-.09.13-.14Z"/>
        <path class="cls-14" d="M57.96,65.53s0,.01,0,.02c-.01,0,0-.01,0-.02Z"/>
        <path class="cls-10" d="M67.75,59.03c.12.22.15.45.1.69-.04.17-.14.3-.27.39-.13.09-.29.13-.45.12-.14,0-.28-.03-.41-.06-.2-.06-.34-.18-.45-.35-.09-.13-.11-.28-.09-.43.04-.3.27-.63.63-.63.23,0,.47,0,.69.09.1.04.19.09.26.19ZM66.69,59.04c-.18.13-.22.39-.09.56.13.18.39.22.56.09.18-.13.22-.39.09-.56-.13-.18-.39-.22-.56-.09Z"/>
        <path class="cls-14" d="M62.27,67.49c.05.21.08.43.14.64.05.19,0,.37-.08.53-.22.41-.52.78-.73,1.2-.03.06-.07.11-.1.17-.07.13-.06.2.07.27.16.1.3.23.48.31,0,0,0,0,.01.01.02.02.06.02.04.06-.02.04-.05,0-.07,0-.19-.09-.37-.18-.56-.26-.29-.13-.59-.26-.89-.37-.14-.05-.21-.14-.26-.28-.09-.29-.17-.58-.23-.88-.03-.15-.04-.31-.04-.47.05-.13.15-.23.24-.33.08-.09.18-.15.28-.22-.01.03-.02.06-.03.09-.03.08-.01.17-.05.24-.11.12-.21.26-.22.43-.03.3,0,.6.15.88.06.1.12.19.24.24.12.05.25.1.36.16.15.07.25.06.36-.05.14-.13.23-.31.35-.46.03-.04.08-.08.08-.15.12-.12.21-.26.31-.4.03-.04.05-.09.07-.14.06-.16.07-.32.08-.49,0-.17-.04-.32-.09-.47.03-.1-.02-.19-.03-.29,0-.06-.02-.12-.03-.18,0-.04-.02-.07-.02-.11.02-.18.11.06.17.31Z"/>
        <path class="cls-14" d="M64.87,63.49c-.15.01-.35-.07-.5-.1-.17-.04-.33-.1-.51-.12-.1-.01-.19-.05-.27-.11-.05-.03-.32-.09-.35-.16,0,0-.17-.24-.05-.13.24.02.6.08.78.04.16-.04.32-.04.48-.07.2-.04.4-.05.59-.07.07,0,.14.07.14.15.01.14.02.19-.07.31-.06.08-.1.15-.26.26Z"/>
        <path class="cls-14" d="M68.75,64.11c.06-.09.13-.14.21-.17.22-.08.45-.15.66-.27.24-.13.46-.3.67-.48.15-.13.22-.31.32-.47,0-.01.02-.03.03-.04.01-.02.02-.03.04-.02.02,0,.02.03.02.05-.05.23-.12.46-.28.65-.27.33-.56.42-.94.58-.16.07-.34.08-.51.11-.07.01-.13.05-.21.05.06-.09.09,0,0,0Z"/>
        <path class="cls-14" d="M66.17,64.98s.03,0,.02.02c0,0-.01-.02-.02-.02Z"/>
        <path class="cls-14" d="M64.68,66.81s.01,0,.02,0c0,0-.01,0-.02,0Z"/>
        <path class="cls-7" d="M62.18,67.75c.05.15.1.3.09.47,0,.17-.02.33-.08.49-.02.05-.04.1-.07.14-.09.14-.19.27-.31.4-.09-.02-.15.03-.21.08-.1.07-.23.12-.34.09-.23-.05-.41-.18-.51-.41-.04-.09-.05-.19-.1-.28-.04-.08-.07-.16-.09-.25-.03-.09-.04-.19-.07-.28.04-.08.02-.17.05-.24.01-.03.02-.06.03-.09.12-.13.29-.18.45-.24.1-.03.2-.08.3-.08.18,0,.36.01.52.11.08.05.18.07.27.12.02.01.04-.02.06-.03Z"/>
        <path class="cls-12" d="M61.42,65.37c0,.14.01.27.02.41.01.2.04.4.12.59.05.13.05.14-.05.23-.07.01-.12.07-.19.09-.14.04-.3-.05-.33-.19-.02-.08,0-.17.03-.23.05-.09.02-.17.02-.26,0-.17.03-.34.17-.46.07-.06.14-.12.22-.18Z"/>
        <path class="cls-12" d="M66.69,59.04c.18-.13.44-.08.56.09.13.18.08.44-.09.56-.18.13-.44.08-.56-.09-.13-.18-.08-.44.09-.56Z"/>
        <path class="cls-10" d="M60.49,68.2c.02.09.04.19.07.28.03.09.05.17.09.25.05.09.06.19.1.28.1.23.28.36.51.41.11.03.24-.02.34-.09.07-.05.13-.1.21-.08,0,.06-.05.1-.08.15-.12.15-.21.32-.35.46-.11.11-.22.13-.36.05-.12-.06-.24-.11-.36-.16-.12-.05-.18-.14-.24-.24-.15-.28-.17-.57-.15-.88.01-.17.11-.3.22-.43Z"/>
        <path class="cls-14" d="M63.81,64.38s-.03-.04-.03-.04c.03-.03.04-.03.05-.07"/>
      </g>
      <g>
        <g class="cls-11">
          <path class="cls-10" d="M62.8,64.16l.76-.15.41,2.99-.74.11s-.43-1.86-.41-2.02-.02-.93-.02-.93Z"/>
          <path class="cls-10" d="M59.08,64.37s1.94.1,2.43.68c.11.66.34,2.51.34,2.51h.27s.21-.33.21-.33l-.16-2.73s-2.11-1.08-2.15-1.05-.94.92-.94.92Z"/>
          <g>
            <path class="cls-7" d="M62.71,68.59c-.09-.16-.5-.92-.67-1.88-.06-.32-.08-.64-.1-.93-.02-.3-.04-.58-.09-.81-.15-.59-.33-.73-1.21-.95-.52-.13-1.33-.16-1.6-.16l.03-1.42s1.11.04,1.9.23c.97.24,1.87.58,2.22,1.96.09.35.11.71.13,1.06.02.27.03.53.08.77.13.74.45,1.34.51,1.45l-1.21.68Z"/>
            <path class="cls-14" d="M59.11,62.51c.25,0,1.17.03,1.86.2.96.24,1.85.57,2.2,1.94.09.35.11.71.13,1.05.02.27.03.52.08.77.12.67.39,1.23.49,1.41l-1.14.67c-.11-.21-.49-.94-.65-1.84-.06-.32-.08-.64-.09-.92-.02-.3-.04-.58-.09-.81-.15-.61-.34-.75-1.24-.98-.48-.12-1.22-.16-1.54-.16v-1.32M59.04,62.44h0v1.45c.27,0,1.08.03,1.59.16.88.22,1.04.35,1.19.93.06.22.07.5.09.8.02.28.04.6.1.93.19,1.06.67,1.89.69,1.92l1.25-.73s-.37-.64-.51-1.44c-.04-.24-.06-.5-.08-.76-.02-.35-.04-.71-.13-1.07-.35-1.4-1.26-1.74-2.24-1.98-.79-.2-1.89-.2-1.94-.2h0Z"/>
          </g>
          <path class="cls-7" d="M57.45,64.13s1.94-.3,2.12-.42,1.08-1.65,1.08-1.65l-1.07-.86-1.52.66-.6,2.28Z"/>
          <path class="cls-7" d="M62.36,63.6l.66-.05.32.61-.23.44-1.11.49-.37-.17s.31-.76.34-.78.38-.54.38-.54Z"/>
          <path class="cls-7" d="M62.66,69.09s-.52-1.56-.5-1.72.41-.61.41-.61l.76-.45-.16.51.38.16.77.85-.34.73-1.33.53Z"/>
          <path class="cls-14" d="M70.21,67.23c-1.58,1.7-3.85-.09-5.62-.38,0,0,.02-.13.02-.13,1.87.35,3.82,1.91,5.61.51h0Z"/>
          <path class="cls-10" d="M63.46,64.21s1.88.5,2.01.52c.13.02,1.11.29,1.11.29l.27-.16-.06-.29s-2.53-.85-2.92-.78c-.4.07-.41.42-.41.42Z"/>
          <path class="cls-2" d="M63.49,64.37s.32-.07.7,0c.72.11,1.57.41,2.09.59"/>
        </g>
        <path class="cls-4" d="M57.89,65.7s-.33-.28-.66.06c-.26.27.01.85.03.86.03.04.01.06-.02.08-.02.02-.23-.03-.38.24-.03.05-.04.27.03.45.1.23.3.42.31.44-.05.13-.18.63-.22.82-.09.44-.14.88-.15,1.33-.02.62.04,1.23.14,1.84.06.34.11.68.19,1.01.22.91.61,1.93,1.16,2.7.35.49.69.98,1.1,1.42,3.81,4.06,10.38,2.24,12.55-2.56.07-.16,1.13-2.3,1.8-4.86.99-3.79,2.22-7.12.07-10.97-.15-.26-.43-.57-.64-.79-.18-.19-.36-.38-.56-.56-.27-.23-.55-.44-.85-.63-2.18-1.36-4.68-.6-6.43,1.11-.18.17-1.08,1.11-1.29,1.19-.24.09-1.15.48-1.28.54-.79.42-.63,1.62-.44,2.3.02.06.06.2.09.3-.37.21-1.08.67-1.12.69-.15,0-.35-.07-.52-.09-.37-.04-.81-.09-.87-.12-.16-.1-.25-.21-.15-.37.16-.29.66-1.2.89-1.54.82-1.23,4.06-3.45,3.74-5.19-.06-.32-.23-.58-.47-.8-.14-.12-.3-.22-.46-.3-.16-.08-.32-.17-.5-.21-6.29-1.23-11.01,6.68-11.25,11.95-.03.58.01,1.16.15,1.73.09.34.19.69.34,1.01.09.19.19.37.3.55.15.24.18.57.38.76.12.11.6.37,1.01.37s.9-.35,1.13-.61c1.12-1.41,1.31-3.51,2.42-4.96.17-.22.35-.44.55-.65.14-.15.44-.45,1.05-.47.18.02.78.09.89.13-.07.07-.42.38-.71.71-.33.36-.61.73-.6.75-.04-.08-.07-.12-.12-.17-.1-.11-.27-.1-.43.02-.21.15-.18.35-.2.47ZM61.57,64.44c.1.1.25.41.26.57-.18.06-.29.23-.41.36-.08.06-.15.12-.22.18-.14.12-.16.29-.17.46,0,.08.03.17-.02.26-.03.06-.05.15-.03.23.03.14.2.23.33.19.07-.02.12-.08.19-.09.02.06.04.12,0,.17-.03.03-.12.15-.14.27,0,.05-.02.25.11.34s.34.08.46,0c.05-.05.12-.08.19-.1.01.06.02.12.03.18.01.1.06.19.03.29-.02.01-.04.04-.06.03-.02-.01-.55-.33-1.16-.14-.49.16-.89.73-.9.76-.04-.09-.03-.19-.03-.28,0-.1.17-.84.24-.95.04-.07.07-.15.11-.22.03-.06.05-.19.01-.29-.03-.11-.07-.14-.11-.2.03-.07.23-.53.52-.98.34-.53.74-1.03.77-1.05ZM62.52,63.34s.59-.37.64-.41c.1.1.34.22.43.24.12.04.61.18.78.21.15.03.29.07.45.06-.09.08-.7.39-.81.47-.09.07-.13.17-.16.28,0,.03-.02.1-.02.13-.12,0-.62.13-.65.13-.08-.25-.24-.6-.66-1.12ZM67.09,64.63c.09-.03.65-.21.78-.21-.03.07-.39.39-.73.53-.48.17-.97-.02-.97-.02.12-.07.68-.22.92-.3ZM64.7,66.81s-.82.39-.95.49c-.01-.01-.08-.13-.14-.23-.04-.09-.08-.21-.08-.21.22-.1.4-.15.62-.16.04,0,.35.05.54.11Z"/>
      </g>
    </g>
    <path class="cls-8" d="M57.21,55.89c2.63-1.91,5.23-1.9,5.7-1.73.49.18.81.39,1.07.55.35.23.75.48,1.19.16.24-.18,1.37-.78,2.83-1.14,1.26-.31,3.1-.51,4.66.3,1.8.93,3.35,2.96,4.15,5.43,1.07,3.34.83,7.48-.72,11.99-1.3,3.81-3.18,6.62-5.57,8.36-1.64,1.19-3.44,1.81-5.36,1.85-1.8.04-3.66-.47-5.36-1.46-4.56-2.65-5.1-7.38-5.12-9.28,0-.26-.12-.4-.21-.47-.23-.17-.51-.1-.63-.07-.14.04-.65-.04-1.01-.61-.32-.51-.97-1.57-1.07-3.21-.12-1.89.52-4.09,1.9-6.55.96-1.72,2.15-3.11,3.54-4.11h0M56.98,55.57c-1.27.92-2.56,2.28-3.66,4.24-3.27,5.85-1.65,8.81-.82,10.16.44.71,1.12.87,1.44.79.21-.05.34-.04.35.16.01,1.36.27,6.69,5.31,9.62,3.49,2.03,7.63,2.13,11.15-.42,2.29-1.66,4.31-4.44,5.72-8.55,3.57-10.42-.44-16.25-3.62-17.9-3.18-1.64-7.36.47-7.91.87-.39.28-.68-.32-1.89-.77-.53-.2-3.27-.25-6.07,1.78h0Z"/>
  </g>
</svg>