<?xml version="1.0" encoding="UTF-8" standalone="no"?>
<!-- Created with Inkscape (http://www.inkscape.org/) -->

<svg
   width="210mm"
   height="210mm"
   viewBox="0 0 210 210"
   version="1.1"
   id="svg1"
   xml:space="preserve"
   inkscape:version="1.3.2 (091e20e, 2023-11-25, custom)"
   sodipodi:docname="cell-t.svg"
   xmlns:inkscape="http://www.inkscape.org/namespaces/inkscape"
   xmlns:sodipodi="http://sodipodi.sourceforge.net/DTD/sodipodi-0.dtd"
   xmlns="http://www.w3.org/2000/svg"
   xmlns:svg="http://www.w3.org/2000/svg"><sodipodi:namedview
     id="namedview1"
     pagecolor="#ffffff"
     bordercolor="#000000"
     borderopacity="0.25"
     inkscape:showpageshadow="2"
     inkscape:pageopacity="0.0"
     inkscape:pagecheckerboard="0"
     inkscape:deskcolor="#d1d1d1"
     inkscape:document-units="mm"
     inkscape:zoom="1.0343421"
     inkscape:cx="334.51216"
     inkscape:cy="343.69674"
     inkscape:window-width="1920"
     inkscape:window-height="1017"
     inkscape:window-x="-8"
     inkscape:window-y="-8"
     inkscape:window-maximized="1"
     inkscape:current-layer="g1" /><defs
     id="defs1" /><g
     inkscape:label="Camada 1"
     inkscape:groupmode="layer"
     id="layer1"><g
       id="g1"
       transform="matrix(0.26458333,0,0,0.26458333,16.150769,89.496384)"><path
         style="fill:#00ffff;fill-opacity:0.109677;stroke:#008080;stroke-width:9.69449;stroke-dasharray:none;stroke-opacity:1"
         d="m 184.04105,218.1383 c 0,0 43.98931,34.80474 72.02646,38.18853 28.03715,3.38379 16.91897,128.58416 26.10355,72.02646 9.18458,-56.55769 14.01857,-62.84188 14.01857,-62.84188 0,0 31.42094,3.8672 40.60553,0.4834 9.18458,-3.38379 45.92291,87.49524 40.60552,61.39169 -5.31739,-26.10355 0.4834,-68.64267 0.4834,-68.64267 0,0 33.83793,-5.31739 44.95611,-15.46877 11.11818,-10.15138 39.63873,-17.88577 55.5909,-38.18853 15.95216,-20.30276 51.7237,-6.28419 44.47271,-13.05178 -7.25099,-6.76758 -6.76759,-33.83793 -6.76759,-33.83793 0,0 22.71976,-28.03715 26.58695,-64.292093 3.86719,-36.25493 9.18458,-9.66798 3.3838,-56.55769 -5.80079,-46.8897097 -4.83399,-50.7569 -6.28419,-52.2071 -1.4502,-1.4502 156.1379,-92.812607 75.89365,-72.993264 -80.24424,19.819364 -104.4142,7.734384 -104.4142,7.734384 0,0 -11.11818,-25.620137 -36.73833,-46.406297 -25.62015,-20.78616 -29.97074,-22.23635 -29.97074,-22.23635 0,0 26.10355,-52.69051 0.4834,-33.35455 -25.62015,19.33596 -32.38774,18.36916 -32.38774,18.36916 0,0 -16.91897,-8.21778 -43.98932,-14.01857 -27.07034,-5.80079 -35.28813,-4.35059 -35.28813,-4.35059 0,0 -14.01857,-130.51775 -23.68655,-66.70907 -9.66798,63.80867 -22.71976,68.64267 -22.71976,68.64267 0,0 -38.67193,9.66798 -62.84188,22.23635 -24.16995,12.56839 -16.43557,16.91898 -28.52054,15.46878 -12.08498,-1.45019 -65.25888,-47.37312 -51.72371,-15.46878 13.53518,31.90435 11.11818,50.75692 11.11818,50.75692 0,0 -14.98537,14.985363 -29.97074,42.539097 -14.98537,27.55375 -18.36916,29.48735 -18.36916,29.48735 0,0 -87.978633,26.1035503 -53.173897,32.8711403 34.804727,6.76758 45.922907,16.4355597 45.922907,16.4355597 0,0 -4.35059,29.48735 0.9668,58.97469 5.31739,29.487343 -62.841874,66.225683 -39.638727,59.458103 23.203157,-6.76759 51.723697,-11.60158 51.723697,-11.60158 0,0 1.4502,14.01857 14.01858,32.38774 12.56837,18.36916 -78.310647,94.26282 -30.45414,65.74227 47.8565,-28.52054 59.45808,-25.13675 59.45808,-25.13675 z"
         id="path4" /><ellipse
         style="fill:#00ffff;fill-opacity:0.80000001;stroke:#008080;stroke-width:9.69449;stroke-dasharray:none;stroke-opacity:1"
         id="path5"
         cx="176.09384"
         cy="-204.84233"
         rx="98.130013"
         ry="138.25214"
         transform="rotate(54.270087)" /></g></g></svg>
