<?xml version="1.0" encoding="utf-8"?>
<!-- Generator: Adobe Illustrator 22.0.0, SVG Export Plug-In . SVG Version: 6.00 Build 0)  -->
<svg version="1.1" id="Layer_1" xmlns="http://www.w3.org/2000/svg" xmlns:xlink="http://www.w3.org/1999/xlink" x="0px" y="0px"
	 viewBox="0 0 290 326" style="enable-background:new 0 0 290 326;" xml:space="preserve">
<style type="text/css">
	.st0{stroke:#000000;stroke-width:10;stroke-miterlimit:10;}
</style>
<path class="st0" d="M56,11.8l72.8,87.3c3,3.6-7,11.9-10,8.3L46,20.1C43,16.6,53,8.2,56,11.8z"/>
<path class="st0" d="M23.9,31.3l72.8,87.3c3,3.6-7,11.9-10,8.3L13.9,39.7C10.9,36.1,20.9,27.8,23.9,31.3z"/>
<path class="st0" d="M169.5,160.1v-58c0-8.4-13-8.4-13,0v32.4h-27.2v-32.4c0-8.4-13-8.4-13,0v205.6c0,8.4,13,8.4,13,0V167.4h27.2
	v140.3c0,8.4,13,8.4,13,0V161.6C169.6,161.1,169.6,160.6,169.5,160.1z M129.3,154.4v-6.8h27.2v6.8H129.3z"/>
<path class="st0" d="M229.8,11.8L157,99.1c-3,3.6,7,11.9,10,8.3l72.8-87.3C242.8,16.6,232.8,8.2,229.8,11.8z"/>
<path class="st0" d="M257.6,31.3l-72.8,87.3c-3,3.6,7,11.9,10,8.3l72.8-87.3C270.5,36.1,260.6,27.8,257.6,31.3z"/>
<path class="st0" d="M103.3,85.4L82.9,102c-6.5,5.3,1.7,15.4,8.2,10.1l20.4-16.6C118,90.2,109.8,80.1,103.3,85.4z"/>
<path class="st0" d="M205.4,103.6L187,84.8c-5.9-6-15.2,3.1-9.3,9.1l18.4,18.8C202,118.7,211.3,109.6,205.4,103.6z"/>
</svg>
