<?xml version="1.0" encoding="iso-8859-1"?>
<!-- Generator: Adobe Illustrator 19.0.0, SVG Export Plug-In . SVG Version: 6.00 Build 0)  -->
<svg version="1.1" id="Capa_1" xmlns="http://www.w3.org/2000/svg" xmlns:xlink="http://www.w3.org/1999/xlink" x="0px" y="0px"
	 viewBox="0 0 480 480" style="enable-background:new 0 0 480 480;" xml:space="preserve">
<g>
	<g>
		<path d="M240,0C107.452,0,0,107.452,0,240c0.15,132.486,107.514,239.85,240,240c132.548,0,240-107.452,240-240S372.548,0,240,0z
			 M240,464C116.288,464,16,363.712,16,240C16.141,116.347,116.347,16.141,240,16c123.712,0,224,100.288,224,224
			S363.712,464,240,464z"/>
	</g>
</g>
<g>
	<g>
		<path d="M380.136,86.416l-10.792,11.808c13.89,12.676,25.853,27.313,35.512,43.448l13.728-8.216
			C408.128,115.987,395.175,100.14,380.136,86.416z"/>
	</g>
</g>
<g>
	<g>
		<path d="M293.856,39.112l-4.152,15.448c22.388,5.996,43.498,16.018,62.296,29.576l9.352-12.936
			C340.993,56.486,318.12,45.612,293.856,39.112z"/>
	</g>
</g>
<g>
	<g>
		<path d="M304.656,76.28L298.76,91.2c26.518,10.531,49.757,27.926,67.336,50.4l12.6-9.856
			C359.378,107.011,333.822,87.867,304.656,76.28z"/>
	</g>
</g>
<g>
	<g>
		<path d="M299.304,108.8l-6.608,14.568c23.889,10.807,43.888,28.684,57.296,51.216l13.736-8.184
			C348.657,141.057,326.169,120.951,299.304,108.8z"/>
	</g>
</g>
<g>
	<g>
		<path d="M200,168c-44.163,0.048-79.951,35.837-80,80c0,44.183,35.817,80,80,80s80-35.817,80-80C280,203.817,244.183,168,200,168z
			 M200,312c-35.346,0-64-28.654-64-64c0-35.346,28.654-64,64-64c35.33,0.04,63.96,28.67,64,64C264,283.346,235.346,312,200,312z"/>
	</g>
</g>
<g>
	<g>
		<path d="M208,216c-22.08,0.026-39.974,17.92-40,40c0,22.091,17.909,40,40,40s40-17.909,40-40S230.091,216,208,216z M208,280
			c-13.255,0-24-10.745-24-24s10.745-24,24-24s24,10.745,24,24S221.255,280,208,280z"/>
	</g>
</g>
<g>
	<g>
		<path d="M106.8,111.504c-13.392,0-24.248,10.856-24.248,24.248C82.57,149.136,93.416,159.982,106.8,160
			c13.392,0,24.248-10.856,24.248-24.248C131.048,122.36,120.192,111.504,106.8,111.504z M106.8,144
			c-4.555,0-8.248-3.693-8.248-8.248c0.004-4.553,3.695-8.244,8.248-8.248c4.555,0,8.248,3.693,8.248,8.248
			C115.048,140.307,111.355,144,106.8,144z"/>
	</g>
</g>
<g>
	<g>
		<circle cx="60" cy="244" r="12"/>
	</g>
</g>
<g>
	<g>
		<path d="M272.264,391.504c-0.005,0-0.011,0-0.016,0c-13.384,0.018-24.23,10.863-24.248,24.248
			c-0.004,13.396,10.852,24.26,24.248,24.264c13.396,0.004,24.26-10.852,24.264-24.248
			C296.516,402.372,285.66,391.508,272.264,391.504z M272.256,424.016c-4.56,0.004-8.26-3.688-8.264-8.248
			c-0.004-4.56,3.688-8.26,8.248-8.264c0.003,0,0.005,0,0.008,0c4.557,0,8.252,3.691,8.256,8.248
			C280.508,420.312,276.816,424.012,272.256,424.016z"/>
	</g>
</g>
<g>
	<g>
		<path d="M407.752,192c-13.386,0.013-24.235,10.862-24.248,24.248c0,13.392,10.856,24.248,24.248,24.248S432,229.64,432,216.248
			S421.144,192,407.752,192z M407.752,224.496c-4.555,0-8.248-3.693-8.248-8.248s3.693-8.248,8.248-8.248
			c4.553,0.004,8.244,3.695,8.248,8.248C416,220.803,412.307,224.496,407.752,224.496z"/>
	</g>
</g>
<g>
	<g>
		<path d="M174.056,344h-20.688c-3.882,0.01-7.607-1.534-10.344-4.288l-2.736-2.736c-11.954-11.965-31.344-11.973-43.309-0.019
			c-5.752,5.747-8.982,13.545-8.979,21.675v8c-0.024,8.128,3.209,15.928,8.976,21.656c12.594,12.664,29.732,19.762,47.592,19.712
			h29.488c17.673,0,32-14.327,32-32C206.056,358.327,191.729,344,174.056,344z M185.376,387.312
			c-2.995,3.013-7.072,4.701-11.32,4.688h-29.488c-13.614,0.038-26.678-5.372-36.28-15.024c-2.754-2.737-4.298-6.462-4.288-10.344
			v-8c0.003-8.081,6.556-14.63,14.637-14.627c3.878,0.001,7.597,1.542,10.339,4.283l2.736,2.736c5.728,5.767,13.528,9,21.656,8.976
			h20.688c8.837-0.003,16.002,7.159,16.005,15.995C190.062,380.24,188.377,384.31,185.376,387.312z"/>
	</g>
</g>
<g>
	<g>
		<path d="M242.123,55.493c-0.909-1.362-1.95-2.631-3.107-3.789C231.538,44.187,221.364,39.973,210.76,40H204
			c-14.936-0.04-29.268,5.897-39.8,16.488l-20.888,20.888c-9.751,9.75-9.752,25.559-0.002,35.31
			c4.683,4.683,11.035,7.314,17.658,7.314h8c6.626,0.019,12.984-2.614,17.656-7.312l14.064-14.064
			c1.681-1.685,3.964-2.629,6.344-2.624h11.832c4.925,0.003,9.741-1.453,13.84-4.184l2.512-1.672
			C246.692,82.483,249.784,66.969,242.123,55.493z M227.701,75.71c-0.415,0.415-0.87,0.788-1.357,1.114l-2.512,1.672
			c-1.471,0.982-3.2,1.505-4.968,1.504h-11.832c-6.626-0.019-12.984,2.614-17.656,7.312l-14.064,14.064
			c-1.681,1.685-3.964,2.629-6.344,2.624h-8c-4.953,0.003-8.97-4.01-8.973-8.963c-0.001-2.382,0.945-4.666,2.629-6.349L175.512,67.8
			C183.052,60.221,193.31,55.973,204,56h6.76c6.358-0.015,12.458,2.511,16.944,7.016C231.209,66.522,231.208,72.205,227.701,75.71z"
			/>
	</g>
</g>
<g>
	<g>
		<path d="M412.368,281.856c-3.827-7.675-10.56-13.504-18.704-16.192c-8.137-2.733-17.029-2.1-24.696,1.76
			c-8.46,4.198-14.887,11.608-17.848,20.576l-1.064,3.2c-1.692,5.038-4.8,9.482-8.952,12.8l-23.672,18.936
			c-12.778,10.197-14.87,28.821-4.673,41.599c5.626,7.049,14.158,11.149,23.177,11.137h10.8c6.723-0.008,13.244-2.298,18.496-6.496
			l8.984-7.2c17.526-14.031,31.124-32.359,39.472-53.2C417.141,300.031,416.66,290.222,412.368,281.856z M398.832,302.864
			c-7.32,18.276-19.242,34.348-34.608,46.656l-8.984,7.2c-2.415,1.929-5.413,2.982-8.504,2.984h-10.8
			c-7.511,0.029-13.623-6.037-13.651-13.548c-0.016-4.165,1.878-8.108,5.139-10.7l23.672-18.936
			c6.576-5.251,11.489-12.295,14.144-20.28l1.056-3.2c1.656-4.92,5.187-8.987,9.824-11.32c2.265-1.133,4.763-1.722,7.296-1.72
			c6.378-0.004,12.177,3.7,14.856,9.488C400.358,293.663,400.562,298.53,398.832,302.864z"/>
	</g>
</g>
<g>
</g>
<g>
</g>
<g>
</g>
<g>
</g>
<g>
</g>
<g>
</g>
<g>
</g>
<g>
</g>
<g>
</g>
<g>
</g>
<g>
</g>
<g>
</g>
<g>
</g>
<g>
</g>
<g>
</g>
</svg>
