<?xml version="1.0" encoding="UTF-8"?>
<svg id="Lymph_nodes" xmlns="http://www.w3.org/2000/svg" viewBox="0 0 500 500">
  <defs>
    <style>
      .cls-1, .cls-2, .cls-3 {
        fill: #efe7d8;
      }

      .cls-2 {
        stroke-width: 2px;
      }

      .cls-2, .cls-3 {
        stroke: #9e998d;
        stroke-miterlimit: 10;
      }

      .cls-4 {
        fill: #9e998d;
      }

      .cls-3 {
        stroke-width: 3px;
      }
    </style>
  </defs>
  <g>
    <path class="cls-1" d="M130.92,113.55c22.41,19.87,48.8,41.29,54.16,42.77l-2.88,10.44c-10.2-2.81-47.33-35.24-58.47-45.11"/>
    <path class="cls-4" d="M130.92,113.55c12.92,10.7,27.06,22.44,40.34,32.53,4.8,3.46,9.45,7.48,14.97,9.69-1.03,3.75-2.01,7.51-3.07,11.25,0,0-.28.97-.28.97-1.92-.49-3.74-1.36-5.35-2.29-14.56-8.89-27.28-20.41-40.13-31.53-4.59-4.13-9.18-8.26-13.66-12.52,4.76,3.93,9.48,7.91,14.27,11.8,4.76,3.93,9.53,7.84,14.37,11.67,8.49,6.57,16.79,13.52,26.09,18.9,1.31.72,2.68,1.42,4,1.8,0,0-1.21.69-1.21.69.93-3.49,1.94-6.95,2.9-10.43,0,0,.67,1.18.67,1.18-5.44-2.34-9.91-6.31-14.64-9.77-13.64-10.65-26.64-22.1-39.27-33.93h0Z"/>
  </g>
  <g>
    <path class="cls-1" d="M103.01,150.34c1.48,1.6,36.3,39.52,42.12,72.57l-10.67,1.87c-5.26-29.9-39.06-66.73-39.4-67.09"/>
    <path class="cls-4" d="M103.01,150.34c18.49,19.85,38.08,46.3,43.28,73.36-4.19.78-8.41,1.46-12.61,2.2-1.38-8.23-4.63-16.25-8.31-23.75-5.2-10.16-11.39-19.84-18.18-29.01-3.85-5.29-7.9-10.44-12.13-15.44,4.54,4.73,8.75,9.78,12.84,14.9,8.07,10.36,15.6,21.27,21.16,33.22,2.74,6,5.08,12.24,6.35,18.8l-1.12-.78c3.56-.63,7.1-1.3,10.67-1.9l-.8,1.15c-1.55-8.51-4.83-16.88-8.58-24.71-8.72-17.33-20.04-33.25-32.57-48.03h0Z"/>
  </g>
  <g>
    <path class="cls-1" d="M75.69,174.61c8.4,10.9,33.32,40.05,47.66,44.01l-2.88,10.44c-20.4-5.62-50.05-43.54-53.36-47.84"/>
    <path class="cls-4" d="M75.69,174.61c10.52,12.46,21.6,24.63,34.23,34.98,4.42,3.45,9.18,6.93,14.62,8.36,0,0-.25.93-.25.93l-2.86,10.44s-.27.97-.27.97l-.96-.27c-15.73-4.97-31.23-22.23-41.89-34.52-3.87-4.65-7.67-9.36-11.2-14.28,3.88,4.64,7.82,9.22,11.92,13.64,10.21,10.92,20.78,21.96,33.66,29.7,2.57,1.47,5.26,2.75,8.05,3.53,0,0-1.22.7-1.22.7,0,0,2.89-10.43,2.89-10.43l.68,1.2c-5.54-1.72-10.01-5.14-14.29-8.58-12.57-10.61-23.34-23.19-33.11-36.37h0Z"/>
  </g>
  <path class="cls-2" d="M159.56,230.53l-3.16-10.35c8.98-2.73,40.48-19.72,51.87-26.03l5.24,9.46c-1.71.95-42.06,23.3-53.96,26.92Z"/>
  <g>
    <path class="cls-1" d="M287.01,185.46c-38.51-12.26-61.05-1.28-61.27-1.17l-4.98-9.61c1.06-.55,26.29-13.27,69.54.47"/>
    <path class="cls-4" d="M287.01,185.46c-17.31-4.75-36.03-7.07-53.64-2.7-2.8.71-5.55,1.59-8.07,2.8,0,0-.43-.82-.43-.82-.22-.32-5.45-10.54-5.49-10.52,5.81-2.83,12-4.36,18.24-5.29,13.28-1.89,26.91-.8,39.88,2.44,4.18.98,8.74,2.42,12.78,3.78-2.61-.61-6.04-1.6-8.6-2.17-8.56-1.89-17.5-3.12-26.25-3.35-11.55-.08-23.68,1.12-34.22,5.94,0,0,.43-1.34.43-1.34l4.96,9.62-1.31-.42c2.54-1.14,5.03-1.87,7.61-2.5,17.96-4.21,36.87-1.44,54.1,4.54h0Z"/>
  </g>
  <g>
    <path class="cls-1" d="M332.34,192.62c-.41.45-10.48,11.15-30.02,19.66-17.5,7.6-40.49,31.74-40.72,31.99l-7.86-7.44c1-1.06,24.74-25.99,44.26-34.48,17.33-7.53,26.34-17,26.42-17.09"/>
    <path class="cls-4" d="M332.34,192.62c-7.62,8.01-17.1,14.13-27,18.95-3.35,1.54-6.58,3.12-9.69,5.06-12.27,7.92-23.18,17.88-33.35,28.31,0,0-.67.7-.67.7-2.87-2.68-5.74-5.38-8.57-8.1,0,0-.72-.69-.72-.69,5.36-5.54,10.95-10.82,16.78-15.83,7.68-6.59,15.83-12.78,24.85-17.46,3.23-1.55,6.8-3.04,10-4.62,7.34-3.67,14.39-8.09,20.44-13.69-2.52,2.67-5.37,5.02-8.32,7.22-5.89,4.42-12.43,7.97-19.09,11.02,0,0-2.44,1.21-2.44,1.21s-2.37,1.36-2.37,1.36c-14.05,8.5-26.33,19.73-37.76,31.44,0,0-.04-1.39-.04-1.39,2.64,2.46,5.26,4.95,7.86,7.44,0,0-1.38.04-1.38.04,10.41-10.46,21.35-20.5,34-28.21,3.16-1.88,6.59-3.46,9.94-4.91,9.96-4.58,19.51-10.27,27.51-17.85h0Z"/>
  </g>
  <path class="cls-2" d="M181.54,281.41c-25.45-7.01-40.91-31.21-41.61-32.33l9.16-5.76c.17.26,16.43,25.56,40.86,28.79,22.73,3.06,40.15-7.47,48.53-12.53l2.68-1.59,5.35,9.41-2.43,1.44c-8.7,5.26-29.06,17.57-55.57,14-2.4-.33-4.73-.81-6.98-1.43Z"/>
  <path class="cls-2" d="M332.27,286.85c-22.83-20.15-66.99-28.32-67.45-28.42l1.93-10.65c1.92.35,47.58,8.8,72.69,30.96l-7.17,8.11Z"/>
  <g>
    <path class="cls-1" d="M379.19,343.07c-10.79-8.43-32.46-36.07-33.38-37.24l8.53-6.67c.22.28,21.77,27.76,31.52,35.39"/>
    <path class="cls-4" d="M379.19,343.07c-6.7-5.02-12.38-11.27-18.01-17.43-5.59-6.22-10.95-12.64-16.14-19.2l-.61-.77c3.08-2.45,6.2-4.87,9.31-7.28,0,0,.77-.6.77-.6,0,0,.6.76.6.76,9.87,12.18,19.4,25.15,30.75,35.99-6.32-4.79-11.66-10.75-17-16.59-5.27-5.92-10.37-11.97-15.3-18.19l1.37.17c-2.83,2.24-5.67,4.47-8.52,6.68l.17-1.38c5.14,6.55,10.39,13.03,15.71,19.44,5.4,6.34,10.68,12.83,16.89,18.4h0Z"/>
  </g>
  <g>
    <path class="cls-1" d="M432.49,259.36c-11.23,9.05-49.55,10.54-57.12,10.74l-.29-10.81c17.3-.47,44.44-3.37,50.6-8.35"/>
    <path class="cls-4" d="M432.49,259.36c-12.19,9.46-41.55,11.03-57.09,11.73,0,0-1,.03-1,.03,0,0-.02-1-.02-1,0,0-.27-10.81-.27-10.81l-.02-.97.97-.03c14.96-.6,30.13-1.36,44.72-4.91,2-.58,4.16-1.3,5.91-2.47-1.67,1.39-3.76,2.15-5.77,2.91-14.46,4.53-29.74,5.72-44.81,6.42,0,0,.95-1,.95-1l.31,10.81-1.02-.97c14.79-.62,45.32-1.74,57.14-9.74h0Z"/>
  </g>
  <g>
    <path class="cls-3" d="M332.03,312.32c-7.85-3.09-17.78-5.86-18.16-16.03-.48-12.98,9.87-12.52,17.97-18.7,8.4-6.4,4.51-14.71,4.05-23.21-.51-9.5,7.52-18.54,17.35-17.38,9.73,1.15,19.62,4.26,25.47,12.62,7.33,10.48,5.95,19.72,2.98,31.25-5,19.36-28.84,38.18-49.66,31.44-3.58-1.41,2.04.66,0,0Z"/>
    <path class="cls-3" d="M209.55,214.8c-4.38-.87-6.94-3.98-8.94-7.66-2.02-3.72-3.96-7.49-5.87-11.27-1.56-3.09-4.32-4.5-7.39-5.51-5.44-1.8-10.44-4.66-14.1-8.91-5.32-6.17-7.55-13.07-2.3-21.81,5.07-8.43,12.65-12.85,22.08-12.81,12,.06,22.37,4.77,30.58,13.91,3.64,4.05,6.66,8.51,9.33,13.17,1.85,3.22,1.93,7.15,1.9,10.83-.06,9.85-2.43,18.9-9.93,25.94-3.3,3.1-10.14,6.18-15.35,4.11Z"/>
    <path class="cls-3" d="M251.68,287.15c-2.03-1.39-4.19-2.62-6.15-4.09-3.79-2.84-7.33-5.93-9.04-10.58-.18-.47-.59-.9-.98-1.25-4.06-3.57-8.2-7.16-13.36-8.92-2.49-.85-4.75-1.67-6.86-3.32-4.43-3.47-5.7-7.87-5.01-13.26.48-3.75,1.38-7.34,3.51-10.41,4.4-6.34,10.16-10.41,18.24-10.96,4.33-.29,8.53.11,12.55,1.29,6.73,1.97,13.16,4.75,18.66,9.35,4.87,4.09,9.42,8.47,11.78,14.48,2.03,5.18,2.91,10.64,2.47,16.28-.12,1.59-2.17,12.86-8.57,18.06-6.06,4.92-13.39,4.73-17.22,3.34Z"/>
    <path class="cls-3" d="M168.69,232.06c-1.35,5.65-3.64,10.84-7.96,14.85-5.1,4.74-11,7.92-17.88,9.49-6.63,1.52-13.05.61-19.6-.29-6.26-.86-12.1-2.83-17.19-6.36-7.76-5.37-12.65-12.7-11.82-22.55.34-3.97,1.8-8.16,4.98-10.73,2.45-1.98,5.41-3.77,8.92-4.01,3.29-.22,6.42.19,9.55,1.21,5.12,1.67,10.16,1.02,15.08-.88,5.3-2.04,10.52-4.3,15.88-6.15,3.12-1.08,6.4-.66,9.51.49,5.89,2.18,8.44,7.09,10.66,12.52,1.77,4.31.85,8.29-.14,12.41Z"/>
  </g>
</svg>