<?xml version="1.0" encoding="UTF-8"?><svg id="Layer_1" xmlns="http://www.w3.org/2000/svg" viewBox="0 0 500 500"><defs><style>.cls-1{fill:#787878;}.cls-2{fill:#3c3c3c;}.cls-3{fill:#e5d7bd;}.cls-4{fill:#f7efdd;}</style></defs><g id="mitochondria_damaged"><path class="cls-3" d="M365.3,373.38c-11.82,0-23.37-2.32-34.35-6.88-65.22-27.13-137.76-48-215.6-62.03-48.7-8.78-81.18-55.55-72.4-104.25,6.11-33.89,31.53-61.64,64.77-70.7,7.67-2.09,15.55-3.15,23.42-3.15,5.32,0,10.73.49,16.06,1.45,90.53,16.31,175.55,40.86,252.69,72.95,22.1,9.19,39.31,26.47,48.46,48.66,9.15,22.19,9.13,46.58-.07,68.67-13.97,33.58-46.54,55.27-82.98,55.27h0Z"/><path class="cls-2" d="M131.13,127.89c5.25,0,10.52.48,15.79,1.43,90.43,16.3,175.35,40.81,252.38,72.86,44.92,18.68,66.26,70.43,47.58,115.35-14.09,33.88-46.99,54.34-81.58,54.34-11.27,0-22.73-2.17-33.77-6.77-65.32-27.18-137.96-48.08-215.91-62.12-47.88-8.63-79.8-54.61-71.18-102.48,6-33.32,31-60.6,63.67-69.5,7.57-2.06,15.27-3.1,23.02-3.1M131.13,124.85c-8,0-16.01,1.08-23.82,3.21-33.8,9.21-59.66,37.44-65.87,71.9-8.93,49.52,24.1,97.08,73.63,106.01,77.74,14.01,150.17,34.85,215.28,61.94,11.17,4.64,22.92,7,34.94,7,17.82,0,35.16-5.17,50.14-14.96,15.35-10.03,27.19-24.29,34.25-41.25,9.35-22.47,9.37-47.28.07-69.84-9.31-22.56-26.81-40.14-49.28-49.49-77.24-32.13-162.37-56.71-253.01-73.04-5.42-.98-10.91-1.47-16.33-1.47h0Z"/><path class="cls-4" d="M365.29,372.62c-11.71,0-23.17-2.3-34.06-6.82-65.27-27.16-137.86-48.04-215.76-62.08-48.29-8.71-80.49-55.08-71.79-103.36,6.06-33.6,31.26-61.12,64.22-70.1,7.61-2.07,15.42-3.13,23.22-3.13,5.28,0,10.64.48,15.92,1.44,90.48,16.31,175.45,40.84,252.54,72.91,21.91,9.11,38.98,26.25,48.05,48.25,9.07,22,9.05,46.18-.06,68.09-13.85,33.29-46.15,54.81-82.28,54.81h0ZM381.94,209.26c-1.46,0-3.63,1.41-3.73,2.21-3.39,26.57-13.91,45.53-32.15,57.97-17.45,11.89-23.01,29.5-25.91,43.51-2.02,9.75-1.93,21.29-1.51,29.26.06,1.21,2.92,4.97,4.13,5.44,4.42,1.73,9.15,3.6,13.72,5.5,8.54,3.55,17.58,5.47,26.87,5.7h0c1.61,0,4.39-.96,5.49-2.08.22-.23.35-.44.34-.59-.29-11.94-.31-24.22,1.44-33.21.5-2.57,2.39-4.6,4.92-5.29.58-.16,1.19-.24,1.79-.24.44,0,.88.04,1.31.13,1.79.35,3.34,1.38,4.37,2.9,1.02,1.52,1.39,3.34,1.04,5.14-1.21,6.19-1.64,15.42-1.29,27.42.02.61,2.47,2.17,5.13,2.17.56,0,1.06-.07,1.49-.22,20.68-7.12,37.27-22.57,45.52-42.41,7.72-18.57,7.75-39.03.09-57.63-3.16-7.67-7.55-14.71-13.03-20.93-.68-.77-1.86-1.23-3.17-1.23-1.45,0-2.99.61-3.14,1.77-1.76,13.83-5.38,32.68-12.7,43.98-1.27,1.96-3.42,3.12-5.75,3.12h0c-1.32,0-2.6-.38-3.71-1.1-1.54-.99-2.59-2.52-2.97-4.31-.38-1.79-.05-3.62.95-5.15,7.44-11.51,10.46-34.65,11.59-47.42.16-1.77-1.76-6.13-2.51-6.54-2.18-1.18-4.22-2.16-6.24-3-3.98-1.65-8.03-3.25-11.95-4.79-.11-.04-.27-.07-.45-.07ZM324.66,188.13c-1.77,0-4.21,1.31-4.35,1.96-.82,3.76-1.35,7.42-1.55,10.89-1.48,24.84-8.64,52.38-15.85,78.45-4.42,15.97-5.59,39.09-5.79,55.67-.01.9,1.75,3.5,2.39,3.73l.71.25c1.12.4,2.24.8,3.35,1.2.21,0,.61-.2.93-.53.26-.27.32-.48.32-.53-.37-11.3.28-21.08,1.93-29.06,3.16-15.25,9.86-37.23,31.6-52.05,9.74-6.64,23.1-19.04,26.57-49.91.21-1.88-.75-6.1-2.42-6.73-11.2-4.25-23.39-8.6-37.29-13.29-.1-.03-.27-.07-.55-.07ZM290.04,207.31c.17,0,.34,0,.51.02,1.82.13,3.48.96,4.68,2.34s1.78,3.15,1.65,4.97c-.1,1.46-2.59,35.91-8.12,54.57-4.05,13.66-8.86,41.8-10.29,60.24-.02.52,1.15,2.3,1.65,2.5,0,0,2,.67,2.75.92.24-.22.58-.8.59-1.13.31-16.32,1.65-39.27,6.26-55.96,7.01-25.35,13.97-52.07,15.38-75.62.24-3.97.8-8.11,1.67-12.29.38-1.8-1.99-6.39-3.22-6.78-14.9-4.7-30.74-9.3-48.42-14.06-.4-.11-.93-.16-1.57-.16-4.25,0-10.56,2.22-11.3,3.62-4,7.51-6.77,12.88-8.22,15.97-4.39,9.33-15.94,45.4-18.09,55.6-2.39,11.32-14.35,29.35-15.71,31.37-1.27,1.9-3.4,3.03-5.69,3.03-1.36,0-2.68-.4-3.81-1.17-1.52-1.02-2.55-2.57-2.9-4.36-.35-1.79.01-3.62,1.03-5.14,3.28-4.88,12.12-19.17,13.69-26.58,1.65-7.79,8.75-31,14.37-46.63-1.14,1.21-2.68,1.95-4.37,2.1-.21.02-.41.03-.62.03h0c-3.56,0-6.49-2.68-6.81-6.23-.88-9.83-.44-20.36,1.33-31.28.2-1.26-.07-2.29-.25-2.33-.57-.14-1.14-.27-1.71-.37-.08-.01-.16-.02-.23-.02-.91,0-1.74,1.04-2.04,1.77-9.86,24.31-27.49,68.45-34.81,90.89-5.33,16.32-6.17,35.33-5.94,48.4.02,1.09,1.15,3.44,3.32,4.22.93.33,1.92.5,2.96.68.61.1,1.21.21,1.81.34,0,0,0,0,0,0,.55,0,1.62-.89,3.04-3.39,3.18-5.61,6.56-11.66,8.67-15.45.9-1.63,2.39-2.79,4.18-3.28.59-.16,1.2-.24,1.8-.24,1.15,0,2.3.3,3.32.86,1.6.89,2.76,2.34,3.26,4.1.5,1.76.29,3.61-.6,5.21-.28.5-3.45,6.21-7.09,12.66-.18.32-.13,1.2.3,2.2.44,1.01,1.03,1.62,1.39,1.71,11.75,2.87,22.34,5.6,32.36,8.36.06.02.17.04.34.04,1.76,0,5.28-1.75,5.79-2.89,8.06-17.94,20.58-43.69,26.79-55.1,7.43-13.66,11.63-43.33,11.67-43.62.38-2.72,2.33-4.95,4.98-5.67.59-.16,1.19-.24,1.8-.24.31,0,.62.02.93.06,1.81.25,3.42,1.19,4.52,2.65s1.57,3.26,1.32,5.07c-.04.32-4.47,32.24-13.2,48.29-6.85,12.6-18.2,36.26-25.39,52.13-.23.51-.04,1.58.48,2.73.69,1.52,1.81,2.84,2.6,3.08,6.93,2.06,12.58,3.78,17.79,5.43.09.03.2.04.32.04,1.58,0,4.34-2.06,4.47-3.34,2-19.54,6.39-43.98,10.2-56.86,4.8-16.19,7.32-48,7.59-51.57.21-2.98,2.23-5.44,5.03-6.2.59-.16,1.19-.24,1.79-.24ZM159.76,145.01c-1.02,0-2.19,1.31-2.46,2-5.6,14.08-12.34,33.11-12.66,43.81-.72,23.89-2.82,41.48-7.25,60.68-1.44,6.21-1.81,15.24-2.17,23.98-.19,4.54-.38,9.23-.72,13.48-.2,2.5,2.01,5.04,3.9,5.28,1.85.23,3.69.63,5.46,1.02.76.16,1.51.33,2.27.48.39-.02,1.59-1.24,1.58-1.89-.13-13.52.93-33.33,6.68-50.96,7.35-22.5,24.41-65.29,33.92-88.78.28-.7.29-2.07-.11-2.86-.09-.17-.24-.39-.44-.44-2.33-.56-4.48-1-6.57-1.35h0c-.77,0-2.16,2.01-2.29,3.26-1.83,16.88-4.83,33.55-4.95,34.25-.59,3.26-3.42,5.62-6.73,5.62-.41,0-.82-.04-1.22-.11-1.8-.32-3.36-1.33-4.4-2.83-1.04-1.5-1.44-3.32-1.11-5.12.03-.17,3.3-18.43,5.05-35.67.11-1.11-.49-2.77-.93-2.84-.87-.16-1.73-.35-2.59-.54-.68-.15-1.36-.3-2.04-.44-.07-.01-.14-.02-.21-.02ZM119.16,174.67c3.46,0,6.38,2.59,6.79,6.03.13,1.1,3.11,27.32-4.73,52.91-3.85,12.57-10.06,32.71-15.22,49.4-.32,1.03-.08,3.7,2.68,4.94,2.48,1.11,5.19,1.58,8.05,2.09,0,0,1.17.21,1.17.21.92,0,2.9-1.97,2.91-3.09.14-11.88.81-28.25,3.23-38.73,4.22-18.27,6.22-35.07,6.91-58.01.29-9.67,4.4-24.8,12.22-44.96.27-.7.23-2.02-.31-2.94-.34-.57-.82-.91-1.45-.99-3.43-.46-6.89-.69-10.29-.69-6.63,0-13.23.88-19.62,2.63-27.89,7.6-49.22,30.89-54.35,59.32-3.68,20.41,1.1,40.91,13.44,57.73.13.17.4.28.72.28.44,0,.86-.2.91-.44,1.53-7.11,2.62-12.86,3.25-17.1,1.91-12.88-6.39-34.11-9.75-41.21-1.62-3.41-.16-7.5,3.26-9.12.36-.17.74-.31,1.14-.42.58-.16,1.19-.24,1.79-.24,2.63,0,5.06,1.54,6.19,3.91.57,1.19,13.83,29.4,10.92,49.08-.92,6.19-2.7,15.13-5.31,26.57-.16.68.14,2.67.83,3.19.45.34.89.68,1.34,1.02,1.47,1.14,3,2.31,4.61,3.27.17.1.34.15.55.15.92,0,2.04-1,2.28-1.78,5.07-16.41,11.05-35.83,14.8-48.07,6.87-22.41,4.34-46.29,4.22-47.29-.39-3.34,1.76-6.52,4.99-7.4.33-.09.67-.15,1.01-.19.27-.03.54-.05.8-.05ZM222.4,158.7c-1.44,0-2.67,2.24-2.88,3.79-1.2,8.73-1.45,17.07-.76,24.77,0,.1.02.2.02.29,1.08-2.82,2.05-5.19,2.87-6.93,1.45-3.08,4.07-8.2,7.79-15.2.7-1.32,1.15-3.78.67-4.78-.12-.26-.25-.28-.32-.29-1.35-.26-2.71-.59-4.02-.91-1.01-.25-2.02-.5-3.04-.71-.11-.02-.22-.04-.33-.04Z"/><path class="cls-1" d="M131.13,127.89c5.25,0,10.52.48,15.79,1.43,90.43,16.3,175.35,40.81,252.38,72.86,44.92,18.68,66.26,70.43,47.58,115.35-14.09,33.88-46.99,54.34-81.58,54.34-11.27,0-22.73-2.17-33.77-6.77-65.32-27.18-137.96-48.08-215.91-62.12-47.88-8.63-79.8-54.61-71.18-102.48,6-33.32,31-60.6,63.67-69.5,7.57-2.06,15.27-3.1,23.02-3.1M71.32,261.55c.75,0,1.51-.39,1.66-1.05,1.37-6.37,2.56-12.44,3.26-17.14,1.93-13.07-6.43-34.49-9.81-41.64-1.44-3.04-.14-6.67,2.89-8.11.33-.16.67-.28,1.01-.37.53-.14,1.06-.21,1.59-.21,2.28,0,4.46,1.28,5.5,3.48.56,1.18,13.73,29.23,10.86,48.64-1.06,7.15-3.15,17.06-5.3,26.51-.2.86.11,3.21,1.12,3.97,1.97,1.48,3.88,3.07,6.02,4.34.3.18.61.25.93.25,1.31,0,2.69-1.28,3.01-2.32,5.07-16.41,11.05-35.83,14.8-48.07,7.02-22.93,4.28-47.36,4.25-47.6-.35-3.03,1.58-5.8,4.44-6.58.29-.08.59-.14.9-.17.24-.03.48-.04.72-.04,3.04,0,5.67,2.27,6.03,5.36.13,1.1,3.09,27.15-4.7,52.6-3.85,12.57-10.06,32.71-15.22,49.4-.45,1.46.04,4.48,3.1,5.85,2.91,1.3,6.17,1.77,9.39,2.35.06,0,.11.01.17.01,1.31,0,3.62-2.34,3.64-3.85.15-12.83.87-28.43,3.21-38.56,4.23-18.32,6.24-35.17,6.92-58.16.34-11.37,6.05-28.92,12.17-44.7.56-1.44.12-4.62-2.36-4.95-3.47-.47-6.94-.7-10.4-.7-6.67,0-13.3.88-19.82,2.65-28.17,7.68-49.72,31.2-54.9,59.92-3.84,21.3,1.69,42.12,13.58,58.32.3.41.81.59,1.33.59M146.11,296.5c.88,0,2.38-1.62,2.37-2.65-.14-14.55,1.07-33.64,6.64-50.72,7.33-22.44,24.31-65.05,33.9-88.73.53-1.31.29-3.99-1.07-4.32-2.19-.53-4.4-.99-6.63-1.36-.05,0-.11-.01-.16-.01-1.3,0-2.86,2.5-3.01,3.94-1.83,16.82-4.76,33.19-4.95,34.2-.53,2.94-3.1,5-5.98,5-.36,0-.72-.03-1.09-.1-3.31-.6-5.5-3.77-4.9-7.07.05-.25,3.29-18.38,5.06-35.73.11-1.1-.43-3.47-1.55-3.67-1.55-.28-3.07-.68-4.62-.98-.12-.02-.24-.03-.35-.03-1.42,0-2.81,1.57-3.17,2.48-6.44,16.19-12.41,33.89-12.71,44.07-.72,23.84-2.81,41.38-7.23,60.53-2.2,9.52-1.91,25.12-2.9,37.57-.22,2.79,2.17,5.79,4.56,6.09,2.59.33,5.13.98,7.68,1.49.04,0,.08.01.12.01M169.62,301.55c1.34,0,2.9-2.47,3.64-3.79,3.35-5.92,6.78-12.06,8.67-15.45.83-1.49,2.19-2.5,3.72-2.92.52-.14,1.06-.22,1.6-.22,1,0,2.01.25,2.95.77,2.94,1.63,4,5.33,2.37,8.27-.28.5-3.45,6.21-7.09,12.66-.73,1.3.71,4.67,2.18,5.02,10.89,2.66,21.69,5.42,32.34,8.35.16.04.34.06.55.06,1.96,0,5.82-1.86,6.49-3.34,7.82-17.39,20.3-43.17,26.77-55.05,7.53-13.85,11.71-43.58,11.75-43.88.34-2.49,2.15-4.42,4.43-5.04.51-.14,1.05-.21,1.6-.21.27,0,.55.02.83.06,3.33.46,5.66,3.53,5.19,6.86-.18,1.31-4.53,32.26-13.12,48.04-6.7,12.32-18.03,35.89-25.42,52.18-.82,1.81,1.61,6.28,3.56,6.86,5.96,1.77,11.9,3.57,17.78,5.43.17.05.35.08.55.08,1.9,0,5.05-2.27,5.23-4.03,1.96-19.12,6.31-43.67,10.18-56.73,5.09-17.16,7.59-51.48,7.62-51.82.19-2.65,2.05-4.78,4.47-5.44.51-.14,1.04-.21,1.59-.21.15,0,.3,0,.45.02,3.35.24,5.87,3.15,5.63,6.5-.1,1.46-2.63,35.97-8.09,54.41-4.07,13.74-8.88,41.88-10.32,60.39-.07.85,1.38,3.02,2.16,3.28.99.33,1.98.66,2.97.99.03,0,.05.01.08.01.47,0,1.28-1.16,1.3-1.92.31-16.21,1.63-39.13,6.23-55.77,7.02-25.4,13.99-52.17,15.4-75.78.25-4.2.85-8.28,1.66-12.18.43-2.06-2-7.11-3.74-7.66-15.88-5.01-32.06-9.66-48.45-14.07-.49-.13-1.09-.19-1.77-.19-4.09,0-10.98,2.16-11.97,4.02-3.41,6.39-6.57,12.47-8.24,16.01-4.41,9.36-15.99,45.53-18.15,55.76-2.36,11.15-14.25,29.1-15.6,31.1-1.18,1.75-3.1,2.7-5.06,2.7-1.17,0-2.35-.34-3.39-1.04-2.79-1.87-3.54-5.65-1.66-8.44,3.3-4.92,12.21-19.34,13.8-26.84,2.17-10.25,13.84-47.37,19.05-58.43,1.64-3.47,4.57-9.13,7.77-15.17.95-1.79,1.63-5.83-.18-6.17-2.36-.45-4.69-1.12-7.04-1.62-.17-.04-.33-.05-.49-.05-2.04,0-3.4,2.75-3.63,4.45-.99,7.19-1.58,15.91-.77,24.95.3,3.35-2.13,6.3-5.52,6.6-.19.02-.37.03-.55.03-3.11,0-5.77-2.38-6.05-5.54-1.04-11.63-.05-22.6,1.32-31.09.16-1,.16-2.95-.81-3.19-.58-.15-1.17-.28-1.76-.39-.12-.02-.25-.03-.36-.03-1.38,0-2.4,1.39-2.74,2.25-9.27,22.86-27.41,68.19-34.83,90.94-5.27,16.16-6.22,34.83-5.98,48.64.03,1.43,1.38,4.05,3.83,4.93,1.56.56,3.24.68,4.85,1.05.08.02.15.03.23.03M303.58,341.05c.82,0,2.02-1.03,2-1.84-.3-9.1.01-19.68,1.91-28.88,3.13-15.12,9.77-36.91,31.29-51.57,10.44-7.11,23.46-19.91,26.89-50.46.22-1.99-.73-6.7-2.9-7.53-12.24-4.65-24.71-9.04-37.32-13.3-.22-.08-.49-.11-.79-.11-1.86,0-4.84,1.36-5.1,2.56-.77,3.53-1.34,7.22-1.57,11.01-1.48,24.79-8.63,52.27-15.82,78.3-4.52,16.36-5.63,40.23-5.82,55.86-.01,1.18,1.92,4.11,2.9,4.46,1.35.48,2.71.96,4.06,1.45.08.03.17.04.27.04M363.45,359.61c2.29,0,6.55-1.75,6.51-3.44-.25-10.33-.4-23.67,1.43-33.05.46-2.35,2.21-4.11,4.38-4.7.51-.14,1.04-.21,1.59-.21.39,0,.78.04,1.17.11,3.3.64,5.45,3.84,4.81,7.14-1.47,7.52-1.57,18.4-1.3,27.58.04,1.32,3.17,2.91,5.89,2.91.61,0,1.21-.08,1.74-.26,20.02-6.89,37.23-21.8,45.98-42.84,7.8-18.76,7.83-39.43.09-58.21-3.24-7.86-7.71-14.95-13.16-21.14-.9-1.02-2.34-1.49-3.74-1.49-1.9,0-3.7.87-3.9,2.43-1.86,14.67-5.5,32.72-12.58,43.67-1.17,1.8-3.12,2.78-5.11,2.78-1.13,0-2.28-.32-3.3-.98-2.82-1.82-3.63-5.59-1.8-8.41,7.36-11.38,10.45-33.56,11.71-47.77.17-1.96-1.78-6.67-2.91-7.28-2.04-1.1-4.14-2.13-6.31-3.03-3.94-1.64-7.95-3.22-11.96-4.79-.21-.08-.46-.12-.72-.12-1.72,0-4.32,1.57-4.49,2.88-3.33,26.15-13.78,45.14-31.82,57.43-17.68,12.04-23.3,29.83-26.22,43.98-1.95,9.45-1.99,20.63-1.52,29.45.08,1.55,3.17,5.55,4.61,6.11,4.6,1.8,9.19,3.62,13.71,5.49,8.88,3.7,18.06,5.53,27.15,5.75.03,0,.07,0,.1,0M131.13,126.37c-7.86,0-15.74,1.06-23.42,3.15-33.24,9.06-58.66,36.81-64.77,70.7-8.78,48.7,23.7,95.46,72.4,104.25,77.84,14.03,150.38,34.9,215.6,62.03,10.98,4.57,22.54,6.88,34.35,6.88,17.53,0,34.58-5.09,49.31-14.71,15.09-9.86,26.74-23.89,33.67-40.56,9.19-22.1,9.22-46.49.07-68.67-9.15-22.19-26.36-39.47-48.46-48.66-77.14-32.09-162.16-56.64-252.69-72.95-5.33-.96-10.73-1.45-16.06-1.45h0ZM71.18,260.02c-12.2-16.64-16.91-36.92-13.27-57.1,5.07-28.14,26.19-51.19,53.8-58.72,6.33-1.72,12.86-2.6,19.42-2.6,3.37,0,6.8.23,10.2.69.26.04.61.14.89.62.44.75.43,1.82.25,2.27-7.85,20.24-11.98,35.45-12.28,45.21-.69,22.89-2.68,39.65-6.89,57.86-1.95,8.46-3.05,21.55-3.24,38.89-.02.6-1.44,2.17-2.11,2.33-.36-.06-.72-.13-1.08-.19-2.82-.5-5.48-.96-7.88-2.03-2.35-1.05-2.49-3.31-2.27-4.02,4.74-15.36,11.23-36.39,15.22-49.4,7.88-25.74,4.89-52.11,4.76-53.22-.46-3.82-3.7-6.71-7.54-6.71-.3,0-.6.02-.9.05-.38.04-.75.11-1.12.21-3.6.98-5.98,4.52-5.55,8.22.11,1,2.62,24.73-4.2,46.98-3.88,12.66-10.19,33.13-14.8,48.07-.15.49-1.01,1.24-1.56,1.24-.08,0-.12-.02-.16-.04-1.57-.93-3.01-2.04-4.53-3.21-.45-.35-.9-.69-1.35-1.03-.35-.3-.67-1.86-.55-2.42,2.61-11.46,4.4-20.42,5.32-26.63,2.95-19.92-10.42-48.32-10.99-49.51-1.25-2.64-3.95-4.35-6.87-4.35-.67,0-1.34.09-1.99.27-.44.12-.87.28-1.27.47-3.78,1.79-5.41,6.34-3.61,10.13,3.33,7.04,11.56,28.08,9.68,40.77-.62,4.18-1.7,9.85-3.2,16.86-.05.02-.13.03-.21.03-.06,0-.11,0-.14-.02h0ZM146.04,294.95c-.67-.14-1.34-.28-2.01-.43-1.79-.39-3.65-.79-5.53-1.03-1.52-.19-3.4-2.43-3.24-4.46.34-4.27.53-8.97.72-13.51.36-8.7.73-17.7,2.15-23.84,4.45-19.26,6.55-36.88,7.27-60.83.25-8.38,4.61-23.44,12.61-43.55.22-.56,1.17-1.52,1.76-1.52.02,0,.04,0,.06,0,.68.13,1.35.28,2.02.43.8.18,1.62.36,2.45.52.25.35.54,1.43.48,2.05-1.77,17.37-5.01,35.44-5.04,35.61-.36,2.01.08,4.03,1.23,5.7,1.16,1.67,2.9,2.79,4.89,3.15.45.08.91.12,1.36.12,2.21,0,4.23-.95,5.63-2.49-7.42,18.94-14.92,38.76-19.17,51.79-5.78,17.72-6.85,37.6-6.72,51.17-.07.3-.58.91-.91,1.12h0ZM175,185.38c.85-4.87,3.13-18.48,4.66-32.58.09-.85,1.03-2.3,1.54-2.57,2,.34,4.06.76,6.29,1.29.25.34.4,1.6.12,2.3-3.48,8.59-7.96,19.75-12.61,31.55h0ZM169.6,300.02c-.58-.13-1.16-.23-1.72-.32-1.01-.17-1.96-.33-2.83-.65-1.8-.64-2.8-2.66-2.82-3.52-.23-13.01.61-31.92,5.91-48.15,7.32-22.42,24.94-66.54,34.8-90.84.22-.54.83-1.3,1.33-1.3.03,0,.07,0,.1,0,.4.07.82.16,1.33.28.07.32.11.94,0,1.56-1.77,10.98-2.22,21.57-1.33,31.47.35,3.95,3.61,6.93,7.56,6.93.23,0,.46-.01.69-.03.97-.09,1.9-.35,2.75-.78-5.48,15.57-12,36.97-13.57,44.39-1.53,7.25-10.54,21.79-13.57,26.31-1.13,1.69-1.54,3.71-1.15,5.71.39,1.99,1.54,3.71,3.22,4.84,1.26.85,2.72,1.29,4.24,1.29,2.54,0,4.9-1.26,6.32-3.37,1.36-2.03,13.4-20.18,15.82-31.64,2.15-10.17,13.66-46.13,18.04-55.43,1.45-3.08,4.21-8.44,8.21-15.94.67-1.09,6.65-3.22,10.63-3.22.71,0,1.14.08,1.37.14,17.66,4.76,33.49,9.35,48.39,14.05.97.43,3,4.5,2.71,5.9-.88,4.22-1.45,8.39-1.69,12.4-1.4,23.48-8.35,50.16-15.35,75.47-4.63,16.76-5.97,39.78-6.28,56.14,0,.05-.05.15-.11.25-.6-.2-1.21-.4-1.81-.6l-.34-.11c-.38-.29-1.1-1.38-1.21-1.83,1.44-18.39,6.22-46.4,10.25-60,5.57-18.79,8.13-54.38,8.15-54.73.15-2.02-.51-3.99-1.84-5.52-1.33-1.54-3.18-2.46-5.2-2.6-.18-.01-.37-.02-.55-.02-.67,0-1.34.09-1.99.27-3.11.85-5.36,3.58-5.58,6.8v.06c-.27,3.56-2.77,35.25-7.56,51.43-3.83,12.91-8.23,37.42-10.23,57-.09.85-2.44,2.66-3.72,2.66-.06,0-.09,0-.09,0-5.19-1.64-10.84-3.37-17.8-5.43-.42-.12-1.37-1.07-2.06-2.53-.59-1.24-.62-2.06-.55-2.25,7.19-15.86,18.53-39.5,25.37-52.08,8.81-16.19,13.24-48.24,13.29-48.56.28-2.01-.24-4.01-1.47-5.63-1.23-1.62-3.01-2.67-5.02-2.94-.34-.05-.69-.07-1.04-.07-.67,0-1.35.09-2,.27-2.94.8-5.12,3.27-5.53,6.3-.04.3-4.25,29.88-11.58,43.36-6.22,11.43-18.75,37.21-26.82,55.16-.36.74-3.46,2.44-5.1,2.44-.1,0-.14,0-.14,0-10.01-2.75-20.6-5.49-32.38-8.36-.54-.26-1.4-2.22-1.19-2.84,3.77-6.68,7.04-12.57,7.07-12.63,2.04-3.67.71-8.31-2.96-10.34-1.13-.63-2.4-.96-3.69-.96-.68,0-1.35.09-2,.27-2,.54-3.65,1.84-4.65,3.65-2.1,3.78-5.48,9.83-8.66,15.44-1.2,2.12-2.04,2.85-2.33,3h0ZM219.29,184.17c-.38-6.79-.05-14.03.98-21.57.19-1.37,1.25-3.13,2.12-3.13.06,0,.11,0,.17.02,1,.21,2.02.46,3.01.71,1.26.31,2.56.63,3.87.88.22.64,0,2.7-.7,4-3.73,7.02-6.35,12.14-7.81,15.23-.5,1.06-1.06,2.36-1.67,3.86h0ZM321.03,190.34c.38-.53,2.33-1.45,3.63-1.45.21,0,.3.03.3.03,13.9,4.69,26.09,9.03,37.26,13.28,1.1.42,2.14,4.04,1.93,5.93-3.43,30.56-16.62,42.81-26.24,49.37-21.97,14.98-28.74,37.15-31.92,52.52-1.66,8.01-2.31,17.79-1.95,29.09-.09.13-.29.3-.44.38-1.07-.39-2.15-.77-3.23-1.16l-.56-.2c-.61-.4-1.88-2.39-1.94-3.05.21-16.51,1.37-39.55,5.77-55.45,7.22-26.12,14.39-53.7,15.87-78.61.2-3.4.71-7,1.52-10.68h0ZM378.96,211.61c.23-.54,1.92-1.59,2.98-1.59.12,0,.17.02.17.02,3.91,1.54,7.96,3.13,11.93,4.78,1.98.82,3.98,1.78,6.12,2.94.72.66,2.3,4.4,2.17,5.83-1.13,12.7-4.12,35.71-11.47,47.08-1.1,1.7-1.48,3.74-1.05,5.73.43,1.99,1.6,3.69,3.3,4.79,1.24.8,2.66,1.22,4.13,1.22,2.59,0,4.98-1.3,6.39-3.47,7.39-11.42,11.05-30.4,12.82-44.3.08-.61,1.15-1.11,2.39-1.11,1.09,0,2.06.36,2.6.97,5.43,6.16,9.77,13.13,12.9,20.72,7.59,18.41,7.56,38.67-.08,57.05-8.17,19.64-24.6,34.94-45.07,41.98-.35.12-.77.18-1.24.18-2.05,0-4.01-1.07-4.37-1.57-.34-11.71.1-21.08,1.27-27.11.39-1.99-.02-4.02-1.16-5.71-1.14-1.69-2.86-2.83-4.85-3.22-.48-.09-.97-.14-1.46-.14-.67,0-1.34.09-1.99.27-2.82.77-4.91,3.02-5.47,5.88-1.76,9.04-1.74,21.33-1.46,33.27-.41.69-3.19,1.99-4.98,1.99h-.07c-9.19-.22-18.14-2.12-26.6-5.64-4.58-1.9-9.31-3.77-13.74-5.51-.95-.4-3.54-3.8-3.64-4.78-.42-7.92-.5-19.39,1.49-29.06,2.87-13.87,8.37-31.3,25.59-43.04,18.42-12.56,29.04-31.68,32.47-58.46h0Z"/></g><path class="cls-2" d="M131.13,127.89c5.25,0,10.52.48,15.79,1.43,90.43,16.3,175.35,40.81,252.38,72.86,44.92,18.68,66.26,70.43,47.58,115.35-14.09,33.88-46.99,54.34-81.58,54.34-11.27,0-22.73-2.17-33.77-6.77-65.32-27.18-137.96-48.08-215.91-62.12-47.88-8.63-79.8-54.61-71.18-102.48,6-33.32,31-60.6,63.67-69.5,7.57-2.06,15.27-3.1,23.02-3.1M131.13,124.85c-8,0-16.01,1.08-23.82,3.21-33.8,9.21-59.66,37.44-65.87,71.9-8.93,49.52,24.1,97.08,73.63,106.01,77.74,14.01,150.17,34.85,215.28,61.94,11.17,4.64,22.92,7,34.94,7,17.82,0,35.16-5.17,50.14-14.96,15.35-10.03,27.19-24.29,34.25-41.25,9.35-22.47,9.37-47.28.07-69.84-9.31-22.56-26.81-40.14-49.28-49.49-77.24-32.13-162.37-56.71-253.01-73.04-5.42-.98-10.91-1.47-16.33-1.47h0Z"/></svg>