<?xml version="1.0" encoding="UTF-8"?><svg id="Layer_1" xmlns="http://www.w3.org/2000/svg" viewBox="0 0 500 500"><defs><style>.cls-1,.cls-2{fill:#f5ddcf;}.cls-3{fill:#d5c0b4;}.cls-2{stroke:#73635b;stroke-miterlimit:10;stroke-width:2.02px;}.cls-4{fill:#574b46;}</style></defs><path class="cls-1" d="M275.97,338.86c-17.28,0-33.99-6.29-47.06-17.72l-41.95-36.7c-14.4-12.6-23.03-30.05-24.31-49.13-1.28-19.11,4.96-37.55,17.57-51.94,12.59-14.39,30.04-23.03,49.13-24.3,1.62-.11,3.26-.16,4.87-.16,17.28,0,33.99,6.29,47.06,17.72l41.95,36.7c29.35,25.68,32.64,70.71,7.34,100.37l-.58.67c-12.61,14.41-30.06,23.05-49.15,24.32-1.62.11-3.26.16-4.87.16Z"/><path class="cls-4" d="M234.22,161.93c16.6,0,32.45,5.94,45.06,16.97l41.95,36.7c28.11,24.6,31.27,67.72,7.03,96.13l-.57.66c-12.06,13.79-28.78,22.06-47.06,23.28-1.56.1-3.12.16-4.67.16-16.6,0-32.45-5.94-45.06-16.97l-41.95-36.7c-13.79-12.07-22.06-28.78-23.29-47.05-1.23-18.29,4.77-35.98,16.83-49.74,12.06-13.79,28.78-22.06,47.06-23.28,1.56-.1,3.12-.16,4.67-.16M234.22,155.88v6.05-6.05h0c-1.68,0-3.39.06-5.07.17-19.9,1.33-38.09,10.33-51.21,25.33-13.14,14.99-19.65,34.22-18.31,54.13,1.33,19.89,10.33,38.07,25.34,51.2l41.95,36.7c13.62,11.91,31.03,18.47,49.05,18.47,1.68,0,3.39-.06,5.07-.17,19.9-1.33,38.09-10.33,51.21-25.33l.6-.7c26.39-30.94,22.96-77.87-7.63-104.63l-41.95-36.7c-13.62-11.91-31.03-18.47-49.05-18.47h0Z"/><path class="cls-3" d="M322.13,306.5c21.46-25.16,18.76-62.98-6.21-84.82l-41.95-36.7c-25.16-22.01-63.4-19.46-85.41,5.7-22.04,25.17-19.45,63.4,5.7,85.41l41.95,36.7c25.16,22.01,63.4,19.46,85.41-5.7.17-.19.34-.39.5-.59Z"/><path class="cls-2" d="M230.9,318.86c13.79,12.06,31.46,18.04,49.73,16.82,18.28-1.22,35-9.49,47.06-23.28l.57-.66c24.23-28.41,21.08-71.53-7.03-96.13l-41.95-36.7c-13.79-12.06-31.46-18.04-49.73-16.82-18.28,1.22-35,9.49-47.06,23.28-12.06,13.76-18.05,31.45-16.83,49.74,1.23,18.28,9.5,34.99,23.29,47.05l41.95,36.7ZM230.62,178.19c6.02-.4,11.94.28,17.58,1.85l-21.55,27.37c-2.76,3.5-2.16,8.58,1.35,11.33,3.42,2.69,8.33,2.18,11.13-1.1.07-.08.14-.16.2-.25l23.95-30.41c1.86,1.25,3.67,2.57,5.38,4.07l28.03,24.52-64.28,83.15-15.96-13.96,13.65-16.68c2.82-3.45,2.31-8.54-1.14-11.36-3.45-2.82-8.29-2.46-11.36,1.14l-13.31,16.26-4.71-4.12c-10.55-9.23-16.87-22.01-17.81-35.99-.92-13.75,3.48-27.03,12.41-37.5.15-.18.3-.36.46-.53,9.23-10.55,22.01-16.87,35.99-17.81ZM244.69,309.22l64.16-83,1.75,1.53c3.63,3.17,6.66,6.77,9.19,10.63-.05.06-.12.09-.16.15l-30.81,43.77c-2.56,3.64-1.69,8.68,1.95,11.24,3.44,2.42,8.1,1.78,10.78-1.36.16-.19.32-.39.46-.6l25.13-35.7c3.41,15.54-.14,32.44-11.16,45.37l-.42.49c-9.24,10.56-22.02,16.88-36,17.82-12.63.84-24.85-2.84-34.87-10.36Z"/><path class="cls-2" d="M258.37,211.7c2.65-3.58,7.73-4.29,11.3-1.62,3.57,2.67,4.29,7.73,1.62,11.3l-14.91,19.9c-.1.14-.21.27-.32.4-2.74,3.21-7.55,3.78-10.97,1.21-3.57-2.67-4.29-7.73-1.62-11.3l14.91-19.9Z"/></svg>