<?xml version="1.0" encoding="UTF-8"?><svg id="Layer_2" xmlns="http://www.w3.org/2000/svg" xmlns:xlink="http://www.w3.org/1999/xlink" viewBox="0 0 500 500"><defs><style>.cls-1{fill:none;}.cls-1,.cls-2{stroke-width:5.63px;}.cls-1,.cls-2,.cls-3{stroke:#005251;stroke-miterlimit:10;}.cls-2,.cls-4{fill:#00999c;}.cls-3{fill:#5ec6cc;stroke-width:2.81px;}.cls-5{clip-path:url(#clippath);}</style><clipPath id="clippath"><path class="cls-2" d="M325.27,152.87h-17.49c-6.78,0-12.69,3.6-15.96,8.99-3.31,5.46-8.81,9.21-15.2,9.21l-53.18-.02c-6.39,0-11.89-3.75-15.19-9.22-3.27-5.4-9.18-9.01-15.96-9.01h-17.49c-10.33-.01-18.71,8.36-18.71,18.69l-.06,156.91c0,10.33,8.37,18.71,18.7,18.71h17.49c4.87,0,9.28-1.87,12.59-4.93,6.06-5.62,14.21-8.42,22.48-8.41l49.45.02c6.87,0,13.1,3.22,17.99,8.04,3.34,3.29,7.92,5.33,12.99,5.33h17.49c10.33.01,18.71-8.36,18.71-18.69l.06-156.91c0-10.33-8.37-18.71-18.7-18.71Z"/></clipPath></defs><path class="cls-4" d="M325.27,152.87h-17.49c-6.78,0-12.69,3.6-15.96,8.99-3.31,5.46-8.81,9.21-15.2,9.21l-53.18-.02c-6.39,0-11.89-3.75-15.19-9.22-3.27-5.4-9.18-9.01-15.96-9.01h-17.49c-10.33-.01-18.71,8.36-18.71,18.69l-.06,156.91c0,10.33,8.37,18.71,18.7,18.71h17.49c4.87,0,9.28-1.87,12.59-4.93,6.06-5.62,14.21-8.42,22.48-8.41l49.45.02c6.87,0,13.1,3.22,17.99,8.04,3.34,3.29,7.92,5.33,12.99,5.33h17.49c10.33.01,18.71-8.36,18.71-18.69l.06-156.91c0-10.33-8.37-18.71-18.7-18.71Z"/><g class="cls-5"><rect class="cls-3" x="156.06" y="152.82" width="54.89" height="194.32" rx="3.32" ry="3.32"/><rect class="cls-3" x="289.05" y="152.87" width="54.89" height="194.32" rx="3.32" ry="3.32"/></g><path class="cls-1" d="M325.27,152.87h-17.49c-6.78,0-12.69,3.6-15.96,8.99-3.31,5.46-8.81,9.21-15.2,9.21l-53.18-.02c-6.39,0-11.89-3.75-15.19-9.22-3.27-5.4-9.18-9.01-15.96-9.01h-17.49c-10.33-.01-18.71,8.36-18.71,18.69l-.06,156.91c0,10.33,8.37,18.71,18.7,18.71h17.49c4.87,0,9.28-1.87,12.59-4.93,6.06-5.62,14.21-8.42,22.48-8.41l49.45.02c6.87,0,13.1,3.22,17.99,8.04,3.34,3.29,7.92,5.33,12.99,5.33h17.49c10.33.01,18.71-8.36,18.71-18.69l.06-156.91c0-10.33-8.37-18.71-18.7-18.71Z"/></svg>