<?xml version="1.0" encoding="UTF-8"?><svg xmlns="http://www.w3.org/2000/svg" xmlns:xlink="http://www.w3.org/1999/xlink" viewBox="0 0 530.08 510.24"><defs><style>.cls-1,.cls-2{fill:#c7e6f8;}.cls-2,.cls-3{stroke:#386478;stroke-miterlimit:10;stroke-width:2.16px;}.cls-4{fill:#a8b7d3;}.cls-5{fill:#7d8dae;}.cls-6{clip-path:url(#clippath-1);}.cls-7{fill:#c8c9d1;}.cls-8{isolation:isolate;}.cls-9{mix-blend-mode:multiply;}.cls-10{clip-path:url(#clippath);}.cls-3{fill:none;}</style><clipPath id="clippath"><polygon class="cls-2" points="377.39 138.9 377.39 124.49 370.55 124.49 370.55 138.9 353.14 138.9 353.14 124.49 346.3 124.49 346.3 138.9 328.89 138.9 328.89 124.49 322.05 124.49 322.05 138.9 304.81 138.9 304.81 124.49 297.98 124.49 297.98 138.9 280.56 138.9 280.56 124.49 273.73 124.49 273.73 138.9 256.13 138.9 256.13 124.49 249.3 124.49 249.3 138.9 231.88 138.9 231.88 124.49 225.05 124.49 225.05 138.9 207.54 138.9 207.54 124.49 200.71 124.49 200.71 138.9 183.29 138.9 183.29 124.49 176.46 124.49 176.46 138.9 159.17 138.9 159.17 124.49 152.34 124.49 152.34 138.9 152.29 138.9 152.29 385.75 377.78 385.75 377.78 138.9 377.39 138.9"/></clipPath><clipPath id="clippath-1"><path class="cls-7" d="M176.41,389.23h-17.37v-251.61h17.37v251.61ZM200.68,137.62h-17.37v251.61h17.37v-251.61ZM224.96,137.62h-17.37v251.61h17.37v-251.61ZM249.23,137.62h-17.37v251.61h17.37v-251.61ZM273.5,137.62h-17.37v251.61h17.37v-251.61ZM297.77,137.62h-17.37v251.61h17.37v-251.61ZM322.05,137.62h-17.37v251.61h17.37v-251.61ZM346.32,137.62h-17.37v251.61h17.37v-251.61ZM370.59,137.62h-17.37v251.61h17.37v-251.61Z"/></clipPath></defs><g class="cls-8"><g id="Western_Blot"><polygon class="cls-1" points="377.39 138.9 377.39 124.49 370.55 124.49 370.55 138.9 353.14 138.9 353.14 124.49 346.3 124.49 346.3 138.9 328.89 138.9 328.89 124.49 322.05 124.49 322.05 138.9 304.81 138.9 304.81 124.49 297.98 124.49 297.98 138.9 280.56 138.9 280.56 124.49 273.73 124.49 273.73 138.9 256.13 138.9 256.13 124.49 249.3 124.49 249.3 138.9 231.88 138.9 231.88 124.49 225.05 124.49 225.05 138.9 207.54 138.9 207.54 124.49 200.71 124.49 200.71 138.9 183.29 138.9 183.29 124.49 176.46 124.49 176.46 138.9 159.17 138.9 159.17 124.49 152.34 124.49 152.34 138.9 152.29 138.9 152.29 385.75 377.78 385.75 377.78 138.9 377.39 138.9"/><g class="cls-10"><g class="cls-9"><path class="cls-7" d="M176.41,389.23h-17.37v-251.61h17.37v251.61ZM200.68,137.62h-17.37v251.61h17.37v-251.61ZM224.96,137.62h-17.37v251.61h17.37v-251.61ZM249.23,137.62h-17.37v251.61h17.37v-251.61ZM273.5,137.62h-17.37v251.61h17.37v-251.61ZM297.77,137.62h-17.37v251.61h17.37v-251.61ZM322.05,137.62h-17.37v251.61h17.37v-251.61ZM346.32,137.62h-17.37v251.61h17.37v-251.61ZM370.59,137.62h-17.37v251.61h17.37v-251.61Z"/><g class="cls-6"><rect class="cls-5" x="156.53" y="166.1" width="22.22" height="4.06"/><rect class="cls-5" x="157.59" y="193.97" width="22.75" height="4.76"/><rect class="cls-5" x="154.41" y="233.3" width="24.16" height="3.7"/><rect class="cls-5" x="180.34" y="217.07" width="23.1" height="3.17"/><rect class="cls-5" x="180.51" y="238.94" width="23.28" height="11.82"/><rect class="cls-5" x="182.45" y="181.27" width="19.22" height="3.35"/><rect class="cls-5" x="181.22" y="165.92" width="21.87" height="3.88"/><rect class="cls-5" x="181.4" y="145.82" width="23.28" height="3"/><rect class="cls-5" x="205.38" y="164.69" width="22.4" height="5.11"/><rect class="cls-5" x="205.21" y="150.58" width="21.87" height="3"/><rect class="cls-5" x="205.03" y="193.79" width="22.4" height="2.65"/><rect class="cls-5" x="205.56" y="245.82" width="23.1" height="8.29"/><rect class="cls-5" x="204.5" y="282.15" width="23.99" height="3.7"/><rect class="cls-5" x="230.96" y="150.23" width="20.64" height="3.53"/><rect class="cls-5" x="228.66" y="178.27" width="23.28" height="6.88"/><rect class="cls-5" x="230.07" y="206.49" width="21.34" height="5.64"/><rect class="cls-4" x="229.72" y="228.54" width="22.05" height="18.87"/><rect class="cls-4" x="230.07" y="267.69" width="23.99" height="1.59"/><rect class="cls-4" x="154.59" y="209.13" width="23.28" height="16.76"/><rect class="cls-4" x="182.28" y="152.7" width="20.64" height="7.05"/><rect class="cls-4" x="255.78" y="162.66" width="18.87" height="31.92"/><rect class="cls-4" x="277.87" y="223.95" width="22.93" height="21.34"/><rect class="cls-4" x="303.09" y="187.09" width="22.4" height="13.4"/><rect class="cls-4" x="303.44" y="233.47" width="21.34" height="9.35"/><rect class="cls-4" x="303.27" y="157.28" width="20.81" height="9.7"/><rect class="cls-4" x="351.06" y="156.93" width="32.1" height="8.47"/><rect class="cls-4" x="326.55" y="187.62" width="22.4" height="13.93"/><rect class="cls-4" x="326.2" y="154.99" width="22.93" height="3"/><rect class="cls-4" x="326.9" y="254.81" width="22.22" height="9.35"/><rect class="cls-5" x="351.24" y="226.42" width="22.22" height="9.35"/><rect class="cls-5" x="351.06" y="177.56" width="23.1" height="3.7"/><rect class="cls-5" x="350.89" y="188.32" width="24.34" height="3.88"/><rect class="cls-5" x="350.01" y="245.64" width="34.04" height="11.82"/><rect class="cls-5" x="325.67" y="237.71" width="23.1" height="3.53"/><rect class="cls-5" x="325.84" y="269.28" width="26.46" height="7.76"/><rect class="cls-5" x="327.78" y="208.78" width="21.16" height="3.88"/><rect class="cls-5" x="327.43" y="166.98" width="22.05" height="6.88"/><rect class="cls-5" x="277.87" y="186.03" width="25.04" height="4.41"/><rect class="cls-5" x="252.65" y="154.11" width="22.05" height="6.53"/><rect class="cls-5" x="253.88" y="199.08" width="24.34" height="3.88"/><rect class="cls-5" x="253.18" y="244.76" width="23.46" height="3.53"/><rect class="cls-5" x="279.1" y="253.93" width="21.87" height="4.41"/><rect class="cls-5" x="277.16" y="215.48" width="23.46" height="4.94"/><rect class="cls-5" x="302.91" y="210.9" width="21.16" height="3.88"/><rect class="cls-5" x="301.68" y="221.83" width="22.58" height="4.59"/><rect class="cls-5" x="302.03" y="252.87" width="22.4" height="2.82"/><rect class="cls-5" x="301.86" y="289.03" width="22.75" height="32.43"/></g></g></g><polygon class="cls-3" points="377.39 138.9 377.39 124.49 370.55 124.49 370.55 138.9 353.14 138.9 353.14 124.49 346.3 124.49 346.3 138.9 328.89 138.9 328.89 124.49 322.05 124.49 322.05 138.9 304.81 138.9 304.81 124.49 297.98 124.49 297.98 138.9 280.56 138.9 280.56 124.49 273.73 124.49 273.73 138.9 256.13 138.9 256.13 124.49 249.3 124.49 249.3 138.9 231.88 138.9 231.88 124.49 225.05 124.49 225.05 138.9 207.54 138.9 207.54 124.49 200.71 124.49 200.71 138.9 183.29 138.9 183.29 124.49 176.46 124.49 176.46 138.9 159.17 138.9 159.17 124.49 152.34 124.49 152.34 138.9 152.29 138.9 152.29 385.75 377.78 385.75 377.78 138.9 377.39 138.9"/></g></g></svg>