<?xml version="1.0" encoding="UTF-8"?>
<svg xmlns="http://www.w3.org/2000/svg" version="1.1" xmlns:xlink="http://www.w3.org/1999/xlink" viewBox="0 0 530.08 510.24">
  <!-- Generator: Adobe Illustrator 29.2.1, SVG Export Plug-In . SVG Version: 2.1.0 Build 116)  -->
  <defs>
    <style>
      .st0 {
        fill: #e3e4e5;
      }

      .st1 {
        fill: #c2c1c1;
      }

      .st2, .st3 {
        fill: #fdfeff;
      }

      .st4 {
        fill: #454545;
      }

      .st5 {
        fill: #d3e4f2;
        opacity: .39;
      }

      .st6 {
        fill: #272626;
      }

      .st7 {
        stroke: #501910;
      }

      .st7, .st8, .st9, .st10, .st11, .st12 {
        stroke-miterlimit: 10;
      }

      .st7, .st10, .st13, .st14, .st15, .st12 {
        fill: none;
      }

      .st7, .st12 {
        stroke-width: .54px;
      }

      .st16 {
        fill: #201e24;
      }

      .st17 {
        fill: #bcb9b8;
      }

      .st18, .st9 {
        fill: #c7e6f8;
      }

      .st19 {
        fill: #1c8341;
      }

      .st20 {
        fill: #9d9e9e;
        opacity: .62;
      }

      .st20, .st21 {
        mix-blend-mode: multiply;
      }

      .st8 {
        fill: #670f1d;
        stroke: #3b1319;
      }

      .st8, .st15 {
        stroke-width: .67px;
      }

      .st9, .st10 {
        stroke: #386478;
        stroke-width: .53px;
      }

      .st22 {
        fill: #b5b5b5;
      }

      .st23 {
        fill: #282826;
      }

      .st24 {
        fill: #a8b7d3;
      }

      .st25 {
        fill: #7d8dae;
      }

      .st26 {
        clip-path: url(#clippath-1);
      }

      .st27 {
        fill: #c8c9d1;
      }

      .st13, .st14, .st3, .st28 {
        stroke: #333;
      }

      .st13, .st14, .st3, .st28, .st15 {
        stroke-linejoin: round;
      }

      .st13, .st3 {
        stroke-width: 1.85px;
      }

      .st29 {
        isolation: isolate;
      }

      .st30 {
        fill: #959293;
      }

      .st31 {
        fill: #7b9dbf;
        opacity: .33;
      }

      .st14, .st28 {
        stroke-width: 1.85px;
      }

      .st32 {
        fill: #8b8687;
      }

      .st33 {
        clip-path: url(#clippath-3);
      }

      .st28, .st34 {
        fill: #10a84b;
      }

      .st35 {
        fill: #a6a2a6;
      }

      .st36 {
        fill: #1b5f30;
      }

      .st15 {
        stroke: #9d9e9e;
      }

      .st37 {
        fill: #fafcfe;
        opacity: .95;
      }

      .st38 {
        fill: #d02027;
      }

      .st39 {
        fill: #9a9a9b;
      }

      .st40 {
        fill: #221e21;
      }

      .st41 {
        fill: #010101;
      }

      .st11 {
        fill: #806a2a;
        stroke: #1e1e1d;
        stroke-width: .34px;
      }

      .st12 {
        stroke: #282826;
      }

      .st42 {
        clip-path: url(#clippath-2);
      }

      .st43 {
        fill: #1b6f38;
      }

      .st44 {
        clip-path: url(#clippath);
      }
    </style>
    <clipPath id="clippath">
      <polygon class="st3" points="302.19 256.86 302.19 283.62 316.67 307.26 427.09 307.26 427.55 270.41 389.09 256.16 302.19 256.86"/>
    </clipPath>
    <clipPath id="clippath-1">
      <path class="st28" d="M74.75,247.94l-.46-12.98,34.76-6.6s-.35-10.43,0-12.63.35-3.48.35-3.48h3.71v-5.45l1.85-3.82h2.9l2.09,3.94v5.68h2.09s1.39,5.79.81,12.4c2.9-7.07,7.65-6.84,7.65-6.84,0,0,71.95-.35,75.89,0,3.94.35,3.94,2.55,5.45,4.52,1.51,1.97,3.48,5.79,3.48,5.79v-15.06h2.9v-6.49l1.97-3.59h3.24l1.74,4.4v5.79h2.9v14.83l16.8.23.12,10.89-1.51,8.46-11.35.12v55.63c0,.15-.01.29-.04.44l-4.21,23.75c-.16.88-.92,1.52-1.81,1.51l-26.96-.11-1.27-2.78-68.82.23-4.49,3.13c-.32.22-.71.34-1.1.33l-27.44-.76c-.65-.02-1.17-.54-1.19-1.19l-2.17-80.18-17.84-.12Z"/>
    </clipPath>
    <clipPath id="clippath-2">
      <polygon class="st9" points="193.98 251.42 193.98 247.58 192.16 247.58 192.16 251.42 187.52 251.42 187.52 247.58 185.7 247.58 185.7 251.42 181.07 251.42 181.07 247.58 179.25 247.58 179.25 251.42 174.66 251.42 174.66 247.58 172.84 247.58 172.84 251.42 168.21 251.42 168.21 247.58 166.39 247.58 166.39 251.42 161.71 251.42 161.71 247.58 159.89 247.58 159.89 251.42 155.25 251.42 155.25 247.58 153.44 247.58 153.44 251.42 148.78 251.42 148.78 247.58 146.96 247.58 146.96 251.42 142.32 251.42 142.32 247.58 140.51 247.58 140.51 251.42 135.91 251.42 135.91 247.58 134.09 247.58 134.09 251.42 134.08 251.42 134.08 317.11 194.08 317.11 194.08 251.42 193.98 251.42"/>
    </clipPath>
    <clipPath id="clippath-3">
      <path class="st27" d="M140.49,318.03h-4.62v-66.96h4.62v66.96ZM146.95,251.07h-4.62v66.96h4.62v-66.96ZM153.41,251.07h-4.62v66.96h4.62v-66.96ZM159.87,251.07h-4.62v66.96h4.62v-66.96ZM166.33,251.07h-4.62v66.96h4.62v-66.96ZM172.79,251.07h-4.62v66.96h4.62v-66.96ZM179.25,251.07h-4.62v66.96h4.62v-66.96ZM185.71,251.07h-4.62v66.96h4.62v-66.96ZM192.17,251.07h-4.62v66.96h4.62v-66.96Z"/>
    </clipPath>
  </defs>
  <g class="st29">
    <g id="Western_Blot_Transfer_device">
      <g>
        <g>
          <path class="st4" d="M173.69,256.31c-9.08-9.81-22.31-34.24-29.43-47.36-5.64-10.4-13.32-14.34-18.19-14.57-.15,0-.3-.01-.44-.01-2.37,0-4.27.9-5.36,2.54-2.37,3.56-2.4,8.39-2.4,8.44v.57l-3.16.02v-.58c0-.24,0-5.82,2.93-10.22,1.69-2.54,4.53-3.94,7.97-3.94.2,0,.4,0,.61.01,5.7.26,14.57,4.66,20.83,16.22,7.04,13,20.15,37.19,28.97,46.72l.39.42-2.32,2.15-.39-.42Z"/>
          <path class="st41" d="M125.61,191.78c.19,0,.39,0,.58.01,5.55.25,14.2,4.57,20.35,15.92,7.06,13.02,20.19,37.26,29.05,46.84l-1.48,1.37c-9.03-9.76-22.24-34.15-29.34-47.24-5.75-10.61-13.65-14.64-18.67-14.87-.16,0-.31-.01-.47-.01-2.56,0-4.63.98-5.84,2.79-2.49,3.74-2.5,8.71-2.5,8.76h-2.01c0-.21,0-5.62,2.83-9.88,1.59-2.39,4.24-3.69,7.5-3.69M125.61,190.63h0c-3.65,0-6.65,1.49-8.45,4.2-2.97,4.46-3.03,9.93-3.03,10.54v1.15s1.16,0,1.16,0h2.01s1.14-.02,1.14-.02v-1.14s.03-4.71,2.3-8.12c.98-1.47,2.72-2.28,4.89-2.28.14,0,.28,0,.42,0,4.72.22,12.19,4.08,17.71,14.27,7.12,13.14,20.38,37.61,29.51,47.48l.78.84.84-.78,1.48-1.37.84-.78-.78-.84c-8.77-9.48-21.85-33.63-28.88-46.6-6.38-11.77-15.46-16.25-21.31-16.52-.21,0-.42-.01-.63-.01h0Z"/>
        </g>
        <g>
          <polygon class="st2" points="302.19 256.86 302.19 283.62 316.67 307.26 427.09 307.26 427.55 270.41 389.09 256.16 302.19 256.86"/>
          <g class="st44">
            <path class="st30" d="M300.1,254.66l17.15,16.92v43.1l-11.82-12.63s-6.72-12.17-6.72-12.63-1.39-17.5-1.39-17.5l2.78-17.26Z"/>
            <path class="st17" d="M316.67,317.51l.58-45.94,113.31-1.04,4.87,40.2-12.17,8.11-45.53-5.33s-35.8-2.09-39.86.35c-4.06,2.43-21.2,3.65-21.2,3.65Z"/>
          </g>
          <polygon class="st13" points="302.19 256.86 302.19 283.62 316.67 307.26 427.09 307.26 427.55 270.41 389.09 256.16 302.19 256.86"/>
        </g>
        <polygon class="st40" points="324.56 283.59 324.52 278.62 329.29 278.73 331.25 280.66 331.29 283.64 324.56 283.59"/>
        <polygon class="st40" points="324.43 285.35 331.25 285.33 331.29 288.11 329.16 290.26 324.41 290.33 324.43 285.35"/>
        <polygon class="st8" points="334.1 279.03 354.69 279.08 354.6 289.81 334.18 289.94 334.1 279.03"/>
        <path class="st35" d="M325.99,282.49l3.7.05c.2,0,.32-.24.19-.39l-1.83-2.17c-.09-.11-.27-.11-.36,0l-1.86,2.12c-.13.15-.03.39.18.4Z"/>
        <path class="st35" d="M329.67,286.49l-3.7-.05c-.2,0-.32.24-.19.39l1.83,2.17c.09.11.27.11.36,0l1.86-2.12c.13-.15.03-.39-.18-.4Z"/>
        <path class="st16" d="M366.26,281.88l5.97.04c.13,0,.23.1.23.23v4.45c0,.13-.1.23-.23.23l-5.97-.04c-.13,0-.23-.1-.23-.23v-4.45c0-.13.1-.23.23-.23Z"/>
        <path class="st16" d="M388.94,281.97l5.97.04c.13,0,.23.1.23.23v4.45c0,.13-.1.23-.23.23l-5.97-.04c-.13,0-.23-.1-.23-.23v-4.45c0-.13.1-.23.23-.23Z"/>
        <path class="st16" d="M409.54,281.04h8.86c.32,0,.58.26.58.58l.02,5.9c0,.32-.26.59-.59.59l-8.86-.08c-.32,0-.58-.26-.58-.58l-.02-5.82c0-.32.26-.59.58-.59Z"/>
        <g>
          <circle class="st12" cx="349.2" cy="299.32" r="3.97"/>
          <circle class="st23" cx="349.2" cy="299.32" r="1.94"/>
          <circle class="st7" cx="360.79" cy="299.24" r="3.97"/>
          <circle class="st23" cx="360.79" cy="299.24" r="1.94"/>
        </g>
        <g>
          <circle class="st12" cx="373.76" cy="299.32" r="3.97"/>
          <circle class="st23" cx="373.76" cy="299.32" r="1.94"/>
          <circle class="st7" cx="385.35" cy="299.24" r="3.97"/>
          <circle class="st23" cx="385.35" cy="299.24" r="1.94"/>
        </g>
        <g>
          <circle class="st12" cx="398.31" cy="299.15" r="3.97"/>
          <circle class="st23" cx="398.31" cy="299.15" r="1.94"/>
          <circle class="st7" cx="409.9" cy="299.06" r="3.97"/>
          <circle class="st23" cx="409.9" cy="299.06" r="1.94"/>
        </g>
        <g>
          <circle class="st12" cx="324.58" cy="299.24" r="3.97"/>
          <circle class="st23" cx="324.58" cy="299.24" r="1.94"/>
          <circle class="st7" cx="336.17" cy="299.15" r="3.97"/>
          <circle class="st23" cx="336.17" cy="299.15" r="1.94"/>
        </g>
        <polygon class="st11" points="330.29 298.91 332.92 303.6 327.45 303.65 330.29 298.91"/>
        <polygon class="st11" points="354.95 298.91 357.58 303.6 352.11 303.65 354.95 298.91"/>
        <polygon class="st11" points="379.49 298.68 382.11 303.37 376.64 303.41 379.49 298.68"/>
        <polygon class="st11" points="404.08 298.63 406.71 303.33 401.23 303.37 404.08 298.63"/>
        <circle class="st32" cx="359.54" cy="280" r=".87"/>
        <circle class="st32" cx="359.54" cy="284.3" r=".87"/>
        <circle class="st32" cx="359.54" cy="288.65" r=".87"/>
        <circle class="st32" cx="383.07" cy="282.13" r=".87"/>
        <circle class="st32" cx="406.16" cy="284.59" r=".87"/>
        <circle class="st32" cx="383.07" cy="286.48" r=".87"/>
        <g>
          <line class="st12" x1="327.99" y1="295.89" x2="329.94" y2="295.88"/>
          <line class="st7" x1="330.86" y1="295.82" x2="332.8" y2="295.81"/>
          <line class="st7" x1="331.86" y1="296.97" x2="331.83" y2="294.66"/>
        </g>
        <g>
          <line class="st12" x1="352.68" y1="295.79" x2="354.63" y2="295.78"/>
          <line class="st7" x1="355.55" y1="295.72" x2="357.5" y2="295.71"/>
          <line class="st7" x1="356.55" y1="296.86" x2="356.52" y2="294.56"/>
        </g>
        <g>
          <line class="st12" x1="377.25" y1="295.82" x2="379.19" y2="295.81"/>
          <line class="st7" x1="380.12" y1="295.75" x2="382.06" y2="295.74"/>
          <line class="st7" x1="381.11" y1="296.89" x2="381.08" y2="294.59"/>
        </g>
        <g>
          <line class="st12" x1="401.87" y1="295.73" x2="403.81" y2="295.72"/>
          <line class="st7" x1="404.74" y1="295.67" x2="406.68" y2="295.65"/>
          <line class="st7" x1="405.74" y1="296.81" x2="405.7" y2="294.5"/>
        </g>
        <g>
          <path class="st38" d="M318.75,322.71c-8.28,0-17.03-1.04-22.25-1.67l-1.38-.16c-6.73-.79-17.42-4.22-19.53-8.01-7.55-13.56-10.68-52.08-11.23-59.66-.33-4.49-2.39-23.52-4.95-30.51l-.21-.57c-2.58-7.06-6.1-16.72-14.54-22.1-5.56-3.55-9.45-5.13-12.62-5.13-1.22,0-2.24.22-3.17.46-3.37.88-5.02,4.61-5.43,7.8l-.07.57-3.14-.41.07-.57c.55-4.21,2.88-9.17,7.77-10.45,1.47-.38,2.74-.56,4.02-.56,3.82,0,8.08,1.68,14.26,5.62,9.33,5.96,13.23,16.62,15.81,23.68l.21.57c2.71,7.42,4.79,26.6,5.13,31.37.54,7.47,3.61,45.37,10.84,58.35,1.12,2.02,9.8,5.56,17.14,6.41l1.39.16c5.16.62,13.79,1.64,21.89,1.64,4.15,0,7.64-.28,10.38-.83,4.33-.87,8.05-5.05,9.42-7.13,1.38-2.12,2.03-3.58,1.47-5.24-.14-.44-.35-.88-.63-1.35-.31.08-.63.11-.96.11-1.16,0-2.07-.47-2.11-.5l-.12-.06-3.31-4.61-.03-.12c-.23-1.05,0-2.11.65-2.91.65-.8,1.64-1.27,2.72-1.27.61,0,1.23.15,1.84.43l.12.06,3.06,3.72c.07.09,1.13,1.55.58,3.09.51.79.91,1.6,1.17,2.39,1.05,3.16-.39,5.77-1.83,7.97-1.73,2.65-6.09,7.43-11.44,8.51-2.94.59-6.65.89-11.01.89Z"/>
          <path class="st6" d="M232.09,192.31c3.45,0,7.45,1.39,13.95,5.53,9.17,5.85,13.02,16.41,15.58,23.39l.21.57c2.69,7.35,4.75,26.46,5.1,31.21.54,7.49,3.63,45.51,10.91,58.58,1.32,2.37,10.52,5.88,17.57,6.7l1.39.16c5.06.6,13.85,1.65,21.95,1.65,3.8,0,7.45-.23,10.49-.84,4.52-.91,8.37-5.23,9.78-7.38,1.45-2.21,2.16-3.86,1.54-5.74-.23-.68-.57-1.31-.93-1.85-.41.16-.83.22-1.21.22-1.03,0-1.84-.43-1.84-.43l-3.16-4.4c-.41-1.89.95-3.48,2.81-3.48.5,0,1.04.12,1.6.38l2.98,3.62s1.07,1.44.37,2.79c.48.7.96,1.56,1.28,2.51.97,2.92-.4,5.39-1.76,7.47-1.68,2.58-5.91,7.22-11.07,8.26-3.18.64-6.97.88-10.9.88-8.24,0-17.08-1.05-22.19-1.66l-1.38-.16c-6.45-.75-17.1-4.14-19.1-7.72-7.49-13.45-10.61-51.86-11.16-59.42-.33-4.5-2.4-23.62-4.98-30.66l-.21-.57c-2.6-7.13-6.17-16.9-14.77-22.39-6.43-4.11-10.12-5.22-12.93-5.22-1.22,0-2.27.21-3.31.48-3.65.95-5.42,4.9-5.86,8.28l-2-.26c.53-4.03,2.73-8.76,7.35-9.97,1.28-.33,2.54-.54,3.87-.54M232.09,191.16h0c-1.32,0-2.65.18-4.16.58-5.17,1.35-7.62,6.53-8.2,10.93l-.15,1.14,1.14.15,2,.26,1.14.15.15-1.14c.39-3.01,1.91-6.51,5.01-7.32.89-.23,1.87-.44,3.02-.44,3.05,0,6.84,1.56,12.31,5.04,8.27,5.28,11.76,14.83,14.31,21.81l.21.57c2.53,6.93,4.59,25.88,4.91,30.35.55,7.6,3.69,46.23,11.3,59.9,2.48,4.46,14.43,7.66,19.97,8.31l1.38.16c5.24.62,14.01,1.67,22.32,1.67,4.41,0,8.15-.3,11.13-.9,5.53-1.12,10.02-6.03,11.81-8.76,1.09-1.67,3.12-4.78,1.89-8.47-.25-.76-.62-1.53-1.09-2.3.35-1.36-.25-2.69-.72-3.33l-.02-.02-.02-.02-2.98-3.62-.16-.2-.23-.11c-.68-.32-1.39-.49-2.09-.49-1.25,0-2.41.54-3.17,1.48-.75.93-1.03,2.17-.77,3.39l.05.23.14.19,3.16,4.4.16.22.24.13c.11.06,1.09.56,2.38.56.22,0,.44-.02.66-.05.16.3.29.6.39.89.43,1.28.07,2.48-1.41,4.74-1.53,2.34-5.2,6.11-9.05,6.89-2.7.54-6.16.82-10.27.82-8.05,0-16.67-1.03-21.82-1.64l-1.39-.16c-7.57-.89-15.77-4.44-16.7-6.12-7.17-12.87-10.23-50.66-10.77-58.11-.35-4.79-2.43-24.06-5.17-31.52l-.21-.57c-2.6-7.13-6.54-17.91-16.04-23.97-6.28-4-10.64-5.71-14.57-5.71h0Z"/>
        </g>
        <g>
          <path class="st4" d="M301.19,312.79c-.83,0-1.56-.02-2.23-.07-11.05-.72-28.02-5.84-32.92-7.75-1.7-.66-5.99-2.23-10.96-4.05-14.32-5.24-25.41-9.32-27.02-10.34l-.49-.31,1.69-2.68.49.31c1.45.91,17.02,6.6,26.32,10l.11.04c4.77,1.74,9.27,3.39,11.02,4.08,4.76,1.86,21.26,6.84,31.97,7.54.63.04,1.33.06,2.08.06,5.3,0,12.53-1.07,15.18-1.8,2.7-.75,6.6-2.44,8.23-3.32l-.08-.04-3.31-4.61-.03-.12c-.23-1.05,0-2.11.65-2.91.65-.8,1.64-1.27,2.72-1.27.61,0,1.23.15,1.84.43l.12.06,3.06,3.72c.66.88,1.42,2.9-.33,4.37-.25.21-.51.37-.82.51-.22.83-.63,1.48-1.2,1.94-1.35,1.06-6.77,3.38-10,4.28-2.88.8-10.39,1.92-16.08,1.92Z"/>
          <path class="st41" d="M229.44,288.39c1.5.95,16.57,6.45,26.53,10.1,4.99,1.82,9.3,3.4,11.01,4.07,4.78,1.87,21.37,6.88,32.14,7.58.66.04,1.37.06,2.11.06,5.49,0,12.71-1.1,15.34-1.82,3.19-.89,8.21-3.12,9.09-3.82.06-.05.1-.15.15-.23-.52-.13-.86-.31-.86-.31l-3.16-4.4c-.41-1.89.95-3.48,2.81-3.48.5,0,1.04.12,1.6.38l2.98,3.62s1.54,2.06-.26,3.56c-.31.26-.63.42-.94.54-.14.7-.44,1.41-1.07,1.91-1.28,1.01-6.68,3.31-9.8,4.18-2.73.76-10.23,1.9-15.93,1.9-.77,0-1.5-.02-2.19-.07-10.99-.72-27.88-5.81-32.74-7.71-1.69-.66-5.99-2.23-10.97-4.05-13.8-5.05-25.36-9.3-26.91-10.28l1.07-1.7M229.08,286.8l-.61.97-1.07,1.7-.61.97.97.61c1.52.95,10.33,4.25,27.13,10.39l.06.02c4.94,1.81,9.21,3.37,10.88,4.02,4.91,1.92,21.97,7.06,33.09,7.79.68.05,1.43.07,2.27.07,5.74,0,13.33-1.13,16.24-1.94,3-.83,8.7-3.2,10.2-4.38.61-.49,1.06-1.15,1.33-1.99.26-.14.49-.29.71-.48,1.93-1.62,1.32-3.96.44-5.13l-.02-.02-.02-.02-2.98-3.62-.16-.2-.23-.11c-.68-.32-1.39-.49-2.09-.49-1.25,0-2.41.54-3.17,1.48-.75.93-1.03,2.17-.76,3.39l.05.23.14.19,2.89,4.03c-1.78.88-5.06,2.27-7.49,2.95-2.62.73-9.77,1.78-15.03,1.78-.74,0-1.42-.02-2.04-.06-10.65-.7-27.06-5.65-31.8-7.5-1.74-.68-6.05-2.25-11.04-4.08l-.09-.03c-8.68-3.17-24.83-9.08-26.22-9.96l-.97-.61h0Z"/>
        </g>
        <g>
          <path class="st34" d="M74.75,247.94l-.46-12.98,34.76-6.6s-.35-10.43,0-12.63.35-3.48.35-3.48h3.71v-5.45l1.85-3.82h2.9l2.09,3.94v5.68h2.09s1.39,5.79.81,12.4c2.9-7.07,7.65-6.84,7.65-6.84,0,0,71.95-.35,75.89,0,3.94.35,3.94,2.55,5.45,4.52,1.51,1.97,3.48,5.79,3.48,5.79v-15.06h2.9v-6.49l1.97-3.59h3.24l1.74,4.4v5.79h2.9v14.83l16.8.23.12,10.89-1.51,8.46-11.35.12v55.63c0,.15-.01.29-.04.44l-4.21,23.75c-.16.88-.92,1.52-1.81,1.51l-26.96-.11-1.27-2.78-68.82.23-4.49,3.13c-.32.22-.71.34-1.1.33l-27.44-.76c-.65-.02-1.17-.54-1.19-1.19l-2.17-80.18-17.84-.12Z"/>
          <g class="st26">
            <path class="st1" d="M93.17,333.91l-1.39-93.85,138.46-.58s5.21,15.06,5.21,15.41,6.02,15.53,6.02,27,.93,22.83-.23,29.89c-1.16,7.07-2.9,15.87-5.68,19.7-2.78,3.82,3.48,4.17-12.17,6.6-15.64,2.43-130.23-4.17-130.23-4.17Z"/>
            <path class="st39" d="M131.52,306.91l2.44-.68c.45-.13.9.19.94.65l.34,4.05c.03.31-.13.6-.4.74l-2.87,1.52-.45-6.27Z"/>
            <path class="st22" d="M199.57,311.88l-.12-4.12c-.02-.59.46-1.08,1.05-1.08h7.67l.46,6.37-8.03-.15c-.56-.01-1.01-.46-1.03-1.02Z"/>
            <path class="st22" d="M132.62,312.2l-.28-4.74c-.03-.54-.47-.96-1.01-.97l-5.44-.08c-.59,0-1.07.48-1.05,1.06l.16,4.87c.02.56.48,1,1.04,1l5.56-.04c.59,0,1.06-.5,1.02-1.09Z"/>
            <polyline class="st15" points="91.09 332.17 121.15 305.58 251.5 305.58"/>
            <g>
              <polygon class="st18" points="193.98 251.42 193.98 247.58 192.16 247.58 192.16 251.42 187.52 251.42 187.52 247.58 185.7 247.58 185.7 251.42 181.07 251.42 181.07 247.58 179.25 247.58 179.25 251.42 174.66 251.42 174.66 247.58 172.84 247.58 172.84 251.42 168.21 251.42 168.21 247.58 166.39 247.58 166.39 251.42 161.71 251.42 161.71 247.58 159.89 247.58 159.89 251.42 155.25 251.42 155.25 247.58 153.44 247.58 153.44 251.42 148.78 251.42 148.78 247.58 146.96 247.58 146.96 251.42 142.32 251.42 142.32 247.58 140.51 247.58 140.51 251.42 135.91 251.42 135.91 247.58 134.09 247.58 134.09 251.42 134.08 251.42 134.08 317.11 194.08 317.11 194.08 251.42 193.98 251.42"/>
              <g class="st42">
                <g class="st21">
                  <path class="st27" d="M140.49,318.03h-4.62v-66.96h4.62v66.96ZM146.95,251.07h-4.62v66.96h4.62v-66.96ZM153.41,251.07h-4.62v66.96h4.62v-66.96ZM159.87,251.07h-4.62v66.96h4.62v-66.96ZM166.33,251.07h-4.62v66.96h4.62v-66.96ZM172.79,251.07h-4.62v66.96h4.62v-66.96ZM179.25,251.07h-4.62v66.96h4.62v-66.96ZM185.71,251.07h-4.62v66.96h4.62v-66.96ZM192.17,251.07h-4.62v66.96h4.62v-66.96Z"/>
                  <g class="st33">
                    <rect class="st25" x="135.2" y="258.65" width="5.91" height="1.08"/>
                    <rect class="st25" x="135.48" y="266.07" width="6.05" height="1.27"/>
                    <rect class="st25" x="134.64" y="276.54" width="6.43" height=".99"/>
                    <rect class="st25" x="141.54" y="272.22" width="6.15" height=".84"/>
                    <rect class="st25" x="141.58" y="278.04" width="6.2" height="3.14"/>
                    <rect class="st25" x="142.1" y="262.69" width="5.12" height=".89"/>
                    <rect class="st25" x="141.77" y="258.61" width="5.82" height="1.03"/>
                    <rect class="st25" x="141.82" y="253.26" width="6.2" height=".8"/>
                    <rect class="st25" x="148.2" y="258.28" width="5.96" height="1.36"/>
                    <rect class="st25" x="148.16" y="254.52" width="5.82" height=".8"/>
                    <rect class="st25" x="148.11" y="266.02" width="5.96" height=".7"/>
                    <rect class="st25" x="148.25" y="279.87" width="6.15" height="2.21"/>
                    <rect class="st25" x="147.97" y="289.54" width="6.38" height=".99"/>
                    <rect class="st25" x="155.01" y="254.43" width="5.49" height=".94"/>
                    <rect class="st25" x="154.4" y="261.89" width="6.2" height="1.83"/>
                    <rect class="st25" x="154.77" y="269.4" width="5.68" height="1.5"/>
                    <rect class="st24" x="154.68" y="275.27" width="5.87" height="5.02"/>
                    <rect class="st24" x="154.77" y="285.69" width="6.38" height=".42"/>
                    <rect class="st24" x="134.69" y="270.11" width="6.2" height="4.46"/>
                    <rect class="st24" x="142.05" y="255.09" width="5.49" height="1.88"/>
                    <rect class="st24" x="161.61" y="257.74" width="5.02" height="8.5"/>
                    <rect class="st24" x="167.49" y="274.05" width="6.1" height="5.68"/>
                    <rect class="st24" x="174.2" y="264.24" width="5.96" height="3.57"/>
                    <rect class="st24" x="174.3" y="276.58" width="5.68" height="2.49"/>
                    <rect class="st24" x="174.25" y="256.31" width="5.54" height="2.58"/>
                    <rect class="st24" x="186.97" y="256.21" width="8.54" height="2.25"/>
                    <rect class="st24" x="180.45" y="264.38" width="5.96" height="3.71"/>
                    <rect class="st24" x="180.35" y="255.7" width="6.1" height=".8"/>
                    <rect class="st24" x="180.54" y="282.26" width="5.91" height="2.49"/>
                    <rect class="st25" x="187.02" y="274.71" width="5.91" height="2.49"/>
                    <rect class="st25" x="186.97" y="261.71" width="6.15" height=".99"/>
                    <rect class="st25" x="186.92" y="264.57" width="6.48" height="1.03"/>
                    <rect class="st25" x="186.69" y="279.82" width="9.06" height="3.14"/>
                    <rect class="st25" x="180.21" y="277.71" width="6.15" height=".94"/>
                    <rect class="st25" x="180.26" y="286.11" width="7.04" height="2.07"/>
                    <rect class="st25" x="180.78" y="270.01" width="5.63" height="1.03"/>
                    <rect class="st25" x="180.68" y="258.89" width="5.87" height="1.83"/>
                    <rect class="st25" x="167.49" y="263.96" width="6.66" height="1.17"/>
                    <rect class="st25" x="160.78" y="255.46" width="5.87" height="1.74"/>
                    <rect class="st25" x="161.11" y="267.43" width="6.48" height="1.03"/>
                    <rect class="st25" x="160.92" y="279.59" width="6.24" height=".94"/>
                    <rect class="st25" x="167.82" y="282.03" width="5.82" height="1.17"/>
                    <rect class="st25" x="167.31" y="271.8" width="6.24" height="1.31"/>
                    <rect class="st25" x="174.16" y="270.58" width="5.63" height="1.03"/>
                    <rect class="st25" x="173.83" y="273.49" width="6.01" height="1.22"/>
                    <rect class="st25" x="173.92" y="281.75" width="5.96" height=".75"/>
                    <rect class="st25" x="173.88" y="291.37" width="6.05" height="8.63"/>
                  </g>
                </g>
              </g>
              <polygon class="st10" points="193.98 251.42 193.98 247.58 192.16 247.58 192.16 251.42 187.52 251.42 187.52 247.58 185.7 247.58 185.7 251.42 181.07 251.42 181.07 247.58 179.25 247.58 179.25 251.42 174.66 251.42 174.66 247.58 172.84 247.58 172.84 251.42 168.21 251.42 168.21 247.58 166.39 247.58 166.39 251.42 161.71 251.42 161.71 247.58 159.89 247.58 159.89 251.42 155.25 251.42 155.25 247.58 153.44 247.58 153.44 251.42 148.78 251.42 148.78 247.58 146.96 247.58 146.96 251.42 142.32 251.42 142.32 247.58 140.51 247.58 140.51 251.42 135.91 251.42 135.91 247.58 134.09 247.58 134.09 251.42 134.08 251.42 134.08 317.11 194.08 317.11 194.08 251.42 193.98 251.42"/>
            </g>
            <polygon class="st0" points="118.46 321.22 207.01 321.57 208.31 314.27 124.98 315.14 119.76 316.18 118.46 321.22"/>
            <polygon class="st22" points="127.41 239.71 129.24 312.62 122.11 316.96 121.24 244.75 119.42 243.97 118.72 239.97 127.41 239.71"/>
            <path class="st37" d="M104.16,242.84c-.74.53-1.17,1.38-1.14,2.29.28,7.73,1.61,44.51,2.19,63.96.14,4.85.2,8.62.22,10.59,0,.85.69,1.53,1.55,1.55,1.51.03,3.95.08,6.51.14,2.5.05,5.04.1,6.76.14,1.16.02,2.1-.91,2.09-2.05l-.79-74.58c0-.7-.49-1.32-1.17-1.5h0c-.36-.1-.62-.42-.64-.79l-.09-2.07-12.54.23-2.95,2.09Z"/>
            <path class="st37" d="M208.93,243.13l.81-.08c1.06-.11,1.81-1.1,1.64-2.15l-.2-1.18,15.38-.35,1.48,1.74-.85,78.83c0,.81-.66,1.47-1.48,1.48l-24.92.31c-.83.01-1.51-.66-1.51-1.49v-3.81c0-.77.59-1.42,1.36-1.49l6-.53c.85-.07,1.5-.79,1.49-1.64l-.58-68.08c0-.8.59-1.47,1.38-1.55Z"/>
            <polygon class="st5" points="92.89 248.17 111.16 240.15 236.81 240.32 238.29 248.14 92.3 248.75 92.89 248.17"/>
            <path class="st20" d="M227.46,332.98l.35-84.81,13.44-.23s-.35,22.48-.12,24.33c.23,1.85,1.74,22.71,1.74,22.71,0,0,.7,6.49-.58,12.74-1.27,6.26-.46,13.9-3.48,17.5-3.01,3.59-11.35,7.76-11.35,7.76Z"/>
            <polygon class="st43" points="92.52 241.19 92.61 251.66 85.53 254.31 75.45 251.27 71.45 248.92 71.88 235.19 242.64 235.31 242.9 250.49 233.95 248.31 232.64 247.97 226.21 247.97 226.21 240.67 92.52 241.19"/>
            <path class="st36" d="M245.36,226.73l-2.72,8.57.29,15.99s3.24-2.03,3.94-3.48c.7-1.45,2.66-7.53,3.13-10.14.46-2.61.41-5.04.06-5.39s-4.69-5.56-4.69-5.56Z"/>
            <path class="st19" d="M125.62,226.73s1.56-4.92,4.17-4.98,74.21.06,75.25.06,3.82,3.71,4.23,4.98c-2.55.06-83.65-.06-83.65-.06Z"/>
            <path class="st19" d="M212.63,213.58l16.34.52s-.64-7.65-1.27-7.65-3.19-2.43-3.19-2.43l-1.85-1.22s.93,6.6.81,8.11c-.12,1.51-9.96,1.33-9.96,1.33l-.87,1.33Z"/>
            <path class="st19" d="M107.54,212.83l16.34.52s-.64-7.65-1.27-7.65-3.19-2.43-3.19-2.43l-1.85-1.22s.93,6.6.81,8.11-9.96,1.33-9.96,1.33l-.87,1.33Z"/>
            <path class="st19" d="M119.18,229.05l-.29-16.74,4.4-.29s2.84,5.74,3.01,5.68,4.11-.23,4.11-.23l1.1.75s-2.49.87-4.81,3.42c-2.32,2.55-3.24,7.36-3.24,7.36l-4.29.06Z"/>
            <path class="st19" d="M197.91,217.29s7.65.64,9.56,3.19,6.66,9.33,6.66,9.33l.41.12.98-1.22s-1.68-7.65-2.2-7.94-4.23-6.26-4.23-6.26l-5.27-2.49-1.22.23-4.69,5.04Z"/>
            <path class="st19" d="M225.14,213.58v15.35l5.97-.35s3.36-1.68,3.13-2.43-.58-3.48-.64-6.02c-.06-2.55-.75-7.99-1.04-8.17s-5.79-.35-5.79-.35l-.96,2-.67-.03Z"/>
            <path class="st31" d="M85.01,253.61v5.56l-3.3,5.21s-1.56,7.3-1.56,8.52v52.83c0,.52,10.6,16.16,11.64,16.51s31.98,7.3,37.89,6.95c5.91-.35,55.27-2.78,70.39-5.04,15.12-2.26,39.1-1.74,40.32-2.43s10.6-13.73,10.6-14.42,1.56-30.76,1.56-30.76l-2.95-48.66-157.89.7-6.69,5.04Z"/>
          </g>
          <path class="st14" d="M74.75,247.94l-.46-12.98,34.76-6.6s-.35-10.43,0-12.63.35-3.48.35-3.48h3.71v-5.45l1.85-3.82h2.9l2.09,3.94v5.68h2.09s1.39,5.79.81,12.4c2.9-7.07,7.65-6.84,7.65-6.84,0,0,71.95-.35,75.89,0,3.94.35,3.94,2.55,5.45,4.52,1.51,1.97,3.48,5.79,3.48,5.79v-15.06h2.9v-6.49l1.97-3.59h3.24l1.74,4.4v5.79h2.9v14.83l16.8.23.12,10.89-1.51,8.46-11.35.12v55.63c0,.15-.01.29-.04.44l-4.21,23.75c-.16.88-.92,1.52-1.81,1.51l-26.96-.11-1.27-2.78-68.82.23-4.49,3.13c-.32.22-.71.34-1.1.33l-27.44-.76c-.65-.02-1.17-.54-1.19-1.19l-2.17-80.18-17.84-.12Z"/>
        </g>
      </g>
    </g>
  </g>
</svg>